%TF.GenerationSoftware,KiCad,Pcbnew,6.0.11-2627ca5db0~126~ubuntu20.04.1*%
%TF.CreationDate,2023-04-18T12:09:56-05:00*%
%TF.ProjectId,me2188c-slim,6d653231-3838-4632-9d73-6c696d2e6b69,rev?*%
%TF.SameCoordinates,Original*%
%TF.FileFunction,Copper,L2,Bot*%
%TF.FilePolarity,Positive*%
%FSLAX46Y46*%
G04 Gerber Fmt 4.6, Leading zero omitted, Abs format (unit mm)*
G04 Created by KiCad (PCBNEW 6.0.11-2627ca5db0~126~ubuntu20.04.1) date 2023-04-18 12:09:56*
%MOMM*%
%LPD*%
G01*
G04 APERTURE LIST*
%TA.AperFunction,Profile*%
%ADD10C,0.100000*%
%TD*%
%TA.AperFunction,ComponentPad*%
%ADD11R,1.700000X1.700000*%
%TD*%
%TA.AperFunction,ComponentPad*%
%ADD12O,1.700000X1.700000*%
%TD*%
G04 APERTURE END LIST*
D10*
X115700000Y-100000000D02*
X115700000Y-115700000D01*
X100000000Y-100000000D02*
X100000000Y-115700000D01*
X100000000Y-100000000D02*
X115700000Y-100000000D01*
X100000000Y-115700000D02*
X115700000Y-115700000D01*
D11*
%TO.P,J1,1,Pin_1*%
%TO.N,Net-(U1-Pad1)*%
X103987000Y-113800000D03*
D12*
%TO.P,J1,2,Pin_2*%
%TO.N,Net-(C2-Pad1)*%
X106527000Y-113800000D03*
%TO.P,J1,3,Pin_3*%
%TO.N,GND*%
X109067000Y-113800000D03*
%TO.P,J1,4,Pin_4*%
%TO.N,Net-(C1-Pad1)*%
X111607000Y-113800000D03*
%TD*%
%TA.AperFunction,Conductor*%
%TO.N,GND*%
G36*
X115387621Y-100274502D02*
G01*
X115434114Y-100328158D01*
X115445500Y-100380500D01*
X115445500Y-115319500D01*
X115425498Y-115387621D01*
X115371842Y-115434114D01*
X115319500Y-115445500D01*
X100380500Y-115445500D01*
X100312379Y-115425498D01*
X100265886Y-115371842D01*
X100254500Y-115319500D01*
X100254500Y-112924933D01*
X102882500Y-112924933D01*
X102882501Y-114675066D01*
X102897266Y-114749301D01*
X102904161Y-114759620D01*
X102904162Y-114759622D01*
X102944516Y-114820015D01*
X102953516Y-114833484D01*
X103037699Y-114889734D01*
X103111933Y-114904500D01*
X103986858Y-114904500D01*
X104862066Y-114904499D01*
X104897818Y-114897388D01*
X104924126Y-114892156D01*
X104924128Y-114892155D01*
X104936301Y-114889734D01*
X104946621Y-114882839D01*
X104946622Y-114882838D01*
X105010168Y-114840377D01*
X105020484Y-114833484D01*
X105076734Y-114749301D01*
X105091500Y-114675067D01*
X105091499Y-113770964D01*
X105418148Y-113770964D01*
X105431424Y-113973522D01*
X105432845Y-113979118D01*
X105432846Y-113979123D01*
X105453119Y-114058945D01*
X105481392Y-114170269D01*
X105483809Y-114175512D01*
X105521010Y-114256208D01*
X105566377Y-114354616D01*
X105683533Y-114520389D01*
X105828938Y-114662035D01*
X105997720Y-114774812D01*
X106003023Y-114777090D01*
X106003026Y-114777092D01*
X106178921Y-114852662D01*
X106184228Y-114854942D01*
X106257244Y-114871464D01*
X106376579Y-114898467D01*
X106376584Y-114898468D01*
X106382216Y-114899742D01*
X106387987Y-114899969D01*
X106387989Y-114899969D01*
X106447756Y-114902317D01*
X106585053Y-114907712D01*
X106692348Y-114892155D01*
X106780231Y-114879413D01*
X106780236Y-114879412D01*
X106785945Y-114878584D01*
X106791409Y-114876729D01*
X106791414Y-114876728D01*
X106972693Y-114815192D01*
X106972698Y-114815190D01*
X106978165Y-114813334D01*
X107155276Y-114714147D01*
X107194969Y-114681135D01*
X107282696Y-114608172D01*
X107311345Y-114584345D01*
X107441147Y-114428276D01*
X107540334Y-114251165D01*
X107542720Y-114244135D01*
X107543170Y-114243496D01*
X107544541Y-114240416D01*
X107545146Y-114240685D01*
X107583553Y-114186059D01*
X107649305Y-114159278D01*
X107719098Y-114172295D01*
X107770773Y-114220980D01*
X107778777Y-114237229D01*
X107848770Y-114409603D01*
X107853413Y-114418794D01*
X107964694Y-114600388D01*
X107970777Y-114608699D01*
X108110213Y-114769667D01*
X108117580Y-114776883D01*
X108281434Y-114912916D01*
X108289881Y-114918831D01*
X108473756Y-115026279D01*
X108483042Y-115030729D01*
X108682001Y-115106703D01*
X108691899Y-115109579D01*
X108795250Y-115130606D01*
X108809299Y-115129410D01*
X108813000Y-115119065D01*
X108813000Y-115118517D01*
X109321000Y-115118517D01*
X109325064Y-115132359D01*
X109338478Y-115134393D01*
X109345184Y-115133534D01*
X109355262Y-115131392D01*
X109559255Y-115070191D01*
X109568842Y-115066433D01*
X109760095Y-114972739D01*
X109768945Y-114967464D01*
X109942328Y-114843792D01*
X109950200Y-114837139D01*
X110101052Y-114686812D01*
X110107730Y-114678965D01*
X110232003Y-114506020D01*
X110237313Y-114497183D01*
X110331670Y-114306267D01*
X110335469Y-114296672D01*
X110352066Y-114242047D01*
X110391007Y-114182683D01*
X110455862Y-114153796D01*
X110526038Y-114164558D01*
X110579256Y-114211551D01*
X110587048Y-114225922D01*
X110646377Y-114354616D01*
X110763533Y-114520389D01*
X110908938Y-114662035D01*
X111077720Y-114774812D01*
X111083023Y-114777090D01*
X111083026Y-114777092D01*
X111258921Y-114852662D01*
X111264228Y-114854942D01*
X111337244Y-114871464D01*
X111456579Y-114898467D01*
X111456584Y-114898468D01*
X111462216Y-114899742D01*
X111467987Y-114899969D01*
X111467989Y-114899969D01*
X111527756Y-114902317D01*
X111665053Y-114907712D01*
X111772348Y-114892155D01*
X111860231Y-114879413D01*
X111860236Y-114879412D01*
X111865945Y-114878584D01*
X111871409Y-114876729D01*
X111871414Y-114876728D01*
X112052693Y-114815192D01*
X112052698Y-114815190D01*
X112058165Y-114813334D01*
X112235276Y-114714147D01*
X112274969Y-114681135D01*
X112362696Y-114608172D01*
X112391345Y-114584345D01*
X112521147Y-114428276D01*
X112620334Y-114251165D01*
X112622190Y-114245698D01*
X112622192Y-114245693D01*
X112683728Y-114064414D01*
X112683729Y-114064409D01*
X112685584Y-114058945D01*
X112686412Y-114053236D01*
X112686413Y-114053231D01*
X112714179Y-113861727D01*
X112714712Y-113858053D01*
X112716232Y-113800000D01*
X112697658Y-113597859D01*
X112696090Y-113592299D01*
X112644125Y-113408046D01*
X112644124Y-113408044D01*
X112642557Y-113402487D01*
X112631978Y-113381033D01*
X112555331Y-113225609D01*
X112552776Y-113220428D01*
X112431320Y-113057779D01*
X112282258Y-112919987D01*
X112277375Y-112916906D01*
X112277371Y-112916903D01*
X112115464Y-112814748D01*
X112110581Y-112811667D01*
X111922039Y-112736446D01*
X111916379Y-112735320D01*
X111916375Y-112735319D01*
X111728613Y-112697971D01*
X111728610Y-112697971D01*
X111722946Y-112696844D01*
X111717171Y-112696768D01*
X111717167Y-112696768D01*
X111615793Y-112695441D01*
X111519971Y-112694187D01*
X111514274Y-112695166D01*
X111514273Y-112695166D01*
X111426397Y-112710266D01*
X111319910Y-112728564D01*
X111129463Y-112798824D01*
X110955010Y-112902612D01*
X110950670Y-112906418D01*
X110950666Y-112906421D01*
X110806733Y-113032648D01*
X110802392Y-113036455D01*
X110676720Y-113195869D01*
X110674031Y-113200980D01*
X110674029Y-113200983D01*
X110584589Y-113370980D01*
X110535170Y-113421952D01*
X110466037Y-113438115D01*
X110399141Y-113414336D01*
X110359003Y-113359973D01*
X110356955Y-113360863D01*
X110269972Y-113160814D01*
X110265105Y-113151739D01*
X110149426Y-112972926D01*
X110143136Y-112964757D01*
X109999806Y-112807240D01*
X109992273Y-112800215D01*
X109825139Y-112668222D01*
X109816552Y-112662517D01*
X109630117Y-112559599D01*
X109620705Y-112555369D01*
X109419959Y-112484280D01*
X109409988Y-112481646D01*
X109338837Y-112468972D01*
X109325540Y-112470432D01*
X109321000Y-112484989D01*
X109321000Y-115118517D01*
X108813000Y-115118517D01*
X108813000Y-112483102D01*
X108809082Y-112469758D01*
X108794806Y-112467771D01*
X108756324Y-112473660D01*
X108746288Y-112476051D01*
X108543868Y-112542212D01*
X108534359Y-112546209D01*
X108345463Y-112644542D01*
X108336738Y-112650036D01*
X108166433Y-112777905D01*
X108158726Y-112784748D01*
X108011590Y-112938717D01*
X108005104Y-112946727D01*
X107885098Y-113122649D01*
X107880000Y-113131623D01*
X107790338Y-113324783D01*
X107786777Y-113334464D01*
X107782291Y-113350640D01*
X107744813Y-113410939D01*
X107680684Y-113441403D01*
X107610266Y-113432360D01*
X107555915Y-113386682D01*
X107547867Y-113372698D01*
X107475331Y-113225609D01*
X107472776Y-113220428D01*
X107351320Y-113057779D01*
X107202258Y-112919987D01*
X107197375Y-112916906D01*
X107197371Y-112916903D01*
X107035464Y-112814748D01*
X107030581Y-112811667D01*
X106842039Y-112736446D01*
X106836379Y-112735320D01*
X106836375Y-112735319D01*
X106648613Y-112697971D01*
X106648610Y-112697971D01*
X106642946Y-112696844D01*
X106637171Y-112696768D01*
X106637167Y-112696768D01*
X106535793Y-112695441D01*
X106439971Y-112694187D01*
X106434274Y-112695166D01*
X106434273Y-112695166D01*
X106346397Y-112710266D01*
X106239910Y-112728564D01*
X106049463Y-112798824D01*
X105875010Y-112902612D01*
X105870670Y-112906418D01*
X105870666Y-112906421D01*
X105726733Y-113032648D01*
X105722392Y-113036455D01*
X105596720Y-113195869D01*
X105594031Y-113200980D01*
X105594029Y-113200983D01*
X105581073Y-113225609D01*
X105502203Y-113375515D01*
X105442007Y-113569378D01*
X105418148Y-113770964D01*
X105091499Y-113770964D01*
X105091499Y-112924934D01*
X105076734Y-112850699D01*
X105050654Y-112811667D01*
X105027377Y-112776832D01*
X105020484Y-112766516D01*
X104936301Y-112710266D01*
X104862067Y-112695500D01*
X103987142Y-112695500D01*
X103111934Y-112695501D01*
X103076182Y-112702612D01*
X103049874Y-112707844D01*
X103049872Y-112707845D01*
X103037699Y-112710266D01*
X103027379Y-112717161D01*
X103027378Y-112717162D01*
X102966985Y-112757516D01*
X102953516Y-112766516D01*
X102897266Y-112850699D01*
X102882500Y-112924933D01*
X100254500Y-112924933D01*
X100254500Y-100380500D01*
X100274502Y-100312379D01*
X100328158Y-100265886D01*
X100380500Y-100254500D01*
X115319500Y-100254500D01*
X115387621Y-100274502D01*
G37*
%TD.AperFunction*%
%TD*%
M02*
