%TF.GenerationSoftware,KiCad,Pcbnew,6.0.11-2627ca5db0~126~ubuntu20.04.1*%
%TF.CreationDate,2023-04-18T12:09:56-05:00*%
%TF.ProjectId,me2188c-slim,6d653231-3838-4632-9d73-6c696d2e6b69,rev?*%
%TF.SameCoordinates,Original*%
%TF.FileFunction,Copper,L1,Top*%
%TF.FilePolarity,Positive*%
%FSLAX46Y46*%
G04 Gerber Fmt 4.6, Leading zero omitted, Abs format (unit mm)*
G04 Created by KiCad (PCBNEW 6.0.11-2627ca5db0~126~ubuntu20.04.1) date 2023-04-18 12:09:56*
%MOMM*%
%LPD*%
G01*
G04 APERTURE LIST*
G04 Aperture macros list*
%AMRoundRect*
0 Rectangle with rounded corners*
0 $1 Rounding radius*
0 $2 $3 $4 $5 $6 $7 $8 $9 X,Y pos of 4 corners*
0 Add a 4 corners polygon primitive as box body*
4,1,4,$2,$3,$4,$5,$6,$7,$8,$9,$2,$3,0*
0 Add four circle primitives for the rounded corners*
1,1,$1+$1,$2,$3*
1,1,$1+$1,$4,$5*
1,1,$1+$1,$6,$7*
1,1,$1+$1,$8,$9*
0 Add four rect primitives between the rounded corners*
20,1,$1+$1,$2,$3,$4,$5,0*
20,1,$1+$1,$4,$5,$6,$7,0*
20,1,$1+$1,$6,$7,$8,$9,0*
20,1,$1+$1,$8,$9,$2,$3,0*%
G04 Aperture macros list end*
%TA.AperFunction,Profile*%
%ADD10C,0.100000*%
%TD*%
%TA.AperFunction,ComponentPad*%
%ADD11R,1.700000X1.700000*%
%TD*%
%TA.AperFunction,ComponentPad*%
%ADD12O,1.700000X1.700000*%
%TD*%
%TA.AperFunction,SMDPad,CuDef*%
%ADD13RoundRect,0.250000X0.337500X0.475000X-0.337500X0.475000X-0.337500X-0.475000X0.337500X-0.475000X0*%
%TD*%
%TA.AperFunction,SMDPad,CuDef*%
%ADD14RoundRect,0.250000X-1.025000X0.875000X-1.025000X-0.875000X1.025000X-0.875000X1.025000X0.875000X0*%
%TD*%
%TA.AperFunction,SMDPad,CuDef*%
%ADD15R,0.650000X1.560000*%
%TD*%
%TA.AperFunction,SMDPad,CuDef*%
%ADD16R,1.750000X4.500000*%
%TD*%
%TA.AperFunction,SMDPad,CuDef*%
%ADD17RoundRect,0.250000X-0.337500X-0.475000X0.337500X-0.475000X0.337500X0.475000X-0.337500X0.475000X0*%
%TD*%
%TA.AperFunction,Conductor*%
%ADD18C,0.250000*%
%TD*%
G04 APERTURE END LIST*
D10*
X115700000Y-100000000D02*
X115700000Y-115700000D01*
X100000000Y-100000000D02*
X100000000Y-115700000D01*
X100000000Y-100000000D02*
X115700000Y-100000000D01*
X100000000Y-115700000D02*
X115700000Y-115700000D01*
D11*
%TO.P,J1,1,Pin_1*%
%TO.N,Net-(U1-Pad1)*%
X103987000Y-113800000D03*
D12*
%TO.P,J1,2,Pin_2*%
%TO.N,Net-(C2-Pad1)*%
X106527000Y-113800000D03*
%TO.P,J1,3,Pin_3*%
%TO.N,GND*%
X109067000Y-113800000D03*
%TO.P,J1,4,Pin_4*%
%TO.N,Net-(C1-Pad1)*%
X111607000Y-113800000D03*
%TD*%
D13*
%TO.P,C4,1*%
%TO.N,Net-(C1-Pad1)*%
X114145500Y-101650000D03*
%TO.P,C4,2*%
%TO.N,GND*%
X112070500Y-101650000D03*
%TD*%
D14*
%TO.P,C1,1*%
%TO.N,Net-(C1-Pad1)*%
X113108000Y-104100000D03*
%TO.P,C1,2*%
%TO.N,GND*%
X113108000Y-110500000D03*
%TD*%
D15*
%TO.P,U1,1,CE*%
%TO.N,Net-(U1-Pad1)*%
X106850000Y-110650000D03*
%TO.P,U1,2,VOUT*%
%TO.N,Net-(C2-Pad1)*%
X107800000Y-110650000D03*
%TO.P,U1,3,NC*%
%TO.N,unconnected-(U1-Pad3)*%
X108750000Y-110650000D03*
%TO.P,U1,4,GND*%
%TO.N,GND*%
X108750000Y-107950000D03*
%TO.P,U1,5,LX*%
%TO.N,Net-(L1-Pad2)*%
X106850000Y-107950000D03*
%TD*%
D14*
%TO.P,C2,1*%
%TO.N,Net-(C2-Pad1)*%
X102516000Y-104100000D03*
%TO.P,C2,2*%
%TO.N,GND*%
X102516000Y-110500000D03*
%TD*%
D16*
%TO.P,L1,1,1*%
%TO.N,Net-(C1-Pad1)*%
X109425000Y-104140000D03*
%TO.P,L1,2,2*%
%TO.N,Net-(L1-Pad2)*%
X106175000Y-104140000D03*
%TD*%
D17*
%TO.P,C3,1*%
%TO.N,Net-(C2-Pad1)*%
X101478500Y-101650000D03*
%TO.P,C3,2*%
%TO.N,GND*%
X103553500Y-101650000D03*
%TD*%
D18*
%TO.N,Net-(C1-Pad1)*%
X113108000Y-104100000D02*
X114145500Y-103062500D01*
X111426700Y-112444600D02*
X111607000Y-112624900D01*
X111607000Y-113800000D02*
X111607000Y-112624900D01*
X113068000Y-104140000D02*
X113108000Y-104100000D01*
X109425000Y-104140000D02*
X111426700Y-104140000D01*
X114145500Y-103062500D02*
X114145500Y-101650000D01*
X111426700Y-104140000D02*
X111426700Y-112444600D01*
X111426700Y-104140000D02*
X113068000Y-104140000D01*
%TO.N,Net-(C2-Pad1)*%
X101478500Y-101650000D02*
X102516000Y-102687500D01*
X102516000Y-102687500D02*
X102516000Y-104100000D01*
X106876500Y-109544900D02*
X107800000Y-109544900D01*
X107800000Y-110650000D02*
X107800000Y-109544900D01*
X107800000Y-110650000D02*
X107800000Y-112527000D01*
X102516000Y-105184400D02*
X106876500Y-109544900D01*
X107800000Y-112527000D02*
X106527000Y-113800000D01*
X102516000Y-104100000D02*
X102516000Y-105184400D01*
%TO.N,Net-(U1-Pad1)*%
X105162100Y-113443000D02*
X105162100Y-113800000D01*
X106850000Y-111755100D02*
X105162100Y-113443000D01*
X103987000Y-113800000D02*
X105162100Y-113800000D01*
X106850000Y-110650000D02*
X106850000Y-111755100D01*
%TO.N,Net-(L1-Pad2)*%
X106175000Y-106715100D02*
X106304800Y-106844900D01*
X106850000Y-107950000D02*
X106850000Y-106844900D01*
X106175000Y-104140000D02*
X106175000Y-106715100D01*
X106304800Y-106844900D02*
X106850000Y-106844900D01*
%TD*%
%TA.AperFunction,Conductor*%
%TO.N,GND*%
G36*
X102888046Y-100274502D02*
G01*
X102934539Y-100328158D01*
X102944643Y-100398432D01*
X102915149Y-100463012D01*
X102886228Y-100487644D01*
X102748193Y-100573063D01*
X102736792Y-100582099D01*
X102622261Y-100696829D01*
X102613249Y-100708240D01*
X102528184Y-100846243D01*
X102522036Y-100859426D01*
X102500283Y-100925010D01*
X102459853Y-100983370D01*
X102394288Y-101010607D01*
X102324407Y-100998074D01*
X102270170Y-100945853D01*
X102266221Y-100938640D01*
X102263071Y-100930236D01*
X102176404Y-100814596D01*
X102155977Y-100799287D01*
X102067946Y-100733311D01*
X102067943Y-100733309D01*
X102060764Y-100727929D01*
X101971046Y-100694296D01*
X101932843Y-100679974D01*
X101932841Y-100679974D01*
X101925448Y-100677202D01*
X101917598Y-100676349D01*
X101917597Y-100676349D01*
X101867153Y-100670869D01*
X101867152Y-100670869D01*
X101863756Y-100670500D01*
X101093244Y-100670500D01*
X101089848Y-100670869D01*
X101089847Y-100670869D01*
X101039403Y-100676349D01*
X101039402Y-100676349D01*
X101031552Y-100677202D01*
X101024159Y-100679974D01*
X101024157Y-100679974D01*
X100985954Y-100694296D01*
X100896236Y-100727929D01*
X100889057Y-100733309D01*
X100889054Y-100733311D01*
X100801023Y-100799287D01*
X100780596Y-100814596D01*
X100775215Y-100821776D01*
X100699311Y-100923054D01*
X100699309Y-100923057D01*
X100693929Y-100930236D01*
X100643202Y-101065552D01*
X100636500Y-101127244D01*
X100636500Y-102172756D01*
X100643202Y-102234448D01*
X100693929Y-102369764D01*
X100699309Y-102376943D01*
X100699311Y-102376946D01*
X100765287Y-102464977D01*
X100780596Y-102485404D01*
X100787776Y-102490785D01*
X100889054Y-102566689D01*
X100889057Y-102566691D01*
X100896236Y-102572071D01*
X100979196Y-102603171D01*
X101024157Y-102620026D01*
X101024159Y-102620026D01*
X101031552Y-102622798D01*
X101039400Y-102623651D01*
X101039402Y-102623651D01*
X101082252Y-102628306D01*
X101147814Y-102655549D01*
X101188239Y-102713912D01*
X101190694Y-102784866D01*
X101154399Y-102845884D01*
X101144209Y-102854394D01*
X101130596Y-102864596D01*
X101125215Y-102871776D01*
X101049311Y-102973054D01*
X101049309Y-102973057D01*
X101043929Y-102980236D01*
X100993202Y-103115552D01*
X100986500Y-103177244D01*
X100986500Y-105022756D01*
X100993202Y-105084448D01*
X101043929Y-105219764D01*
X101049309Y-105226943D01*
X101049311Y-105226946D01*
X101115287Y-105314977D01*
X101130596Y-105335404D01*
X101137776Y-105340785D01*
X101239054Y-105416689D01*
X101239057Y-105416691D01*
X101246236Y-105422071D01*
X101335954Y-105455704D01*
X101374157Y-105470026D01*
X101374159Y-105470026D01*
X101381552Y-105472798D01*
X101389402Y-105473651D01*
X101389403Y-105473651D01*
X101439847Y-105479131D01*
X101443244Y-105479500D01*
X102222216Y-105479500D01*
X102290337Y-105499502D01*
X102311311Y-105516405D01*
X106324436Y-109529530D01*
X106358462Y-109591842D01*
X106353397Y-109662657D01*
X106340105Y-109688628D01*
X106292161Y-109760379D01*
X106292160Y-109760382D01*
X106285266Y-109770699D01*
X106270500Y-109844933D01*
X106270501Y-111455066D01*
X106285266Y-111529301D01*
X106292161Y-111539620D01*
X106292162Y-111539622D01*
X106329491Y-111595488D01*
X106350706Y-111663241D01*
X106331923Y-111731708D01*
X106313821Y-111754585D01*
X105241763Y-112826643D01*
X105179451Y-112860669D01*
X105108636Y-112855604D01*
X105047904Y-112807552D01*
X105027377Y-112776832D01*
X105020484Y-112766516D01*
X104936301Y-112710266D01*
X104862067Y-112695500D01*
X103987142Y-112695500D01*
X103111934Y-112695501D01*
X103076182Y-112702612D01*
X103049874Y-112707844D01*
X103049872Y-112707845D01*
X103037699Y-112710266D01*
X103027379Y-112717161D01*
X103027378Y-112717162D01*
X103000205Y-112735319D01*
X102953516Y-112766516D01*
X102897266Y-112850699D01*
X102882500Y-112924933D01*
X102882501Y-114675066D01*
X102897266Y-114749301D01*
X102904161Y-114759620D01*
X102904162Y-114759622D01*
X102944516Y-114820015D01*
X102953516Y-114833484D01*
X103037699Y-114889734D01*
X103111933Y-114904500D01*
X103986858Y-114904500D01*
X104862066Y-114904499D01*
X104897818Y-114897388D01*
X104924126Y-114892156D01*
X104924128Y-114892155D01*
X104936301Y-114889734D01*
X104946621Y-114882839D01*
X104946622Y-114882838D01*
X105010168Y-114840377D01*
X105020484Y-114833484D01*
X105076734Y-114749301D01*
X105091500Y-114675067D01*
X105091500Y-114306251D01*
X105111502Y-114238130D01*
X105165158Y-114191637D01*
X105192532Y-114184547D01*
X105192287Y-114183561D01*
X105234321Y-114173120D01*
X105244006Y-114171114D01*
X105286726Y-114164004D01*
X105295893Y-114159058D01*
X105300400Y-114157515D01*
X105304793Y-114155614D01*
X105314901Y-114153103D01*
X105323649Y-114147454D01*
X105333208Y-114143318D01*
X105334859Y-114147132D01*
X105383100Y-114132815D01*
X105451278Y-114152618D01*
X105497893Y-114206063D01*
X105521010Y-114256208D01*
X105566377Y-114354616D01*
X105683533Y-114520389D01*
X105828938Y-114662035D01*
X105997720Y-114774812D01*
X106003023Y-114777090D01*
X106003026Y-114777092D01*
X106178921Y-114852662D01*
X106184228Y-114854942D01*
X106257244Y-114871464D01*
X106376579Y-114898467D01*
X106376584Y-114898468D01*
X106382216Y-114899742D01*
X106387987Y-114899969D01*
X106387989Y-114899969D01*
X106447756Y-114902317D01*
X106585053Y-114907712D01*
X106692348Y-114892155D01*
X106780231Y-114879413D01*
X106780236Y-114879412D01*
X106785945Y-114878584D01*
X106791409Y-114876729D01*
X106791414Y-114876728D01*
X106972693Y-114815192D01*
X106972698Y-114815190D01*
X106978165Y-114813334D01*
X107155276Y-114714147D01*
X107194969Y-114681135D01*
X107282696Y-114608172D01*
X107311345Y-114584345D01*
X107441147Y-114428276D01*
X107540334Y-114251165D01*
X107542720Y-114244135D01*
X107543170Y-114243496D01*
X107544541Y-114240416D01*
X107545146Y-114240685D01*
X107583553Y-114186059D01*
X107649305Y-114159278D01*
X107719098Y-114172295D01*
X107770773Y-114220980D01*
X107778777Y-114237229D01*
X107848770Y-114409603D01*
X107853413Y-114418794D01*
X107964694Y-114600388D01*
X107970777Y-114608699D01*
X108110213Y-114769667D01*
X108117580Y-114776883D01*
X108281434Y-114912916D01*
X108289881Y-114918831D01*
X108473756Y-115026279D01*
X108483042Y-115030729D01*
X108682001Y-115106703D01*
X108691899Y-115109579D01*
X108795250Y-115130606D01*
X108809299Y-115129410D01*
X108813000Y-115119065D01*
X108813000Y-112483102D01*
X108809082Y-112469758D01*
X108794806Y-112467771D01*
X108756324Y-112473660D01*
X108746288Y-112476051D01*
X108543868Y-112542212D01*
X108534359Y-112546209D01*
X108363945Y-112634921D01*
X108294286Y-112648634D01*
X108228271Y-112622509D01*
X108186859Y-112564841D01*
X108179862Y-112528108D01*
X108179597Y-112521368D01*
X108179500Y-112516418D01*
X108179500Y-111794185D01*
X108199502Y-111726064D01*
X108253158Y-111679571D01*
X108330081Y-111670606D01*
X108375153Y-111679571D01*
X108399933Y-111684500D01*
X108749943Y-111684500D01*
X109100066Y-111684499D01*
X109135818Y-111677388D01*
X109162126Y-111672156D01*
X109162128Y-111672155D01*
X109174301Y-111669734D01*
X109184621Y-111662839D01*
X109184622Y-111662838D01*
X109248168Y-111620377D01*
X109258484Y-111613484D01*
X109314734Y-111529301D01*
X109329500Y-111455067D01*
X109329499Y-109844934D01*
X109314734Y-109770699D01*
X109258484Y-109686516D01*
X109174301Y-109630266D01*
X109100067Y-109615500D01*
X108750057Y-109615500D01*
X108399934Y-109615501D01*
X108363905Y-109622667D01*
X108332083Y-109628996D01*
X108261369Y-109622667D01*
X108205303Y-109579112D01*
X108183201Y-109518871D01*
X108183561Y-109514713D01*
X108173120Y-109472679D01*
X108171114Y-109462992D01*
X108164004Y-109420274D01*
X108159060Y-109411110D01*
X108157514Y-109406595D01*
X108155613Y-109402203D01*
X108153653Y-109394312D01*
X108153601Y-109393892D01*
X108153272Y-109392778D01*
X108153124Y-109392184D01*
X108153382Y-109392120D01*
X108145536Y-109328552D01*
X108176314Y-109264574D01*
X108236796Y-109227392D01*
X108298844Y-109230290D01*
X108299709Y-109226651D01*
X108322649Y-109232105D01*
X108373514Y-109237631D01*
X108380328Y-109238000D01*
X108477885Y-109238000D01*
X108493124Y-109233525D01*
X108494329Y-109232135D01*
X108496000Y-109224452D01*
X108496000Y-109219884D01*
X109004000Y-109219884D01*
X109008475Y-109235123D01*
X109009865Y-109236328D01*
X109017548Y-109237999D01*
X109119669Y-109237999D01*
X109126490Y-109237629D01*
X109177352Y-109232105D01*
X109192604Y-109228479D01*
X109313054Y-109183324D01*
X109328649Y-109174786D01*
X109430724Y-109098285D01*
X109443285Y-109085724D01*
X109519786Y-108983649D01*
X109528324Y-108968054D01*
X109573478Y-108847606D01*
X109577105Y-108832351D01*
X109582631Y-108781486D01*
X109583000Y-108774672D01*
X109583000Y-108222115D01*
X109578525Y-108206876D01*
X109577135Y-108205671D01*
X109569452Y-108204000D01*
X109022115Y-108204000D01*
X109006876Y-108208475D01*
X109005671Y-108209865D01*
X109004000Y-108217548D01*
X109004000Y-109219884D01*
X108496000Y-109219884D01*
X108496000Y-108222115D01*
X108491525Y-108206876D01*
X108490135Y-108205671D01*
X108482452Y-108204000D01*
X107935116Y-108204000D01*
X107919877Y-108208475D01*
X107918672Y-108209865D01*
X107917001Y-108217548D01*
X107917001Y-108774669D01*
X107917371Y-108781490D01*
X107922895Y-108832352D01*
X107926521Y-108847604D01*
X107971679Y-108968061D01*
X107977766Y-108979180D01*
X107992935Y-109048537D01*
X107968198Y-109115085D01*
X107911410Y-109157695D01*
X107862066Y-109165528D01*
X107860584Y-109165400D01*
X107822146Y-109165400D01*
X107811274Y-109164930D01*
X107800848Y-109164027D01*
X107769813Y-109161339D01*
X107759705Y-109163850D01*
X107749322Y-109164667D01*
X107749272Y-109164027D01*
X107738048Y-109165400D01*
X107396832Y-109165400D01*
X107328711Y-109145398D01*
X107282218Y-109091742D01*
X107272114Y-109021468D01*
X107301608Y-108956888D01*
X107326829Y-108934636D01*
X107348167Y-108920378D01*
X107348168Y-108920377D01*
X107358484Y-108913484D01*
X107414734Y-108829301D01*
X107429500Y-108755067D01*
X107429499Y-107144934D01*
X107421326Y-107103840D01*
X107417156Y-107082874D01*
X107417155Y-107082872D01*
X107414734Y-107070699D01*
X107358484Y-106986516D01*
X107288285Y-106939610D01*
X107242759Y-106885133D01*
X107234624Y-106835380D01*
X107233479Y-106835470D01*
X107232662Y-106825091D01*
X107233561Y-106814713D01*
X107223120Y-106772679D01*
X107221114Y-106762992D01*
X107215714Y-106730549D01*
X107214004Y-106720274D01*
X107209059Y-106711108D01*
X107206326Y-106703126D01*
X107206154Y-106702544D01*
X107205914Y-106701923D01*
X107205688Y-106701263D01*
X107205768Y-106701236D01*
X107203272Y-106692778D01*
X107203124Y-106692184D01*
X107206080Y-106691447D01*
X107199432Y-106637536D01*
X107231686Y-106574686D01*
X107233484Y-106573484D01*
X107289734Y-106489301D01*
X107304500Y-106415067D01*
X107304499Y-101864934D01*
X107289734Y-101790699D01*
X107233484Y-101706516D01*
X107149301Y-101650266D01*
X107075067Y-101635500D01*
X106175146Y-101635500D01*
X105274934Y-101635501D01*
X105239182Y-101642612D01*
X105212874Y-101647844D01*
X105212872Y-101647845D01*
X105200699Y-101650266D01*
X105190379Y-101657161D01*
X105190378Y-101657162D01*
X105129985Y-101697516D01*
X105116516Y-101706516D01*
X105060266Y-101790699D01*
X105045500Y-101864933D01*
X105045501Y-106415066D01*
X105060266Y-106489301D01*
X105067161Y-106499620D01*
X105067162Y-106499622D01*
X105074823Y-106511087D01*
X105116516Y-106573484D01*
X105200699Y-106629734D01*
X105274933Y-106644500D01*
X105671740Y-106644500D01*
X105739861Y-106664502D01*
X105786354Y-106718158D01*
X105796030Y-106749810D01*
X105798669Y-106765663D01*
X105799506Y-106771543D01*
X105800455Y-106779557D01*
X105805530Y-106822441D01*
X105809493Y-106830693D01*
X105810996Y-106839726D01*
X105815943Y-106848895D01*
X105815944Y-106848897D01*
X105835334Y-106884832D01*
X105838031Y-106890125D01*
X105856785Y-106929182D01*
X105856788Y-106929186D01*
X105860219Y-106936332D01*
X105863814Y-106940608D01*
X105865737Y-106942531D01*
X105867509Y-106944463D01*
X105867552Y-106944542D01*
X105867428Y-106944655D01*
X105867904Y-106945195D01*
X105870990Y-106950914D01*
X105878635Y-106957981D01*
X105910586Y-106987516D01*
X105914152Y-106990946D01*
X105998322Y-107075116D01*
X106013464Y-107093864D01*
X106014579Y-107095089D01*
X106020229Y-107103840D01*
X106028407Y-107110287D01*
X106028409Y-107110289D01*
X106046600Y-107124629D01*
X106051041Y-107128575D01*
X106051103Y-107128502D01*
X106055067Y-107131861D01*
X106058744Y-107135538D01*
X106074492Y-107146792D01*
X106079162Y-107150298D01*
X106119447Y-107182056D01*
X106128081Y-107185088D01*
X106135534Y-107190414D01*
X106180603Y-107203893D01*
X106240135Y-107242573D01*
X106269305Y-107307300D01*
X106270500Y-107324609D01*
X106270501Y-108098017D01*
X106250499Y-108166138D01*
X106196843Y-108212631D01*
X106126569Y-108222735D01*
X106061989Y-108193242D01*
X106055406Y-108187112D01*
X103557362Y-105689068D01*
X103523336Y-105626756D01*
X103528401Y-105555941D01*
X103570948Y-105499105D01*
X103632848Y-105474710D01*
X103642598Y-105473651D01*
X103642600Y-105473651D01*
X103650448Y-105472798D01*
X103657841Y-105470026D01*
X103657843Y-105470026D01*
X103696046Y-105455704D01*
X103785764Y-105422071D01*
X103792943Y-105416691D01*
X103792946Y-105416689D01*
X103894224Y-105340785D01*
X103901404Y-105335404D01*
X103916713Y-105314977D01*
X103982689Y-105226946D01*
X103982691Y-105226943D01*
X103988071Y-105219764D01*
X104038798Y-105084448D01*
X104045500Y-105022756D01*
X104045500Y-103177244D01*
X104038798Y-103115552D01*
X104004455Y-103023941D01*
X103999272Y-102953135D01*
X104033193Y-102890766D01*
X104082561Y-102860189D01*
X104207784Y-102818412D01*
X104220962Y-102812239D01*
X104358807Y-102726937D01*
X104370208Y-102717901D01*
X104484739Y-102603171D01*
X104493751Y-102591760D01*
X104578816Y-102453757D01*
X104584963Y-102440576D01*
X104636138Y-102286290D01*
X104639005Y-102272914D01*
X104648672Y-102178562D01*
X104649000Y-102172146D01*
X104649000Y-101922115D01*
X104644525Y-101906876D01*
X104643135Y-101905671D01*
X104635452Y-101904000D01*
X103425500Y-101904000D01*
X103357379Y-101883998D01*
X103310886Y-101830342D01*
X103299500Y-101778000D01*
X103299500Y-101522000D01*
X103319502Y-101453879D01*
X103373158Y-101407386D01*
X103425500Y-101396000D01*
X104630884Y-101396000D01*
X104646123Y-101391525D01*
X104647328Y-101390135D01*
X104648999Y-101382452D01*
X104648999Y-101127905D01*
X104648662Y-101121386D01*
X104638743Y-101025794D01*
X104635851Y-101012400D01*
X104584412Y-100858216D01*
X104578239Y-100845038D01*
X104492937Y-100707193D01*
X104483901Y-100695792D01*
X104369171Y-100581261D01*
X104357760Y-100572249D01*
X104220692Y-100487760D01*
X104173199Y-100434988D01*
X104161775Y-100364917D01*
X104190049Y-100299793D01*
X104249043Y-100260293D01*
X104286808Y-100254500D01*
X111336925Y-100254500D01*
X111405046Y-100274502D01*
X111451539Y-100328158D01*
X111461643Y-100398432D01*
X111432149Y-100463012D01*
X111403228Y-100487644D01*
X111265193Y-100573063D01*
X111253792Y-100582099D01*
X111139261Y-100696829D01*
X111130249Y-100708240D01*
X111045184Y-100846243D01*
X111039037Y-100859424D01*
X110987862Y-101013710D01*
X110984995Y-101027086D01*
X110975328Y-101121438D01*
X110975000Y-101127855D01*
X110975000Y-101377885D01*
X110979475Y-101393124D01*
X110980865Y-101394329D01*
X110988548Y-101396000D01*
X112198500Y-101396000D01*
X112266621Y-101416002D01*
X112313114Y-101469658D01*
X112324500Y-101522000D01*
X112324500Y-101778000D01*
X112304498Y-101846121D01*
X112250842Y-101892614D01*
X112198500Y-101904000D01*
X110993116Y-101904000D01*
X110977877Y-101908475D01*
X110976672Y-101909865D01*
X110975001Y-101917548D01*
X110975001Y-102172095D01*
X110975338Y-102178614D01*
X110985257Y-102274206D01*
X110988149Y-102287600D01*
X111039588Y-102441784D01*
X111045761Y-102454962D01*
X111131063Y-102592807D01*
X111140099Y-102604208D01*
X111254829Y-102718739D01*
X111266240Y-102727751D01*
X111404243Y-102812816D01*
X111417426Y-102818964D01*
X111541260Y-102860038D01*
X111599620Y-102900469D01*
X111626857Y-102966033D01*
X111619575Y-103023860D01*
X111587974Y-103108157D01*
X111585202Y-103115552D01*
X111578500Y-103177244D01*
X111578500Y-103634500D01*
X111558498Y-103702621D01*
X111504842Y-103749114D01*
X111452500Y-103760500D01*
X111448846Y-103760500D01*
X111437974Y-103760030D01*
X111427548Y-103759127D01*
X111396513Y-103756439D01*
X111386405Y-103758950D01*
X111376022Y-103759767D01*
X111375972Y-103759127D01*
X111364748Y-103760500D01*
X110680499Y-103760500D01*
X110612378Y-103740498D01*
X110565885Y-103686842D01*
X110554499Y-103634500D01*
X110554499Y-101864934D01*
X110539734Y-101790699D01*
X110483484Y-101706516D01*
X110399301Y-101650266D01*
X110325067Y-101635500D01*
X109425146Y-101635500D01*
X108524934Y-101635501D01*
X108489182Y-101642612D01*
X108462874Y-101647844D01*
X108462872Y-101647845D01*
X108450699Y-101650266D01*
X108440379Y-101657161D01*
X108440378Y-101657162D01*
X108379985Y-101697516D01*
X108366516Y-101706516D01*
X108310266Y-101790699D01*
X108295500Y-101864933D01*
X108295501Y-106415066D01*
X108310266Y-106489301D01*
X108318738Y-106501980D01*
X108320594Y-106507906D01*
X108321911Y-106511087D01*
X108321626Y-106511205D01*
X108339952Y-106569733D01*
X108321168Y-106638200D01*
X108268351Y-106685643D01*
X108258202Y-106689963D01*
X108186946Y-106716676D01*
X108171351Y-106725214D01*
X108069276Y-106801715D01*
X108056715Y-106814276D01*
X107980214Y-106916351D01*
X107971676Y-106931946D01*
X107926522Y-107052394D01*
X107922895Y-107067649D01*
X107917369Y-107118514D01*
X107917000Y-107125328D01*
X107917000Y-107677885D01*
X107921475Y-107693124D01*
X107922865Y-107694329D01*
X107930548Y-107696000D01*
X109564884Y-107696000D01*
X109580123Y-107691525D01*
X109581328Y-107690135D01*
X109582999Y-107682452D01*
X109582999Y-107125331D01*
X109582629Y-107118510D01*
X109577105Y-107067648D01*
X109573479Y-107052396D01*
X109528324Y-106931946D01*
X109519789Y-106916356D01*
X109467108Y-106846064D01*
X109442261Y-106779557D01*
X109457314Y-106710175D01*
X109507489Y-106659945D01*
X109567933Y-106644499D01*
X110325066Y-106644499D01*
X110360818Y-106637388D01*
X110387126Y-106632156D01*
X110387128Y-106632155D01*
X110399301Y-106629734D01*
X110409621Y-106622839D01*
X110409622Y-106622838D01*
X110473168Y-106580377D01*
X110483484Y-106573484D01*
X110539734Y-106489301D01*
X110554500Y-106415067D01*
X110554500Y-104645500D01*
X110574502Y-104577379D01*
X110628158Y-104530886D01*
X110680500Y-104519500D01*
X110921200Y-104519500D01*
X110989321Y-104539502D01*
X111035814Y-104593158D01*
X111047200Y-104645500D01*
X111047200Y-112390680D01*
X111044651Y-112414628D01*
X111044572Y-112416293D01*
X111042380Y-112426476D01*
X111043604Y-112436817D01*
X111046327Y-112459823D01*
X111046677Y-112465754D01*
X111046772Y-112465746D01*
X111047200Y-112470926D01*
X111047200Y-112476124D01*
X111048053Y-112481247D01*
X111048053Y-112481250D01*
X111050369Y-112495165D01*
X111051206Y-112501043D01*
X111053612Y-112521368D01*
X111057230Y-112551941D01*
X111061193Y-112560193D01*
X111062696Y-112569226D01*
X111067643Y-112578395D01*
X111067644Y-112578397D01*
X111087034Y-112614332D01*
X111089731Y-112619624D01*
X111108901Y-112659547D01*
X111111919Y-112665833D01*
X111110906Y-112666320D01*
X111128931Y-112727212D01*
X111109079Y-112795377D01*
X111067353Y-112835775D01*
X110959982Y-112899653D01*
X110959974Y-112899658D01*
X110955010Y-112902612D01*
X110950670Y-112906418D01*
X110950666Y-112906421D01*
X110870293Y-112976907D01*
X110802392Y-113036455D01*
X110676720Y-113195869D01*
X110674031Y-113200980D01*
X110674029Y-113200983D01*
X110584589Y-113370980D01*
X110535170Y-113421952D01*
X110466037Y-113438115D01*
X110399141Y-113414336D01*
X110359003Y-113359973D01*
X110356955Y-113360863D01*
X110269972Y-113160814D01*
X110265105Y-113151739D01*
X110149426Y-112972926D01*
X110143136Y-112964757D01*
X109999806Y-112807240D01*
X109992273Y-112800215D01*
X109825139Y-112668222D01*
X109816552Y-112662517D01*
X109630117Y-112559599D01*
X109620705Y-112555369D01*
X109419959Y-112484280D01*
X109409988Y-112481646D01*
X109338837Y-112468972D01*
X109325540Y-112470432D01*
X109321000Y-112484989D01*
X109321000Y-115118517D01*
X109325064Y-115132359D01*
X109338478Y-115134393D01*
X109345184Y-115133534D01*
X109355262Y-115131392D01*
X109559255Y-115070191D01*
X109568842Y-115066433D01*
X109760095Y-114972739D01*
X109768945Y-114967464D01*
X109942328Y-114843792D01*
X109950200Y-114837139D01*
X110101052Y-114686812D01*
X110107730Y-114678965D01*
X110232003Y-114506020D01*
X110237313Y-114497183D01*
X110331670Y-114306267D01*
X110335469Y-114296672D01*
X110352066Y-114242047D01*
X110391007Y-114182683D01*
X110455862Y-114153796D01*
X110526038Y-114164558D01*
X110579256Y-114211551D01*
X110587048Y-114225922D01*
X110646377Y-114354616D01*
X110763533Y-114520389D01*
X110908938Y-114662035D01*
X111077720Y-114774812D01*
X111083023Y-114777090D01*
X111083026Y-114777092D01*
X111258921Y-114852662D01*
X111264228Y-114854942D01*
X111337244Y-114871464D01*
X111456579Y-114898467D01*
X111456584Y-114898468D01*
X111462216Y-114899742D01*
X111467987Y-114899969D01*
X111467989Y-114899969D01*
X111527756Y-114902317D01*
X111665053Y-114907712D01*
X111772348Y-114892155D01*
X111860231Y-114879413D01*
X111860236Y-114879412D01*
X111865945Y-114878584D01*
X111871409Y-114876729D01*
X111871414Y-114876728D01*
X112052693Y-114815192D01*
X112052698Y-114815190D01*
X112058165Y-114813334D01*
X112235276Y-114714147D01*
X112274969Y-114681135D01*
X112362696Y-114608172D01*
X112391345Y-114584345D01*
X112521147Y-114428276D01*
X112620334Y-114251165D01*
X112622190Y-114245698D01*
X112622192Y-114245693D01*
X112683728Y-114064414D01*
X112683729Y-114064409D01*
X112685584Y-114058945D01*
X112686412Y-114053236D01*
X112686413Y-114053231D01*
X112714179Y-113861727D01*
X112714712Y-113858053D01*
X112716232Y-113800000D01*
X112697658Y-113597859D01*
X112696090Y-113592299D01*
X112644125Y-113408046D01*
X112644124Y-113408044D01*
X112642557Y-113402487D01*
X112622031Y-113360863D01*
X112555331Y-113225609D01*
X112552776Y-113220428D01*
X112431320Y-113057779D01*
X112282258Y-112919987D01*
X112277375Y-112916906D01*
X112277371Y-112916903D01*
X112115464Y-112814748D01*
X112110581Y-112811667D01*
X112066216Y-112793967D01*
X112010357Y-112750147D01*
X111987056Y-112683083D01*
X111988650Y-112663611D01*
X111988638Y-112663610D01*
X111989129Y-112653206D01*
X111991321Y-112643024D01*
X111990097Y-112632682D01*
X111990097Y-112632679D01*
X111987374Y-112609679D01*
X111987024Y-112603748D01*
X111986928Y-112603756D01*
X111986500Y-112598579D01*
X111986500Y-112593376D01*
X111983327Y-112574312D01*
X111982496Y-112568466D01*
X111977694Y-112527901D01*
X111976470Y-112517559D01*
X111972507Y-112509307D01*
X111971004Y-112500274D01*
X111961739Y-112483102D01*
X111946666Y-112455168D01*
X111943969Y-112449875D01*
X111925215Y-112410819D01*
X111925214Y-112410818D01*
X111921781Y-112403668D01*
X111918187Y-112399393D01*
X111916262Y-112397468D01*
X111914491Y-112395538D01*
X111914445Y-112395453D01*
X111914568Y-112395341D01*
X111914096Y-112394806D01*
X111911010Y-112389086D01*
X111871413Y-112352483D01*
X111867848Y-112349054D01*
X111858874Y-112340080D01*
X111824848Y-112277768D01*
X111829913Y-112206953D01*
X111872460Y-112150117D01*
X111938980Y-112125306D01*
X111960811Y-112125641D01*
X112029438Y-112132672D01*
X112035854Y-112133000D01*
X112835885Y-112133000D01*
X112851124Y-112128525D01*
X112852329Y-112127135D01*
X112854000Y-112119452D01*
X112854000Y-112114884D01*
X113362000Y-112114884D01*
X113366475Y-112130123D01*
X113367865Y-112131328D01*
X113375548Y-112132999D01*
X114180095Y-112132999D01*
X114186614Y-112132662D01*
X114282206Y-112122743D01*
X114295600Y-112119851D01*
X114449784Y-112068412D01*
X114462962Y-112062239D01*
X114600807Y-111976937D01*
X114612208Y-111967901D01*
X114726739Y-111853171D01*
X114735751Y-111841760D01*
X114820816Y-111703757D01*
X114826963Y-111690576D01*
X114878138Y-111536290D01*
X114881005Y-111522914D01*
X114890672Y-111428562D01*
X114891000Y-111422146D01*
X114891000Y-110772115D01*
X114886525Y-110756876D01*
X114885135Y-110755671D01*
X114877452Y-110754000D01*
X113380115Y-110754000D01*
X113364876Y-110758475D01*
X113363671Y-110759865D01*
X113362000Y-110767548D01*
X113362000Y-112114884D01*
X112854000Y-112114884D01*
X112854000Y-110227885D01*
X113362000Y-110227885D01*
X113366475Y-110243124D01*
X113367865Y-110244329D01*
X113375548Y-110246000D01*
X114872884Y-110246000D01*
X114888123Y-110241525D01*
X114889328Y-110240135D01*
X114890999Y-110232452D01*
X114890999Y-109577905D01*
X114890662Y-109571386D01*
X114880743Y-109475794D01*
X114877851Y-109462400D01*
X114826412Y-109308216D01*
X114820239Y-109295038D01*
X114734937Y-109157193D01*
X114725901Y-109145792D01*
X114611171Y-109031261D01*
X114599760Y-109022249D01*
X114461757Y-108937184D01*
X114448576Y-108931037D01*
X114294290Y-108879862D01*
X114280914Y-108876995D01*
X114186562Y-108867328D01*
X114180145Y-108867000D01*
X113380115Y-108867000D01*
X113364876Y-108871475D01*
X113363671Y-108872865D01*
X113362000Y-108880548D01*
X113362000Y-110227885D01*
X112854000Y-110227885D01*
X112854000Y-108885116D01*
X112849525Y-108869877D01*
X112848135Y-108868672D01*
X112840452Y-108867001D01*
X112035905Y-108867001D01*
X112029388Y-108867338D01*
X111945204Y-108876073D01*
X111875382Y-108863208D01*
X111823600Y-108814637D01*
X111806200Y-108750746D01*
X111806200Y-105591464D01*
X111826202Y-105523343D01*
X111879858Y-105476850D01*
X111950132Y-105466746D01*
X111961348Y-105468882D01*
X111966155Y-105470025D01*
X111973552Y-105472798D01*
X112035244Y-105479500D01*
X114180756Y-105479500D01*
X114184153Y-105479131D01*
X114234597Y-105473651D01*
X114234598Y-105473651D01*
X114242448Y-105472798D01*
X114249841Y-105470026D01*
X114249843Y-105470026D01*
X114288046Y-105455704D01*
X114377764Y-105422071D01*
X114384943Y-105416691D01*
X114384946Y-105416689D01*
X114486224Y-105340785D01*
X114493404Y-105335404D01*
X114508713Y-105314977D01*
X114574689Y-105226946D01*
X114574691Y-105226943D01*
X114580071Y-105219764D01*
X114630798Y-105084448D01*
X114637500Y-105022756D01*
X114637500Y-103177244D01*
X114630798Y-103115552D01*
X114580071Y-102980236D01*
X114550173Y-102940343D01*
X114525326Y-102873839D01*
X114525000Y-102864780D01*
X114525000Y-102735411D01*
X114545002Y-102667290D01*
X114598658Y-102620797D01*
X114606771Y-102617429D01*
X114675243Y-102591760D01*
X114727764Y-102572071D01*
X114734943Y-102566691D01*
X114734946Y-102566689D01*
X114836224Y-102490785D01*
X114843404Y-102485404D01*
X114858713Y-102464977D01*
X114924689Y-102376946D01*
X114924691Y-102376943D01*
X114930071Y-102369764D01*
X114980798Y-102234448D01*
X114987500Y-102172756D01*
X114987500Y-101127244D01*
X114980798Y-101065552D01*
X114930071Y-100930236D01*
X114924691Y-100923057D01*
X114924689Y-100923054D01*
X114848785Y-100821776D01*
X114843404Y-100814596D01*
X114822977Y-100799287D01*
X114734946Y-100733311D01*
X114734943Y-100733309D01*
X114727764Y-100727929D01*
X114638046Y-100694296D01*
X114599843Y-100679974D01*
X114599841Y-100679974D01*
X114592448Y-100677202D01*
X114584598Y-100676349D01*
X114584597Y-100676349D01*
X114534153Y-100670869D01*
X114534152Y-100670869D01*
X114530756Y-100670500D01*
X113760244Y-100670500D01*
X113756848Y-100670869D01*
X113756847Y-100670869D01*
X113706403Y-100676349D01*
X113706402Y-100676349D01*
X113698552Y-100677202D01*
X113691159Y-100679974D01*
X113691157Y-100679974D01*
X113652954Y-100694296D01*
X113563236Y-100727929D01*
X113556057Y-100733309D01*
X113556054Y-100733311D01*
X113468023Y-100799287D01*
X113447596Y-100814596D01*
X113360929Y-100930236D01*
X113357779Y-100938640D01*
X113353819Y-100945874D01*
X113303562Y-100996021D01*
X113234171Y-101011036D01*
X113167678Y-100986152D01*
X113123774Y-100925243D01*
X113101412Y-100858216D01*
X113095239Y-100845038D01*
X113009937Y-100707193D01*
X113000901Y-100695792D01*
X112886171Y-100581261D01*
X112874760Y-100572249D01*
X112737692Y-100487760D01*
X112690199Y-100434988D01*
X112678775Y-100364917D01*
X112707049Y-100299793D01*
X112766043Y-100260293D01*
X112803808Y-100254500D01*
X115319500Y-100254500D01*
X115387621Y-100274502D01*
X115434114Y-100328158D01*
X115445500Y-100380500D01*
X115445500Y-115319500D01*
X115425498Y-115387621D01*
X115371842Y-115434114D01*
X115319500Y-115445500D01*
X100380500Y-115445500D01*
X100312379Y-115425498D01*
X100265886Y-115371842D01*
X100254500Y-115319500D01*
X100254500Y-111422095D01*
X100733001Y-111422095D01*
X100733338Y-111428614D01*
X100743257Y-111524206D01*
X100746149Y-111537600D01*
X100797588Y-111691784D01*
X100803761Y-111704962D01*
X100889063Y-111842807D01*
X100898099Y-111854208D01*
X101012829Y-111968739D01*
X101024240Y-111977751D01*
X101162243Y-112062816D01*
X101175424Y-112068963D01*
X101329710Y-112120138D01*
X101343086Y-112123005D01*
X101437438Y-112132672D01*
X101443854Y-112133000D01*
X102243885Y-112133000D01*
X102259124Y-112128525D01*
X102260329Y-112127135D01*
X102262000Y-112119452D01*
X102262000Y-112114884D01*
X102770000Y-112114884D01*
X102774475Y-112130123D01*
X102775865Y-112131328D01*
X102783548Y-112132999D01*
X103588095Y-112132999D01*
X103594614Y-112132662D01*
X103690206Y-112122743D01*
X103703600Y-112119851D01*
X103857784Y-112068412D01*
X103870962Y-112062239D01*
X104008807Y-111976937D01*
X104020208Y-111967901D01*
X104134739Y-111853171D01*
X104143751Y-111841760D01*
X104228816Y-111703757D01*
X104234963Y-111690576D01*
X104286138Y-111536290D01*
X104289005Y-111522914D01*
X104298672Y-111428562D01*
X104299000Y-111422146D01*
X104299000Y-110772115D01*
X104294525Y-110756876D01*
X104293135Y-110755671D01*
X104285452Y-110754000D01*
X102788115Y-110754000D01*
X102772876Y-110758475D01*
X102771671Y-110759865D01*
X102770000Y-110767548D01*
X102770000Y-112114884D01*
X102262000Y-112114884D01*
X102262000Y-110772115D01*
X102257525Y-110756876D01*
X102256135Y-110755671D01*
X102248452Y-110754000D01*
X100751116Y-110754000D01*
X100735877Y-110758475D01*
X100734672Y-110759865D01*
X100733001Y-110767548D01*
X100733001Y-111422095D01*
X100254500Y-111422095D01*
X100254500Y-110227885D01*
X100733000Y-110227885D01*
X100737475Y-110243124D01*
X100738865Y-110244329D01*
X100746548Y-110246000D01*
X102243885Y-110246000D01*
X102259124Y-110241525D01*
X102260329Y-110240135D01*
X102262000Y-110232452D01*
X102262000Y-110227885D01*
X102770000Y-110227885D01*
X102774475Y-110243124D01*
X102775865Y-110244329D01*
X102783548Y-110246000D01*
X104280884Y-110246000D01*
X104296123Y-110241525D01*
X104297328Y-110240135D01*
X104298999Y-110232452D01*
X104298999Y-109577905D01*
X104298662Y-109571386D01*
X104288743Y-109475794D01*
X104285851Y-109462400D01*
X104234412Y-109308216D01*
X104228239Y-109295038D01*
X104142937Y-109157193D01*
X104133901Y-109145792D01*
X104019171Y-109031261D01*
X104007760Y-109022249D01*
X103869757Y-108937184D01*
X103856576Y-108931037D01*
X103702290Y-108879862D01*
X103688914Y-108876995D01*
X103594562Y-108867328D01*
X103588145Y-108867000D01*
X102788115Y-108867000D01*
X102772876Y-108871475D01*
X102771671Y-108872865D01*
X102770000Y-108880548D01*
X102770000Y-110227885D01*
X102262000Y-110227885D01*
X102262000Y-108885116D01*
X102257525Y-108869877D01*
X102256135Y-108868672D01*
X102248452Y-108867001D01*
X101443905Y-108867001D01*
X101437386Y-108867338D01*
X101341794Y-108877257D01*
X101328400Y-108880149D01*
X101174216Y-108931588D01*
X101161038Y-108937761D01*
X101023193Y-109023063D01*
X101011792Y-109032099D01*
X100897261Y-109146829D01*
X100888249Y-109158240D01*
X100803184Y-109296243D01*
X100797037Y-109309424D01*
X100745862Y-109463710D01*
X100742995Y-109477086D01*
X100733328Y-109571438D01*
X100733000Y-109577855D01*
X100733000Y-110227885D01*
X100254500Y-110227885D01*
X100254500Y-100380500D01*
X100274502Y-100312379D01*
X100328158Y-100265886D01*
X100380500Y-100254500D01*
X102819925Y-100254500D01*
X102888046Y-100274502D01*
G37*
%TD.AperFunction*%
%TD*%
M02*
