%TF.GenerationSoftware,KiCad,Pcbnew,6.0.11-2627ca5db0~126~ubuntu20.04.1*%
%TF.CreationDate,2023-04-18T12:09:56-05:00*%
%TF.ProjectId,me2188c-slim,6d653231-3838-4632-9d73-6c696d2e6b69,rev?*%
%TF.SameCoordinates,Original*%
%TF.FileFunction,Legend,Bot*%
%TF.FilePolarity,Positive*%
%FSLAX46Y46*%
G04 Gerber Fmt 4.6, Leading zero omitted, Abs format (unit mm)*
G04 Created by KiCad (PCBNEW 6.0.11-2627ca5db0~126~ubuntu20.04.1) date 2023-04-18 12:09:56*
%MOMM*%
%LPD*%
G01*
G04 APERTURE LIST*
%TA.AperFunction,Profile*%
%ADD10C,0.100000*%
%TD*%
%ADD11C,0.300000*%
%ADD12C,0.150000*%
%ADD13C,0.010000*%
G04 APERTURE END LIST*
D10*
X115700000Y-100000000D02*
X115700000Y-115700000D01*
X100000000Y-100000000D02*
X100000000Y-115700000D01*
X100000000Y-100000000D02*
X115700000Y-100000000D01*
X100000000Y-115700000D02*
X115700000Y-115700000D01*
D11*
X107348428Y-112242857D02*
X105848428Y-111742857D01*
X107348428Y-111242857D01*
X107348428Y-110457142D02*
X107348428Y-110171428D01*
X107277000Y-110028571D01*
X107134142Y-109885714D01*
X106848428Y-109814285D01*
X106348428Y-109814285D01*
X106062714Y-109885714D01*
X105919857Y-110028571D01*
X105848428Y-110171428D01*
X105848428Y-110457142D01*
X105919857Y-110600000D01*
X106062714Y-110742857D01*
X106348428Y-110814285D01*
X106848428Y-110814285D01*
X107134142Y-110742857D01*
X107277000Y-110600000D01*
X107348428Y-110457142D01*
X107348428Y-109171428D02*
X106134142Y-109171428D01*
X105991285Y-109100000D01*
X105919857Y-109028571D01*
X105848428Y-108885714D01*
X105848428Y-108600000D01*
X105919857Y-108457142D01*
X105991285Y-108385714D01*
X106134142Y-108314285D01*
X107348428Y-108314285D01*
X107348428Y-107814285D02*
X107348428Y-106957142D01*
X105848428Y-107385714D02*
X107348428Y-107385714D01*
D12*
X101147619Y-108190476D02*
X102147619Y-108190476D01*
X101433333Y-107857142D01*
X102147619Y-107523809D01*
X101147619Y-107523809D01*
X101671428Y-107047619D02*
X101671428Y-106714285D01*
X101147619Y-106571428D02*
X101147619Y-107047619D01*
X102147619Y-107047619D01*
X102147619Y-106571428D01*
X102052380Y-106190476D02*
X102100000Y-106142857D01*
X102147619Y-106047619D01*
X102147619Y-105809523D01*
X102100000Y-105714285D01*
X102052380Y-105666666D01*
X101957142Y-105619047D01*
X101861904Y-105619047D01*
X101719047Y-105666666D01*
X101147619Y-106238095D01*
X101147619Y-105619047D01*
X101147619Y-104666666D02*
X101147619Y-105238095D01*
X101147619Y-104952380D02*
X102147619Y-104952380D01*
X102004761Y-105047619D01*
X101909523Y-105142857D01*
X101861904Y-105238095D01*
X101719047Y-104095238D02*
X101766666Y-104190476D01*
X101814285Y-104238095D01*
X101909523Y-104285714D01*
X101957142Y-104285714D01*
X102052380Y-104238095D01*
X102100000Y-104190476D01*
X102147619Y-104095238D01*
X102147619Y-103904761D01*
X102100000Y-103809523D01*
X102052380Y-103761904D01*
X101957142Y-103714285D01*
X101909523Y-103714285D01*
X101814285Y-103761904D01*
X101766666Y-103809523D01*
X101719047Y-103904761D01*
X101719047Y-104095238D01*
X101671428Y-104190476D01*
X101623809Y-104238095D01*
X101528571Y-104285714D01*
X101338095Y-104285714D01*
X101242857Y-104238095D01*
X101195238Y-104190476D01*
X101147619Y-104095238D01*
X101147619Y-103904761D01*
X101195238Y-103809523D01*
X101242857Y-103761904D01*
X101338095Y-103714285D01*
X101528571Y-103714285D01*
X101623809Y-103761904D01*
X101671428Y-103809523D01*
X101719047Y-103904761D01*
X101719047Y-103142857D02*
X101766666Y-103238095D01*
X101814285Y-103285714D01*
X101909523Y-103333333D01*
X101957142Y-103333333D01*
X102052380Y-103285714D01*
X102100000Y-103238095D01*
X102147619Y-103142857D01*
X102147619Y-102952380D01*
X102100000Y-102857142D01*
X102052380Y-102809523D01*
X101957142Y-102761904D01*
X101909523Y-102761904D01*
X101814285Y-102809523D01*
X101766666Y-102857142D01*
X101719047Y-102952380D01*
X101719047Y-103142857D01*
X101671428Y-103238095D01*
X101623809Y-103285714D01*
X101528571Y-103333333D01*
X101338095Y-103333333D01*
X101242857Y-103285714D01*
X101195238Y-103238095D01*
X101147619Y-103142857D01*
X101147619Y-102952380D01*
X101195238Y-102857142D01*
X101242857Y-102809523D01*
X101338095Y-102761904D01*
X101528571Y-102761904D01*
X101623809Y-102809523D01*
X101671428Y-102857142D01*
X101719047Y-102952380D01*
X101242857Y-101761904D02*
X101195238Y-101809523D01*
X101147619Y-101952380D01*
X101147619Y-102047619D01*
X101195238Y-102190476D01*
X101290476Y-102285714D01*
X101385714Y-102333333D01*
X101576190Y-102380952D01*
X101719047Y-102380952D01*
X101909523Y-102333333D01*
X102004761Y-102285714D01*
X102100000Y-102190476D01*
X102147619Y-102047619D01*
X102147619Y-101952380D01*
X102100000Y-101809523D01*
X102052380Y-101761904D01*
D11*
X103451285Y-111314285D02*
X103379857Y-111385714D01*
X103308428Y-111600000D01*
X103308428Y-111742857D01*
X103379857Y-111957142D01*
X103522714Y-112100000D01*
X103665571Y-112171428D01*
X103951285Y-112242857D01*
X104165571Y-112242857D01*
X104451285Y-112171428D01*
X104594142Y-112100000D01*
X104737000Y-111957142D01*
X104808428Y-111742857D01*
X104808428Y-111600000D01*
X104737000Y-111385714D01*
X104665571Y-111314285D01*
X104094142Y-110671428D02*
X104094142Y-110171428D01*
X103308428Y-109957142D02*
X103308428Y-110671428D01*
X104808428Y-110671428D01*
X104808428Y-109957142D01*
X109817000Y-111442857D02*
X109888428Y-111585714D01*
X109888428Y-111800000D01*
X109817000Y-112014285D01*
X109674142Y-112157142D01*
X109531285Y-112228571D01*
X109245571Y-112300000D01*
X109031285Y-112300000D01*
X108745571Y-112228571D01*
X108602714Y-112157142D01*
X108459857Y-112014285D01*
X108388428Y-111800000D01*
X108388428Y-111657142D01*
X108459857Y-111442857D01*
X108531285Y-111371428D01*
X109031285Y-111371428D01*
X109031285Y-111657142D01*
X108388428Y-110728571D02*
X109888428Y-110728571D01*
X108388428Y-109871428D01*
X109888428Y-109871428D01*
X108388428Y-109157142D02*
X109888428Y-109157142D01*
X109888428Y-108800000D01*
X109817000Y-108585714D01*
X109674142Y-108442857D01*
X109531285Y-108371428D01*
X109245571Y-108300000D01*
X109031285Y-108300000D01*
X108745571Y-108371428D01*
X108602714Y-108442857D01*
X108459857Y-108585714D01*
X108388428Y-108800000D01*
X108388428Y-109157142D01*
X112428428Y-112242857D02*
X110928428Y-111742857D01*
X112428428Y-111242857D01*
X110928428Y-110742857D02*
X112428428Y-110742857D01*
X110928428Y-110028571D02*
X112428428Y-110028571D01*
X110928428Y-109171428D01*
X112428428Y-109171428D01*
%TO.C,REF\u002A\u002A*%
G36*
X111539713Y-100819782D02*
G01*
X111647974Y-100821636D01*
X111744892Y-100825030D01*
X111824041Y-100829967D01*
X111878994Y-100836452D01*
X111903326Y-100844489D01*
X111906921Y-100852696D01*
X111918252Y-100893519D01*
X111934278Y-100962524D01*
X111953805Y-101054203D01*
X111975638Y-101163050D01*
X111998582Y-101283558D01*
X112010841Y-101349357D01*
X112032099Y-101462135D01*
X112050713Y-101559207D01*
X112065672Y-101635382D01*
X112075964Y-101685469D01*
X112080578Y-101704276D01*
X112081529Y-101704983D01*
X112105690Y-101716961D01*
X112156306Y-101739794D01*
X112226662Y-101770630D01*
X112310042Y-101806613D01*
X112399730Y-101844891D01*
X112489011Y-101882609D01*
X112571168Y-101916913D01*
X112639487Y-101944949D01*
X112687252Y-101963864D01*
X112707746Y-101970803D01*
X112714957Y-101967742D01*
X112749272Y-101947372D01*
X112807030Y-101910422D01*
X112883701Y-101859860D01*
X112974752Y-101798657D01*
X113075650Y-101729781D01*
X113130907Y-101691994D01*
X113227785Y-101626782D01*
X113312807Y-101570871D01*
X113381338Y-101527241D01*
X113428740Y-101498877D01*
X113450377Y-101488759D01*
X113462113Y-101495790D01*
X113497182Y-101525197D01*
X113550255Y-101573441D01*
X113616836Y-101636093D01*
X113692426Y-101708725D01*
X113772528Y-101786908D01*
X113852646Y-101866214D01*
X113928282Y-101942213D01*
X113994938Y-102010478D01*
X114048118Y-102066580D01*
X114083324Y-102106090D01*
X114096058Y-102124579D01*
X114091107Y-102134843D01*
X114068143Y-102172530D01*
X114029062Y-102233348D01*
X113976728Y-102312913D01*
X113914004Y-102406843D01*
X113843754Y-102510754D01*
X113591449Y-102881794D01*
X113718947Y-103191080D01*
X113846445Y-103500365D01*
X114291069Y-103584186D01*
X114735693Y-103668006D01*
X114735693Y-104593454D01*
X114291069Y-104677275D01*
X113846445Y-104761095D01*
X113591449Y-105379667D01*
X113843754Y-105750707D01*
X113893494Y-105824144D01*
X113958782Y-105921499D01*
X114014546Y-106005787D01*
X114057922Y-106072631D01*
X114086047Y-106117654D01*
X114096058Y-106136478D01*
X114088939Y-106148039D01*
X114059106Y-106182596D01*
X114010148Y-106234894D01*
X113946560Y-106300500D01*
X113872837Y-106374983D01*
X113793475Y-106453913D01*
X113712969Y-106532856D01*
X113635815Y-106607384D01*
X113566507Y-106673063D01*
X113509543Y-106725463D01*
X113469416Y-106760153D01*
X113450623Y-106772701D01*
X113442549Y-106769782D01*
X113406531Y-106749571D01*
X113347256Y-106712663D01*
X113269370Y-106662050D01*
X113177519Y-106600725D01*
X113076350Y-106531679D01*
X113021174Y-106493787D01*
X112925116Y-106428606D01*
X112841283Y-106372723D01*
X112774223Y-106329117D01*
X112728481Y-106300769D01*
X112708604Y-106290657D01*
X112707503Y-106290823D01*
X112682306Y-106299743D01*
X112630853Y-106320206D01*
X112559865Y-106349360D01*
X112476065Y-106384353D01*
X112386172Y-106422332D01*
X112296909Y-106460445D01*
X112214997Y-106495839D01*
X112147157Y-106525662D01*
X112100110Y-106547061D01*
X112080578Y-106557184D01*
X112078845Y-106563174D01*
X112071031Y-106599566D01*
X112058085Y-106664427D01*
X112041021Y-106752565D01*
X112020849Y-106858787D01*
X111998582Y-106977902D01*
X111986777Y-107040683D01*
X111964252Y-107155912D01*
X111943450Y-107256662D01*
X111925565Y-107337426D01*
X111911792Y-107392698D01*
X111903326Y-107416971D01*
X111894934Y-107421331D01*
X111853928Y-107428563D01*
X111785632Y-107434246D01*
X111696471Y-107438382D01*
X111592872Y-107440977D01*
X111481260Y-107442036D01*
X111368062Y-107441561D01*
X111259704Y-107439559D01*
X111162611Y-107436033D01*
X111083210Y-107430987D01*
X111027928Y-107424427D01*
X111003190Y-107416356D01*
X111000400Y-107411458D01*
X110988431Y-107374930D01*
X110972595Y-107311565D01*
X110954626Y-107228686D01*
X110936259Y-107133618D01*
X110930409Y-107101542D01*
X110903202Y-106953393D01*
X110881337Y-106836961D01*
X110863907Y-106748209D01*
X110850004Y-106683103D01*
X110838723Y-106637606D01*
X110829157Y-106607682D01*
X110820399Y-106589294D01*
X110811543Y-106578407D01*
X110810057Y-106577142D01*
X110779069Y-106559338D01*
X110722366Y-106532994D01*
X110646601Y-106500661D01*
X110558426Y-106464893D01*
X110464493Y-106428244D01*
X110371453Y-106393266D01*
X110285959Y-106362513D01*
X110214664Y-106338538D01*
X110164218Y-106323895D01*
X110141274Y-106321136D01*
X110138297Y-106322981D01*
X110109507Y-106342075D01*
X110056405Y-106377984D01*
X109983883Y-106427378D01*
X109896833Y-106486927D01*
X109800146Y-106553303D01*
X109773544Y-106571520D01*
X109678125Y-106635577D01*
X109592788Y-106690937D01*
X109522595Y-106734439D01*
X109472606Y-106762924D01*
X109447884Y-106773232D01*
X109441384Y-106771011D01*
X109409356Y-106747858D01*
X109357055Y-106702177D01*
X109288001Y-106637241D01*
X109205714Y-106556319D01*
X109113714Y-106462685D01*
X109062219Y-106409165D01*
X108982017Y-106324542D01*
X108913322Y-106250475D01*
X108859748Y-106190941D01*
X108824915Y-106149917D01*
X108812437Y-106131381D01*
X108817062Y-106118646D01*
X108838943Y-106079436D01*
X108874727Y-106022495D01*
X108919883Y-105955250D01*
X108952835Y-105907438D01*
X109018273Y-105811985D01*
X109087772Y-105710125D01*
X109150925Y-105617088D01*
X109274200Y-105434832D01*
X109191480Y-105281841D01*
X109172387Y-105245817D01*
X109139728Y-105180303D01*
X109117181Y-105129640D01*
X109108774Y-105102564D01*
X109119570Y-105093703D01*
X109160677Y-105071699D01*
X109228451Y-105039199D01*
X109318591Y-104998010D01*
X109426795Y-104949942D01*
X109548763Y-104896802D01*
X109680192Y-104840399D01*
X109816782Y-104782542D01*
X109954233Y-104725038D01*
X110088242Y-104669697D01*
X110214509Y-104618326D01*
X110328732Y-104572735D01*
X110426610Y-104534732D01*
X110503843Y-104506124D01*
X110556129Y-104488721D01*
X110579167Y-104484331D01*
X110579840Y-104484628D01*
X110601137Y-104505077D01*
X110634492Y-104547850D01*
X110672989Y-104604117D01*
X110684744Y-104621877D01*
X110796265Y-104757014D01*
X110929094Y-104868856D01*
X111077702Y-104954755D01*
X111236560Y-105012062D01*
X111400140Y-105038131D01*
X111562912Y-105030313D01*
X111707685Y-104998644D01*
X111853876Y-104941782D01*
X111984297Y-104858888D01*
X112108187Y-104745131D01*
X112147765Y-104700433D01*
X112245277Y-104555935D01*
X112310950Y-104399838D01*
X112345370Y-104236667D01*
X112349126Y-104070943D01*
X112322806Y-103907192D01*
X112266997Y-103749936D01*
X112182286Y-103603698D01*
X112069263Y-103473004D01*
X111928513Y-103362374D01*
X111893658Y-103341105D01*
X111734345Y-103268810D01*
X111568448Y-103230415D01*
X111400263Y-103224914D01*
X111234087Y-103251301D01*
X111074216Y-103308570D01*
X110924947Y-103395717D01*
X110790577Y-103511736D01*
X110675401Y-103655622D01*
X110672298Y-103660294D01*
X110633067Y-103715964D01*
X110599714Y-103757689D01*
X110579167Y-103776746D01*
X110563059Y-103774342D01*
X110516156Y-103759391D01*
X110443461Y-103732881D01*
X110349275Y-103696620D01*
X110237902Y-103652416D01*
X110113642Y-103602076D01*
X109980798Y-103547407D01*
X109843673Y-103490218D01*
X109706568Y-103432316D01*
X109573785Y-103375510D01*
X109449626Y-103321606D01*
X109338394Y-103272412D01*
X109244391Y-103229737D01*
X109171918Y-103195387D01*
X109125278Y-103171171D01*
X109108774Y-103158897D01*
X109111009Y-103148689D01*
X109127074Y-103108586D01*
X109155241Y-103049318D01*
X109191480Y-102979619D01*
X109274200Y-102826629D01*
X109150925Y-102644373D01*
X109114421Y-102590527D01*
X109046216Y-102490374D01*
X108977902Y-102390525D01*
X108919883Y-102306211D01*
X108888264Y-102259679D01*
X108848980Y-102199200D01*
X108822088Y-102154357D01*
X108812117Y-102132455D01*
X108816350Y-102123045D01*
X108842279Y-102089031D01*
X108887930Y-102036595D01*
X108948814Y-101970301D01*
X109020439Y-101894713D01*
X109098317Y-101814396D01*
X109177955Y-101733913D01*
X109254865Y-101657829D01*
X109324555Y-101590707D01*
X109382536Y-101537112D01*
X109424316Y-101501608D01*
X109445407Y-101488759D01*
X109449419Y-101489500D01*
X109482080Y-101504793D01*
X109538588Y-101537462D01*
X109613837Y-101584350D01*
X109702725Y-101642301D01*
X109800146Y-101708157D01*
X109827018Y-101726627D01*
X109921577Y-101791482D01*
X110005173Y-101848609D01*
X110072916Y-101894678D01*
X110119914Y-101926359D01*
X110141274Y-101940324D01*
X110142189Y-101940668D01*
X110168322Y-101936546D01*
X110221260Y-101920807D01*
X110294353Y-101896004D01*
X110380948Y-101864689D01*
X110474392Y-101829417D01*
X110568035Y-101792740D01*
X110655223Y-101757212D01*
X110729305Y-101725386D01*
X110783629Y-101699816D01*
X110811543Y-101683053D01*
X110813276Y-101681374D01*
X110822044Y-101669372D01*
X110830885Y-101649103D01*
X110840708Y-101616529D01*
X110852417Y-101567616D01*
X110866920Y-101498327D01*
X110885124Y-101404625D01*
X110907934Y-101282476D01*
X110936259Y-101127842D01*
X110942220Y-101095770D01*
X110960648Y-101003893D01*
X110978108Y-100926607D01*
X110992867Y-100871236D01*
X111003190Y-100845105D01*
X111011803Y-100840733D01*
X111053174Y-100833445D01*
X111121759Y-100827669D01*
X111211132Y-100823410D01*
X111314865Y-100820673D01*
X111426535Y-100819462D01*
X111539713Y-100819782D01*
G37*
D13*
X111539713Y-100819782D02*
X111647974Y-100821636D01*
X111744892Y-100825030D01*
X111824041Y-100829967D01*
X111878994Y-100836452D01*
X111903326Y-100844489D01*
X111906921Y-100852696D01*
X111918252Y-100893519D01*
X111934278Y-100962524D01*
X111953805Y-101054203D01*
X111975638Y-101163050D01*
X111998582Y-101283558D01*
X112010841Y-101349357D01*
X112032099Y-101462135D01*
X112050713Y-101559207D01*
X112065672Y-101635382D01*
X112075964Y-101685469D01*
X112080578Y-101704276D01*
X112081529Y-101704983D01*
X112105690Y-101716961D01*
X112156306Y-101739794D01*
X112226662Y-101770630D01*
X112310042Y-101806613D01*
X112399730Y-101844891D01*
X112489011Y-101882609D01*
X112571168Y-101916913D01*
X112639487Y-101944949D01*
X112687252Y-101963864D01*
X112707746Y-101970803D01*
X112714957Y-101967742D01*
X112749272Y-101947372D01*
X112807030Y-101910422D01*
X112883701Y-101859860D01*
X112974752Y-101798657D01*
X113075650Y-101729781D01*
X113130907Y-101691994D01*
X113227785Y-101626782D01*
X113312807Y-101570871D01*
X113381338Y-101527241D01*
X113428740Y-101498877D01*
X113450377Y-101488759D01*
X113462113Y-101495790D01*
X113497182Y-101525197D01*
X113550255Y-101573441D01*
X113616836Y-101636093D01*
X113692426Y-101708725D01*
X113772528Y-101786908D01*
X113852646Y-101866214D01*
X113928282Y-101942213D01*
X113994938Y-102010478D01*
X114048118Y-102066580D01*
X114083324Y-102106090D01*
X114096058Y-102124579D01*
X114091107Y-102134843D01*
X114068143Y-102172530D01*
X114029062Y-102233348D01*
X113976728Y-102312913D01*
X113914004Y-102406843D01*
X113843754Y-102510754D01*
X113591449Y-102881794D01*
X113718947Y-103191080D01*
X113846445Y-103500365D01*
X114291069Y-103584186D01*
X114735693Y-103668006D01*
X114735693Y-104593454D01*
X114291069Y-104677275D01*
X113846445Y-104761095D01*
X113591449Y-105379667D01*
X113843754Y-105750707D01*
X113893494Y-105824144D01*
X113958782Y-105921499D01*
X114014546Y-106005787D01*
X114057922Y-106072631D01*
X114086047Y-106117654D01*
X114096058Y-106136478D01*
X114088939Y-106148039D01*
X114059106Y-106182596D01*
X114010148Y-106234894D01*
X113946560Y-106300500D01*
X113872837Y-106374983D01*
X113793475Y-106453913D01*
X113712969Y-106532856D01*
X113635815Y-106607384D01*
X113566507Y-106673063D01*
X113509543Y-106725463D01*
X113469416Y-106760153D01*
X113450623Y-106772701D01*
X113442549Y-106769782D01*
X113406531Y-106749571D01*
X113347256Y-106712663D01*
X113269370Y-106662050D01*
X113177519Y-106600725D01*
X113076350Y-106531679D01*
X113021174Y-106493787D01*
X112925116Y-106428606D01*
X112841283Y-106372723D01*
X112774223Y-106329117D01*
X112728481Y-106300769D01*
X112708604Y-106290657D01*
X112707503Y-106290823D01*
X112682306Y-106299743D01*
X112630853Y-106320206D01*
X112559865Y-106349360D01*
X112476065Y-106384353D01*
X112386172Y-106422332D01*
X112296909Y-106460445D01*
X112214997Y-106495839D01*
X112147157Y-106525662D01*
X112100110Y-106547061D01*
X112080578Y-106557184D01*
X112078845Y-106563174D01*
X112071031Y-106599566D01*
X112058085Y-106664427D01*
X112041021Y-106752565D01*
X112020849Y-106858787D01*
X111998582Y-106977902D01*
X111986777Y-107040683D01*
X111964252Y-107155912D01*
X111943450Y-107256662D01*
X111925565Y-107337426D01*
X111911792Y-107392698D01*
X111903326Y-107416971D01*
X111894934Y-107421331D01*
X111853928Y-107428563D01*
X111785632Y-107434246D01*
X111696471Y-107438382D01*
X111592872Y-107440977D01*
X111481260Y-107442036D01*
X111368062Y-107441561D01*
X111259704Y-107439559D01*
X111162611Y-107436033D01*
X111083210Y-107430987D01*
X111027928Y-107424427D01*
X111003190Y-107416356D01*
X111000400Y-107411458D01*
X110988431Y-107374930D01*
X110972595Y-107311565D01*
X110954626Y-107228686D01*
X110936259Y-107133618D01*
X110930409Y-107101542D01*
X110903202Y-106953393D01*
X110881337Y-106836961D01*
X110863907Y-106748209D01*
X110850004Y-106683103D01*
X110838723Y-106637606D01*
X110829157Y-106607682D01*
X110820399Y-106589294D01*
X110811543Y-106578407D01*
X110810057Y-106577142D01*
X110779069Y-106559338D01*
X110722366Y-106532994D01*
X110646601Y-106500661D01*
X110558426Y-106464893D01*
X110464493Y-106428244D01*
X110371453Y-106393266D01*
X110285959Y-106362513D01*
X110214664Y-106338538D01*
X110164218Y-106323895D01*
X110141274Y-106321136D01*
X110138297Y-106322981D01*
X110109507Y-106342075D01*
X110056405Y-106377984D01*
X109983883Y-106427378D01*
X109896833Y-106486927D01*
X109800146Y-106553303D01*
X109773544Y-106571520D01*
X109678125Y-106635577D01*
X109592788Y-106690937D01*
X109522595Y-106734439D01*
X109472606Y-106762924D01*
X109447884Y-106773232D01*
X109441384Y-106771011D01*
X109409356Y-106747858D01*
X109357055Y-106702177D01*
X109288001Y-106637241D01*
X109205714Y-106556319D01*
X109113714Y-106462685D01*
X109062219Y-106409165D01*
X108982017Y-106324542D01*
X108913322Y-106250475D01*
X108859748Y-106190941D01*
X108824915Y-106149917D01*
X108812437Y-106131381D01*
X108817062Y-106118646D01*
X108838943Y-106079436D01*
X108874727Y-106022495D01*
X108919883Y-105955250D01*
X108952835Y-105907438D01*
X109018273Y-105811985D01*
X109087772Y-105710125D01*
X109150925Y-105617088D01*
X109274200Y-105434832D01*
X109191480Y-105281841D01*
X109172387Y-105245817D01*
X109139728Y-105180303D01*
X109117181Y-105129640D01*
X109108774Y-105102564D01*
X109119570Y-105093703D01*
X109160677Y-105071699D01*
X109228451Y-105039199D01*
X109318591Y-104998010D01*
X109426795Y-104949942D01*
X109548763Y-104896802D01*
X109680192Y-104840399D01*
X109816782Y-104782542D01*
X109954233Y-104725038D01*
X110088242Y-104669697D01*
X110214509Y-104618326D01*
X110328732Y-104572735D01*
X110426610Y-104534732D01*
X110503843Y-104506124D01*
X110556129Y-104488721D01*
X110579167Y-104484331D01*
X110579840Y-104484628D01*
X110601137Y-104505077D01*
X110634492Y-104547850D01*
X110672989Y-104604117D01*
X110684744Y-104621877D01*
X110796265Y-104757014D01*
X110929094Y-104868856D01*
X111077702Y-104954755D01*
X111236560Y-105012062D01*
X111400140Y-105038131D01*
X111562912Y-105030313D01*
X111707685Y-104998644D01*
X111853876Y-104941782D01*
X111984297Y-104858888D01*
X112108187Y-104745131D01*
X112147765Y-104700433D01*
X112245277Y-104555935D01*
X112310950Y-104399838D01*
X112345370Y-104236667D01*
X112349126Y-104070943D01*
X112322806Y-103907192D01*
X112266997Y-103749936D01*
X112182286Y-103603698D01*
X112069263Y-103473004D01*
X111928513Y-103362374D01*
X111893658Y-103341105D01*
X111734345Y-103268810D01*
X111568448Y-103230415D01*
X111400263Y-103224914D01*
X111234087Y-103251301D01*
X111074216Y-103308570D01*
X110924947Y-103395717D01*
X110790577Y-103511736D01*
X110675401Y-103655622D01*
X110672298Y-103660294D01*
X110633067Y-103715964D01*
X110599714Y-103757689D01*
X110579167Y-103776746D01*
X110563059Y-103774342D01*
X110516156Y-103759391D01*
X110443461Y-103732881D01*
X110349275Y-103696620D01*
X110237902Y-103652416D01*
X110113642Y-103602076D01*
X109980798Y-103547407D01*
X109843673Y-103490218D01*
X109706568Y-103432316D01*
X109573785Y-103375510D01*
X109449626Y-103321606D01*
X109338394Y-103272412D01*
X109244391Y-103229737D01*
X109171918Y-103195387D01*
X109125278Y-103171171D01*
X109108774Y-103158897D01*
X109111009Y-103148689D01*
X109127074Y-103108586D01*
X109155241Y-103049318D01*
X109191480Y-102979619D01*
X109274200Y-102826629D01*
X109150925Y-102644373D01*
X109114421Y-102590527D01*
X109046216Y-102490374D01*
X108977902Y-102390525D01*
X108919883Y-102306211D01*
X108888264Y-102259679D01*
X108848980Y-102199200D01*
X108822088Y-102154357D01*
X108812117Y-102132455D01*
X108816350Y-102123045D01*
X108842279Y-102089031D01*
X108887930Y-102036595D01*
X108948814Y-101970301D01*
X109020439Y-101894713D01*
X109098317Y-101814396D01*
X109177955Y-101733913D01*
X109254865Y-101657829D01*
X109324555Y-101590707D01*
X109382536Y-101537112D01*
X109424316Y-101501608D01*
X109445407Y-101488759D01*
X109449419Y-101489500D01*
X109482080Y-101504793D01*
X109538588Y-101537462D01*
X109613837Y-101584350D01*
X109702725Y-101642301D01*
X109800146Y-101708157D01*
X109827018Y-101726627D01*
X109921577Y-101791482D01*
X110005173Y-101848609D01*
X110072916Y-101894678D01*
X110119914Y-101926359D01*
X110141274Y-101940324D01*
X110142189Y-101940668D01*
X110168322Y-101936546D01*
X110221260Y-101920807D01*
X110294353Y-101896004D01*
X110380948Y-101864689D01*
X110474392Y-101829417D01*
X110568035Y-101792740D01*
X110655223Y-101757212D01*
X110729305Y-101725386D01*
X110783629Y-101699816D01*
X110811543Y-101683053D01*
X110813276Y-101681374D01*
X110822044Y-101669372D01*
X110830885Y-101649103D01*
X110840708Y-101616529D01*
X110852417Y-101567616D01*
X110866920Y-101498327D01*
X110885124Y-101404625D01*
X110907934Y-101282476D01*
X110936259Y-101127842D01*
X110942220Y-101095770D01*
X110960648Y-101003893D01*
X110978108Y-100926607D01*
X110992867Y-100871236D01*
X111003190Y-100845105D01*
X111011803Y-100840733D01*
X111053174Y-100833445D01*
X111121759Y-100827669D01*
X111211132Y-100823410D01*
X111314865Y-100820673D01*
X111426535Y-100819462D01*
X111539713Y-100819782D01*
%TD*%
M02*
