%TF.GenerationSoftware,KiCad,Pcbnew,6.0.11-2627ca5db0~126~ubuntu20.04.1*%
%TF.CreationDate,2023-04-18T12:09:56-05:00*%
%TF.ProjectId,me2188c-slim,6d653231-3838-4632-9d73-6c696d2e6b69,rev?*%
%TF.SameCoordinates,Original*%
%TF.FileFunction,Legend,Top*%
%TF.FilePolarity,Positive*%
%FSLAX46Y46*%
G04 Gerber Fmt 4.6, Leading zero omitted, Abs format (unit mm)*
G04 Created by KiCad (PCBNEW 6.0.11-2627ca5db0~126~ubuntu20.04.1) date 2023-04-18 12:09:56*
%MOMM*%
%LPD*%
G01*
G04 APERTURE LIST*
%TA.AperFunction,Profile*%
%ADD10C,0.100000*%
%TD*%
%ADD11C,0.150000*%
%ADD12C,0.120000*%
G04 APERTURE END LIST*
D10*
X115700000Y-100000000D02*
X115700000Y-115700000D01*
X100000000Y-100000000D02*
X100000000Y-115700000D01*
X100000000Y-100000000D02*
X115700000Y-100000000D01*
X100000000Y-115700000D02*
X115700000Y-115700000D01*
D11*
%TO.C,J1*%
X101323666Y-113836380D02*
X101323666Y-114550666D01*
X101276047Y-114693523D01*
X101180809Y-114788761D01*
X101037952Y-114836380D01*
X100942714Y-114836380D01*
X102323666Y-114836380D02*
X101752238Y-114836380D01*
X102037952Y-114836380D02*
X102037952Y-113836380D01*
X101942714Y-113979238D01*
X101847476Y-114074476D01*
X101752238Y-114122095D01*
%TO.C,C4*%
X110400000Y-101364285D02*
X110371428Y-101392857D01*
X110285714Y-101421428D01*
X110228571Y-101421428D01*
X110142857Y-101392857D01*
X110085714Y-101335714D01*
X110057142Y-101278571D01*
X110028571Y-101164285D01*
X110028571Y-101078571D01*
X110057142Y-100964285D01*
X110085714Y-100907142D01*
X110142857Y-100850000D01*
X110228571Y-100821428D01*
X110285714Y-100821428D01*
X110371428Y-100850000D01*
X110400000Y-100878571D01*
X110914285Y-101021428D02*
X110914285Y-101421428D01*
X110771428Y-100792857D02*
X110628571Y-101221428D01*
X111000000Y-101221428D01*
%TO.C,C1*%
X114033333Y-113245142D02*
X113985714Y-113292761D01*
X113842857Y-113340380D01*
X113747619Y-113340380D01*
X113604761Y-113292761D01*
X113509523Y-113197523D01*
X113461904Y-113102285D01*
X113414285Y-112911809D01*
X113414285Y-112768952D01*
X113461904Y-112578476D01*
X113509523Y-112483238D01*
X113604761Y-112388000D01*
X113747619Y-112340380D01*
X113842857Y-112340380D01*
X113985714Y-112388000D01*
X114033333Y-112435619D01*
X114985714Y-113340380D02*
X114414285Y-113340380D01*
X114700000Y-113340380D02*
X114700000Y-112340380D01*
X114604761Y-112483238D01*
X114509523Y-112578476D01*
X114414285Y-112626095D01*
%TO.C,U1*%
X105042857Y-108971428D02*
X105042857Y-109457142D01*
X105071428Y-109514285D01*
X105100000Y-109542857D01*
X105157142Y-109571428D01*
X105271428Y-109571428D01*
X105328571Y-109542857D01*
X105357142Y-109514285D01*
X105385714Y-109457142D01*
X105385714Y-108971428D01*
X105985714Y-109571428D02*
X105642857Y-109571428D01*
X105814285Y-109571428D02*
X105814285Y-108971428D01*
X105757142Y-109057142D01*
X105700000Y-109114285D01*
X105642857Y-109142857D01*
%TO.C,C2*%
X101433333Y-113245142D02*
X101385714Y-113292761D01*
X101242857Y-113340380D01*
X101147619Y-113340380D01*
X101004761Y-113292761D01*
X100909523Y-113197523D01*
X100861904Y-113102285D01*
X100814285Y-112911809D01*
X100814285Y-112768952D01*
X100861904Y-112578476D01*
X100909523Y-112483238D01*
X101004761Y-112388000D01*
X101147619Y-112340380D01*
X101242857Y-112340380D01*
X101385714Y-112388000D01*
X101433333Y-112435619D01*
X101814285Y-112435619D02*
X101861904Y-112388000D01*
X101957142Y-112340380D01*
X102195238Y-112340380D01*
X102290476Y-112388000D01*
X102338095Y-112435619D01*
X102385714Y-112530857D01*
X102385714Y-112626095D01*
X102338095Y-112768952D01*
X101766666Y-113340380D01*
X102385714Y-113340380D01*
%TO.C,L1*%
X107683333Y-101352380D02*
X107207142Y-101352380D01*
X107207142Y-100352380D01*
X108540476Y-101352380D02*
X107969047Y-101352380D01*
X108254761Y-101352380D02*
X108254761Y-100352380D01*
X108159523Y-100495238D01*
X108064285Y-100590476D01*
X107969047Y-100638095D01*
%TO.C,C3*%
X104900000Y-101364285D02*
X104871428Y-101392857D01*
X104785714Y-101421428D01*
X104728571Y-101421428D01*
X104642857Y-101392857D01*
X104585714Y-101335714D01*
X104557142Y-101278571D01*
X104528571Y-101164285D01*
X104528571Y-101078571D01*
X104557142Y-100964285D01*
X104585714Y-100907142D01*
X104642857Y-100850000D01*
X104728571Y-100821428D01*
X104785714Y-100821428D01*
X104871428Y-100850000D01*
X104900000Y-100878571D01*
X105100000Y-100821428D02*
X105471428Y-100821428D01*
X105271428Y-101050000D01*
X105357142Y-101050000D01*
X105414285Y-101078571D01*
X105442857Y-101107142D01*
X105471428Y-101164285D01*
X105471428Y-101307142D01*
X105442857Y-101364285D01*
X105414285Y-101392857D01*
X105357142Y-101421428D01*
X105185714Y-101421428D01*
X105128571Y-101392857D01*
X105100000Y-101364285D01*
D12*
%TO.C,J1*%
X105257000Y-115130000D02*
X105257000Y-112470000D01*
X102657000Y-115130000D02*
X102657000Y-113800000D01*
X105257000Y-112470000D02*
X112937000Y-112470000D01*
X112937000Y-115130000D02*
X112937000Y-112470000D01*
X105257000Y-115130000D02*
X112937000Y-115130000D01*
X103987000Y-115130000D02*
X102657000Y-115130000D01*
%TO.C,C4*%
X113369252Y-102385000D02*
X112846748Y-102385000D01*
X113369252Y-100915000D02*
X112846748Y-100915000D01*
%TO.C,C1*%
X115368000Y-110950000D02*
X115368000Y-102715000D01*
X110848000Y-102715000D02*
X110848000Y-110950000D01*
X115368000Y-102715000D02*
X110848000Y-102715000D01*
%TO.C,U1*%
X109410000Y-110200000D02*
X109410000Y-108400000D01*
X106190000Y-108400000D02*
X106190000Y-110850000D01*
%TO.C,C2*%
X104776000Y-110950000D02*
X104776000Y-102715000D01*
X100256000Y-102715000D02*
X100256000Y-110950000D01*
X104776000Y-102715000D02*
X100256000Y-102715000D01*
%TO.C,L1*%
X108350000Y-102030000D02*
X107250000Y-102030000D01*
X108350000Y-106250000D02*
X107250000Y-106250000D01*
%TO.C,C3*%
X102254748Y-100915000D02*
X102777252Y-100915000D01*
X102254748Y-102385000D02*
X102777252Y-102385000D01*
%TD*%
M02*
