%TF.GenerationSoftware,KiCad,Pcbnew,6.0.11-2627ca5db0~126~ubuntu20.04.1*%
%TF.CreationDate,2023-04-18T12:28:58-05:00*%
%TF.ProjectId,,58585858-5858-4585-9858-585858585858,rev?*%
%TF.SameCoordinates,Original*%
%TF.FileFunction,Soldermask,Bot*%
%TF.FilePolarity,Negative*%
%FSLAX46Y46*%
G04 Gerber Fmt 4.6, Leading zero omitted, Abs format (unit mm)*
G04 Created by KiCad (PCBNEW 6.0.11-2627ca5db0~126~ubuntu20.04.1) date 2023-04-18 12:28:58*
%MOMM*%
%LPD*%
G01*
G04 APERTURE LIST*
%TA.AperFunction,Profile*%
%ADD10C,0.100000*%
%TD*%
%ADD11R,1.700000X1.700000*%
%ADD12O,1.700000X1.700000*%
G04 APERTURE END LIST*
D10*
X178020000Y-126760000D02*
X178020000Y-142460000D01*
X162320000Y-126760000D02*
X162320000Y-142460000D01*
X162320000Y-142460000D02*
X178020000Y-142460000D01*
X162320000Y-126760000D02*
X178020000Y-126760000D01*
X162320000Y-126760000D02*
X162320000Y-142460000D01*
X146620000Y-126760000D02*
X146620000Y-142460000D01*
X146620000Y-142460000D02*
X162320000Y-142460000D01*
X146620000Y-126760000D02*
X162320000Y-126760000D01*
X146620000Y-126760000D02*
X146620000Y-142460000D01*
X130920000Y-126760000D02*
X130920000Y-142460000D01*
X130920000Y-142460000D02*
X146620000Y-142460000D01*
X130920000Y-126760000D02*
X146620000Y-126760000D01*
X130920000Y-126760000D02*
X130920000Y-142460000D01*
X115220000Y-126760000D02*
X115220000Y-142460000D01*
X115220000Y-142460000D02*
X130920000Y-142460000D01*
X115220000Y-126760000D02*
X130920000Y-126760000D01*
X115220000Y-126760000D02*
X115220000Y-142460000D01*
X99520000Y-126760000D02*
X99520000Y-142460000D01*
X99520000Y-142460000D02*
X115220000Y-142460000D01*
X99520000Y-126760000D02*
X115220000Y-126760000D01*
X99520000Y-126760000D02*
X99520000Y-142460000D01*
X83820000Y-126760000D02*
X83820000Y-142460000D01*
X83820000Y-142460000D02*
X99520000Y-142460000D01*
X83820000Y-126760000D02*
X99520000Y-126760000D01*
X178020000Y-111060000D02*
X178020000Y-126760000D01*
X162320000Y-111060000D02*
X162320000Y-126760000D01*
X162320000Y-126760000D02*
X178020000Y-126760000D01*
X162320000Y-111060000D02*
X178020000Y-111060000D01*
X162320000Y-111060000D02*
X162320000Y-126760000D01*
X146620000Y-111060000D02*
X146620000Y-126760000D01*
X146620000Y-126760000D02*
X162320000Y-126760000D01*
X146620000Y-111060000D02*
X162320000Y-111060000D01*
X146620000Y-111060000D02*
X146620000Y-126760000D01*
X130920000Y-111060000D02*
X130920000Y-126760000D01*
X130920000Y-126760000D02*
X146620000Y-126760000D01*
X130920000Y-111060000D02*
X146620000Y-111060000D01*
X130920000Y-111060000D02*
X130920000Y-126760000D01*
X115220000Y-111060000D02*
X115220000Y-126760000D01*
X115220000Y-126760000D02*
X130920000Y-126760000D01*
X115220000Y-111060000D02*
X130920000Y-111060000D01*
X115220000Y-111060000D02*
X115220000Y-126760000D01*
X99520000Y-111060000D02*
X99520000Y-126760000D01*
X99520000Y-126760000D02*
X115220000Y-126760000D01*
X99520000Y-111060000D02*
X115220000Y-111060000D01*
X99520000Y-111060000D02*
X99520000Y-126760000D01*
X83820000Y-111060000D02*
X83820000Y-126760000D01*
X83820000Y-126760000D02*
X99520000Y-126760000D01*
X83820000Y-111060000D02*
X99520000Y-111060000D01*
X178020000Y-95360000D02*
X178020000Y-111060000D01*
X162320000Y-95360000D02*
X162320000Y-111060000D01*
X162320000Y-111060000D02*
X178020000Y-111060000D01*
X162320000Y-95360000D02*
X178020000Y-95360000D01*
X162320000Y-95360000D02*
X162320000Y-111060000D01*
X146620000Y-95360000D02*
X146620000Y-111060000D01*
X146620000Y-111060000D02*
X162320000Y-111060000D01*
X146620000Y-95360000D02*
X162320000Y-95360000D01*
X146620000Y-95360000D02*
X146620000Y-111060000D01*
X130920000Y-95360000D02*
X130920000Y-111060000D01*
X130920000Y-111060000D02*
X146620000Y-111060000D01*
X130920000Y-95360000D02*
X146620000Y-95360000D01*
X130920000Y-95360000D02*
X130920000Y-111060000D01*
X115220000Y-95360000D02*
X115220000Y-111060000D01*
X115220000Y-111060000D02*
X130920000Y-111060000D01*
X115220000Y-95360000D02*
X130920000Y-95360000D01*
X115220000Y-95360000D02*
X115220000Y-111060000D01*
X99520000Y-95360000D02*
X99520000Y-111060000D01*
X99520000Y-111060000D02*
X115220000Y-111060000D01*
X99520000Y-95360000D02*
X115220000Y-95360000D01*
X99520000Y-95360000D02*
X99520000Y-111060000D01*
X83820000Y-95360000D02*
X83820000Y-111060000D01*
X83820000Y-111060000D02*
X99520000Y-111060000D01*
X83820000Y-95360000D02*
X99520000Y-95360000D01*
X178020000Y-79660000D02*
X178020000Y-95360000D01*
X162320000Y-79660000D02*
X162320000Y-95360000D01*
X162320000Y-95360000D02*
X178020000Y-95360000D01*
X162320000Y-79660000D02*
X178020000Y-79660000D01*
X162320000Y-79660000D02*
X162320000Y-95360000D01*
X146620000Y-79660000D02*
X146620000Y-95360000D01*
X146620000Y-95360000D02*
X162320000Y-95360000D01*
X146620000Y-79660000D02*
X162320000Y-79660000D01*
X146620000Y-79660000D02*
X146620000Y-95360000D01*
X130920000Y-79660000D02*
X130920000Y-95360000D01*
X130920000Y-95360000D02*
X146620000Y-95360000D01*
X130920000Y-79660000D02*
X146620000Y-79660000D01*
X130920000Y-79660000D02*
X130920000Y-95360000D01*
X115220000Y-79660000D02*
X115220000Y-95360000D01*
X115220000Y-95360000D02*
X130920000Y-95360000D01*
X115220000Y-79660000D02*
X130920000Y-79660000D01*
X115220000Y-79660000D02*
X115220000Y-95360000D01*
X99520000Y-79660000D02*
X99520000Y-95360000D01*
X99520000Y-95360000D02*
X115220000Y-95360000D01*
X99520000Y-79660000D02*
X115220000Y-79660000D01*
X99520000Y-79660000D02*
X99520000Y-95360000D01*
X83820000Y-79660000D02*
X83820000Y-95360000D01*
X83820000Y-95360000D02*
X99520000Y-95360000D01*
X83820000Y-79660000D02*
X99520000Y-79660000D01*
X178020000Y-63960000D02*
X178020000Y-79660000D01*
X162320000Y-63960000D02*
X162320000Y-79660000D01*
X162320000Y-79660000D02*
X178020000Y-79660000D01*
X162320000Y-63960000D02*
X178020000Y-63960000D01*
X162320000Y-63960000D02*
X162320000Y-79660000D01*
X146620000Y-63960000D02*
X146620000Y-79660000D01*
X146620000Y-79660000D02*
X162320000Y-79660000D01*
X146620000Y-63960000D02*
X162320000Y-63960000D01*
X146620000Y-63960000D02*
X146620000Y-79660000D01*
X130920000Y-63960000D02*
X130920000Y-79660000D01*
X130920000Y-79660000D02*
X146620000Y-79660000D01*
X130920000Y-63960000D02*
X146620000Y-63960000D01*
X130920000Y-63960000D02*
X130920000Y-79660000D01*
X115220000Y-63960000D02*
X115220000Y-79660000D01*
X115220000Y-79660000D02*
X130920000Y-79660000D01*
X115220000Y-63960000D02*
X130920000Y-63960000D01*
X115220000Y-63960000D02*
X115220000Y-79660000D01*
X99520000Y-63960000D02*
X99520000Y-79660000D01*
X99520000Y-79660000D02*
X115220000Y-79660000D01*
X99520000Y-63960000D02*
X115220000Y-63960000D01*
X99520000Y-63960000D02*
X99520000Y-79660000D01*
X83820000Y-63960000D02*
X83820000Y-79660000D01*
X83820000Y-79660000D02*
X99520000Y-79660000D01*
X83820000Y-63960000D02*
X99520000Y-63960000D01*
X178020000Y-48260000D02*
X178020000Y-63960000D01*
X162320000Y-48260000D02*
X162320000Y-63960000D01*
X162320000Y-63960000D02*
X178020000Y-63960000D01*
X162320000Y-48260000D02*
X178020000Y-48260000D01*
X162320000Y-48260000D02*
X162320000Y-63960000D01*
X146620000Y-48260000D02*
X146620000Y-63960000D01*
X146620000Y-63960000D02*
X162320000Y-63960000D01*
X146620000Y-48260000D02*
X162320000Y-48260000D01*
X146620000Y-48260000D02*
X146620000Y-63960000D01*
X130920000Y-48260000D02*
X130920000Y-63960000D01*
X130920000Y-63960000D02*
X146620000Y-63960000D01*
X130920000Y-48260000D02*
X146620000Y-48260000D01*
X130920000Y-48260000D02*
X130920000Y-63960000D01*
X115220000Y-48260000D02*
X115220000Y-63960000D01*
X115220000Y-63960000D02*
X130920000Y-63960000D01*
X115220000Y-48260000D02*
X130920000Y-48260000D01*
X115220000Y-48260000D02*
X115220000Y-63960000D01*
X99520000Y-48260000D02*
X99520000Y-63960000D01*
X99520000Y-63960000D02*
X115220000Y-63960000D01*
X99520000Y-48260000D02*
X115220000Y-48260000D01*
X99520000Y-48260000D02*
X99520000Y-63960000D01*
X83820000Y-48260000D02*
X83820000Y-63960000D01*
X83820000Y-48260000D02*
X99520000Y-48260000D01*
X83820000Y-63960000D02*
X99520000Y-63960000D01*
D11*
%TO.C,J1*%
X166307000Y-140560000D03*
D12*
X168847000Y-140560000D03*
X171387000Y-140560000D03*
X173927000Y-140560000D03*
%TD*%
D11*
%TO.C,J1*%
X150607000Y-140560000D03*
D12*
X153147000Y-140560000D03*
X155687000Y-140560000D03*
X158227000Y-140560000D03*
%TD*%
D11*
%TO.C,J1*%
X134907000Y-140560000D03*
D12*
X137447000Y-140560000D03*
X139987000Y-140560000D03*
X142527000Y-140560000D03*
%TD*%
D11*
%TO.C,J1*%
X119207000Y-140560000D03*
D12*
X121747000Y-140560000D03*
X124287000Y-140560000D03*
X126827000Y-140560000D03*
%TD*%
D11*
%TO.C,J1*%
X103507000Y-140560000D03*
D12*
X106047000Y-140560000D03*
X108587000Y-140560000D03*
X111127000Y-140560000D03*
%TD*%
D11*
%TO.C,J1*%
X87807000Y-140560000D03*
D12*
X90347000Y-140560000D03*
X92887000Y-140560000D03*
X95427000Y-140560000D03*
%TD*%
D11*
%TO.C,J1*%
X166307000Y-124860000D03*
D12*
X168847000Y-124860000D03*
X171387000Y-124860000D03*
X173927000Y-124860000D03*
%TD*%
D11*
%TO.C,J1*%
X150607000Y-124860000D03*
D12*
X153147000Y-124860000D03*
X155687000Y-124860000D03*
X158227000Y-124860000D03*
%TD*%
D11*
%TO.C,J1*%
X134907000Y-124860000D03*
D12*
X137447000Y-124860000D03*
X139987000Y-124860000D03*
X142527000Y-124860000D03*
%TD*%
D11*
%TO.C,J1*%
X119207000Y-124860000D03*
D12*
X121747000Y-124860000D03*
X124287000Y-124860000D03*
X126827000Y-124860000D03*
%TD*%
D11*
%TO.C,J1*%
X103507000Y-124860000D03*
D12*
X106047000Y-124860000D03*
X108587000Y-124860000D03*
X111127000Y-124860000D03*
%TD*%
D11*
%TO.C,J1*%
X87807000Y-124860000D03*
D12*
X90347000Y-124860000D03*
X92887000Y-124860000D03*
X95427000Y-124860000D03*
%TD*%
D11*
%TO.C,J1*%
X166307000Y-109160000D03*
D12*
X168847000Y-109160000D03*
X171387000Y-109160000D03*
X173927000Y-109160000D03*
%TD*%
D11*
%TO.C,J1*%
X150607000Y-109160000D03*
D12*
X153147000Y-109160000D03*
X155687000Y-109160000D03*
X158227000Y-109160000D03*
%TD*%
D11*
%TO.C,J1*%
X134907000Y-109160000D03*
D12*
X137447000Y-109160000D03*
X139987000Y-109160000D03*
X142527000Y-109160000D03*
%TD*%
D11*
%TO.C,J1*%
X119207000Y-109160000D03*
D12*
X121747000Y-109160000D03*
X124287000Y-109160000D03*
X126827000Y-109160000D03*
%TD*%
D11*
%TO.C,J1*%
X103507000Y-109160000D03*
D12*
X106047000Y-109160000D03*
X108587000Y-109160000D03*
X111127000Y-109160000D03*
%TD*%
D11*
%TO.C,J1*%
X87807000Y-109160000D03*
D12*
X90347000Y-109160000D03*
X92887000Y-109160000D03*
X95427000Y-109160000D03*
%TD*%
D11*
%TO.C,J1*%
X166307000Y-93460000D03*
D12*
X168847000Y-93460000D03*
X171387000Y-93460000D03*
X173927000Y-93460000D03*
%TD*%
D11*
%TO.C,J1*%
X150607000Y-93460000D03*
D12*
X153147000Y-93460000D03*
X155687000Y-93460000D03*
X158227000Y-93460000D03*
%TD*%
D11*
%TO.C,J1*%
X134907000Y-93460000D03*
D12*
X137447000Y-93460000D03*
X139987000Y-93460000D03*
X142527000Y-93460000D03*
%TD*%
D11*
%TO.C,J1*%
X119207000Y-93460000D03*
D12*
X121747000Y-93460000D03*
X124287000Y-93460000D03*
X126827000Y-93460000D03*
%TD*%
D11*
%TO.C,J1*%
X103507000Y-93460000D03*
D12*
X106047000Y-93460000D03*
X108587000Y-93460000D03*
X111127000Y-93460000D03*
%TD*%
D11*
%TO.C,J1*%
X87807000Y-93460000D03*
D12*
X90347000Y-93460000D03*
X92887000Y-93460000D03*
X95427000Y-93460000D03*
%TD*%
D11*
%TO.C,J1*%
X166307000Y-77760000D03*
D12*
X168847000Y-77760000D03*
X171387000Y-77760000D03*
X173927000Y-77760000D03*
%TD*%
D11*
%TO.C,J1*%
X150607000Y-77760000D03*
D12*
X153147000Y-77760000D03*
X155687000Y-77760000D03*
X158227000Y-77760000D03*
%TD*%
D11*
%TO.C,J1*%
X134907000Y-77760000D03*
D12*
X137447000Y-77760000D03*
X139987000Y-77760000D03*
X142527000Y-77760000D03*
%TD*%
D11*
%TO.C,J1*%
X119207000Y-77760000D03*
D12*
X121747000Y-77760000D03*
X124287000Y-77760000D03*
X126827000Y-77760000D03*
%TD*%
D11*
%TO.C,J1*%
X103507000Y-77760000D03*
D12*
X106047000Y-77760000D03*
X108587000Y-77760000D03*
X111127000Y-77760000D03*
%TD*%
D11*
%TO.C,J1*%
X87807000Y-77760000D03*
D12*
X90347000Y-77760000D03*
X92887000Y-77760000D03*
X95427000Y-77760000D03*
%TD*%
D11*
%TO.C,J1*%
X166307000Y-62060000D03*
D12*
X168847000Y-62060000D03*
X171387000Y-62060000D03*
X173927000Y-62060000D03*
%TD*%
D11*
%TO.C,J1*%
X150607000Y-62060000D03*
D12*
X153147000Y-62060000D03*
X155687000Y-62060000D03*
X158227000Y-62060000D03*
%TD*%
D11*
%TO.C,J1*%
X134907000Y-62060000D03*
D12*
X137447000Y-62060000D03*
X139987000Y-62060000D03*
X142527000Y-62060000D03*
%TD*%
D11*
%TO.C,J1*%
X119207000Y-62060000D03*
D12*
X121747000Y-62060000D03*
X124287000Y-62060000D03*
X126827000Y-62060000D03*
%TD*%
D11*
%TO.C,J1*%
X103507000Y-62060000D03*
D12*
X106047000Y-62060000D03*
X108587000Y-62060000D03*
X111127000Y-62060000D03*
%TD*%
D11*
%TO.C,J1*%
X87807000Y-62060000D03*
D12*
X90347000Y-62060000D03*
X92887000Y-62060000D03*
X95427000Y-62060000D03*
%TD*%
M02*
