%TF.GenerationSoftware,KiCad,Pcbnew,6.0.11-2627ca5db0~126~ubuntu20.04.1*%
%TF.CreationDate,2023-04-18T12:28:58-05:00*%
%TF.ProjectId,,58585858-5858-4585-9858-585858585858,rev?*%
%TF.SameCoordinates,Original*%
%TF.FileFunction,Soldermask,Top*%
%TF.FilePolarity,Negative*%
%FSLAX46Y46*%
G04 Gerber Fmt 4.6, Leading zero omitted, Abs format (unit mm)*
G04 Created by KiCad (PCBNEW 6.0.11-2627ca5db0~126~ubuntu20.04.1) date 2023-04-18 12:28:58*
%MOMM*%
%LPD*%
G01*
G04 APERTURE LIST*
G04 Aperture macros list*
%AMRoundRect*
0 Rectangle with rounded corners*
0 $1 Rounding radius*
0 $2 $3 $4 $5 $6 $7 $8 $9 X,Y pos of 4 corners*
0 Add a 4 corners polygon primitive as box body*
4,1,4,$2,$3,$4,$5,$6,$7,$8,$9,$2,$3,0*
0 Add four circle primitives for the rounded corners*
1,1,$1+$1,$2,$3*
1,1,$1+$1,$4,$5*
1,1,$1+$1,$6,$7*
1,1,$1+$1,$8,$9*
0 Add four rect primitives between the rounded corners*
20,1,$1+$1,$2,$3,$4,$5,0*
20,1,$1+$1,$4,$5,$6,$7,0*
20,1,$1+$1,$6,$7,$8,$9,0*
20,1,$1+$1,$8,$9,$2,$3,0*%
G04 Aperture macros list end*
%TA.AperFunction,Profile*%
%ADD10C,0.100000*%
%TD*%
%ADD11RoundRect,0.250000X-0.337500X-0.475000X0.337500X-0.475000X0.337500X0.475000X-0.337500X0.475000X0*%
%ADD12RoundRect,0.250000X-1.025000X0.875000X-1.025000X-0.875000X1.025000X-0.875000X1.025000X0.875000X0*%
%ADD13R,1.750000X4.500000*%
%ADD14R,0.650000X1.560000*%
%ADD15RoundRect,0.250000X0.337500X0.475000X-0.337500X0.475000X-0.337500X-0.475000X0.337500X-0.475000X0*%
%ADD16R,1.700000X1.700000*%
%ADD17O,1.700000X1.700000*%
G04 APERTURE END LIST*
D10*
X178020000Y-126760000D02*
X178020000Y-142460000D01*
X162320000Y-126760000D02*
X162320000Y-142460000D01*
X162320000Y-142460000D02*
X178020000Y-142460000D01*
X162320000Y-126760000D02*
X178020000Y-126760000D01*
X162320000Y-126760000D02*
X162320000Y-142460000D01*
X146620000Y-126760000D02*
X146620000Y-142460000D01*
X146620000Y-142460000D02*
X162320000Y-142460000D01*
X146620000Y-126760000D02*
X162320000Y-126760000D01*
X146620000Y-126760000D02*
X146620000Y-142460000D01*
X130920000Y-126760000D02*
X130920000Y-142460000D01*
X130920000Y-142460000D02*
X146620000Y-142460000D01*
X130920000Y-126760000D02*
X146620000Y-126760000D01*
X130920000Y-126760000D02*
X130920000Y-142460000D01*
X115220000Y-126760000D02*
X115220000Y-142460000D01*
X115220000Y-142460000D02*
X130920000Y-142460000D01*
X115220000Y-126760000D02*
X130920000Y-126760000D01*
X115220000Y-126760000D02*
X115220000Y-142460000D01*
X99520000Y-126760000D02*
X99520000Y-142460000D01*
X99520000Y-142460000D02*
X115220000Y-142460000D01*
X99520000Y-126760000D02*
X115220000Y-126760000D01*
X99520000Y-126760000D02*
X99520000Y-142460000D01*
X83820000Y-126760000D02*
X83820000Y-142460000D01*
X83820000Y-142460000D02*
X99520000Y-142460000D01*
X83820000Y-126760000D02*
X99520000Y-126760000D01*
X178020000Y-111060000D02*
X178020000Y-126760000D01*
X162320000Y-111060000D02*
X162320000Y-126760000D01*
X162320000Y-126760000D02*
X178020000Y-126760000D01*
X162320000Y-111060000D02*
X178020000Y-111060000D01*
X162320000Y-111060000D02*
X162320000Y-126760000D01*
X146620000Y-111060000D02*
X146620000Y-126760000D01*
X146620000Y-126760000D02*
X162320000Y-126760000D01*
X146620000Y-111060000D02*
X162320000Y-111060000D01*
X146620000Y-111060000D02*
X146620000Y-126760000D01*
X130920000Y-111060000D02*
X130920000Y-126760000D01*
X130920000Y-126760000D02*
X146620000Y-126760000D01*
X130920000Y-111060000D02*
X146620000Y-111060000D01*
X130920000Y-111060000D02*
X130920000Y-126760000D01*
X115220000Y-111060000D02*
X115220000Y-126760000D01*
X115220000Y-126760000D02*
X130920000Y-126760000D01*
X115220000Y-111060000D02*
X130920000Y-111060000D01*
X115220000Y-111060000D02*
X115220000Y-126760000D01*
X99520000Y-111060000D02*
X99520000Y-126760000D01*
X99520000Y-126760000D02*
X115220000Y-126760000D01*
X99520000Y-111060000D02*
X115220000Y-111060000D01*
X99520000Y-111060000D02*
X99520000Y-126760000D01*
X83820000Y-111060000D02*
X83820000Y-126760000D01*
X83820000Y-126760000D02*
X99520000Y-126760000D01*
X83820000Y-111060000D02*
X99520000Y-111060000D01*
X178020000Y-95360000D02*
X178020000Y-111060000D01*
X162320000Y-95360000D02*
X162320000Y-111060000D01*
X162320000Y-111060000D02*
X178020000Y-111060000D01*
X162320000Y-95360000D02*
X178020000Y-95360000D01*
X162320000Y-95360000D02*
X162320000Y-111060000D01*
X146620000Y-95360000D02*
X146620000Y-111060000D01*
X146620000Y-111060000D02*
X162320000Y-111060000D01*
X146620000Y-95360000D02*
X162320000Y-95360000D01*
X146620000Y-95360000D02*
X146620000Y-111060000D01*
X130920000Y-95360000D02*
X130920000Y-111060000D01*
X130920000Y-111060000D02*
X146620000Y-111060000D01*
X130920000Y-95360000D02*
X146620000Y-95360000D01*
X130920000Y-95360000D02*
X130920000Y-111060000D01*
X115220000Y-95360000D02*
X115220000Y-111060000D01*
X115220000Y-111060000D02*
X130920000Y-111060000D01*
X115220000Y-95360000D02*
X130920000Y-95360000D01*
X115220000Y-95360000D02*
X115220000Y-111060000D01*
X99520000Y-95360000D02*
X99520000Y-111060000D01*
X99520000Y-111060000D02*
X115220000Y-111060000D01*
X99520000Y-95360000D02*
X115220000Y-95360000D01*
X99520000Y-95360000D02*
X99520000Y-111060000D01*
X83820000Y-95360000D02*
X83820000Y-111060000D01*
X83820000Y-111060000D02*
X99520000Y-111060000D01*
X83820000Y-95360000D02*
X99520000Y-95360000D01*
X178020000Y-79660000D02*
X178020000Y-95360000D01*
X162320000Y-79660000D02*
X162320000Y-95360000D01*
X162320000Y-95360000D02*
X178020000Y-95360000D01*
X162320000Y-79660000D02*
X178020000Y-79660000D01*
X162320000Y-79660000D02*
X162320000Y-95360000D01*
X146620000Y-79660000D02*
X146620000Y-95360000D01*
X146620000Y-95360000D02*
X162320000Y-95360000D01*
X146620000Y-79660000D02*
X162320000Y-79660000D01*
X146620000Y-79660000D02*
X146620000Y-95360000D01*
X130920000Y-79660000D02*
X130920000Y-95360000D01*
X130920000Y-95360000D02*
X146620000Y-95360000D01*
X130920000Y-79660000D02*
X146620000Y-79660000D01*
X130920000Y-79660000D02*
X130920000Y-95360000D01*
X115220000Y-79660000D02*
X115220000Y-95360000D01*
X115220000Y-95360000D02*
X130920000Y-95360000D01*
X115220000Y-79660000D02*
X130920000Y-79660000D01*
X115220000Y-79660000D02*
X115220000Y-95360000D01*
X99520000Y-79660000D02*
X99520000Y-95360000D01*
X99520000Y-95360000D02*
X115220000Y-95360000D01*
X99520000Y-79660000D02*
X115220000Y-79660000D01*
X99520000Y-79660000D02*
X99520000Y-95360000D01*
X83820000Y-79660000D02*
X83820000Y-95360000D01*
X83820000Y-95360000D02*
X99520000Y-95360000D01*
X83820000Y-79660000D02*
X99520000Y-79660000D01*
X178020000Y-63960000D02*
X178020000Y-79660000D01*
X162320000Y-63960000D02*
X162320000Y-79660000D01*
X162320000Y-79660000D02*
X178020000Y-79660000D01*
X162320000Y-63960000D02*
X178020000Y-63960000D01*
X162320000Y-63960000D02*
X162320000Y-79660000D01*
X146620000Y-63960000D02*
X146620000Y-79660000D01*
X146620000Y-79660000D02*
X162320000Y-79660000D01*
X146620000Y-63960000D02*
X162320000Y-63960000D01*
X146620000Y-63960000D02*
X146620000Y-79660000D01*
X130920000Y-63960000D02*
X130920000Y-79660000D01*
X130920000Y-79660000D02*
X146620000Y-79660000D01*
X130920000Y-63960000D02*
X146620000Y-63960000D01*
X130920000Y-63960000D02*
X130920000Y-79660000D01*
X115220000Y-63960000D02*
X115220000Y-79660000D01*
X115220000Y-79660000D02*
X130920000Y-79660000D01*
X115220000Y-63960000D02*
X130920000Y-63960000D01*
X115220000Y-63960000D02*
X115220000Y-79660000D01*
X99520000Y-63960000D02*
X99520000Y-79660000D01*
X99520000Y-79660000D02*
X115220000Y-79660000D01*
X99520000Y-63960000D02*
X115220000Y-63960000D01*
X99520000Y-63960000D02*
X99520000Y-79660000D01*
X83820000Y-63960000D02*
X83820000Y-79660000D01*
X83820000Y-79660000D02*
X99520000Y-79660000D01*
X83820000Y-63960000D02*
X99520000Y-63960000D01*
X178020000Y-48260000D02*
X178020000Y-63960000D01*
X162320000Y-48260000D02*
X162320000Y-63960000D01*
X162320000Y-63960000D02*
X178020000Y-63960000D01*
X162320000Y-48260000D02*
X178020000Y-48260000D01*
X162320000Y-48260000D02*
X162320000Y-63960000D01*
X146620000Y-48260000D02*
X146620000Y-63960000D01*
X146620000Y-63960000D02*
X162320000Y-63960000D01*
X146620000Y-48260000D02*
X162320000Y-48260000D01*
X146620000Y-48260000D02*
X146620000Y-63960000D01*
X130920000Y-48260000D02*
X130920000Y-63960000D01*
X130920000Y-63960000D02*
X146620000Y-63960000D01*
X130920000Y-48260000D02*
X146620000Y-48260000D01*
X130920000Y-48260000D02*
X130920000Y-63960000D01*
X115220000Y-48260000D02*
X115220000Y-63960000D01*
X115220000Y-63960000D02*
X130920000Y-63960000D01*
X115220000Y-48260000D02*
X130920000Y-48260000D01*
X115220000Y-48260000D02*
X115220000Y-63960000D01*
X99520000Y-48260000D02*
X99520000Y-63960000D01*
X99520000Y-63960000D02*
X115220000Y-63960000D01*
X99520000Y-48260000D02*
X115220000Y-48260000D01*
X99520000Y-48260000D02*
X99520000Y-63960000D01*
X83820000Y-48260000D02*
X83820000Y-63960000D01*
X83820000Y-48260000D02*
X99520000Y-48260000D01*
X83820000Y-63960000D02*
X99520000Y-63960000D01*
D11*
%TO.C,C3*%
X163798500Y-128410000D03*
X165873500Y-128410000D03*
%TD*%
D12*
%TO.C,C2*%
X164836000Y-130860000D03*
X164836000Y-137260000D03*
%TD*%
D13*
%TO.C,L1*%
X171745000Y-130900000D03*
X168495000Y-130900000D03*
%TD*%
D14*
%TO.C,U1*%
X169170000Y-137410000D03*
X170120000Y-137410000D03*
X171070000Y-137410000D03*
X171070000Y-134710000D03*
X169170000Y-134710000D03*
%TD*%
D12*
%TO.C,C1*%
X175428000Y-130860000D03*
X175428000Y-137260000D03*
%TD*%
D15*
%TO.C,C4*%
X176465500Y-128410000D03*
X174390500Y-128410000D03*
%TD*%
D16*
%TO.C,J1*%
X166307000Y-140560000D03*
D17*
X168847000Y-140560000D03*
X171387000Y-140560000D03*
X173927000Y-140560000D03*
%TD*%
D11*
%TO.C,C3*%
X148098500Y-128410000D03*
X150173500Y-128410000D03*
%TD*%
D12*
%TO.C,C2*%
X149136000Y-130860000D03*
X149136000Y-137260000D03*
%TD*%
D13*
%TO.C,L1*%
X156045000Y-130900000D03*
X152795000Y-130900000D03*
%TD*%
D14*
%TO.C,U1*%
X153470000Y-137410000D03*
X154420000Y-137410000D03*
X155370000Y-137410000D03*
X155370000Y-134710000D03*
X153470000Y-134710000D03*
%TD*%
D12*
%TO.C,C1*%
X159728000Y-130860000D03*
X159728000Y-137260000D03*
%TD*%
D15*
%TO.C,C4*%
X160765500Y-128410000D03*
X158690500Y-128410000D03*
%TD*%
D16*
%TO.C,J1*%
X150607000Y-140560000D03*
D17*
X153147000Y-140560000D03*
X155687000Y-140560000D03*
X158227000Y-140560000D03*
%TD*%
D11*
%TO.C,C3*%
X132398500Y-128410000D03*
X134473500Y-128410000D03*
%TD*%
D12*
%TO.C,C2*%
X133436000Y-130860000D03*
X133436000Y-137260000D03*
%TD*%
D13*
%TO.C,L1*%
X140345000Y-130900000D03*
X137095000Y-130900000D03*
%TD*%
D14*
%TO.C,U1*%
X137770000Y-137410000D03*
X138720000Y-137410000D03*
X139670000Y-137410000D03*
X139670000Y-134710000D03*
X137770000Y-134710000D03*
%TD*%
D12*
%TO.C,C1*%
X144028000Y-130860000D03*
X144028000Y-137260000D03*
%TD*%
D15*
%TO.C,C4*%
X145065500Y-128410000D03*
X142990500Y-128410000D03*
%TD*%
D16*
%TO.C,J1*%
X134907000Y-140560000D03*
D17*
X137447000Y-140560000D03*
X139987000Y-140560000D03*
X142527000Y-140560000D03*
%TD*%
D11*
%TO.C,C3*%
X116698500Y-128410000D03*
X118773500Y-128410000D03*
%TD*%
D12*
%TO.C,C2*%
X117736000Y-130860000D03*
X117736000Y-137260000D03*
%TD*%
D13*
%TO.C,L1*%
X124645000Y-130900000D03*
X121395000Y-130900000D03*
%TD*%
D14*
%TO.C,U1*%
X122070000Y-137410000D03*
X123020000Y-137410000D03*
X123970000Y-137410000D03*
X123970000Y-134710000D03*
X122070000Y-134710000D03*
%TD*%
D12*
%TO.C,C1*%
X128328000Y-130860000D03*
X128328000Y-137260000D03*
%TD*%
D15*
%TO.C,C4*%
X129365500Y-128410000D03*
X127290500Y-128410000D03*
%TD*%
D16*
%TO.C,J1*%
X119207000Y-140560000D03*
D17*
X121747000Y-140560000D03*
X124287000Y-140560000D03*
X126827000Y-140560000D03*
%TD*%
D11*
%TO.C,C3*%
X100998500Y-128410000D03*
X103073500Y-128410000D03*
%TD*%
D12*
%TO.C,C2*%
X102036000Y-130860000D03*
X102036000Y-137260000D03*
%TD*%
D13*
%TO.C,L1*%
X108945000Y-130900000D03*
X105695000Y-130900000D03*
%TD*%
D14*
%TO.C,U1*%
X106370000Y-137410000D03*
X107320000Y-137410000D03*
X108270000Y-137410000D03*
X108270000Y-134710000D03*
X106370000Y-134710000D03*
%TD*%
D12*
%TO.C,C1*%
X112628000Y-130860000D03*
X112628000Y-137260000D03*
%TD*%
D15*
%TO.C,C4*%
X113665500Y-128410000D03*
X111590500Y-128410000D03*
%TD*%
D16*
%TO.C,J1*%
X103507000Y-140560000D03*
D17*
X106047000Y-140560000D03*
X108587000Y-140560000D03*
X111127000Y-140560000D03*
%TD*%
D11*
%TO.C,C3*%
X85298500Y-128410000D03*
X87373500Y-128410000D03*
%TD*%
D12*
%TO.C,C2*%
X86336000Y-130860000D03*
X86336000Y-137260000D03*
%TD*%
D13*
%TO.C,L1*%
X93245000Y-130900000D03*
X89995000Y-130900000D03*
%TD*%
D14*
%TO.C,U1*%
X90670000Y-137410000D03*
X91620000Y-137410000D03*
X92570000Y-137410000D03*
X92570000Y-134710000D03*
X90670000Y-134710000D03*
%TD*%
D12*
%TO.C,C1*%
X96928000Y-130860000D03*
X96928000Y-137260000D03*
%TD*%
D15*
%TO.C,C4*%
X97965500Y-128410000D03*
X95890500Y-128410000D03*
%TD*%
D16*
%TO.C,J1*%
X87807000Y-140560000D03*
D17*
X90347000Y-140560000D03*
X92887000Y-140560000D03*
X95427000Y-140560000D03*
%TD*%
D11*
%TO.C,C3*%
X163798500Y-112710000D03*
X165873500Y-112710000D03*
%TD*%
D12*
%TO.C,C2*%
X164836000Y-115160000D03*
X164836000Y-121560000D03*
%TD*%
D13*
%TO.C,L1*%
X171745000Y-115200000D03*
X168495000Y-115200000D03*
%TD*%
D14*
%TO.C,U1*%
X169170000Y-121710000D03*
X170120000Y-121710000D03*
X171070000Y-121710000D03*
X171070000Y-119010000D03*
X169170000Y-119010000D03*
%TD*%
D12*
%TO.C,C1*%
X175428000Y-115160000D03*
X175428000Y-121560000D03*
%TD*%
D15*
%TO.C,C4*%
X176465500Y-112710000D03*
X174390500Y-112710000D03*
%TD*%
D16*
%TO.C,J1*%
X166307000Y-124860000D03*
D17*
X168847000Y-124860000D03*
X171387000Y-124860000D03*
X173927000Y-124860000D03*
%TD*%
D11*
%TO.C,C3*%
X148098500Y-112710000D03*
X150173500Y-112710000D03*
%TD*%
D12*
%TO.C,C2*%
X149136000Y-115160000D03*
X149136000Y-121560000D03*
%TD*%
D13*
%TO.C,L1*%
X156045000Y-115200000D03*
X152795000Y-115200000D03*
%TD*%
D14*
%TO.C,U1*%
X153470000Y-121710000D03*
X154420000Y-121710000D03*
X155370000Y-121710000D03*
X155370000Y-119010000D03*
X153470000Y-119010000D03*
%TD*%
D12*
%TO.C,C1*%
X159728000Y-115160000D03*
X159728000Y-121560000D03*
%TD*%
D15*
%TO.C,C4*%
X160765500Y-112710000D03*
X158690500Y-112710000D03*
%TD*%
D16*
%TO.C,J1*%
X150607000Y-124860000D03*
D17*
X153147000Y-124860000D03*
X155687000Y-124860000D03*
X158227000Y-124860000D03*
%TD*%
D11*
%TO.C,C3*%
X132398500Y-112710000D03*
X134473500Y-112710000D03*
%TD*%
D12*
%TO.C,C2*%
X133436000Y-115160000D03*
X133436000Y-121560000D03*
%TD*%
D13*
%TO.C,L1*%
X140345000Y-115200000D03*
X137095000Y-115200000D03*
%TD*%
D14*
%TO.C,U1*%
X137770000Y-121710000D03*
X138720000Y-121710000D03*
X139670000Y-121710000D03*
X139670000Y-119010000D03*
X137770000Y-119010000D03*
%TD*%
D12*
%TO.C,C1*%
X144028000Y-115160000D03*
X144028000Y-121560000D03*
%TD*%
D15*
%TO.C,C4*%
X145065500Y-112710000D03*
X142990500Y-112710000D03*
%TD*%
D16*
%TO.C,J1*%
X134907000Y-124860000D03*
D17*
X137447000Y-124860000D03*
X139987000Y-124860000D03*
X142527000Y-124860000D03*
%TD*%
D11*
%TO.C,C3*%
X116698500Y-112710000D03*
X118773500Y-112710000D03*
%TD*%
D12*
%TO.C,C2*%
X117736000Y-115160000D03*
X117736000Y-121560000D03*
%TD*%
D13*
%TO.C,L1*%
X124645000Y-115200000D03*
X121395000Y-115200000D03*
%TD*%
D14*
%TO.C,U1*%
X122070000Y-121710000D03*
X123020000Y-121710000D03*
X123970000Y-121710000D03*
X123970000Y-119010000D03*
X122070000Y-119010000D03*
%TD*%
D12*
%TO.C,C1*%
X128328000Y-115160000D03*
X128328000Y-121560000D03*
%TD*%
D15*
%TO.C,C4*%
X129365500Y-112710000D03*
X127290500Y-112710000D03*
%TD*%
D16*
%TO.C,J1*%
X119207000Y-124860000D03*
D17*
X121747000Y-124860000D03*
X124287000Y-124860000D03*
X126827000Y-124860000D03*
%TD*%
D11*
%TO.C,C3*%
X100998500Y-112710000D03*
X103073500Y-112710000D03*
%TD*%
D12*
%TO.C,C2*%
X102036000Y-115160000D03*
X102036000Y-121560000D03*
%TD*%
D13*
%TO.C,L1*%
X108945000Y-115200000D03*
X105695000Y-115200000D03*
%TD*%
D14*
%TO.C,U1*%
X106370000Y-121710000D03*
X107320000Y-121710000D03*
X108270000Y-121710000D03*
X108270000Y-119010000D03*
X106370000Y-119010000D03*
%TD*%
D12*
%TO.C,C1*%
X112628000Y-115160000D03*
X112628000Y-121560000D03*
%TD*%
D15*
%TO.C,C4*%
X113665500Y-112710000D03*
X111590500Y-112710000D03*
%TD*%
D16*
%TO.C,J1*%
X103507000Y-124860000D03*
D17*
X106047000Y-124860000D03*
X108587000Y-124860000D03*
X111127000Y-124860000D03*
%TD*%
D11*
%TO.C,C3*%
X85298500Y-112710000D03*
X87373500Y-112710000D03*
%TD*%
D12*
%TO.C,C2*%
X86336000Y-115160000D03*
X86336000Y-121560000D03*
%TD*%
D13*
%TO.C,L1*%
X93245000Y-115200000D03*
X89995000Y-115200000D03*
%TD*%
D14*
%TO.C,U1*%
X90670000Y-121710000D03*
X91620000Y-121710000D03*
X92570000Y-121710000D03*
X92570000Y-119010000D03*
X90670000Y-119010000D03*
%TD*%
D12*
%TO.C,C1*%
X96928000Y-115160000D03*
X96928000Y-121560000D03*
%TD*%
D15*
%TO.C,C4*%
X97965500Y-112710000D03*
X95890500Y-112710000D03*
%TD*%
D16*
%TO.C,J1*%
X87807000Y-124860000D03*
D17*
X90347000Y-124860000D03*
X92887000Y-124860000D03*
X95427000Y-124860000D03*
%TD*%
D11*
%TO.C,C3*%
X163798500Y-97010000D03*
X165873500Y-97010000D03*
%TD*%
D12*
%TO.C,C2*%
X164836000Y-99460000D03*
X164836000Y-105860000D03*
%TD*%
D13*
%TO.C,L1*%
X171745000Y-99500000D03*
X168495000Y-99500000D03*
%TD*%
D14*
%TO.C,U1*%
X169170000Y-106010000D03*
X170120000Y-106010000D03*
X171070000Y-106010000D03*
X171070000Y-103310000D03*
X169170000Y-103310000D03*
%TD*%
D12*
%TO.C,C1*%
X175428000Y-99460000D03*
X175428000Y-105860000D03*
%TD*%
D15*
%TO.C,C4*%
X176465500Y-97010000D03*
X174390500Y-97010000D03*
%TD*%
D16*
%TO.C,J1*%
X166307000Y-109160000D03*
D17*
X168847000Y-109160000D03*
X171387000Y-109160000D03*
X173927000Y-109160000D03*
%TD*%
D11*
%TO.C,C3*%
X148098500Y-97010000D03*
X150173500Y-97010000D03*
%TD*%
D12*
%TO.C,C2*%
X149136000Y-99460000D03*
X149136000Y-105860000D03*
%TD*%
D13*
%TO.C,L1*%
X156045000Y-99500000D03*
X152795000Y-99500000D03*
%TD*%
D14*
%TO.C,U1*%
X153470000Y-106010000D03*
X154420000Y-106010000D03*
X155370000Y-106010000D03*
X155370000Y-103310000D03*
X153470000Y-103310000D03*
%TD*%
D12*
%TO.C,C1*%
X159728000Y-99460000D03*
X159728000Y-105860000D03*
%TD*%
D15*
%TO.C,C4*%
X160765500Y-97010000D03*
X158690500Y-97010000D03*
%TD*%
D16*
%TO.C,J1*%
X150607000Y-109160000D03*
D17*
X153147000Y-109160000D03*
X155687000Y-109160000D03*
X158227000Y-109160000D03*
%TD*%
D11*
%TO.C,C3*%
X132398500Y-97010000D03*
X134473500Y-97010000D03*
%TD*%
D12*
%TO.C,C2*%
X133436000Y-99460000D03*
X133436000Y-105860000D03*
%TD*%
D13*
%TO.C,L1*%
X140345000Y-99500000D03*
X137095000Y-99500000D03*
%TD*%
D14*
%TO.C,U1*%
X137770000Y-106010000D03*
X138720000Y-106010000D03*
X139670000Y-106010000D03*
X139670000Y-103310000D03*
X137770000Y-103310000D03*
%TD*%
D12*
%TO.C,C1*%
X144028000Y-99460000D03*
X144028000Y-105860000D03*
%TD*%
D15*
%TO.C,C4*%
X145065500Y-97010000D03*
X142990500Y-97010000D03*
%TD*%
D16*
%TO.C,J1*%
X134907000Y-109160000D03*
D17*
X137447000Y-109160000D03*
X139987000Y-109160000D03*
X142527000Y-109160000D03*
%TD*%
D11*
%TO.C,C3*%
X116698500Y-97010000D03*
X118773500Y-97010000D03*
%TD*%
D12*
%TO.C,C2*%
X117736000Y-99460000D03*
X117736000Y-105860000D03*
%TD*%
D13*
%TO.C,L1*%
X124645000Y-99500000D03*
X121395000Y-99500000D03*
%TD*%
D14*
%TO.C,U1*%
X122070000Y-106010000D03*
X123020000Y-106010000D03*
X123970000Y-106010000D03*
X123970000Y-103310000D03*
X122070000Y-103310000D03*
%TD*%
D12*
%TO.C,C1*%
X128328000Y-99460000D03*
X128328000Y-105860000D03*
%TD*%
D15*
%TO.C,C4*%
X129365500Y-97010000D03*
X127290500Y-97010000D03*
%TD*%
D16*
%TO.C,J1*%
X119207000Y-109160000D03*
D17*
X121747000Y-109160000D03*
X124287000Y-109160000D03*
X126827000Y-109160000D03*
%TD*%
D11*
%TO.C,C3*%
X100998500Y-97010000D03*
X103073500Y-97010000D03*
%TD*%
D12*
%TO.C,C2*%
X102036000Y-99460000D03*
X102036000Y-105860000D03*
%TD*%
D13*
%TO.C,L1*%
X108945000Y-99500000D03*
X105695000Y-99500000D03*
%TD*%
D14*
%TO.C,U1*%
X106370000Y-106010000D03*
X107320000Y-106010000D03*
X108270000Y-106010000D03*
X108270000Y-103310000D03*
X106370000Y-103310000D03*
%TD*%
D12*
%TO.C,C1*%
X112628000Y-99460000D03*
X112628000Y-105860000D03*
%TD*%
D15*
%TO.C,C4*%
X113665500Y-97010000D03*
X111590500Y-97010000D03*
%TD*%
D16*
%TO.C,J1*%
X103507000Y-109160000D03*
D17*
X106047000Y-109160000D03*
X108587000Y-109160000D03*
X111127000Y-109160000D03*
%TD*%
D11*
%TO.C,C3*%
X85298500Y-97010000D03*
X87373500Y-97010000D03*
%TD*%
D12*
%TO.C,C2*%
X86336000Y-99460000D03*
X86336000Y-105860000D03*
%TD*%
D13*
%TO.C,L1*%
X93245000Y-99500000D03*
X89995000Y-99500000D03*
%TD*%
D14*
%TO.C,U1*%
X90670000Y-106010000D03*
X91620000Y-106010000D03*
X92570000Y-106010000D03*
X92570000Y-103310000D03*
X90670000Y-103310000D03*
%TD*%
D12*
%TO.C,C1*%
X96928000Y-99460000D03*
X96928000Y-105860000D03*
%TD*%
D15*
%TO.C,C4*%
X97965500Y-97010000D03*
X95890500Y-97010000D03*
%TD*%
D16*
%TO.C,J1*%
X87807000Y-109160000D03*
D17*
X90347000Y-109160000D03*
X92887000Y-109160000D03*
X95427000Y-109160000D03*
%TD*%
D11*
%TO.C,C3*%
X163798500Y-81310000D03*
X165873500Y-81310000D03*
%TD*%
D12*
%TO.C,C2*%
X164836000Y-83760000D03*
X164836000Y-90160000D03*
%TD*%
D13*
%TO.C,L1*%
X171745000Y-83800000D03*
X168495000Y-83800000D03*
%TD*%
D14*
%TO.C,U1*%
X169170000Y-90310000D03*
X170120000Y-90310000D03*
X171070000Y-90310000D03*
X171070000Y-87610000D03*
X169170000Y-87610000D03*
%TD*%
D12*
%TO.C,C1*%
X175428000Y-83760000D03*
X175428000Y-90160000D03*
%TD*%
D15*
%TO.C,C4*%
X176465500Y-81310000D03*
X174390500Y-81310000D03*
%TD*%
D16*
%TO.C,J1*%
X166307000Y-93460000D03*
D17*
X168847000Y-93460000D03*
X171387000Y-93460000D03*
X173927000Y-93460000D03*
%TD*%
D11*
%TO.C,C3*%
X148098500Y-81310000D03*
X150173500Y-81310000D03*
%TD*%
D12*
%TO.C,C2*%
X149136000Y-83760000D03*
X149136000Y-90160000D03*
%TD*%
D13*
%TO.C,L1*%
X156045000Y-83800000D03*
X152795000Y-83800000D03*
%TD*%
D14*
%TO.C,U1*%
X153470000Y-90310000D03*
X154420000Y-90310000D03*
X155370000Y-90310000D03*
X155370000Y-87610000D03*
X153470000Y-87610000D03*
%TD*%
D12*
%TO.C,C1*%
X159728000Y-83760000D03*
X159728000Y-90160000D03*
%TD*%
D15*
%TO.C,C4*%
X160765500Y-81310000D03*
X158690500Y-81310000D03*
%TD*%
D16*
%TO.C,J1*%
X150607000Y-93460000D03*
D17*
X153147000Y-93460000D03*
X155687000Y-93460000D03*
X158227000Y-93460000D03*
%TD*%
D11*
%TO.C,C3*%
X132398500Y-81310000D03*
X134473500Y-81310000D03*
%TD*%
D12*
%TO.C,C2*%
X133436000Y-83760000D03*
X133436000Y-90160000D03*
%TD*%
D13*
%TO.C,L1*%
X140345000Y-83800000D03*
X137095000Y-83800000D03*
%TD*%
D14*
%TO.C,U1*%
X137770000Y-90310000D03*
X138720000Y-90310000D03*
X139670000Y-90310000D03*
X139670000Y-87610000D03*
X137770000Y-87610000D03*
%TD*%
D12*
%TO.C,C1*%
X144028000Y-83760000D03*
X144028000Y-90160000D03*
%TD*%
D15*
%TO.C,C4*%
X145065500Y-81310000D03*
X142990500Y-81310000D03*
%TD*%
D16*
%TO.C,J1*%
X134907000Y-93460000D03*
D17*
X137447000Y-93460000D03*
X139987000Y-93460000D03*
X142527000Y-93460000D03*
%TD*%
D11*
%TO.C,C3*%
X116698500Y-81310000D03*
X118773500Y-81310000D03*
%TD*%
D12*
%TO.C,C2*%
X117736000Y-83760000D03*
X117736000Y-90160000D03*
%TD*%
D13*
%TO.C,L1*%
X124645000Y-83800000D03*
X121395000Y-83800000D03*
%TD*%
D14*
%TO.C,U1*%
X122070000Y-90310000D03*
X123020000Y-90310000D03*
X123970000Y-90310000D03*
X123970000Y-87610000D03*
X122070000Y-87610000D03*
%TD*%
D12*
%TO.C,C1*%
X128328000Y-83760000D03*
X128328000Y-90160000D03*
%TD*%
D15*
%TO.C,C4*%
X129365500Y-81310000D03*
X127290500Y-81310000D03*
%TD*%
D16*
%TO.C,J1*%
X119207000Y-93460000D03*
D17*
X121747000Y-93460000D03*
X124287000Y-93460000D03*
X126827000Y-93460000D03*
%TD*%
D11*
%TO.C,C3*%
X100998500Y-81310000D03*
X103073500Y-81310000D03*
%TD*%
D12*
%TO.C,C2*%
X102036000Y-83760000D03*
X102036000Y-90160000D03*
%TD*%
D13*
%TO.C,L1*%
X108945000Y-83800000D03*
X105695000Y-83800000D03*
%TD*%
D14*
%TO.C,U1*%
X106370000Y-90310000D03*
X107320000Y-90310000D03*
X108270000Y-90310000D03*
X108270000Y-87610000D03*
X106370000Y-87610000D03*
%TD*%
D12*
%TO.C,C1*%
X112628000Y-83760000D03*
X112628000Y-90160000D03*
%TD*%
D15*
%TO.C,C4*%
X113665500Y-81310000D03*
X111590500Y-81310000D03*
%TD*%
D16*
%TO.C,J1*%
X103507000Y-93460000D03*
D17*
X106047000Y-93460000D03*
X108587000Y-93460000D03*
X111127000Y-93460000D03*
%TD*%
D11*
%TO.C,C3*%
X85298500Y-81310000D03*
X87373500Y-81310000D03*
%TD*%
D12*
%TO.C,C2*%
X86336000Y-83760000D03*
X86336000Y-90160000D03*
%TD*%
D13*
%TO.C,L1*%
X93245000Y-83800000D03*
X89995000Y-83800000D03*
%TD*%
D14*
%TO.C,U1*%
X90670000Y-90310000D03*
X91620000Y-90310000D03*
X92570000Y-90310000D03*
X92570000Y-87610000D03*
X90670000Y-87610000D03*
%TD*%
D12*
%TO.C,C1*%
X96928000Y-83760000D03*
X96928000Y-90160000D03*
%TD*%
D15*
%TO.C,C4*%
X97965500Y-81310000D03*
X95890500Y-81310000D03*
%TD*%
D16*
%TO.C,J1*%
X87807000Y-93460000D03*
D17*
X90347000Y-93460000D03*
X92887000Y-93460000D03*
X95427000Y-93460000D03*
%TD*%
D11*
%TO.C,C3*%
X163798500Y-65610000D03*
X165873500Y-65610000D03*
%TD*%
D12*
%TO.C,C2*%
X164836000Y-68060000D03*
X164836000Y-74460000D03*
%TD*%
D13*
%TO.C,L1*%
X171745000Y-68100000D03*
X168495000Y-68100000D03*
%TD*%
D14*
%TO.C,U1*%
X169170000Y-74610000D03*
X170120000Y-74610000D03*
X171070000Y-74610000D03*
X171070000Y-71910000D03*
X169170000Y-71910000D03*
%TD*%
D12*
%TO.C,C1*%
X175428000Y-68060000D03*
X175428000Y-74460000D03*
%TD*%
D15*
%TO.C,C4*%
X176465500Y-65610000D03*
X174390500Y-65610000D03*
%TD*%
D16*
%TO.C,J1*%
X166307000Y-77760000D03*
D17*
X168847000Y-77760000D03*
X171387000Y-77760000D03*
X173927000Y-77760000D03*
%TD*%
D11*
%TO.C,C3*%
X148098500Y-65610000D03*
X150173500Y-65610000D03*
%TD*%
D12*
%TO.C,C2*%
X149136000Y-68060000D03*
X149136000Y-74460000D03*
%TD*%
D13*
%TO.C,L1*%
X156045000Y-68100000D03*
X152795000Y-68100000D03*
%TD*%
D14*
%TO.C,U1*%
X153470000Y-74610000D03*
X154420000Y-74610000D03*
X155370000Y-74610000D03*
X155370000Y-71910000D03*
X153470000Y-71910000D03*
%TD*%
D12*
%TO.C,C1*%
X159728000Y-68060000D03*
X159728000Y-74460000D03*
%TD*%
D15*
%TO.C,C4*%
X160765500Y-65610000D03*
X158690500Y-65610000D03*
%TD*%
D16*
%TO.C,J1*%
X150607000Y-77760000D03*
D17*
X153147000Y-77760000D03*
X155687000Y-77760000D03*
X158227000Y-77760000D03*
%TD*%
D11*
%TO.C,C3*%
X132398500Y-65610000D03*
X134473500Y-65610000D03*
%TD*%
D12*
%TO.C,C2*%
X133436000Y-68060000D03*
X133436000Y-74460000D03*
%TD*%
D13*
%TO.C,L1*%
X140345000Y-68100000D03*
X137095000Y-68100000D03*
%TD*%
D14*
%TO.C,U1*%
X137770000Y-74610000D03*
X138720000Y-74610000D03*
X139670000Y-74610000D03*
X139670000Y-71910000D03*
X137770000Y-71910000D03*
%TD*%
D12*
%TO.C,C1*%
X144028000Y-68060000D03*
X144028000Y-74460000D03*
%TD*%
D15*
%TO.C,C4*%
X145065500Y-65610000D03*
X142990500Y-65610000D03*
%TD*%
D16*
%TO.C,J1*%
X134907000Y-77760000D03*
D17*
X137447000Y-77760000D03*
X139987000Y-77760000D03*
X142527000Y-77760000D03*
%TD*%
D11*
%TO.C,C3*%
X116698500Y-65610000D03*
X118773500Y-65610000D03*
%TD*%
D12*
%TO.C,C2*%
X117736000Y-68060000D03*
X117736000Y-74460000D03*
%TD*%
D13*
%TO.C,L1*%
X124645000Y-68100000D03*
X121395000Y-68100000D03*
%TD*%
D14*
%TO.C,U1*%
X122070000Y-74610000D03*
X123020000Y-74610000D03*
X123970000Y-74610000D03*
X123970000Y-71910000D03*
X122070000Y-71910000D03*
%TD*%
D12*
%TO.C,C1*%
X128328000Y-68060000D03*
X128328000Y-74460000D03*
%TD*%
D15*
%TO.C,C4*%
X129365500Y-65610000D03*
X127290500Y-65610000D03*
%TD*%
D16*
%TO.C,J1*%
X119207000Y-77760000D03*
D17*
X121747000Y-77760000D03*
X124287000Y-77760000D03*
X126827000Y-77760000D03*
%TD*%
D11*
%TO.C,C3*%
X100998500Y-65610000D03*
X103073500Y-65610000D03*
%TD*%
D12*
%TO.C,C2*%
X102036000Y-68060000D03*
X102036000Y-74460000D03*
%TD*%
D13*
%TO.C,L1*%
X108945000Y-68100000D03*
X105695000Y-68100000D03*
%TD*%
D14*
%TO.C,U1*%
X106370000Y-74610000D03*
X107320000Y-74610000D03*
X108270000Y-74610000D03*
X108270000Y-71910000D03*
X106370000Y-71910000D03*
%TD*%
D12*
%TO.C,C1*%
X112628000Y-68060000D03*
X112628000Y-74460000D03*
%TD*%
D15*
%TO.C,C4*%
X113665500Y-65610000D03*
X111590500Y-65610000D03*
%TD*%
D16*
%TO.C,J1*%
X103507000Y-77760000D03*
D17*
X106047000Y-77760000D03*
X108587000Y-77760000D03*
X111127000Y-77760000D03*
%TD*%
D11*
%TO.C,C3*%
X85298500Y-65610000D03*
X87373500Y-65610000D03*
%TD*%
D12*
%TO.C,C2*%
X86336000Y-68060000D03*
X86336000Y-74460000D03*
%TD*%
D13*
%TO.C,L1*%
X93245000Y-68100000D03*
X89995000Y-68100000D03*
%TD*%
D14*
%TO.C,U1*%
X90670000Y-74610000D03*
X91620000Y-74610000D03*
X92570000Y-74610000D03*
X92570000Y-71910000D03*
X90670000Y-71910000D03*
%TD*%
D12*
%TO.C,C1*%
X96928000Y-68060000D03*
X96928000Y-74460000D03*
%TD*%
D15*
%TO.C,C4*%
X97965500Y-65610000D03*
X95890500Y-65610000D03*
%TD*%
D16*
%TO.C,J1*%
X87807000Y-77760000D03*
D17*
X90347000Y-77760000D03*
X92887000Y-77760000D03*
X95427000Y-77760000D03*
%TD*%
D11*
%TO.C,C3*%
X163798500Y-49910000D03*
X165873500Y-49910000D03*
%TD*%
D12*
%TO.C,C2*%
X164836000Y-52360000D03*
X164836000Y-58760000D03*
%TD*%
D13*
%TO.C,L1*%
X171745000Y-52400000D03*
X168495000Y-52400000D03*
%TD*%
D14*
%TO.C,U1*%
X169170000Y-58910000D03*
X170120000Y-58910000D03*
X171070000Y-58910000D03*
X171070000Y-56210000D03*
X169170000Y-56210000D03*
%TD*%
D12*
%TO.C,C1*%
X175428000Y-52360000D03*
X175428000Y-58760000D03*
%TD*%
D15*
%TO.C,C4*%
X176465500Y-49910000D03*
X174390500Y-49910000D03*
%TD*%
D16*
%TO.C,J1*%
X166307000Y-62060000D03*
D17*
X168847000Y-62060000D03*
X171387000Y-62060000D03*
X173927000Y-62060000D03*
%TD*%
D11*
%TO.C,C3*%
X148098500Y-49910000D03*
X150173500Y-49910000D03*
%TD*%
D12*
%TO.C,C2*%
X149136000Y-52360000D03*
X149136000Y-58760000D03*
%TD*%
D13*
%TO.C,L1*%
X156045000Y-52400000D03*
X152795000Y-52400000D03*
%TD*%
D14*
%TO.C,U1*%
X153470000Y-58910000D03*
X154420000Y-58910000D03*
X155370000Y-58910000D03*
X155370000Y-56210000D03*
X153470000Y-56210000D03*
%TD*%
D12*
%TO.C,C1*%
X159728000Y-52360000D03*
X159728000Y-58760000D03*
%TD*%
D15*
%TO.C,C4*%
X160765500Y-49910000D03*
X158690500Y-49910000D03*
%TD*%
D16*
%TO.C,J1*%
X150607000Y-62060000D03*
D17*
X153147000Y-62060000D03*
X155687000Y-62060000D03*
X158227000Y-62060000D03*
%TD*%
D11*
%TO.C,C3*%
X132398500Y-49910000D03*
X134473500Y-49910000D03*
%TD*%
D12*
%TO.C,C2*%
X133436000Y-52360000D03*
X133436000Y-58760000D03*
%TD*%
D13*
%TO.C,L1*%
X140345000Y-52400000D03*
X137095000Y-52400000D03*
%TD*%
D14*
%TO.C,U1*%
X137770000Y-58910000D03*
X138720000Y-58910000D03*
X139670000Y-58910000D03*
X139670000Y-56210000D03*
X137770000Y-56210000D03*
%TD*%
D12*
%TO.C,C1*%
X144028000Y-52360000D03*
X144028000Y-58760000D03*
%TD*%
D15*
%TO.C,C4*%
X145065500Y-49910000D03*
X142990500Y-49910000D03*
%TD*%
D16*
%TO.C,J1*%
X134907000Y-62060000D03*
D17*
X137447000Y-62060000D03*
X139987000Y-62060000D03*
X142527000Y-62060000D03*
%TD*%
D11*
%TO.C,C3*%
X116698500Y-49910000D03*
X118773500Y-49910000D03*
%TD*%
D12*
%TO.C,C2*%
X117736000Y-52360000D03*
X117736000Y-58760000D03*
%TD*%
D13*
%TO.C,L1*%
X124645000Y-52400000D03*
X121395000Y-52400000D03*
%TD*%
D14*
%TO.C,U1*%
X122070000Y-58910000D03*
X123020000Y-58910000D03*
X123970000Y-58910000D03*
X123970000Y-56210000D03*
X122070000Y-56210000D03*
%TD*%
D12*
%TO.C,C1*%
X128328000Y-52360000D03*
X128328000Y-58760000D03*
%TD*%
D15*
%TO.C,C4*%
X129365500Y-49910000D03*
X127290500Y-49910000D03*
%TD*%
D16*
%TO.C,J1*%
X119207000Y-62060000D03*
D17*
X121747000Y-62060000D03*
X124287000Y-62060000D03*
X126827000Y-62060000D03*
%TD*%
D11*
%TO.C,C3*%
X100998500Y-49910000D03*
X103073500Y-49910000D03*
%TD*%
D12*
%TO.C,C2*%
X102036000Y-52360000D03*
X102036000Y-58760000D03*
%TD*%
D13*
%TO.C,L1*%
X108945000Y-52400000D03*
X105695000Y-52400000D03*
%TD*%
D14*
%TO.C,U1*%
X106370000Y-58910000D03*
X107320000Y-58910000D03*
X108270000Y-58910000D03*
X108270000Y-56210000D03*
X106370000Y-56210000D03*
%TD*%
D12*
%TO.C,C1*%
X112628000Y-52360000D03*
X112628000Y-58760000D03*
%TD*%
D15*
%TO.C,C4*%
X113665500Y-49910000D03*
X111590500Y-49910000D03*
%TD*%
D16*
%TO.C,J1*%
X103507000Y-62060000D03*
D17*
X106047000Y-62060000D03*
X108587000Y-62060000D03*
X111127000Y-62060000D03*
%TD*%
D16*
%TO.C,J1*%
X87807000Y-62060000D03*
D17*
X90347000Y-62060000D03*
X92887000Y-62060000D03*
X95427000Y-62060000D03*
%TD*%
D15*
%TO.C,C4*%
X97965500Y-49910000D03*
X95890500Y-49910000D03*
%TD*%
D12*
%TO.C,C1*%
X96928000Y-52360000D03*
X96928000Y-58760000D03*
%TD*%
D14*
%TO.C,U1*%
X90670000Y-58910000D03*
X91620000Y-58910000D03*
X92570000Y-58910000D03*
X92570000Y-56210000D03*
X90670000Y-56210000D03*
%TD*%
D12*
%TO.C,C2*%
X86336000Y-52360000D03*
X86336000Y-58760000D03*
%TD*%
D13*
%TO.C,L1*%
X93245000Y-52400000D03*
X89995000Y-52400000D03*
%TD*%
D11*
%TO.C,C3*%
X85298500Y-49910000D03*
X87373500Y-49910000D03*
%TD*%
M02*
