%TF.GenerationSoftware,KiCad,Pcbnew,6.0.11-2627ca5db0~126~ubuntu20.04.1*%
%TF.CreationDate,2023-04-18T12:28:58-05:00*%
%TF.ProjectId,,58585858-5858-4585-9858-585858585858,rev?*%
%TF.SameCoordinates,Original*%
%TF.FileFunction,Legend,Top*%
%TF.FilePolarity,Positive*%
%FSLAX46Y46*%
G04 Gerber Fmt 4.6, Leading zero omitted, Abs format (unit mm)*
G04 Created by KiCad (PCBNEW 6.0.11-2627ca5db0~126~ubuntu20.04.1) date 2023-04-18 12:28:58*
%MOMM*%
%LPD*%
G01*
G04 APERTURE LIST*
%TA.AperFunction,Profile*%
%ADD10C,0.100000*%
%TD*%
%ADD11C,0.150000*%
%ADD12C,0.120000*%
G04 APERTURE END LIST*
D10*
X178020000Y-126760000D02*
X178020000Y-142460000D01*
X162320000Y-126760000D02*
X162320000Y-142460000D01*
X162320000Y-142460000D02*
X178020000Y-142460000D01*
X162320000Y-126760000D02*
X178020000Y-126760000D01*
X162320000Y-126760000D02*
X162320000Y-142460000D01*
X146620000Y-126760000D02*
X146620000Y-142460000D01*
X146620000Y-142460000D02*
X162320000Y-142460000D01*
X146620000Y-126760000D02*
X162320000Y-126760000D01*
X146620000Y-126760000D02*
X146620000Y-142460000D01*
X130920000Y-126760000D02*
X130920000Y-142460000D01*
X130920000Y-142460000D02*
X146620000Y-142460000D01*
X130920000Y-126760000D02*
X146620000Y-126760000D01*
X130920000Y-126760000D02*
X130920000Y-142460000D01*
X115220000Y-126760000D02*
X115220000Y-142460000D01*
X115220000Y-142460000D02*
X130920000Y-142460000D01*
X115220000Y-126760000D02*
X130920000Y-126760000D01*
X115220000Y-126760000D02*
X115220000Y-142460000D01*
X99520000Y-126760000D02*
X99520000Y-142460000D01*
X99520000Y-142460000D02*
X115220000Y-142460000D01*
X99520000Y-126760000D02*
X115220000Y-126760000D01*
X99520000Y-126760000D02*
X99520000Y-142460000D01*
X83820000Y-126760000D02*
X83820000Y-142460000D01*
X83820000Y-142460000D02*
X99520000Y-142460000D01*
X83820000Y-126760000D02*
X99520000Y-126760000D01*
X178020000Y-111060000D02*
X178020000Y-126760000D01*
X162320000Y-111060000D02*
X162320000Y-126760000D01*
X162320000Y-126760000D02*
X178020000Y-126760000D01*
X162320000Y-111060000D02*
X178020000Y-111060000D01*
X162320000Y-111060000D02*
X162320000Y-126760000D01*
X146620000Y-111060000D02*
X146620000Y-126760000D01*
X146620000Y-126760000D02*
X162320000Y-126760000D01*
X146620000Y-111060000D02*
X162320000Y-111060000D01*
X146620000Y-111060000D02*
X146620000Y-126760000D01*
X130920000Y-111060000D02*
X130920000Y-126760000D01*
X130920000Y-126760000D02*
X146620000Y-126760000D01*
X130920000Y-111060000D02*
X146620000Y-111060000D01*
X130920000Y-111060000D02*
X130920000Y-126760000D01*
X115220000Y-111060000D02*
X115220000Y-126760000D01*
X115220000Y-126760000D02*
X130920000Y-126760000D01*
X115220000Y-111060000D02*
X130920000Y-111060000D01*
X115220000Y-111060000D02*
X115220000Y-126760000D01*
X99520000Y-111060000D02*
X99520000Y-126760000D01*
X99520000Y-126760000D02*
X115220000Y-126760000D01*
X99520000Y-111060000D02*
X115220000Y-111060000D01*
X99520000Y-111060000D02*
X99520000Y-126760000D01*
X83820000Y-111060000D02*
X83820000Y-126760000D01*
X83820000Y-126760000D02*
X99520000Y-126760000D01*
X83820000Y-111060000D02*
X99520000Y-111060000D01*
X178020000Y-95360000D02*
X178020000Y-111060000D01*
X162320000Y-95360000D02*
X162320000Y-111060000D01*
X162320000Y-111060000D02*
X178020000Y-111060000D01*
X162320000Y-95360000D02*
X178020000Y-95360000D01*
X162320000Y-95360000D02*
X162320000Y-111060000D01*
X146620000Y-95360000D02*
X146620000Y-111060000D01*
X146620000Y-111060000D02*
X162320000Y-111060000D01*
X146620000Y-95360000D02*
X162320000Y-95360000D01*
X146620000Y-95360000D02*
X146620000Y-111060000D01*
X130920000Y-95360000D02*
X130920000Y-111060000D01*
X130920000Y-111060000D02*
X146620000Y-111060000D01*
X130920000Y-95360000D02*
X146620000Y-95360000D01*
X130920000Y-95360000D02*
X130920000Y-111060000D01*
X115220000Y-95360000D02*
X115220000Y-111060000D01*
X115220000Y-111060000D02*
X130920000Y-111060000D01*
X115220000Y-95360000D02*
X130920000Y-95360000D01*
X115220000Y-95360000D02*
X115220000Y-111060000D01*
X99520000Y-95360000D02*
X99520000Y-111060000D01*
X99520000Y-111060000D02*
X115220000Y-111060000D01*
X99520000Y-95360000D02*
X115220000Y-95360000D01*
X99520000Y-95360000D02*
X99520000Y-111060000D01*
X83820000Y-95360000D02*
X83820000Y-111060000D01*
X83820000Y-111060000D02*
X99520000Y-111060000D01*
X83820000Y-95360000D02*
X99520000Y-95360000D01*
X178020000Y-79660000D02*
X178020000Y-95360000D01*
X162320000Y-79660000D02*
X162320000Y-95360000D01*
X162320000Y-95360000D02*
X178020000Y-95360000D01*
X162320000Y-79660000D02*
X178020000Y-79660000D01*
X162320000Y-79660000D02*
X162320000Y-95360000D01*
X146620000Y-79660000D02*
X146620000Y-95360000D01*
X146620000Y-95360000D02*
X162320000Y-95360000D01*
X146620000Y-79660000D02*
X162320000Y-79660000D01*
X146620000Y-79660000D02*
X146620000Y-95360000D01*
X130920000Y-79660000D02*
X130920000Y-95360000D01*
X130920000Y-95360000D02*
X146620000Y-95360000D01*
X130920000Y-79660000D02*
X146620000Y-79660000D01*
X130920000Y-79660000D02*
X130920000Y-95360000D01*
X115220000Y-79660000D02*
X115220000Y-95360000D01*
X115220000Y-95360000D02*
X130920000Y-95360000D01*
X115220000Y-79660000D02*
X130920000Y-79660000D01*
X115220000Y-79660000D02*
X115220000Y-95360000D01*
X99520000Y-79660000D02*
X99520000Y-95360000D01*
X99520000Y-95360000D02*
X115220000Y-95360000D01*
X99520000Y-79660000D02*
X115220000Y-79660000D01*
X99520000Y-79660000D02*
X99520000Y-95360000D01*
X83820000Y-79660000D02*
X83820000Y-95360000D01*
X83820000Y-95360000D02*
X99520000Y-95360000D01*
X83820000Y-79660000D02*
X99520000Y-79660000D01*
X178020000Y-63960000D02*
X178020000Y-79660000D01*
X162320000Y-63960000D02*
X162320000Y-79660000D01*
X162320000Y-79660000D02*
X178020000Y-79660000D01*
X162320000Y-63960000D02*
X178020000Y-63960000D01*
X162320000Y-63960000D02*
X162320000Y-79660000D01*
X146620000Y-63960000D02*
X146620000Y-79660000D01*
X146620000Y-79660000D02*
X162320000Y-79660000D01*
X146620000Y-63960000D02*
X162320000Y-63960000D01*
X146620000Y-63960000D02*
X146620000Y-79660000D01*
X130920000Y-63960000D02*
X130920000Y-79660000D01*
X130920000Y-79660000D02*
X146620000Y-79660000D01*
X130920000Y-63960000D02*
X146620000Y-63960000D01*
X130920000Y-63960000D02*
X130920000Y-79660000D01*
X115220000Y-63960000D02*
X115220000Y-79660000D01*
X115220000Y-79660000D02*
X130920000Y-79660000D01*
X115220000Y-63960000D02*
X130920000Y-63960000D01*
X115220000Y-63960000D02*
X115220000Y-79660000D01*
X99520000Y-63960000D02*
X99520000Y-79660000D01*
X99520000Y-79660000D02*
X115220000Y-79660000D01*
X99520000Y-63960000D02*
X115220000Y-63960000D01*
X99520000Y-63960000D02*
X99520000Y-79660000D01*
X83820000Y-63960000D02*
X83820000Y-79660000D01*
X83820000Y-79660000D02*
X99520000Y-79660000D01*
X83820000Y-63960000D02*
X99520000Y-63960000D01*
X178020000Y-48260000D02*
X178020000Y-63960000D01*
X162320000Y-48260000D02*
X162320000Y-63960000D01*
X162320000Y-63960000D02*
X178020000Y-63960000D01*
X162320000Y-48260000D02*
X178020000Y-48260000D01*
X162320000Y-48260000D02*
X162320000Y-63960000D01*
X146620000Y-48260000D02*
X146620000Y-63960000D01*
X146620000Y-63960000D02*
X162320000Y-63960000D01*
X146620000Y-48260000D02*
X162320000Y-48260000D01*
X146620000Y-48260000D02*
X146620000Y-63960000D01*
X130920000Y-48260000D02*
X130920000Y-63960000D01*
X130920000Y-63960000D02*
X146620000Y-63960000D01*
X130920000Y-48260000D02*
X146620000Y-48260000D01*
X130920000Y-48260000D02*
X130920000Y-63960000D01*
X115220000Y-48260000D02*
X115220000Y-63960000D01*
X115220000Y-63960000D02*
X130920000Y-63960000D01*
X115220000Y-48260000D02*
X130920000Y-48260000D01*
X115220000Y-48260000D02*
X115220000Y-63960000D01*
X99520000Y-48260000D02*
X99520000Y-63960000D01*
X99520000Y-63960000D02*
X115220000Y-63960000D01*
X99520000Y-48260000D02*
X115220000Y-48260000D01*
X99520000Y-48260000D02*
X99520000Y-63960000D01*
X83820000Y-48260000D02*
X83820000Y-63960000D01*
X83820000Y-48260000D02*
X99520000Y-48260000D01*
X83820000Y-63960000D02*
X99520000Y-63960000D01*
D11*
%TO.C,C3*%
X167220000Y-128124285D02*
X167191428Y-128152857D01*
X167105714Y-128181428D01*
X167048571Y-128181428D01*
X166962857Y-128152857D01*
X166905714Y-128095714D01*
X166877142Y-128038571D01*
X166848571Y-127924285D01*
X166848571Y-127838571D01*
X166877142Y-127724285D01*
X166905714Y-127667142D01*
X166962857Y-127610000D01*
X167048571Y-127581428D01*
X167105714Y-127581428D01*
X167191428Y-127610000D01*
X167220000Y-127638571D01*
X167420000Y-127581428D02*
X167791428Y-127581428D01*
X167591428Y-127810000D01*
X167677142Y-127810000D01*
X167734285Y-127838571D01*
X167762857Y-127867142D01*
X167791428Y-127924285D01*
X167791428Y-128067142D01*
X167762857Y-128124285D01*
X167734285Y-128152857D01*
X167677142Y-128181428D01*
X167505714Y-128181428D01*
X167448571Y-128152857D01*
X167420000Y-128124285D01*
%TO.C,C2*%
X163753333Y-140005142D02*
X163705714Y-140052761D01*
X163562857Y-140100380D01*
X163467619Y-140100380D01*
X163324761Y-140052761D01*
X163229523Y-139957523D01*
X163181904Y-139862285D01*
X163134285Y-139671809D01*
X163134285Y-139528952D01*
X163181904Y-139338476D01*
X163229523Y-139243238D01*
X163324761Y-139148000D01*
X163467619Y-139100380D01*
X163562857Y-139100380D01*
X163705714Y-139148000D01*
X163753333Y-139195619D01*
X164134285Y-139195619D02*
X164181904Y-139148000D01*
X164277142Y-139100380D01*
X164515238Y-139100380D01*
X164610476Y-139148000D01*
X164658095Y-139195619D01*
X164705714Y-139290857D01*
X164705714Y-139386095D01*
X164658095Y-139528952D01*
X164086666Y-140100380D01*
X164705714Y-140100380D01*
%TO.C,L1*%
X170003333Y-128112380D02*
X169527142Y-128112380D01*
X169527142Y-127112380D01*
X170860476Y-128112380D02*
X170289047Y-128112380D01*
X170574761Y-128112380D02*
X170574761Y-127112380D01*
X170479523Y-127255238D01*
X170384285Y-127350476D01*
X170289047Y-127398095D01*
%TO.C,U1*%
X167362857Y-135731428D02*
X167362857Y-136217142D01*
X167391428Y-136274285D01*
X167420000Y-136302857D01*
X167477142Y-136331428D01*
X167591428Y-136331428D01*
X167648571Y-136302857D01*
X167677142Y-136274285D01*
X167705714Y-136217142D01*
X167705714Y-135731428D01*
X168305714Y-136331428D02*
X167962857Y-136331428D01*
X168134285Y-136331428D02*
X168134285Y-135731428D01*
X168077142Y-135817142D01*
X168020000Y-135874285D01*
X167962857Y-135902857D01*
%TO.C,C1*%
X176353333Y-140005142D02*
X176305714Y-140052761D01*
X176162857Y-140100380D01*
X176067619Y-140100380D01*
X175924761Y-140052761D01*
X175829523Y-139957523D01*
X175781904Y-139862285D01*
X175734285Y-139671809D01*
X175734285Y-139528952D01*
X175781904Y-139338476D01*
X175829523Y-139243238D01*
X175924761Y-139148000D01*
X176067619Y-139100380D01*
X176162857Y-139100380D01*
X176305714Y-139148000D01*
X176353333Y-139195619D01*
X177305714Y-140100380D02*
X176734285Y-140100380D01*
X177020000Y-140100380D02*
X177020000Y-139100380D01*
X176924761Y-139243238D01*
X176829523Y-139338476D01*
X176734285Y-139386095D01*
%TO.C,C4*%
X172720000Y-128124285D02*
X172691428Y-128152857D01*
X172605714Y-128181428D01*
X172548571Y-128181428D01*
X172462857Y-128152857D01*
X172405714Y-128095714D01*
X172377142Y-128038571D01*
X172348571Y-127924285D01*
X172348571Y-127838571D01*
X172377142Y-127724285D01*
X172405714Y-127667142D01*
X172462857Y-127610000D01*
X172548571Y-127581428D01*
X172605714Y-127581428D01*
X172691428Y-127610000D01*
X172720000Y-127638571D01*
X173234285Y-127781428D02*
X173234285Y-128181428D01*
X173091428Y-127552857D02*
X172948571Y-127981428D01*
X173320000Y-127981428D01*
%TO.C,J1*%
X163643666Y-140596380D02*
X163643666Y-141310666D01*
X163596047Y-141453523D01*
X163500809Y-141548761D01*
X163357952Y-141596380D01*
X163262714Y-141596380D01*
X164643666Y-141596380D02*
X164072238Y-141596380D01*
X164357952Y-141596380D02*
X164357952Y-140596380D01*
X164262714Y-140739238D01*
X164167476Y-140834476D01*
X164072238Y-140882095D01*
%TO.C,C3*%
X151520000Y-128124285D02*
X151491428Y-128152857D01*
X151405714Y-128181428D01*
X151348571Y-128181428D01*
X151262857Y-128152857D01*
X151205714Y-128095714D01*
X151177142Y-128038571D01*
X151148571Y-127924285D01*
X151148571Y-127838571D01*
X151177142Y-127724285D01*
X151205714Y-127667142D01*
X151262857Y-127610000D01*
X151348571Y-127581428D01*
X151405714Y-127581428D01*
X151491428Y-127610000D01*
X151520000Y-127638571D01*
X151720000Y-127581428D02*
X152091428Y-127581428D01*
X151891428Y-127810000D01*
X151977142Y-127810000D01*
X152034285Y-127838571D01*
X152062857Y-127867142D01*
X152091428Y-127924285D01*
X152091428Y-128067142D01*
X152062857Y-128124285D01*
X152034285Y-128152857D01*
X151977142Y-128181428D01*
X151805714Y-128181428D01*
X151748571Y-128152857D01*
X151720000Y-128124285D01*
%TO.C,C2*%
X148053333Y-140005142D02*
X148005714Y-140052761D01*
X147862857Y-140100380D01*
X147767619Y-140100380D01*
X147624761Y-140052761D01*
X147529523Y-139957523D01*
X147481904Y-139862285D01*
X147434285Y-139671809D01*
X147434285Y-139528952D01*
X147481904Y-139338476D01*
X147529523Y-139243238D01*
X147624761Y-139148000D01*
X147767619Y-139100380D01*
X147862857Y-139100380D01*
X148005714Y-139148000D01*
X148053333Y-139195619D01*
X148434285Y-139195619D02*
X148481904Y-139148000D01*
X148577142Y-139100380D01*
X148815238Y-139100380D01*
X148910476Y-139148000D01*
X148958095Y-139195619D01*
X149005714Y-139290857D01*
X149005714Y-139386095D01*
X148958095Y-139528952D01*
X148386666Y-140100380D01*
X149005714Y-140100380D01*
%TO.C,L1*%
X154303333Y-128112380D02*
X153827142Y-128112380D01*
X153827142Y-127112380D01*
X155160476Y-128112380D02*
X154589047Y-128112380D01*
X154874761Y-128112380D02*
X154874761Y-127112380D01*
X154779523Y-127255238D01*
X154684285Y-127350476D01*
X154589047Y-127398095D01*
%TO.C,U1*%
X151662857Y-135731428D02*
X151662857Y-136217142D01*
X151691428Y-136274285D01*
X151720000Y-136302857D01*
X151777142Y-136331428D01*
X151891428Y-136331428D01*
X151948571Y-136302857D01*
X151977142Y-136274285D01*
X152005714Y-136217142D01*
X152005714Y-135731428D01*
X152605714Y-136331428D02*
X152262857Y-136331428D01*
X152434285Y-136331428D02*
X152434285Y-135731428D01*
X152377142Y-135817142D01*
X152320000Y-135874285D01*
X152262857Y-135902857D01*
%TO.C,C1*%
X160653333Y-140005142D02*
X160605714Y-140052761D01*
X160462857Y-140100380D01*
X160367619Y-140100380D01*
X160224761Y-140052761D01*
X160129523Y-139957523D01*
X160081904Y-139862285D01*
X160034285Y-139671809D01*
X160034285Y-139528952D01*
X160081904Y-139338476D01*
X160129523Y-139243238D01*
X160224761Y-139148000D01*
X160367619Y-139100380D01*
X160462857Y-139100380D01*
X160605714Y-139148000D01*
X160653333Y-139195619D01*
X161605714Y-140100380D02*
X161034285Y-140100380D01*
X161320000Y-140100380D02*
X161320000Y-139100380D01*
X161224761Y-139243238D01*
X161129523Y-139338476D01*
X161034285Y-139386095D01*
%TO.C,C4*%
X157020000Y-128124285D02*
X156991428Y-128152857D01*
X156905714Y-128181428D01*
X156848571Y-128181428D01*
X156762857Y-128152857D01*
X156705714Y-128095714D01*
X156677142Y-128038571D01*
X156648571Y-127924285D01*
X156648571Y-127838571D01*
X156677142Y-127724285D01*
X156705714Y-127667142D01*
X156762857Y-127610000D01*
X156848571Y-127581428D01*
X156905714Y-127581428D01*
X156991428Y-127610000D01*
X157020000Y-127638571D01*
X157534285Y-127781428D02*
X157534285Y-128181428D01*
X157391428Y-127552857D02*
X157248571Y-127981428D01*
X157620000Y-127981428D01*
%TO.C,J1*%
X147943666Y-140596380D02*
X147943666Y-141310666D01*
X147896047Y-141453523D01*
X147800809Y-141548761D01*
X147657952Y-141596380D01*
X147562714Y-141596380D01*
X148943666Y-141596380D02*
X148372238Y-141596380D01*
X148657952Y-141596380D02*
X148657952Y-140596380D01*
X148562714Y-140739238D01*
X148467476Y-140834476D01*
X148372238Y-140882095D01*
%TO.C,C3*%
X135820000Y-128124285D02*
X135791428Y-128152857D01*
X135705714Y-128181428D01*
X135648571Y-128181428D01*
X135562857Y-128152857D01*
X135505714Y-128095714D01*
X135477142Y-128038571D01*
X135448571Y-127924285D01*
X135448571Y-127838571D01*
X135477142Y-127724285D01*
X135505714Y-127667142D01*
X135562857Y-127610000D01*
X135648571Y-127581428D01*
X135705714Y-127581428D01*
X135791428Y-127610000D01*
X135820000Y-127638571D01*
X136020000Y-127581428D02*
X136391428Y-127581428D01*
X136191428Y-127810000D01*
X136277142Y-127810000D01*
X136334285Y-127838571D01*
X136362857Y-127867142D01*
X136391428Y-127924285D01*
X136391428Y-128067142D01*
X136362857Y-128124285D01*
X136334285Y-128152857D01*
X136277142Y-128181428D01*
X136105714Y-128181428D01*
X136048571Y-128152857D01*
X136020000Y-128124285D01*
%TO.C,C2*%
X132353333Y-140005142D02*
X132305714Y-140052761D01*
X132162857Y-140100380D01*
X132067619Y-140100380D01*
X131924761Y-140052761D01*
X131829523Y-139957523D01*
X131781904Y-139862285D01*
X131734285Y-139671809D01*
X131734285Y-139528952D01*
X131781904Y-139338476D01*
X131829523Y-139243238D01*
X131924761Y-139148000D01*
X132067619Y-139100380D01*
X132162857Y-139100380D01*
X132305714Y-139148000D01*
X132353333Y-139195619D01*
X132734285Y-139195619D02*
X132781904Y-139148000D01*
X132877142Y-139100380D01*
X133115238Y-139100380D01*
X133210476Y-139148000D01*
X133258095Y-139195619D01*
X133305714Y-139290857D01*
X133305714Y-139386095D01*
X133258095Y-139528952D01*
X132686666Y-140100380D01*
X133305714Y-140100380D01*
%TO.C,L1*%
X138603333Y-128112380D02*
X138127142Y-128112380D01*
X138127142Y-127112380D01*
X139460476Y-128112380D02*
X138889047Y-128112380D01*
X139174761Y-128112380D02*
X139174761Y-127112380D01*
X139079523Y-127255238D01*
X138984285Y-127350476D01*
X138889047Y-127398095D01*
%TO.C,U1*%
X135962857Y-135731428D02*
X135962857Y-136217142D01*
X135991428Y-136274285D01*
X136020000Y-136302857D01*
X136077142Y-136331428D01*
X136191428Y-136331428D01*
X136248571Y-136302857D01*
X136277142Y-136274285D01*
X136305714Y-136217142D01*
X136305714Y-135731428D01*
X136905714Y-136331428D02*
X136562857Y-136331428D01*
X136734285Y-136331428D02*
X136734285Y-135731428D01*
X136677142Y-135817142D01*
X136620000Y-135874285D01*
X136562857Y-135902857D01*
%TO.C,C1*%
X144953333Y-140005142D02*
X144905714Y-140052761D01*
X144762857Y-140100380D01*
X144667619Y-140100380D01*
X144524761Y-140052761D01*
X144429523Y-139957523D01*
X144381904Y-139862285D01*
X144334285Y-139671809D01*
X144334285Y-139528952D01*
X144381904Y-139338476D01*
X144429523Y-139243238D01*
X144524761Y-139148000D01*
X144667619Y-139100380D01*
X144762857Y-139100380D01*
X144905714Y-139148000D01*
X144953333Y-139195619D01*
X145905714Y-140100380D02*
X145334285Y-140100380D01*
X145620000Y-140100380D02*
X145620000Y-139100380D01*
X145524761Y-139243238D01*
X145429523Y-139338476D01*
X145334285Y-139386095D01*
%TO.C,C4*%
X141320000Y-128124285D02*
X141291428Y-128152857D01*
X141205714Y-128181428D01*
X141148571Y-128181428D01*
X141062857Y-128152857D01*
X141005714Y-128095714D01*
X140977142Y-128038571D01*
X140948571Y-127924285D01*
X140948571Y-127838571D01*
X140977142Y-127724285D01*
X141005714Y-127667142D01*
X141062857Y-127610000D01*
X141148571Y-127581428D01*
X141205714Y-127581428D01*
X141291428Y-127610000D01*
X141320000Y-127638571D01*
X141834285Y-127781428D02*
X141834285Y-128181428D01*
X141691428Y-127552857D02*
X141548571Y-127981428D01*
X141920000Y-127981428D01*
%TO.C,J1*%
X132243666Y-140596380D02*
X132243666Y-141310666D01*
X132196047Y-141453523D01*
X132100809Y-141548761D01*
X131957952Y-141596380D01*
X131862714Y-141596380D01*
X133243666Y-141596380D02*
X132672238Y-141596380D01*
X132957952Y-141596380D02*
X132957952Y-140596380D01*
X132862714Y-140739238D01*
X132767476Y-140834476D01*
X132672238Y-140882095D01*
%TO.C,C3*%
X120120000Y-128124285D02*
X120091428Y-128152857D01*
X120005714Y-128181428D01*
X119948571Y-128181428D01*
X119862857Y-128152857D01*
X119805714Y-128095714D01*
X119777142Y-128038571D01*
X119748571Y-127924285D01*
X119748571Y-127838571D01*
X119777142Y-127724285D01*
X119805714Y-127667142D01*
X119862857Y-127610000D01*
X119948571Y-127581428D01*
X120005714Y-127581428D01*
X120091428Y-127610000D01*
X120120000Y-127638571D01*
X120320000Y-127581428D02*
X120691428Y-127581428D01*
X120491428Y-127810000D01*
X120577142Y-127810000D01*
X120634285Y-127838571D01*
X120662857Y-127867142D01*
X120691428Y-127924285D01*
X120691428Y-128067142D01*
X120662857Y-128124285D01*
X120634285Y-128152857D01*
X120577142Y-128181428D01*
X120405714Y-128181428D01*
X120348571Y-128152857D01*
X120320000Y-128124285D01*
%TO.C,C2*%
X116653333Y-140005142D02*
X116605714Y-140052761D01*
X116462857Y-140100380D01*
X116367619Y-140100380D01*
X116224761Y-140052761D01*
X116129523Y-139957523D01*
X116081904Y-139862285D01*
X116034285Y-139671809D01*
X116034285Y-139528952D01*
X116081904Y-139338476D01*
X116129523Y-139243238D01*
X116224761Y-139148000D01*
X116367619Y-139100380D01*
X116462857Y-139100380D01*
X116605714Y-139148000D01*
X116653333Y-139195619D01*
X117034285Y-139195619D02*
X117081904Y-139148000D01*
X117177142Y-139100380D01*
X117415238Y-139100380D01*
X117510476Y-139148000D01*
X117558095Y-139195619D01*
X117605714Y-139290857D01*
X117605714Y-139386095D01*
X117558095Y-139528952D01*
X116986666Y-140100380D01*
X117605714Y-140100380D01*
%TO.C,L1*%
X122903333Y-128112380D02*
X122427142Y-128112380D01*
X122427142Y-127112380D01*
X123760476Y-128112380D02*
X123189047Y-128112380D01*
X123474761Y-128112380D02*
X123474761Y-127112380D01*
X123379523Y-127255238D01*
X123284285Y-127350476D01*
X123189047Y-127398095D01*
%TO.C,U1*%
X120262857Y-135731428D02*
X120262857Y-136217142D01*
X120291428Y-136274285D01*
X120320000Y-136302857D01*
X120377142Y-136331428D01*
X120491428Y-136331428D01*
X120548571Y-136302857D01*
X120577142Y-136274285D01*
X120605714Y-136217142D01*
X120605714Y-135731428D01*
X121205714Y-136331428D02*
X120862857Y-136331428D01*
X121034285Y-136331428D02*
X121034285Y-135731428D01*
X120977142Y-135817142D01*
X120920000Y-135874285D01*
X120862857Y-135902857D01*
%TO.C,C1*%
X129253333Y-140005142D02*
X129205714Y-140052761D01*
X129062857Y-140100380D01*
X128967619Y-140100380D01*
X128824761Y-140052761D01*
X128729523Y-139957523D01*
X128681904Y-139862285D01*
X128634285Y-139671809D01*
X128634285Y-139528952D01*
X128681904Y-139338476D01*
X128729523Y-139243238D01*
X128824761Y-139148000D01*
X128967619Y-139100380D01*
X129062857Y-139100380D01*
X129205714Y-139148000D01*
X129253333Y-139195619D01*
X130205714Y-140100380D02*
X129634285Y-140100380D01*
X129920000Y-140100380D02*
X129920000Y-139100380D01*
X129824761Y-139243238D01*
X129729523Y-139338476D01*
X129634285Y-139386095D01*
%TO.C,C4*%
X125620000Y-128124285D02*
X125591428Y-128152857D01*
X125505714Y-128181428D01*
X125448571Y-128181428D01*
X125362857Y-128152857D01*
X125305714Y-128095714D01*
X125277142Y-128038571D01*
X125248571Y-127924285D01*
X125248571Y-127838571D01*
X125277142Y-127724285D01*
X125305714Y-127667142D01*
X125362857Y-127610000D01*
X125448571Y-127581428D01*
X125505714Y-127581428D01*
X125591428Y-127610000D01*
X125620000Y-127638571D01*
X126134285Y-127781428D02*
X126134285Y-128181428D01*
X125991428Y-127552857D02*
X125848571Y-127981428D01*
X126220000Y-127981428D01*
%TO.C,J1*%
X116543666Y-140596380D02*
X116543666Y-141310666D01*
X116496047Y-141453523D01*
X116400809Y-141548761D01*
X116257952Y-141596380D01*
X116162714Y-141596380D01*
X117543666Y-141596380D02*
X116972238Y-141596380D01*
X117257952Y-141596380D02*
X117257952Y-140596380D01*
X117162714Y-140739238D01*
X117067476Y-140834476D01*
X116972238Y-140882095D01*
%TO.C,C3*%
X104420000Y-128124285D02*
X104391428Y-128152857D01*
X104305714Y-128181428D01*
X104248571Y-128181428D01*
X104162857Y-128152857D01*
X104105714Y-128095714D01*
X104077142Y-128038571D01*
X104048571Y-127924285D01*
X104048571Y-127838571D01*
X104077142Y-127724285D01*
X104105714Y-127667142D01*
X104162857Y-127610000D01*
X104248571Y-127581428D01*
X104305714Y-127581428D01*
X104391428Y-127610000D01*
X104420000Y-127638571D01*
X104620000Y-127581428D02*
X104991428Y-127581428D01*
X104791428Y-127810000D01*
X104877142Y-127810000D01*
X104934285Y-127838571D01*
X104962857Y-127867142D01*
X104991428Y-127924285D01*
X104991428Y-128067142D01*
X104962857Y-128124285D01*
X104934285Y-128152857D01*
X104877142Y-128181428D01*
X104705714Y-128181428D01*
X104648571Y-128152857D01*
X104620000Y-128124285D01*
%TO.C,C2*%
X100953333Y-140005142D02*
X100905714Y-140052761D01*
X100762857Y-140100380D01*
X100667619Y-140100380D01*
X100524761Y-140052761D01*
X100429523Y-139957523D01*
X100381904Y-139862285D01*
X100334285Y-139671809D01*
X100334285Y-139528952D01*
X100381904Y-139338476D01*
X100429523Y-139243238D01*
X100524761Y-139148000D01*
X100667619Y-139100380D01*
X100762857Y-139100380D01*
X100905714Y-139148000D01*
X100953333Y-139195619D01*
X101334285Y-139195619D02*
X101381904Y-139148000D01*
X101477142Y-139100380D01*
X101715238Y-139100380D01*
X101810476Y-139148000D01*
X101858095Y-139195619D01*
X101905714Y-139290857D01*
X101905714Y-139386095D01*
X101858095Y-139528952D01*
X101286666Y-140100380D01*
X101905714Y-140100380D01*
%TO.C,L1*%
X107203333Y-128112380D02*
X106727142Y-128112380D01*
X106727142Y-127112380D01*
X108060476Y-128112380D02*
X107489047Y-128112380D01*
X107774761Y-128112380D02*
X107774761Y-127112380D01*
X107679523Y-127255238D01*
X107584285Y-127350476D01*
X107489047Y-127398095D01*
%TO.C,U1*%
X104562857Y-135731428D02*
X104562857Y-136217142D01*
X104591428Y-136274285D01*
X104620000Y-136302857D01*
X104677142Y-136331428D01*
X104791428Y-136331428D01*
X104848571Y-136302857D01*
X104877142Y-136274285D01*
X104905714Y-136217142D01*
X104905714Y-135731428D01*
X105505714Y-136331428D02*
X105162857Y-136331428D01*
X105334285Y-136331428D02*
X105334285Y-135731428D01*
X105277142Y-135817142D01*
X105220000Y-135874285D01*
X105162857Y-135902857D01*
%TO.C,C1*%
X113553333Y-140005142D02*
X113505714Y-140052761D01*
X113362857Y-140100380D01*
X113267619Y-140100380D01*
X113124761Y-140052761D01*
X113029523Y-139957523D01*
X112981904Y-139862285D01*
X112934285Y-139671809D01*
X112934285Y-139528952D01*
X112981904Y-139338476D01*
X113029523Y-139243238D01*
X113124761Y-139148000D01*
X113267619Y-139100380D01*
X113362857Y-139100380D01*
X113505714Y-139148000D01*
X113553333Y-139195619D01*
X114505714Y-140100380D02*
X113934285Y-140100380D01*
X114220000Y-140100380D02*
X114220000Y-139100380D01*
X114124761Y-139243238D01*
X114029523Y-139338476D01*
X113934285Y-139386095D01*
%TO.C,C4*%
X109920000Y-128124285D02*
X109891428Y-128152857D01*
X109805714Y-128181428D01*
X109748571Y-128181428D01*
X109662857Y-128152857D01*
X109605714Y-128095714D01*
X109577142Y-128038571D01*
X109548571Y-127924285D01*
X109548571Y-127838571D01*
X109577142Y-127724285D01*
X109605714Y-127667142D01*
X109662857Y-127610000D01*
X109748571Y-127581428D01*
X109805714Y-127581428D01*
X109891428Y-127610000D01*
X109920000Y-127638571D01*
X110434285Y-127781428D02*
X110434285Y-128181428D01*
X110291428Y-127552857D02*
X110148571Y-127981428D01*
X110520000Y-127981428D01*
%TO.C,J1*%
X100843666Y-140596380D02*
X100843666Y-141310666D01*
X100796047Y-141453523D01*
X100700809Y-141548761D01*
X100557952Y-141596380D01*
X100462714Y-141596380D01*
X101843666Y-141596380D02*
X101272238Y-141596380D01*
X101557952Y-141596380D02*
X101557952Y-140596380D01*
X101462714Y-140739238D01*
X101367476Y-140834476D01*
X101272238Y-140882095D01*
%TO.C,C3*%
X88720000Y-128124285D02*
X88691428Y-128152857D01*
X88605714Y-128181428D01*
X88548571Y-128181428D01*
X88462857Y-128152857D01*
X88405714Y-128095714D01*
X88377142Y-128038571D01*
X88348571Y-127924285D01*
X88348571Y-127838571D01*
X88377142Y-127724285D01*
X88405714Y-127667142D01*
X88462857Y-127610000D01*
X88548571Y-127581428D01*
X88605714Y-127581428D01*
X88691428Y-127610000D01*
X88720000Y-127638571D01*
X88920000Y-127581428D02*
X89291428Y-127581428D01*
X89091428Y-127810000D01*
X89177142Y-127810000D01*
X89234285Y-127838571D01*
X89262857Y-127867142D01*
X89291428Y-127924285D01*
X89291428Y-128067142D01*
X89262857Y-128124285D01*
X89234285Y-128152857D01*
X89177142Y-128181428D01*
X89005714Y-128181428D01*
X88948571Y-128152857D01*
X88920000Y-128124285D01*
%TO.C,C2*%
X85253333Y-140005142D02*
X85205714Y-140052761D01*
X85062857Y-140100380D01*
X84967619Y-140100380D01*
X84824761Y-140052761D01*
X84729523Y-139957523D01*
X84681904Y-139862285D01*
X84634285Y-139671809D01*
X84634285Y-139528952D01*
X84681904Y-139338476D01*
X84729523Y-139243238D01*
X84824761Y-139148000D01*
X84967619Y-139100380D01*
X85062857Y-139100380D01*
X85205714Y-139148000D01*
X85253333Y-139195619D01*
X85634285Y-139195619D02*
X85681904Y-139148000D01*
X85777142Y-139100380D01*
X86015238Y-139100380D01*
X86110476Y-139148000D01*
X86158095Y-139195619D01*
X86205714Y-139290857D01*
X86205714Y-139386095D01*
X86158095Y-139528952D01*
X85586666Y-140100380D01*
X86205714Y-140100380D01*
%TO.C,L1*%
X91503333Y-128112380D02*
X91027142Y-128112380D01*
X91027142Y-127112380D01*
X92360476Y-128112380D02*
X91789047Y-128112380D01*
X92074761Y-128112380D02*
X92074761Y-127112380D01*
X91979523Y-127255238D01*
X91884285Y-127350476D01*
X91789047Y-127398095D01*
%TO.C,U1*%
X88862857Y-135731428D02*
X88862857Y-136217142D01*
X88891428Y-136274285D01*
X88920000Y-136302857D01*
X88977142Y-136331428D01*
X89091428Y-136331428D01*
X89148571Y-136302857D01*
X89177142Y-136274285D01*
X89205714Y-136217142D01*
X89205714Y-135731428D01*
X89805714Y-136331428D02*
X89462857Y-136331428D01*
X89634285Y-136331428D02*
X89634285Y-135731428D01*
X89577142Y-135817142D01*
X89520000Y-135874285D01*
X89462857Y-135902857D01*
%TO.C,C1*%
X97853333Y-140005142D02*
X97805714Y-140052761D01*
X97662857Y-140100380D01*
X97567619Y-140100380D01*
X97424761Y-140052761D01*
X97329523Y-139957523D01*
X97281904Y-139862285D01*
X97234285Y-139671809D01*
X97234285Y-139528952D01*
X97281904Y-139338476D01*
X97329523Y-139243238D01*
X97424761Y-139148000D01*
X97567619Y-139100380D01*
X97662857Y-139100380D01*
X97805714Y-139148000D01*
X97853333Y-139195619D01*
X98805714Y-140100380D02*
X98234285Y-140100380D01*
X98520000Y-140100380D02*
X98520000Y-139100380D01*
X98424761Y-139243238D01*
X98329523Y-139338476D01*
X98234285Y-139386095D01*
%TO.C,C4*%
X94220000Y-128124285D02*
X94191428Y-128152857D01*
X94105714Y-128181428D01*
X94048571Y-128181428D01*
X93962857Y-128152857D01*
X93905714Y-128095714D01*
X93877142Y-128038571D01*
X93848571Y-127924285D01*
X93848571Y-127838571D01*
X93877142Y-127724285D01*
X93905714Y-127667142D01*
X93962857Y-127610000D01*
X94048571Y-127581428D01*
X94105714Y-127581428D01*
X94191428Y-127610000D01*
X94220000Y-127638571D01*
X94734285Y-127781428D02*
X94734285Y-128181428D01*
X94591428Y-127552857D02*
X94448571Y-127981428D01*
X94820000Y-127981428D01*
%TO.C,J1*%
X85143666Y-140596380D02*
X85143666Y-141310666D01*
X85096047Y-141453523D01*
X85000809Y-141548761D01*
X84857952Y-141596380D01*
X84762714Y-141596380D01*
X86143666Y-141596380D02*
X85572238Y-141596380D01*
X85857952Y-141596380D02*
X85857952Y-140596380D01*
X85762714Y-140739238D01*
X85667476Y-140834476D01*
X85572238Y-140882095D01*
%TO.C,C3*%
X167220000Y-112424285D02*
X167191428Y-112452857D01*
X167105714Y-112481428D01*
X167048571Y-112481428D01*
X166962857Y-112452857D01*
X166905714Y-112395714D01*
X166877142Y-112338571D01*
X166848571Y-112224285D01*
X166848571Y-112138571D01*
X166877142Y-112024285D01*
X166905714Y-111967142D01*
X166962857Y-111910000D01*
X167048571Y-111881428D01*
X167105714Y-111881428D01*
X167191428Y-111910000D01*
X167220000Y-111938571D01*
X167420000Y-111881428D02*
X167791428Y-111881428D01*
X167591428Y-112110000D01*
X167677142Y-112110000D01*
X167734285Y-112138571D01*
X167762857Y-112167142D01*
X167791428Y-112224285D01*
X167791428Y-112367142D01*
X167762857Y-112424285D01*
X167734285Y-112452857D01*
X167677142Y-112481428D01*
X167505714Y-112481428D01*
X167448571Y-112452857D01*
X167420000Y-112424285D01*
%TO.C,C2*%
X163753333Y-124305142D02*
X163705714Y-124352761D01*
X163562857Y-124400380D01*
X163467619Y-124400380D01*
X163324761Y-124352761D01*
X163229523Y-124257523D01*
X163181904Y-124162285D01*
X163134285Y-123971809D01*
X163134285Y-123828952D01*
X163181904Y-123638476D01*
X163229523Y-123543238D01*
X163324761Y-123448000D01*
X163467619Y-123400380D01*
X163562857Y-123400380D01*
X163705714Y-123448000D01*
X163753333Y-123495619D01*
X164134285Y-123495619D02*
X164181904Y-123448000D01*
X164277142Y-123400380D01*
X164515238Y-123400380D01*
X164610476Y-123448000D01*
X164658095Y-123495619D01*
X164705714Y-123590857D01*
X164705714Y-123686095D01*
X164658095Y-123828952D01*
X164086666Y-124400380D01*
X164705714Y-124400380D01*
%TO.C,L1*%
X170003333Y-112412380D02*
X169527142Y-112412380D01*
X169527142Y-111412380D01*
X170860476Y-112412380D02*
X170289047Y-112412380D01*
X170574761Y-112412380D02*
X170574761Y-111412380D01*
X170479523Y-111555238D01*
X170384285Y-111650476D01*
X170289047Y-111698095D01*
%TO.C,U1*%
X167362857Y-120031428D02*
X167362857Y-120517142D01*
X167391428Y-120574285D01*
X167420000Y-120602857D01*
X167477142Y-120631428D01*
X167591428Y-120631428D01*
X167648571Y-120602857D01*
X167677142Y-120574285D01*
X167705714Y-120517142D01*
X167705714Y-120031428D01*
X168305714Y-120631428D02*
X167962857Y-120631428D01*
X168134285Y-120631428D02*
X168134285Y-120031428D01*
X168077142Y-120117142D01*
X168020000Y-120174285D01*
X167962857Y-120202857D01*
%TO.C,C1*%
X176353333Y-124305142D02*
X176305714Y-124352761D01*
X176162857Y-124400380D01*
X176067619Y-124400380D01*
X175924761Y-124352761D01*
X175829523Y-124257523D01*
X175781904Y-124162285D01*
X175734285Y-123971809D01*
X175734285Y-123828952D01*
X175781904Y-123638476D01*
X175829523Y-123543238D01*
X175924761Y-123448000D01*
X176067619Y-123400380D01*
X176162857Y-123400380D01*
X176305714Y-123448000D01*
X176353333Y-123495619D01*
X177305714Y-124400380D02*
X176734285Y-124400380D01*
X177020000Y-124400380D02*
X177020000Y-123400380D01*
X176924761Y-123543238D01*
X176829523Y-123638476D01*
X176734285Y-123686095D01*
%TO.C,C4*%
X172720000Y-112424285D02*
X172691428Y-112452857D01*
X172605714Y-112481428D01*
X172548571Y-112481428D01*
X172462857Y-112452857D01*
X172405714Y-112395714D01*
X172377142Y-112338571D01*
X172348571Y-112224285D01*
X172348571Y-112138571D01*
X172377142Y-112024285D01*
X172405714Y-111967142D01*
X172462857Y-111910000D01*
X172548571Y-111881428D01*
X172605714Y-111881428D01*
X172691428Y-111910000D01*
X172720000Y-111938571D01*
X173234285Y-112081428D02*
X173234285Y-112481428D01*
X173091428Y-111852857D02*
X172948571Y-112281428D01*
X173320000Y-112281428D01*
%TO.C,J1*%
X163643666Y-124896380D02*
X163643666Y-125610666D01*
X163596047Y-125753523D01*
X163500809Y-125848761D01*
X163357952Y-125896380D01*
X163262714Y-125896380D01*
X164643666Y-125896380D02*
X164072238Y-125896380D01*
X164357952Y-125896380D02*
X164357952Y-124896380D01*
X164262714Y-125039238D01*
X164167476Y-125134476D01*
X164072238Y-125182095D01*
%TO.C,C3*%
X151520000Y-112424285D02*
X151491428Y-112452857D01*
X151405714Y-112481428D01*
X151348571Y-112481428D01*
X151262857Y-112452857D01*
X151205714Y-112395714D01*
X151177142Y-112338571D01*
X151148571Y-112224285D01*
X151148571Y-112138571D01*
X151177142Y-112024285D01*
X151205714Y-111967142D01*
X151262857Y-111910000D01*
X151348571Y-111881428D01*
X151405714Y-111881428D01*
X151491428Y-111910000D01*
X151520000Y-111938571D01*
X151720000Y-111881428D02*
X152091428Y-111881428D01*
X151891428Y-112110000D01*
X151977142Y-112110000D01*
X152034285Y-112138571D01*
X152062857Y-112167142D01*
X152091428Y-112224285D01*
X152091428Y-112367142D01*
X152062857Y-112424285D01*
X152034285Y-112452857D01*
X151977142Y-112481428D01*
X151805714Y-112481428D01*
X151748571Y-112452857D01*
X151720000Y-112424285D01*
%TO.C,C2*%
X148053333Y-124305142D02*
X148005714Y-124352761D01*
X147862857Y-124400380D01*
X147767619Y-124400380D01*
X147624761Y-124352761D01*
X147529523Y-124257523D01*
X147481904Y-124162285D01*
X147434285Y-123971809D01*
X147434285Y-123828952D01*
X147481904Y-123638476D01*
X147529523Y-123543238D01*
X147624761Y-123448000D01*
X147767619Y-123400380D01*
X147862857Y-123400380D01*
X148005714Y-123448000D01*
X148053333Y-123495619D01*
X148434285Y-123495619D02*
X148481904Y-123448000D01*
X148577142Y-123400380D01*
X148815238Y-123400380D01*
X148910476Y-123448000D01*
X148958095Y-123495619D01*
X149005714Y-123590857D01*
X149005714Y-123686095D01*
X148958095Y-123828952D01*
X148386666Y-124400380D01*
X149005714Y-124400380D01*
%TO.C,L1*%
X154303333Y-112412380D02*
X153827142Y-112412380D01*
X153827142Y-111412380D01*
X155160476Y-112412380D02*
X154589047Y-112412380D01*
X154874761Y-112412380D02*
X154874761Y-111412380D01*
X154779523Y-111555238D01*
X154684285Y-111650476D01*
X154589047Y-111698095D01*
%TO.C,U1*%
X151662857Y-120031428D02*
X151662857Y-120517142D01*
X151691428Y-120574285D01*
X151720000Y-120602857D01*
X151777142Y-120631428D01*
X151891428Y-120631428D01*
X151948571Y-120602857D01*
X151977142Y-120574285D01*
X152005714Y-120517142D01*
X152005714Y-120031428D01*
X152605714Y-120631428D02*
X152262857Y-120631428D01*
X152434285Y-120631428D02*
X152434285Y-120031428D01*
X152377142Y-120117142D01*
X152320000Y-120174285D01*
X152262857Y-120202857D01*
%TO.C,C1*%
X160653333Y-124305142D02*
X160605714Y-124352761D01*
X160462857Y-124400380D01*
X160367619Y-124400380D01*
X160224761Y-124352761D01*
X160129523Y-124257523D01*
X160081904Y-124162285D01*
X160034285Y-123971809D01*
X160034285Y-123828952D01*
X160081904Y-123638476D01*
X160129523Y-123543238D01*
X160224761Y-123448000D01*
X160367619Y-123400380D01*
X160462857Y-123400380D01*
X160605714Y-123448000D01*
X160653333Y-123495619D01*
X161605714Y-124400380D02*
X161034285Y-124400380D01*
X161320000Y-124400380D02*
X161320000Y-123400380D01*
X161224761Y-123543238D01*
X161129523Y-123638476D01*
X161034285Y-123686095D01*
%TO.C,C4*%
X157020000Y-112424285D02*
X156991428Y-112452857D01*
X156905714Y-112481428D01*
X156848571Y-112481428D01*
X156762857Y-112452857D01*
X156705714Y-112395714D01*
X156677142Y-112338571D01*
X156648571Y-112224285D01*
X156648571Y-112138571D01*
X156677142Y-112024285D01*
X156705714Y-111967142D01*
X156762857Y-111910000D01*
X156848571Y-111881428D01*
X156905714Y-111881428D01*
X156991428Y-111910000D01*
X157020000Y-111938571D01*
X157534285Y-112081428D02*
X157534285Y-112481428D01*
X157391428Y-111852857D02*
X157248571Y-112281428D01*
X157620000Y-112281428D01*
%TO.C,J1*%
X147943666Y-124896380D02*
X147943666Y-125610666D01*
X147896047Y-125753523D01*
X147800809Y-125848761D01*
X147657952Y-125896380D01*
X147562714Y-125896380D01*
X148943666Y-125896380D02*
X148372238Y-125896380D01*
X148657952Y-125896380D02*
X148657952Y-124896380D01*
X148562714Y-125039238D01*
X148467476Y-125134476D01*
X148372238Y-125182095D01*
%TO.C,C3*%
X135820000Y-112424285D02*
X135791428Y-112452857D01*
X135705714Y-112481428D01*
X135648571Y-112481428D01*
X135562857Y-112452857D01*
X135505714Y-112395714D01*
X135477142Y-112338571D01*
X135448571Y-112224285D01*
X135448571Y-112138571D01*
X135477142Y-112024285D01*
X135505714Y-111967142D01*
X135562857Y-111910000D01*
X135648571Y-111881428D01*
X135705714Y-111881428D01*
X135791428Y-111910000D01*
X135820000Y-111938571D01*
X136020000Y-111881428D02*
X136391428Y-111881428D01*
X136191428Y-112110000D01*
X136277142Y-112110000D01*
X136334285Y-112138571D01*
X136362857Y-112167142D01*
X136391428Y-112224285D01*
X136391428Y-112367142D01*
X136362857Y-112424285D01*
X136334285Y-112452857D01*
X136277142Y-112481428D01*
X136105714Y-112481428D01*
X136048571Y-112452857D01*
X136020000Y-112424285D01*
%TO.C,C2*%
X132353333Y-124305142D02*
X132305714Y-124352761D01*
X132162857Y-124400380D01*
X132067619Y-124400380D01*
X131924761Y-124352761D01*
X131829523Y-124257523D01*
X131781904Y-124162285D01*
X131734285Y-123971809D01*
X131734285Y-123828952D01*
X131781904Y-123638476D01*
X131829523Y-123543238D01*
X131924761Y-123448000D01*
X132067619Y-123400380D01*
X132162857Y-123400380D01*
X132305714Y-123448000D01*
X132353333Y-123495619D01*
X132734285Y-123495619D02*
X132781904Y-123448000D01*
X132877142Y-123400380D01*
X133115238Y-123400380D01*
X133210476Y-123448000D01*
X133258095Y-123495619D01*
X133305714Y-123590857D01*
X133305714Y-123686095D01*
X133258095Y-123828952D01*
X132686666Y-124400380D01*
X133305714Y-124400380D01*
%TO.C,L1*%
X138603333Y-112412380D02*
X138127142Y-112412380D01*
X138127142Y-111412380D01*
X139460476Y-112412380D02*
X138889047Y-112412380D01*
X139174761Y-112412380D02*
X139174761Y-111412380D01*
X139079523Y-111555238D01*
X138984285Y-111650476D01*
X138889047Y-111698095D01*
%TO.C,U1*%
X135962857Y-120031428D02*
X135962857Y-120517142D01*
X135991428Y-120574285D01*
X136020000Y-120602857D01*
X136077142Y-120631428D01*
X136191428Y-120631428D01*
X136248571Y-120602857D01*
X136277142Y-120574285D01*
X136305714Y-120517142D01*
X136305714Y-120031428D01*
X136905714Y-120631428D02*
X136562857Y-120631428D01*
X136734285Y-120631428D02*
X136734285Y-120031428D01*
X136677142Y-120117142D01*
X136620000Y-120174285D01*
X136562857Y-120202857D01*
%TO.C,C1*%
X144953333Y-124305142D02*
X144905714Y-124352761D01*
X144762857Y-124400380D01*
X144667619Y-124400380D01*
X144524761Y-124352761D01*
X144429523Y-124257523D01*
X144381904Y-124162285D01*
X144334285Y-123971809D01*
X144334285Y-123828952D01*
X144381904Y-123638476D01*
X144429523Y-123543238D01*
X144524761Y-123448000D01*
X144667619Y-123400380D01*
X144762857Y-123400380D01*
X144905714Y-123448000D01*
X144953333Y-123495619D01*
X145905714Y-124400380D02*
X145334285Y-124400380D01*
X145620000Y-124400380D02*
X145620000Y-123400380D01*
X145524761Y-123543238D01*
X145429523Y-123638476D01*
X145334285Y-123686095D01*
%TO.C,C4*%
X141320000Y-112424285D02*
X141291428Y-112452857D01*
X141205714Y-112481428D01*
X141148571Y-112481428D01*
X141062857Y-112452857D01*
X141005714Y-112395714D01*
X140977142Y-112338571D01*
X140948571Y-112224285D01*
X140948571Y-112138571D01*
X140977142Y-112024285D01*
X141005714Y-111967142D01*
X141062857Y-111910000D01*
X141148571Y-111881428D01*
X141205714Y-111881428D01*
X141291428Y-111910000D01*
X141320000Y-111938571D01*
X141834285Y-112081428D02*
X141834285Y-112481428D01*
X141691428Y-111852857D02*
X141548571Y-112281428D01*
X141920000Y-112281428D01*
%TO.C,J1*%
X132243666Y-124896380D02*
X132243666Y-125610666D01*
X132196047Y-125753523D01*
X132100809Y-125848761D01*
X131957952Y-125896380D01*
X131862714Y-125896380D01*
X133243666Y-125896380D02*
X132672238Y-125896380D01*
X132957952Y-125896380D02*
X132957952Y-124896380D01*
X132862714Y-125039238D01*
X132767476Y-125134476D01*
X132672238Y-125182095D01*
%TO.C,C3*%
X120120000Y-112424285D02*
X120091428Y-112452857D01*
X120005714Y-112481428D01*
X119948571Y-112481428D01*
X119862857Y-112452857D01*
X119805714Y-112395714D01*
X119777142Y-112338571D01*
X119748571Y-112224285D01*
X119748571Y-112138571D01*
X119777142Y-112024285D01*
X119805714Y-111967142D01*
X119862857Y-111910000D01*
X119948571Y-111881428D01*
X120005714Y-111881428D01*
X120091428Y-111910000D01*
X120120000Y-111938571D01*
X120320000Y-111881428D02*
X120691428Y-111881428D01*
X120491428Y-112110000D01*
X120577142Y-112110000D01*
X120634285Y-112138571D01*
X120662857Y-112167142D01*
X120691428Y-112224285D01*
X120691428Y-112367142D01*
X120662857Y-112424285D01*
X120634285Y-112452857D01*
X120577142Y-112481428D01*
X120405714Y-112481428D01*
X120348571Y-112452857D01*
X120320000Y-112424285D01*
%TO.C,C2*%
X116653333Y-124305142D02*
X116605714Y-124352761D01*
X116462857Y-124400380D01*
X116367619Y-124400380D01*
X116224761Y-124352761D01*
X116129523Y-124257523D01*
X116081904Y-124162285D01*
X116034285Y-123971809D01*
X116034285Y-123828952D01*
X116081904Y-123638476D01*
X116129523Y-123543238D01*
X116224761Y-123448000D01*
X116367619Y-123400380D01*
X116462857Y-123400380D01*
X116605714Y-123448000D01*
X116653333Y-123495619D01*
X117034285Y-123495619D02*
X117081904Y-123448000D01*
X117177142Y-123400380D01*
X117415238Y-123400380D01*
X117510476Y-123448000D01*
X117558095Y-123495619D01*
X117605714Y-123590857D01*
X117605714Y-123686095D01*
X117558095Y-123828952D01*
X116986666Y-124400380D01*
X117605714Y-124400380D01*
%TO.C,L1*%
X122903333Y-112412380D02*
X122427142Y-112412380D01*
X122427142Y-111412380D01*
X123760476Y-112412380D02*
X123189047Y-112412380D01*
X123474761Y-112412380D02*
X123474761Y-111412380D01*
X123379523Y-111555238D01*
X123284285Y-111650476D01*
X123189047Y-111698095D01*
%TO.C,U1*%
X120262857Y-120031428D02*
X120262857Y-120517142D01*
X120291428Y-120574285D01*
X120320000Y-120602857D01*
X120377142Y-120631428D01*
X120491428Y-120631428D01*
X120548571Y-120602857D01*
X120577142Y-120574285D01*
X120605714Y-120517142D01*
X120605714Y-120031428D01*
X121205714Y-120631428D02*
X120862857Y-120631428D01*
X121034285Y-120631428D02*
X121034285Y-120031428D01*
X120977142Y-120117142D01*
X120920000Y-120174285D01*
X120862857Y-120202857D01*
%TO.C,C1*%
X129253333Y-124305142D02*
X129205714Y-124352761D01*
X129062857Y-124400380D01*
X128967619Y-124400380D01*
X128824761Y-124352761D01*
X128729523Y-124257523D01*
X128681904Y-124162285D01*
X128634285Y-123971809D01*
X128634285Y-123828952D01*
X128681904Y-123638476D01*
X128729523Y-123543238D01*
X128824761Y-123448000D01*
X128967619Y-123400380D01*
X129062857Y-123400380D01*
X129205714Y-123448000D01*
X129253333Y-123495619D01*
X130205714Y-124400380D02*
X129634285Y-124400380D01*
X129920000Y-124400380D02*
X129920000Y-123400380D01*
X129824761Y-123543238D01*
X129729523Y-123638476D01*
X129634285Y-123686095D01*
%TO.C,C4*%
X125620000Y-112424285D02*
X125591428Y-112452857D01*
X125505714Y-112481428D01*
X125448571Y-112481428D01*
X125362857Y-112452857D01*
X125305714Y-112395714D01*
X125277142Y-112338571D01*
X125248571Y-112224285D01*
X125248571Y-112138571D01*
X125277142Y-112024285D01*
X125305714Y-111967142D01*
X125362857Y-111910000D01*
X125448571Y-111881428D01*
X125505714Y-111881428D01*
X125591428Y-111910000D01*
X125620000Y-111938571D01*
X126134285Y-112081428D02*
X126134285Y-112481428D01*
X125991428Y-111852857D02*
X125848571Y-112281428D01*
X126220000Y-112281428D01*
%TO.C,J1*%
X116543666Y-124896380D02*
X116543666Y-125610666D01*
X116496047Y-125753523D01*
X116400809Y-125848761D01*
X116257952Y-125896380D01*
X116162714Y-125896380D01*
X117543666Y-125896380D02*
X116972238Y-125896380D01*
X117257952Y-125896380D02*
X117257952Y-124896380D01*
X117162714Y-125039238D01*
X117067476Y-125134476D01*
X116972238Y-125182095D01*
%TO.C,C3*%
X104420000Y-112424285D02*
X104391428Y-112452857D01*
X104305714Y-112481428D01*
X104248571Y-112481428D01*
X104162857Y-112452857D01*
X104105714Y-112395714D01*
X104077142Y-112338571D01*
X104048571Y-112224285D01*
X104048571Y-112138571D01*
X104077142Y-112024285D01*
X104105714Y-111967142D01*
X104162857Y-111910000D01*
X104248571Y-111881428D01*
X104305714Y-111881428D01*
X104391428Y-111910000D01*
X104420000Y-111938571D01*
X104620000Y-111881428D02*
X104991428Y-111881428D01*
X104791428Y-112110000D01*
X104877142Y-112110000D01*
X104934285Y-112138571D01*
X104962857Y-112167142D01*
X104991428Y-112224285D01*
X104991428Y-112367142D01*
X104962857Y-112424285D01*
X104934285Y-112452857D01*
X104877142Y-112481428D01*
X104705714Y-112481428D01*
X104648571Y-112452857D01*
X104620000Y-112424285D01*
%TO.C,C2*%
X100953333Y-124305142D02*
X100905714Y-124352761D01*
X100762857Y-124400380D01*
X100667619Y-124400380D01*
X100524761Y-124352761D01*
X100429523Y-124257523D01*
X100381904Y-124162285D01*
X100334285Y-123971809D01*
X100334285Y-123828952D01*
X100381904Y-123638476D01*
X100429523Y-123543238D01*
X100524761Y-123448000D01*
X100667619Y-123400380D01*
X100762857Y-123400380D01*
X100905714Y-123448000D01*
X100953333Y-123495619D01*
X101334285Y-123495619D02*
X101381904Y-123448000D01*
X101477142Y-123400380D01*
X101715238Y-123400380D01*
X101810476Y-123448000D01*
X101858095Y-123495619D01*
X101905714Y-123590857D01*
X101905714Y-123686095D01*
X101858095Y-123828952D01*
X101286666Y-124400380D01*
X101905714Y-124400380D01*
%TO.C,L1*%
X107203333Y-112412380D02*
X106727142Y-112412380D01*
X106727142Y-111412380D01*
X108060476Y-112412380D02*
X107489047Y-112412380D01*
X107774761Y-112412380D02*
X107774761Y-111412380D01*
X107679523Y-111555238D01*
X107584285Y-111650476D01*
X107489047Y-111698095D01*
%TO.C,U1*%
X104562857Y-120031428D02*
X104562857Y-120517142D01*
X104591428Y-120574285D01*
X104620000Y-120602857D01*
X104677142Y-120631428D01*
X104791428Y-120631428D01*
X104848571Y-120602857D01*
X104877142Y-120574285D01*
X104905714Y-120517142D01*
X104905714Y-120031428D01*
X105505714Y-120631428D02*
X105162857Y-120631428D01*
X105334285Y-120631428D02*
X105334285Y-120031428D01*
X105277142Y-120117142D01*
X105220000Y-120174285D01*
X105162857Y-120202857D01*
%TO.C,C1*%
X113553333Y-124305142D02*
X113505714Y-124352761D01*
X113362857Y-124400380D01*
X113267619Y-124400380D01*
X113124761Y-124352761D01*
X113029523Y-124257523D01*
X112981904Y-124162285D01*
X112934285Y-123971809D01*
X112934285Y-123828952D01*
X112981904Y-123638476D01*
X113029523Y-123543238D01*
X113124761Y-123448000D01*
X113267619Y-123400380D01*
X113362857Y-123400380D01*
X113505714Y-123448000D01*
X113553333Y-123495619D01*
X114505714Y-124400380D02*
X113934285Y-124400380D01*
X114220000Y-124400380D02*
X114220000Y-123400380D01*
X114124761Y-123543238D01*
X114029523Y-123638476D01*
X113934285Y-123686095D01*
%TO.C,C4*%
X109920000Y-112424285D02*
X109891428Y-112452857D01*
X109805714Y-112481428D01*
X109748571Y-112481428D01*
X109662857Y-112452857D01*
X109605714Y-112395714D01*
X109577142Y-112338571D01*
X109548571Y-112224285D01*
X109548571Y-112138571D01*
X109577142Y-112024285D01*
X109605714Y-111967142D01*
X109662857Y-111910000D01*
X109748571Y-111881428D01*
X109805714Y-111881428D01*
X109891428Y-111910000D01*
X109920000Y-111938571D01*
X110434285Y-112081428D02*
X110434285Y-112481428D01*
X110291428Y-111852857D02*
X110148571Y-112281428D01*
X110520000Y-112281428D01*
%TO.C,J1*%
X100843666Y-124896380D02*
X100843666Y-125610666D01*
X100796047Y-125753523D01*
X100700809Y-125848761D01*
X100557952Y-125896380D01*
X100462714Y-125896380D01*
X101843666Y-125896380D02*
X101272238Y-125896380D01*
X101557952Y-125896380D02*
X101557952Y-124896380D01*
X101462714Y-125039238D01*
X101367476Y-125134476D01*
X101272238Y-125182095D01*
%TO.C,C3*%
X88720000Y-112424285D02*
X88691428Y-112452857D01*
X88605714Y-112481428D01*
X88548571Y-112481428D01*
X88462857Y-112452857D01*
X88405714Y-112395714D01*
X88377142Y-112338571D01*
X88348571Y-112224285D01*
X88348571Y-112138571D01*
X88377142Y-112024285D01*
X88405714Y-111967142D01*
X88462857Y-111910000D01*
X88548571Y-111881428D01*
X88605714Y-111881428D01*
X88691428Y-111910000D01*
X88720000Y-111938571D01*
X88920000Y-111881428D02*
X89291428Y-111881428D01*
X89091428Y-112110000D01*
X89177142Y-112110000D01*
X89234285Y-112138571D01*
X89262857Y-112167142D01*
X89291428Y-112224285D01*
X89291428Y-112367142D01*
X89262857Y-112424285D01*
X89234285Y-112452857D01*
X89177142Y-112481428D01*
X89005714Y-112481428D01*
X88948571Y-112452857D01*
X88920000Y-112424285D01*
%TO.C,C2*%
X85253333Y-124305142D02*
X85205714Y-124352761D01*
X85062857Y-124400380D01*
X84967619Y-124400380D01*
X84824761Y-124352761D01*
X84729523Y-124257523D01*
X84681904Y-124162285D01*
X84634285Y-123971809D01*
X84634285Y-123828952D01*
X84681904Y-123638476D01*
X84729523Y-123543238D01*
X84824761Y-123448000D01*
X84967619Y-123400380D01*
X85062857Y-123400380D01*
X85205714Y-123448000D01*
X85253333Y-123495619D01*
X85634285Y-123495619D02*
X85681904Y-123448000D01*
X85777142Y-123400380D01*
X86015238Y-123400380D01*
X86110476Y-123448000D01*
X86158095Y-123495619D01*
X86205714Y-123590857D01*
X86205714Y-123686095D01*
X86158095Y-123828952D01*
X85586666Y-124400380D01*
X86205714Y-124400380D01*
%TO.C,L1*%
X91503333Y-112412380D02*
X91027142Y-112412380D01*
X91027142Y-111412380D01*
X92360476Y-112412380D02*
X91789047Y-112412380D01*
X92074761Y-112412380D02*
X92074761Y-111412380D01*
X91979523Y-111555238D01*
X91884285Y-111650476D01*
X91789047Y-111698095D01*
%TO.C,U1*%
X88862857Y-120031428D02*
X88862857Y-120517142D01*
X88891428Y-120574285D01*
X88920000Y-120602857D01*
X88977142Y-120631428D01*
X89091428Y-120631428D01*
X89148571Y-120602857D01*
X89177142Y-120574285D01*
X89205714Y-120517142D01*
X89205714Y-120031428D01*
X89805714Y-120631428D02*
X89462857Y-120631428D01*
X89634285Y-120631428D02*
X89634285Y-120031428D01*
X89577142Y-120117142D01*
X89520000Y-120174285D01*
X89462857Y-120202857D01*
%TO.C,C1*%
X97853333Y-124305142D02*
X97805714Y-124352761D01*
X97662857Y-124400380D01*
X97567619Y-124400380D01*
X97424761Y-124352761D01*
X97329523Y-124257523D01*
X97281904Y-124162285D01*
X97234285Y-123971809D01*
X97234285Y-123828952D01*
X97281904Y-123638476D01*
X97329523Y-123543238D01*
X97424761Y-123448000D01*
X97567619Y-123400380D01*
X97662857Y-123400380D01*
X97805714Y-123448000D01*
X97853333Y-123495619D01*
X98805714Y-124400380D02*
X98234285Y-124400380D01*
X98520000Y-124400380D02*
X98520000Y-123400380D01*
X98424761Y-123543238D01*
X98329523Y-123638476D01*
X98234285Y-123686095D01*
%TO.C,C4*%
X94220000Y-112424285D02*
X94191428Y-112452857D01*
X94105714Y-112481428D01*
X94048571Y-112481428D01*
X93962857Y-112452857D01*
X93905714Y-112395714D01*
X93877142Y-112338571D01*
X93848571Y-112224285D01*
X93848571Y-112138571D01*
X93877142Y-112024285D01*
X93905714Y-111967142D01*
X93962857Y-111910000D01*
X94048571Y-111881428D01*
X94105714Y-111881428D01*
X94191428Y-111910000D01*
X94220000Y-111938571D01*
X94734285Y-112081428D02*
X94734285Y-112481428D01*
X94591428Y-111852857D02*
X94448571Y-112281428D01*
X94820000Y-112281428D01*
%TO.C,J1*%
X85143666Y-124896380D02*
X85143666Y-125610666D01*
X85096047Y-125753523D01*
X85000809Y-125848761D01*
X84857952Y-125896380D01*
X84762714Y-125896380D01*
X86143666Y-125896380D02*
X85572238Y-125896380D01*
X85857952Y-125896380D02*
X85857952Y-124896380D01*
X85762714Y-125039238D01*
X85667476Y-125134476D01*
X85572238Y-125182095D01*
%TO.C,C3*%
X167220000Y-96724285D02*
X167191428Y-96752857D01*
X167105714Y-96781428D01*
X167048571Y-96781428D01*
X166962857Y-96752857D01*
X166905714Y-96695714D01*
X166877142Y-96638571D01*
X166848571Y-96524285D01*
X166848571Y-96438571D01*
X166877142Y-96324285D01*
X166905714Y-96267142D01*
X166962857Y-96210000D01*
X167048571Y-96181428D01*
X167105714Y-96181428D01*
X167191428Y-96210000D01*
X167220000Y-96238571D01*
X167420000Y-96181428D02*
X167791428Y-96181428D01*
X167591428Y-96410000D01*
X167677142Y-96410000D01*
X167734285Y-96438571D01*
X167762857Y-96467142D01*
X167791428Y-96524285D01*
X167791428Y-96667142D01*
X167762857Y-96724285D01*
X167734285Y-96752857D01*
X167677142Y-96781428D01*
X167505714Y-96781428D01*
X167448571Y-96752857D01*
X167420000Y-96724285D01*
%TO.C,C2*%
X163753333Y-108605142D02*
X163705714Y-108652761D01*
X163562857Y-108700380D01*
X163467619Y-108700380D01*
X163324761Y-108652761D01*
X163229523Y-108557523D01*
X163181904Y-108462285D01*
X163134285Y-108271809D01*
X163134285Y-108128952D01*
X163181904Y-107938476D01*
X163229523Y-107843238D01*
X163324761Y-107748000D01*
X163467619Y-107700380D01*
X163562857Y-107700380D01*
X163705714Y-107748000D01*
X163753333Y-107795619D01*
X164134285Y-107795619D02*
X164181904Y-107748000D01*
X164277142Y-107700380D01*
X164515238Y-107700380D01*
X164610476Y-107748000D01*
X164658095Y-107795619D01*
X164705714Y-107890857D01*
X164705714Y-107986095D01*
X164658095Y-108128952D01*
X164086666Y-108700380D01*
X164705714Y-108700380D01*
%TO.C,L1*%
X170003333Y-96712380D02*
X169527142Y-96712380D01*
X169527142Y-95712380D01*
X170860476Y-96712380D02*
X170289047Y-96712380D01*
X170574761Y-96712380D02*
X170574761Y-95712380D01*
X170479523Y-95855238D01*
X170384285Y-95950476D01*
X170289047Y-95998095D01*
%TO.C,U1*%
X167362857Y-104331428D02*
X167362857Y-104817142D01*
X167391428Y-104874285D01*
X167420000Y-104902857D01*
X167477142Y-104931428D01*
X167591428Y-104931428D01*
X167648571Y-104902857D01*
X167677142Y-104874285D01*
X167705714Y-104817142D01*
X167705714Y-104331428D01*
X168305714Y-104931428D02*
X167962857Y-104931428D01*
X168134285Y-104931428D02*
X168134285Y-104331428D01*
X168077142Y-104417142D01*
X168020000Y-104474285D01*
X167962857Y-104502857D01*
%TO.C,C1*%
X176353333Y-108605142D02*
X176305714Y-108652761D01*
X176162857Y-108700380D01*
X176067619Y-108700380D01*
X175924761Y-108652761D01*
X175829523Y-108557523D01*
X175781904Y-108462285D01*
X175734285Y-108271809D01*
X175734285Y-108128952D01*
X175781904Y-107938476D01*
X175829523Y-107843238D01*
X175924761Y-107748000D01*
X176067619Y-107700380D01*
X176162857Y-107700380D01*
X176305714Y-107748000D01*
X176353333Y-107795619D01*
X177305714Y-108700380D02*
X176734285Y-108700380D01*
X177020000Y-108700380D02*
X177020000Y-107700380D01*
X176924761Y-107843238D01*
X176829523Y-107938476D01*
X176734285Y-107986095D01*
%TO.C,C4*%
X172720000Y-96724285D02*
X172691428Y-96752857D01*
X172605714Y-96781428D01*
X172548571Y-96781428D01*
X172462857Y-96752857D01*
X172405714Y-96695714D01*
X172377142Y-96638571D01*
X172348571Y-96524285D01*
X172348571Y-96438571D01*
X172377142Y-96324285D01*
X172405714Y-96267142D01*
X172462857Y-96210000D01*
X172548571Y-96181428D01*
X172605714Y-96181428D01*
X172691428Y-96210000D01*
X172720000Y-96238571D01*
X173234285Y-96381428D02*
X173234285Y-96781428D01*
X173091428Y-96152857D02*
X172948571Y-96581428D01*
X173320000Y-96581428D01*
%TO.C,J1*%
X163643666Y-109196380D02*
X163643666Y-109910666D01*
X163596047Y-110053523D01*
X163500809Y-110148761D01*
X163357952Y-110196380D01*
X163262714Y-110196380D01*
X164643666Y-110196380D02*
X164072238Y-110196380D01*
X164357952Y-110196380D02*
X164357952Y-109196380D01*
X164262714Y-109339238D01*
X164167476Y-109434476D01*
X164072238Y-109482095D01*
%TO.C,C3*%
X151520000Y-96724285D02*
X151491428Y-96752857D01*
X151405714Y-96781428D01*
X151348571Y-96781428D01*
X151262857Y-96752857D01*
X151205714Y-96695714D01*
X151177142Y-96638571D01*
X151148571Y-96524285D01*
X151148571Y-96438571D01*
X151177142Y-96324285D01*
X151205714Y-96267142D01*
X151262857Y-96210000D01*
X151348571Y-96181428D01*
X151405714Y-96181428D01*
X151491428Y-96210000D01*
X151520000Y-96238571D01*
X151720000Y-96181428D02*
X152091428Y-96181428D01*
X151891428Y-96410000D01*
X151977142Y-96410000D01*
X152034285Y-96438571D01*
X152062857Y-96467142D01*
X152091428Y-96524285D01*
X152091428Y-96667142D01*
X152062857Y-96724285D01*
X152034285Y-96752857D01*
X151977142Y-96781428D01*
X151805714Y-96781428D01*
X151748571Y-96752857D01*
X151720000Y-96724285D01*
%TO.C,C2*%
X148053333Y-108605142D02*
X148005714Y-108652761D01*
X147862857Y-108700380D01*
X147767619Y-108700380D01*
X147624761Y-108652761D01*
X147529523Y-108557523D01*
X147481904Y-108462285D01*
X147434285Y-108271809D01*
X147434285Y-108128952D01*
X147481904Y-107938476D01*
X147529523Y-107843238D01*
X147624761Y-107748000D01*
X147767619Y-107700380D01*
X147862857Y-107700380D01*
X148005714Y-107748000D01*
X148053333Y-107795619D01*
X148434285Y-107795619D02*
X148481904Y-107748000D01*
X148577142Y-107700380D01*
X148815238Y-107700380D01*
X148910476Y-107748000D01*
X148958095Y-107795619D01*
X149005714Y-107890857D01*
X149005714Y-107986095D01*
X148958095Y-108128952D01*
X148386666Y-108700380D01*
X149005714Y-108700380D01*
%TO.C,L1*%
X154303333Y-96712380D02*
X153827142Y-96712380D01*
X153827142Y-95712380D01*
X155160476Y-96712380D02*
X154589047Y-96712380D01*
X154874761Y-96712380D02*
X154874761Y-95712380D01*
X154779523Y-95855238D01*
X154684285Y-95950476D01*
X154589047Y-95998095D01*
%TO.C,U1*%
X151662857Y-104331428D02*
X151662857Y-104817142D01*
X151691428Y-104874285D01*
X151720000Y-104902857D01*
X151777142Y-104931428D01*
X151891428Y-104931428D01*
X151948571Y-104902857D01*
X151977142Y-104874285D01*
X152005714Y-104817142D01*
X152005714Y-104331428D01*
X152605714Y-104931428D02*
X152262857Y-104931428D01*
X152434285Y-104931428D02*
X152434285Y-104331428D01*
X152377142Y-104417142D01*
X152320000Y-104474285D01*
X152262857Y-104502857D01*
%TO.C,C1*%
X160653333Y-108605142D02*
X160605714Y-108652761D01*
X160462857Y-108700380D01*
X160367619Y-108700380D01*
X160224761Y-108652761D01*
X160129523Y-108557523D01*
X160081904Y-108462285D01*
X160034285Y-108271809D01*
X160034285Y-108128952D01*
X160081904Y-107938476D01*
X160129523Y-107843238D01*
X160224761Y-107748000D01*
X160367619Y-107700380D01*
X160462857Y-107700380D01*
X160605714Y-107748000D01*
X160653333Y-107795619D01*
X161605714Y-108700380D02*
X161034285Y-108700380D01*
X161320000Y-108700380D02*
X161320000Y-107700380D01*
X161224761Y-107843238D01*
X161129523Y-107938476D01*
X161034285Y-107986095D01*
%TO.C,C4*%
X157020000Y-96724285D02*
X156991428Y-96752857D01*
X156905714Y-96781428D01*
X156848571Y-96781428D01*
X156762857Y-96752857D01*
X156705714Y-96695714D01*
X156677142Y-96638571D01*
X156648571Y-96524285D01*
X156648571Y-96438571D01*
X156677142Y-96324285D01*
X156705714Y-96267142D01*
X156762857Y-96210000D01*
X156848571Y-96181428D01*
X156905714Y-96181428D01*
X156991428Y-96210000D01*
X157020000Y-96238571D01*
X157534285Y-96381428D02*
X157534285Y-96781428D01*
X157391428Y-96152857D02*
X157248571Y-96581428D01*
X157620000Y-96581428D01*
%TO.C,J1*%
X147943666Y-109196380D02*
X147943666Y-109910666D01*
X147896047Y-110053523D01*
X147800809Y-110148761D01*
X147657952Y-110196380D01*
X147562714Y-110196380D01*
X148943666Y-110196380D02*
X148372238Y-110196380D01*
X148657952Y-110196380D02*
X148657952Y-109196380D01*
X148562714Y-109339238D01*
X148467476Y-109434476D01*
X148372238Y-109482095D01*
%TO.C,C3*%
X135820000Y-96724285D02*
X135791428Y-96752857D01*
X135705714Y-96781428D01*
X135648571Y-96781428D01*
X135562857Y-96752857D01*
X135505714Y-96695714D01*
X135477142Y-96638571D01*
X135448571Y-96524285D01*
X135448571Y-96438571D01*
X135477142Y-96324285D01*
X135505714Y-96267142D01*
X135562857Y-96210000D01*
X135648571Y-96181428D01*
X135705714Y-96181428D01*
X135791428Y-96210000D01*
X135820000Y-96238571D01*
X136020000Y-96181428D02*
X136391428Y-96181428D01*
X136191428Y-96410000D01*
X136277142Y-96410000D01*
X136334285Y-96438571D01*
X136362857Y-96467142D01*
X136391428Y-96524285D01*
X136391428Y-96667142D01*
X136362857Y-96724285D01*
X136334285Y-96752857D01*
X136277142Y-96781428D01*
X136105714Y-96781428D01*
X136048571Y-96752857D01*
X136020000Y-96724285D01*
%TO.C,C2*%
X132353333Y-108605142D02*
X132305714Y-108652761D01*
X132162857Y-108700380D01*
X132067619Y-108700380D01*
X131924761Y-108652761D01*
X131829523Y-108557523D01*
X131781904Y-108462285D01*
X131734285Y-108271809D01*
X131734285Y-108128952D01*
X131781904Y-107938476D01*
X131829523Y-107843238D01*
X131924761Y-107748000D01*
X132067619Y-107700380D01*
X132162857Y-107700380D01*
X132305714Y-107748000D01*
X132353333Y-107795619D01*
X132734285Y-107795619D02*
X132781904Y-107748000D01*
X132877142Y-107700380D01*
X133115238Y-107700380D01*
X133210476Y-107748000D01*
X133258095Y-107795619D01*
X133305714Y-107890857D01*
X133305714Y-107986095D01*
X133258095Y-108128952D01*
X132686666Y-108700380D01*
X133305714Y-108700380D01*
%TO.C,L1*%
X138603333Y-96712380D02*
X138127142Y-96712380D01*
X138127142Y-95712380D01*
X139460476Y-96712380D02*
X138889047Y-96712380D01*
X139174761Y-96712380D02*
X139174761Y-95712380D01*
X139079523Y-95855238D01*
X138984285Y-95950476D01*
X138889047Y-95998095D01*
%TO.C,U1*%
X135962857Y-104331428D02*
X135962857Y-104817142D01*
X135991428Y-104874285D01*
X136020000Y-104902857D01*
X136077142Y-104931428D01*
X136191428Y-104931428D01*
X136248571Y-104902857D01*
X136277142Y-104874285D01*
X136305714Y-104817142D01*
X136305714Y-104331428D01*
X136905714Y-104931428D02*
X136562857Y-104931428D01*
X136734285Y-104931428D02*
X136734285Y-104331428D01*
X136677142Y-104417142D01*
X136620000Y-104474285D01*
X136562857Y-104502857D01*
%TO.C,C1*%
X144953333Y-108605142D02*
X144905714Y-108652761D01*
X144762857Y-108700380D01*
X144667619Y-108700380D01*
X144524761Y-108652761D01*
X144429523Y-108557523D01*
X144381904Y-108462285D01*
X144334285Y-108271809D01*
X144334285Y-108128952D01*
X144381904Y-107938476D01*
X144429523Y-107843238D01*
X144524761Y-107748000D01*
X144667619Y-107700380D01*
X144762857Y-107700380D01*
X144905714Y-107748000D01*
X144953333Y-107795619D01*
X145905714Y-108700380D02*
X145334285Y-108700380D01*
X145620000Y-108700380D02*
X145620000Y-107700380D01*
X145524761Y-107843238D01*
X145429523Y-107938476D01*
X145334285Y-107986095D01*
%TO.C,C4*%
X141320000Y-96724285D02*
X141291428Y-96752857D01*
X141205714Y-96781428D01*
X141148571Y-96781428D01*
X141062857Y-96752857D01*
X141005714Y-96695714D01*
X140977142Y-96638571D01*
X140948571Y-96524285D01*
X140948571Y-96438571D01*
X140977142Y-96324285D01*
X141005714Y-96267142D01*
X141062857Y-96210000D01*
X141148571Y-96181428D01*
X141205714Y-96181428D01*
X141291428Y-96210000D01*
X141320000Y-96238571D01*
X141834285Y-96381428D02*
X141834285Y-96781428D01*
X141691428Y-96152857D02*
X141548571Y-96581428D01*
X141920000Y-96581428D01*
%TO.C,J1*%
X132243666Y-109196380D02*
X132243666Y-109910666D01*
X132196047Y-110053523D01*
X132100809Y-110148761D01*
X131957952Y-110196380D01*
X131862714Y-110196380D01*
X133243666Y-110196380D02*
X132672238Y-110196380D01*
X132957952Y-110196380D02*
X132957952Y-109196380D01*
X132862714Y-109339238D01*
X132767476Y-109434476D01*
X132672238Y-109482095D01*
%TO.C,C3*%
X120120000Y-96724285D02*
X120091428Y-96752857D01*
X120005714Y-96781428D01*
X119948571Y-96781428D01*
X119862857Y-96752857D01*
X119805714Y-96695714D01*
X119777142Y-96638571D01*
X119748571Y-96524285D01*
X119748571Y-96438571D01*
X119777142Y-96324285D01*
X119805714Y-96267142D01*
X119862857Y-96210000D01*
X119948571Y-96181428D01*
X120005714Y-96181428D01*
X120091428Y-96210000D01*
X120120000Y-96238571D01*
X120320000Y-96181428D02*
X120691428Y-96181428D01*
X120491428Y-96410000D01*
X120577142Y-96410000D01*
X120634285Y-96438571D01*
X120662857Y-96467142D01*
X120691428Y-96524285D01*
X120691428Y-96667142D01*
X120662857Y-96724285D01*
X120634285Y-96752857D01*
X120577142Y-96781428D01*
X120405714Y-96781428D01*
X120348571Y-96752857D01*
X120320000Y-96724285D01*
%TO.C,C2*%
X116653333Y-108605142D02*
X116605714Y-108652761D01*
X116462857Y-108700380D01*
X116367619Y-108700380D01*
X116224761Y-108652761D01*
X116129523Y-108557523D01*
X116081904Y-108462285D01*
X116034285Y-108271809D01*
X116034285Y-108128952D01*
X116081904Y-107938476D01*
X116129523Y-107843238D01*
X116224761Y-107748000D01*
X116367619Y-107700380D01*
X116462857Y-107700380D01*
X116605714Y-107748000D01*
X116653333Y-107795619D01*
X117034285Y-107795619D02*
X117081904Y-107748000D01*
X117177142Y-107700380D01*
X117415238Y-107700380D01*
X117510476Y-107748000D01*
X117558095Y-107795619D01*
X117605714Y-107890857D01*
X117605714Y-107986095D01*
X117558095Y-108128952D01*
X116986666Y-108700380D01*
X117605714Y-108700380D01*
%TO.C,L1*%
X122903333Y-96712380D02*
X122427142Y-96712380D01*
X122427142Y-95712380D01*
X123760476Y-96712380D02*
X123189047Y-96712380D01*
X123474761Y-96712380D02*
X123474761Y-95712380D01*
X123379523Y-95855238D01*
X123284285Y-95950476D01*
X123189047Y-95998095D01*
%TO.C,U1*%
X120262857Y-104331428D02*
X120262857Y-104817142D01*
X120291428Y-104874285D01*
X120320000Y-104902857D01*
X120377142Y-104931428D01*
X120491428Y-104931428D01*
X120548571Y-104902857D01*
X120577142Y-104874285D01*
X120605714Y-104817142D01*
X120605714Y-104331428D01*
X121205714Y-104931428D02*
X120862857Y-104931428D01*
X121034285Y-104931428D02*
X121034285Y-104331428D01*
X120977142Y-104417142D01*
X120920000Y-104474285D01*
X120862857Y-104502857D01*
%TO.C,C1*%
X129253333Y-108605142D02*
X129205714Y-108652761D01*
X129062857Y-108700380D01*
X128967619Y-108700380D01*
X128824761Y-108652761D01*
X128729523Y-108557523D01*
X128681904Y-108462285D01*
X128634285Y-108271809D01*
X128634285Y-108128952D01*
X128681904Y-107938476D01*
X128729523Y-107843238D01*
X128824761Y-107748000D01*
X128967619Y-107700380D01*
X129062857Y-107700380D01*
X129205714Y-107748000D01*
X129253333Y-107795619D01*
X130205714Y-108700380D02*
X129634285Y-108700380D01*
X129920000Y-108700380D02*
X129920000Y-107700380D01*
X129824761Y-107843238D01*
X129729523Y-107938476D01*
X129634285Y-107986095D01*
%TO.C,C4*%
X125620000Y-96724285D02*
X125591428Y-96752857D01*
X125505714Y-96781428D01*
X125448571Y-96781428D01*
X125362857Y-96752857D01*
X125305714Y-96695714D01*
X125277142Y-96638571D01*
X125248571Y-96524285D01*
X125248571Y-96438571D01*
X125277142Y-96324285D01*
X125305714Y-96267142D01*
X125362857Y-96210000D01*
X125448571Y-96181428D01*
X125505714Y-96181428D01*
X125591428Y-96210000D01*
X125620000Y-96238571D01*
X126134285Y-96381428D02*
X126134285Y-96781428D01*
X125991428Y-96152857D02*
X125848571Y-96581428D01*
X126220000Y-96581428D01*
%TO.C,J1*%
X116543666Y-109196380D02*
X116543666Y-109910666D01*
X116496047Y-110053523D01*
X116400809Y-110148761D01*
X116257952Y-110196380D01*
X116162714Y-110196380D01*
X117543666Y-110196380D02*
X116972238Y-110196380D01*
X117257952Y-110196380D02*
X117257952Y-109196380D01*
X117162714Y-109339238D01*
X117067476Y-109434476D01*
X116972238Y-109482095D01*
%TO.C,C3*%
X104420000Y-96724285D02*
X104391428Y-96752857D01*
X104305714Y-96781428D01*
X104248571Y-96781428D01*
X104162857Y-96752857D01*
X104105714Y-96695714D01*
X104077142Y-96638571D01*
X104048571Y-96524285D01*
X104048571Y-96438571D01*
X104077142Y-96324285D01*
X104105714Y-96267142D01*
X104162857Y-96210000D01*
X104248571Y-96181428D01*
X104305714Y-96181428D01*
X104391428Y-96210000D01*
X104420000Y-96238571D01*
X104620000Y-96181428D02*
X104991428Y-96181428D01*
X104791428Y-96410000D01*
X104877142Y-96410000D01*
X104934285Y-96438571D01*
X104962857Y-96467142D01*
X104991428Y-96524285D01*
X104991428Y-96667142D01*
X104962857Y-96724285D01*
X104934285Y-96752857D01*
X104877142Y-96781428D01*
X104705714Y-96781428D01*
X104648571Y-96752857D01*
X104620000Y-96724285D01*
%TO.C,C2*%
X100953333Y-108605142D02*
X100905714Y-108652761D01*
X100762857Y-108700380D01*
X100667619Y-108700380D01*
X100524761Y-108652761D01*
X100429523Y-108557523D01*
X100381904Y-108462285D01*
X100334285Y-108271809D01*
X100334285Y-108128952D01*
X100381904Y-107938476D01*
X100429523Y-107843238D01*
X100524761Y-107748000D01*
X100667619Y-107700380D01*
X100762857Y-107700380D01*
X100905714Y-107748000D01*
X100953333Y-107795619D01*
X101334285Y-107795619D02*
X101381904Y-107748000D01*
X101477142Y-107700380D01*
X101715238Y-107700380D01*
X101810476Y-107748000D01*
X101858095Y-107795619D01*
X101905714Y-107890857D01*
X101905714Y-107986095D01*
X101858095Y-108128952D01*
X101286666Y-108700380D01*
X101905714Y-108700380D01*
%TO.C,L1*%
X107203333Y-96712380D02*
X106727142Y-96712380D01*
X106727142Y-95712380D01*
X108060476Y-96712380D02*
X107489047Y-96712380D01*
X107774761Y-96712380D02*
X107774761Y-95712380D01*
X107679523Y-95855238D01*
X107584285Y-95950476D01*
X107489047Y-95998095D01*
%TO.C,U1*%
X104562857Y-104331428D02*
X104562857Y-104817142D01*
X104591428Y-104874285D01*
X104620000Y-104902857D01*
X104677142Y-104931428D01*
X104791428Y-104931428D01*
X104848571Y-104902857D01*
X104877142Y-104874285D01*
X104905714Y-104817142D01*
X104905714Y-104331428D01*
X105505714Y-104931428D02*
X105162857Y-104931428D01*
X105334285Y-104931428D02*
X105334285Y-104331428D01*
X105277142Y-104417142D01*
X105220000Y-104474285D01*
X105162857Y-104502857D01*
%TO.C,C1*%
X113553333Y-108605142D02*
X113505714Y-108652761D01*
X113362857Y-108700380D01*
X113267619Y-108700380D01*
X113124761Y-108652761D01*
X113029523Y-108557523D01*
X112981904Y-108462285D01*
X112934285Y-108271809D01*
X112934285Y-108128952D01*
X112981904Y-107938476D01*
X113029523Y-107843238D01*
X113124761Y-107748000D01*
X113267619Y-107700380D01*
X113362857Y-107700380D01*
X113505714Y-107748000D01*
X113553333Y-107795619D01*
X114505714Y-108700380D02*
X113934285Y-108700380D01*
X114220000Y-108700380D02*
X114220000Y-107700380D01*
X114124761Y-107843238D01*
X114029523Y-107938476D01*
X113934285Y-107986095D01*
%TO.C,C4*%
X109920000Y-96724285D02*
X109891428Y-96752857D01*
X109805714Y-96781428D01*
X109748571Y-96781428D01*
X109662857Y-96752857D01*
X109605714Y-96695714D01*
X109577142Y-96638571D01*
X109548571Y-96524285D01*
X109548571Y-96438571D01*
X109577142Y-96324285D01*
X109605714Y-96267142D01*
X109662857Y-96210000D01*
X109748571Y-96181428D01*
X109805714Y-96181428D01*
X109891428Y-96210000D01*
X109920000Y-96238571D01*
X110434285Y-96381428D02*
X110434285Y-96781428D01*
X110291428Y-96152857D02*
X110148571Y-96581428D01*
X110520000Y-96581428D01*
%TO.C,J1*%
X100843666Y-109196380D02*
X100843666Y-109910666D01*
X100796047Y-110053523D01*
X100700809Y-110148761D01*
X100557952Y-110196380D01*
X100462714Y-110196380D01*
X101843666Y-110196380D02*
X101272238Y-110196380D01*
X101557952Y-110196380D02*
X101557952Y-109196380D01*
X101462714Y-109339238D01*
X101367476Y-109434476D01*
X101272238Y-109482095D01*
%TO.C,C3*%
X88720000Y-96724285D02*
X88691428Y-96752857D01*
X88605714Y-96781428D01*
X88548571Y-96781428D01*
X88462857Y-96752857D01*
X88405714Y-96695714D01*
X88377142Y-96638571D01*
X88348571Y-96524285D01*
X88348571Y-96438571D01*
X88377142Y-96324285D01*
X88405714Y-96267142D01*
X88462857Y-96210000D01*
X88548571Y-96181428D01*
X88605714Y-96181428D01*
X88691428Y-96210000D01*
X88720000Y-96238571D01*
X88920000Y-96181428D02*
X89291428Y-96181428D01*
X89091428Y-96410000D01*
X89177142Y-96410000D01*
X89234285Y-96438571D01*
X89262857Y-96467142D01*
X89291428Y-96524285D01*
X89291428Y-96667142D01*
X89262857Y-96724285D01*
X89234285Y-96752857D01*
X89177142Y-96781428D01*
X89005714Y-96781428D01*
X88948571Y-96752857D01*
X88920000Y-96724285D01*
%TO.C,C2*%
X85253333Y-108605142D02*
X85205714Y-108652761D01*
X85062857Y-108700380D01*
X84967619Y-108700380D01*
X84824761Y-108652761D01*
X84729523Y-108557523D01*
X84681904Y-108462285D01*
X84634285Y-108271809D01*
X84634285Y-108128952D01*
X84681904Y-107938476D01*
X84729523Y-107843238D01*
X84824761Y-107748000D01*
X84967619Y-107700380D01*
X85062857Y-107700380D01*
X85205714Y-107748000D01*
X85253333Y-107795619D01*
X85634285Y-107795619D02*
X85681904Y-107748000D01*
X85777142Y-107700380D01*
X86015238Y-107700380D01*
X86110476Y-107748000D01*
X86158095Y-107795619D01*
X86205714Y-107890857D01*
X86205714Y-107986095D01*
X86158095Y-108128952D01*
X85586666Y-108700380D01*
X86205714Y-108700380D01*
%TO.C,L1*%
X91503333Y-96712380D02*
X91027142Y-96712380D01*
X91027142Y-95712380D01*
X92360476Y-96712380D02*
X91789047Y-96712380D01*
X92074761Y-96712380D02*
X92074761Y-95712380D01*
X91979523Y-95855238D01*
X91884285Y-95950476D01*
X91789047Y-95998095D01*
%TO.C,U1*%
X88862857Y-104331428D02*
X88862857Y-104817142D01*
X88891428Y-104874285D01*
X88920000Y-104902857D01*
X88977142Y-104931428D01*
X89091428Y-104931428D01*
X89148571Y-104902857D01*
X89177142Y-104874285D01*
X89205714Y-104817142D01*
X89205714Y-104331428D01*
X89805714Y-104931428D02*
X89462857Y-104931428D01*
X89634285Y-104931428D02*
X89634285Y-104331428D01*
X89577142Y-104417142D01*
X89520000Y-104474285D01*
X89462857Y-104502857D01*
%TO.C,C1*%
X97853333Y-108605142D02*
X97805714Y-108652761D01*
X97662857Y-108700380D01*
X97567619Y-108700380D01*
X97424761Y-108652761D01*
X97329523Y-108557523D01*
X97281904Y-108462285D01*
X97234285Y-108271809D01*
X97234285Y-108128952D01*
X97281904Y-107938476D01*
X97329523Y-107843238D01*
X97424761Y-107748000D01*
X97567619Y-107700380D01*
X97662857Y-107700380D01*
X97805714Y-107748000D01*
X97853333Y-107795619D01*
X98805714Y-108700380D02*
X98234285Y-108700380D01*
X98520000Y-108700380D02*
X98520000Y-107700380D01*
X98424761Y-107843238D01*
X98329523Y-107938476D01*
X98234285Y-107986095D01*
%TO.C,C4*%
X94220000Y-96724285D02*
X94191428Y-96752857D01*
X94105714Y-96781428D01*
X94048571Y-96781428D01*
X93962857Y-96752857D01*
X93905714Y-96695714D01*
X93877142Y-96638571D01*
X93848571Y-96524285D01*
X93848571Y-96438571D01*
X93877142Y-96324285D01*
X93905714Y-96267142D01*
X93962857Y-96210000D01*
X94048571Y-96181428D01*
X94105714Y-96181428D01*
X94191428Y-96210000D01*
X94220000Y-96238571D01*
X94734285Y-96381428D02*
X94734285Y-96781428D01*
X94591428Y-96152857D02*
X94448571Y-96581428D01*
X94820000Y-96581428D01*
%TO.C,J1*%
X85143666Y-109196380D02*
X85143666Y-109910666D01*
X85096047Y-110053523D01*
X85000809Y-110148761D01*
X84857952Y-110196380D01*
X84762714Y-110196380D01*
X86143666Y-110196380D02*
X85572238Y-110196380D01*
X85857952Y-110196380D02*
X85857952Y-109196380D01*
X85762714Y-109339238D01*
X85667476Y-109434476D01*
X85572238Y-109482095D01*
%TO.C,C3*%
X167220000Y-81024285D02*
X167191428Y-81052857D01*
X167105714Y-81081428D01*
X167048571Y-81081428D01*
X166962857Y-81052857D01*
X166905714Y-80995714D01*
X166877142Y-80938571D01*
X166848571Y-80824285D01*
X166848571Y-80738571D01*
X166877142Y-80624285D01*
X166905714Y-80567142D01*
X166962857Y-80510000D01*
X167048571Y-80481428D01*
X167105714Y-80481428D01*
X167191428Y-80510000D01*
X167220000Y-80538571D01*
X167420000Y-80481428D02*
X167791428Y-80481428D01*
X167591428Y-80710000D01*
X167677142Y-80710000D01*
X167734285Y-80738571D01*
X167762857Y-80767142D01*
X167791428Y-80824285D01*
X167791428Y-80967142D01*
X167762857Y-81024285D01*
X167734285Y-81052857D01*
X167677142Y-81081428D01*
X167505714Y-81081428D01*
X167448571Y-81052857D01*
X167420000Y-81024285D01*
%TO.C,C2*%
X163753333Y-92905142D02*
X163705714Y-92952761D01*
X163562857Y-93000380D01*
X163467619Y-93000380D01*
X163324761Y-92952761D01*
X163229523Y-92857523D01*
X163181904Y-92762285D01*
X163134285Y-92571809D01*
X163134285Y-92428952D01*
X163181904Y-92238476D01*
X163229523Y-92143238D01*
X163324761Y-92048000D01*
X163467619Y-92000380D01*
X163562857Y-92000380D01*
X163705714Y-92048000D01*
X163753333Y-92095619D01*
X164134285Y-92095619D02*
X164181904Y-92048000D01*
X164277142Y-92000380D01*
X164515238Y-92000380D01*
X164610476Y-92048000D01*
X164658095Y-92095619D01*
X164705714Y-92190857D01*
X164705714Y-92286095D01*
X164658095Y-92428952D01*
X164086666Y-93000380D01*
X164705714Y-93000380D01*
%TO.C,L1*%
X170003333Y-81012380D02*
X169527142Y-81012380D01*
X169527142Y-80012380D01*
X170860476Y-81012380D02*
X170289047Y-81012380D01*
X170574761Y-81012380D02*
X170574761Y-80012380D01*
X170479523Y-80155238D01*
X170384285Y-80250476D01*
X170289047Y-80298095D01*
%TO.C,U1*%
X167362857Y-88631428D02*
X167362857Y-89117142D01*
X167391428Y-89174285D01*
X167420000Y-89202857D01*
X167477142Y-89231428D01*
X167591428Y-89231428D01*
X167648571Y-89202857D01*
X167677142Y-89174285D01*
X167705714Y-89117142D01*
X167705714Y-88631428D01*
X168305714Y-89231428D02*
X167962857Y-89231428D01*
X168134285Y-89231428D02*
X168134285Y-88631428D01*
X168077142Y-88717142D01*
X168020000Y-88774285D01*
X167962857Y-88802857D01*
%TO.C,C1*%
X176353333Y-92905142D02*
X176305714Y-92952761D01*
X176162857Y-93000380D01*
X176067619Y-93000380D01*
X175924761Y-92952761D01*
X175829523Y-92857523D01*
X175781904Y-92762285D01*
X175734285Y-92571809D01*
X175734285Y-92428952D01*
X175781904Y-92238476D01*
X175829523Y-92143238D01*
X175924761Y-92048000D01*
X176067619Y-92000380D01*
X176162857Y-92000380D01*
X176305714Y-92048000D01*
X176353333Y-92095619D01*
X177305714Y-93000380D02*
X176734285Y-93000380D01*
X177020000Y-93000380D02*
X177020000Y-92000380D01*
X176924761Y-92143238D01*
X176829523Y-92238476D01*
X176734285Y-92286095D01*
%TO.C,C4*%
X172720000Y-81024285D02*
X172691428Y-81052857D01*
X172605714Y-81081428D01*
X172548571Y-81081428D01*
X172462857Y-81052857D01*
X172405714Y-80995714D01*
X172377142Y-80938571D01*
X172348571Y-80824285D01*
X172348571Y-80738571D01*
X172377142Y-80624285D01*
X172405714Y-80567142D01*
X172462857Y-80510000D01*
X172548571Y-80481428D01*
X172605714Y-80481428D01*
X172691428Y-80510000D01*
X172720000Y-80538571D01*
X173234285Y-80681428D02*
X173234285Y-81081428D01*
X173091428Y-80452857D02*
X172948571Y-80881428D01*
X173320000Y-80881428D01*
%TO.C,J1*%
X163643666Y-93496380D02*
X163643666Y-94210666D01*
X163596047Y-94353523D01*
X163500809Y-94448761D01*
X163357952Y-94496380D01*
X163262714Y-94496380D01*
X164643666Y-94496380D02*
X164072238Y-94496380D01*
X164357952Y-94496380D02*
X164357952Y-93496380D01*
X164262714Y-93639238D01*
X164167476Y-93734476D01*
X164072238Y-93782095D01*
%TO.C,C3*%
X151520000Y-81024285D02*
X151491428Y-81052857D01*
X151405714Y-81081428D01*
X151348571Y-81081428D01*
X151262857Y-81052857D01*
X151205714Y-80995714D01*
X151177142Y-80938571D01*
X151148571Y-80824285D01*
X151148571Y-80738571D01*
X151177142Y-80624285D01*
X151205714Y-80567142D01*
X151262857Y-80510000D01*
X151348571Y-80481428D01*
X151405714Y-80481428D01*
X151491428Y-80510000D01*
X151520000Y-80538571D01*
X151720000Y-80481428D02*
X152091428Y-80481428D01*
X151891428Y-80710000D01*
X151977142Y-80710000D01*
X152034285Y-80738571D01*
X152062857Y-80767142D01*
X152091428Y-80824285D01*
X152091428Y-80967142D01*
X152062857Y-81024285D01*
X152034285Y-81052857D01*
X151977142Y-81081428D01*
X151805714Y-81081428D01*
X151748571Y-81052857D01*
X151720000Y-81024285D01*
%TO.C,C2*%
X148053333Y-92905142D02*
X148005714Y-92952761D01*
X147862857Y-93000380D01*
X147767619Y-93000380D01*
X147624761Y-92952761D01*
X147529523Y-92857523D01*
X147481904Y-92762285D01*
X147434285Y-92571809D01*
X147434285Y-92428952D01*
X147481904Y-92238476D01*
X147529523Y-92143238D01*
X147624761Y-92048000D01*
X147767619Y-92000380D01*
X147862857Y-92000380D01*
X148005714Y-92048000D01*
X148053333Y-92095619D01*
X148434285Y-92095619D02*
X148481904Y-92048000D01*
X148577142Y-92000380D01*
X148815238Y-92000380D01*
X148910476Y-92048000D01*
X148958095Y-92095619D01*
X149005714Y-92190857D01*
X149005714Y-92286095D01*
X148958095Y-92428952D01*
X148386666Y-93000380D01*
X149005714Y-93000380D01*
%TO.C,L1*%
X154303333Y-81012380D02*
X153827142Y-81012380D01*
X153827142Y-80012380D01*
X155160476Y-81012380D02*
X154589047Y-81012380D01*
X154874761Y-81012380D02*
X154874761Y-80012380D01*
X154779523Y-80155238D01*
X154684285Y-80250476D01*
X154589047Y-80298095D01*
%TO.C,U1*%
X151662857Y-88631428D02*
X151662857Y-89117142D01*
X151691428Y-89174285D01*
X151720000Y-89202857D01*
X151777142Y-89231428D01*
X151891428Y-89231428D01*
X151948571Y-89202857D01*
X151977142Y-89174285D01*
X152005714Y-89117142D01*
X152005714Y-88631428D01*
X152605714Y-89231428D02*
X152262857Y-89231428D01*
X152434285Y-89231428D02*
X152434285Y-88631428D01*
X152377142Y-88717142D01*
X152320000Y-88774285D01*
X152262857Y-88802857D01*
%TO.C,C1*%
X160653333Y-92905142D02*
X160605714Y-92952761D01*
X160462857Y-93000380D01*
X160367619Y-93000380D01*
X160224761Y-92952761D01*
X160129523Y-92857523D01*
X160081904Y-92762285D01*
X160034285Y-92571809D01*
X160034285Y-92428952D01*
X160081904Y-92238476D01*
X160129523Y-92143238D01*
X160224761Y-92048000D01*
X160367619Y-92000380D01*
X160462857Y-92000380D01*
X160605714Y-92048000D01*
X160653333Y-92095619D01*
X161605714Y-93000380D02*
X161034285Y-93000380D01*
X161320000Y-93000380D02*
X161320000Y-92000380D01*
X161224761Y-92143238D01*
X161129523Y-92238476D01*
X161034285Y-92286095D01*
%TO.C,C4*%
X157020000Y-81024285D02*
X156991428Y-81052857D01*
X156905714Y-81081428D01*
X156848571Y-81081428D01*
X156762857Y-81052857D01*
X156705714Y-80995714D01*
X156677142Y-80938571D01*
X156648571Y-80824285D01*
X156648571Y-80738571D01*
X156677142Y-80624285D01*
X156705714Y-80567142D01*
X156762857Y-80510000D01*
X156848571Y-80481428D01*
X156905714Y-80481428D01*
X156991428Y-80510000D01*
X157020000Y-80538571D01*
X157534285Y-80681428D02*
X157534285Y-81081428D01*
X157391428Y-80452857D02*
X157248571Y-80881428D01*
X157620000Y-80881428D01*
%TO.C,J1*%
X147943666Y-93496380D02*
X147943666Y-94210666D01*
X147896047Y-94353523D01*
X147800809Y-94448761D01*
X147657952Y-94496380D01*
X147562714Y-94496380D01*
X148943666Y-94496380D02*
X148372238Y-94496380D01*
X148657952Y-94496380D02*
X148657952Y-93496380D01*
X148562714Y-93639238D01*
X148467476Y-93734476D01*
X148372238Y-93782095D01*
%TO.C,C3*%
X135820000Y-81024285D02*
X135791428Y-81052857D01*
X135705714Y-81081428D01*
X135648571Y-81081428D01*
X135562857Y-81052857D01*
X135505714Y-80995714D01*
X135477142Y-80938571D01*
X135448571Y-80824285D01*
X135448571Y-80738571D01*
X135477142Y-80624285D01*
X135505714Y-80567142D01*
X135562857Y-80510000D01*
X135648571Y-80481428D01*
X135705714Y-80481428D01*
X135791428Y-80510000D01*
X135820000Y-80538571D01*
X136020000Y-80481428D02*
X136391428Y-80481428D01*
X136191428Y-80710000D01*
X136277142Y-80710000D01*
X136334285Y-80738571D01*
X136362857Y-80767142D01*
X136391428Y-80824285D01*
X136391428Y-80967142D01*
X136362857Y-81024285D01*
X136334285Y-81052857D01*
X136277142Y-81081428D01*
X136105714Y-81081428D01*
X136048571Y-81052857D01*
X136020000Y-81024285D01*
%TO.C,C2*%
X132353333Y-92905142D02*
X132305714Y-92952761D01*
X132162857Y-93000380D01*
X132067619Y-93000380D01*
X131924761Y-92952761D01*
X131829523Y-92857523D01*
X131781904Y-92762285D01*
X131734285Y-92571809D01*
X131734285Y-92428952D01*
X131781904Y-92238476D01*
X131829523Y-92143238D01*
X131924761Y-92048000D01*
X132067619Y-92000380D01*
X132162857Y-92000380D01*
X132305714Y-92048000D01*
X132353333Y-92095619D01*
X132734285Y-92095619D02*
X132781904Y-92048000D01*
X132877142Y-92000380D01*
X133115238Y-92000380D01*
X133210476Y-92048000D01*
X133258095Y-92095619D01*
X133305714Y-92190857D01*
X133305714Y-92286095D01*
X133258095Y-92428952D01*
X132686666Y-93000380D01*
X133305714Y-93000380D01*
%TO.C,L1*%
X138603333Y-81012380D02*
X138127142Y-81012380D01*
X138127142Y-80012380D01*
X139460476Y-81012380D02*
X138889047Y-81012380D01*
X139174761Y-81012380D02*
X139174761Y-80012380D01*
X139079523Y-80155238D01*
X138984285Y-80250476D01*
X138889047Y-80298095D01*
%TO.C,U1*%
X135962857Y-88631428D02*
X135962857Y-89117142D01*
X135991428Y-89174285D01*
X136020000Y-89202857D01*
X136077142Y-89231428D01*
X136191428Y-89231428D01*
X136248571Y-89202857D01*
X136277142Y-89174285D01*
X136305714Y-89117142D01*
X136305714Y-88631428D01*
X136905714Y-89231428D02*
X136562857Y-89231428D01*
X136734285Y-89231428D02*
X136734285Y-88631428D01*
X136677142Y-88717142D01*
X136620000Y-88774285D01*
X136562857Y-88802857D01*
%TO.C,C1*%
X144953333Y-92905142D02*
X144905714Y-92952761D01*
X144762857Y-93000380D01*
X144667619Y-93000380D01*
X144524761Y-92952761D01*
X144429523Y-92857523D01*
X144381904Y-92762285D01*
X144334285Y-92571809D01*
X144334285Y-92428952D01*
X144381904Y-92238476D01*
X144429523Y-92143238D01*
X144524761Y-92048000D01*
X144667619Y-92000380D01*
X144762857Y-92000380D01*
X144905714Y-92048000D01*
X144953333Y-92095619D01*
X145905714Y-93000380D02*
X145334285Y-93000380D01*
X145620000Y-93000380D02*
X145620000Y-92000380D01*
X145524761Y-92143238D01*
X145429523Y-92238476D01*
X145334285Y-92286095D01*
%TO.C,C4*%
X141320000Y-81024285D02*
X141291428Y-81052857D01*
X141205714Y-81081428D01*
X141148571Y-81081428D01*
X141062857Y-81052857D01*
X141005714Y-80995714D01*
X140977142Y-80938571D01*
X140948571Y-80824285D01*
X140948571Y-80738571D01*
X140977142Y-80624285D01*
X141005714Y-80567142D01*
X141062857Y-80510000D01*
X141148571Y-80481428D01*
X141205714Y-80481428D01*
X141291428Y-80510000D01*
X141320000Y-80538571D01*
X141834285Y-80681428D02*
X141834285Y-81081428D01*
X141691428Y-80452857D02*
X141548571Y-80881428D01*
X141920000Y-80881428D01*
%TO.C,J1*%
X132243666Y-93496380D02*
X132243666Y-94210666D01*
X132196047Y-94353523D01*
X132100809Y-94448761D01*
X131957952Y-94496380D01*
X131862714Y-94496380D01*
X133243666Y-94496380D02*
X132672238Y-94496380D01*
X132957952Y-94496380D02*
X132957952Y-93496380D01*
X132862714Y-93639238D01*
X132767476Y-93734476D01*
X132672238Y-93782095D01*
%TO.C,C3*%
X120120000Y-81024285D02*
X120091428Y-81052857D01*
X120005714Y-81081428D01*
X119948571Y-81081428D01*
X119862857Y-81052857D01*
X119805714Y-80995714D01*
X119777142Y-80938571D01*
X119748571Y-80824285D01*
X119748571Y-80738571D01*
X119777142Y-80624285D01*
X119805714Y-80567142D01*
X119862857Y-80510000D01*
X119948571Y-80481428D01*
X120005714Y-80481428D01*
X120091428Y-80510000D01*
X120120000Y-80538571D01*
X120320000Y-80481428D02*
X120691428Y-80481428D01*
X120491428Y-80710000D01*
X120577142Y-80710000D01*
X120634285Y-80738571D01*
X120662857Y-80767142D01*
X120691428Y-80824285D01*
X120691428Y-80967142D01*
X120662857Y-81024285D01*
X120634285Y-81052857D01*
X120577142Y-81081428D01*
X120405714Y-81081428D01*
X120348571Y-81052857D01*
X120320000Y-81024285D01*
%TO.C,C2*%
X116653333Y-92905142D02*
X116605714Y-92952761D01*
X116462857Y-93000380D01*
X116367619Y-93000380D01*
X116224761Y-92952761D01*
X116129523Y-92857523D01*
X116081904Y-92762285D01*
X116034285Y-92571809D01*
X116034285Y-92428952D01*
X116081904Y-92238476D01*
X116129523Y-92143238D01*
X116224761Y-92048000D01*
X116367619Y-92000380D01*
X116462857Y-92000380D01*
X116605714Y-92048000D01*
X116653333Y-92095619D01*
X117034285Y-92095619D02*
X117081904Y-92048000D01*
X117177142Y-92000380D01*
X117415238Y-92000380D01*
X117510476Y-92048000D01*
X117558095Y-92095619D01*
X117605714Y-92190857D01*
X117605714Y-92286095D01*
X117558095Y-92428952D01*
X116986666Y-93000380D01*
X117605714Y-93000380D01*
%TO.C,L1*%
X122903333Y-81012380D02*
X122427142Y-81012380D01*
X122427142Y-80012380D01*
X123760476Y-81012380D02*
X123189047Y-81012380D01*
X123474761Y-81012380D02*
X123474761Y-80012380D01*
X123379523Y-80155238D01*
X123284285Y-80250476D01*
X123189047Y-80298095D01*
%TO.C,U1*%
X120262857Y-88631428D02*
X120262857Y-89117142D01*
X120291428Y-89174285D01*
X120320000Y-89202857D01*
X120377142Y-89231428D01*
X120491428Y-89231428D01*
X120548571Y-89202857D01*
X120577142Y-89174285D01*
X120605714Y-89117142D01*
X120605714Y-88631428D01*
X121205714Y-89231428D02*
X120862857Y-89231428D01*
X121034285Y-89231428D02*
X121034285Y-88631428D01*
X120977142Y-88717142D01*
X120920000Y-88774285D01*
X120862857Y-88802857D01*
%TO.C,C1*%
X129253333Y-92905142D02*
X129205714Y-92952761D01*
X129062857Y-93000380D01*
X128967619Y-93000380D01*
X128824761Y-92952761D01*
X128729523Y-92857523D01*
X128681904Y-92762285D01*
X128634285Y-92571809D01*
X128634285Y-92428952D01*
X128681904Y-92238476D01*
X128729523Y-92143238D01*
X128824761Y-92048000D01*
X128967619Y-92000380D01*
X129062857Y-92000380D01*
X129205714Y-92048000D01*
X129253333Y-92095619D01*
X130205714Y-93000380D02*
X129634285Y-93000380D01*
X129920000Y-93000380D02*
X129920000Y-92000380D01*
X129824761Y-92143238D01*
X129729523Y-92238476D01*
X129634285Y-92286095D01*
%TO.C,C4*%
X125620000Y-81024285D02*
X125591428Y-81052857D01*
X125505714Y-81081428D01*
X125448571Y-81081428D01*
X125362857Y-81052857D01*
X125305714Y-80995714D01*
X125277142Y-80938571D01*
X125248571Y-80824285D01*
X125248571Y-80738571D01*
X125277142Y-80624285D01*
X125305714Y-80567142D01*
X125362857Y-80510000D01*
X125448571Y-80481428D01*
X125505714Y-80481428D01*
X125591428Y-80510000D01*
X125620000Y-80538571D01*
X126134285Y-80681428D02*
X126134285Y-81081428D01*
X125991428Y-80452857D02*
X125848571Y-80881428D01*
X126220000Y-80881428D01*
%TO.C,J1*%
X116543666Y-93496380D02*
X116543666Y-94210666D01*
X116496047Y-94353523D01*
X116400809Y-94448761D01*
X116257952Y-94496380D01*
X116162714Y-94496380D01*
X117543666Y-94496380D02*
X116972238Y-94496380D01*
X117257952Y-94496380D02*
X117257952Y-93496380D01*
X117162714Y-93639238D01*
X117067476Y-93734476D01*
X116972238Y-93782095D01*
%TO.C,C3*%
X104420000Y-81024285D02*
X104391428Y-81052857D01*
X104305714Y-81081428D01*
X104248571Y-81081428D01*
X104162857Y-81052857D01*
X104105714Y-80995714D01*
X104077142Y-80938571D01*
X104048571Y-80824285D01*
X104048571Y-80738571D01*
X104077142Y-80624285D01*
X104105714Y-80567142D01*
X104162857Y-80510000D01*
X104248571Y-80481428D01*
X104305714Y-80481428D01*
X104391428Y-80510000D01*
X104420000Y-80538571D01*
X104620000Y-80481428D02*
X104991428Y-80481428D01*
X104791428Y-80710000D01*
X104877142Y-80710000D01*
X104934285Y-80738571D01*
X104962857Y-80767142D01*
X104991428Y-80824285D01*
X104991428Y-80967142D01*
X104962857Y-81024285D01*
X104934285Y-81052857D01*
X104877142Y-81081428D01*
X104705714Y-81081428D01*
X104648571Y-81052857D01*
X104620000Y-81024285D01*
%TO.C,C2*%
X100953333Y-92905142D02*
X100905714Y-92952761D01*
X100762857Y-93000380D01*
X100667619Y-93000380D01*
X100524761Y-92952761D01*
X100429523Y-92857523D01*
X100381904Y-92762285D01*
X100334285Y-92571809D01*
X100334285Y-92428952D01*
X100381904Y-92238476D01*
X100429523Y-92143238D01*
X100524761Y-92048000D01*
X100667619Y-92000380D01*
X100762857Y-92000380D01*
X100905714Y-92048000D01*
X100953333Y-92095619D01*
X101334285Y-92095619D02*
X101381904Y-92048000D01*
X101477142Y-92000380D01*
X101715238Y-92000380D01*
X101810476Y-92048000D01*
X101858095Y-92095619D01*
X101905714Y-92190857D01*
X101905714Y-92286095D01*
X101858095Y-92428952D01*
X101286666Y-93000380D01*
X101905714Y-93000380D01*
%TO.C,L1*%
X107203333Y-81012380D02*
X106727142Y-81012380D01*
X106727142Y-80012380D01*
X108060476Y-81012380D02*
X107489047Y-81012380D01*
X107774761Y-81012380D02*
X107774761Y-80012380D01*
X107679523Y-80155238D01*
X107584285Y-80250476D01*
X107489047Y-80298095D01*
%TO.C,U1*%
X104562857Y-88631428D02*
X104562857Y-89117142D01*
X104591428Y-89174285D01*
X104620000Y-89202857D01*
X104677142Y-89231428D01*
X104791428Y-89231428D01*
X104848571Y-89202857D01*
X104877142Y-89174285D01*
X104905714Y-89117142D01*
X104905714Y-88631428D01*
X105505714Y-89231428D02*
X105162857Y-89231428D01*
X105334285Y-89231428D02*
X105334285Y-88631428D01*
X105277142Y-88717142D01*
X105220000Y-88774285D01*
X105162857Y-88802857D01*
%TO.C,C1*%
X113553333Y-92905142D02*
X113505714Y-92952761D01*
X113362857Y-93000380D01*
X113267619Y-93000380D01*
X113124761Y-92952761D01*
X113029523Y-92857523D01*
X112981904Y-92762285D01*
X112934285Y-92571809D01*
X112934285Y-92428952D01*
X112981904Y-92238476D01*
X113029523Y-92143238D01*
X113124761Y-92048000D01*
X113267619Y-92000380D01*
X113362857Y-92000380D01*
X113505714Y-92048000D01*
X113553333Y-92095619D01*
X114505714Y-93000380D02*
X113934285Y-93000380D01*
X114220000Y-93000380D02*
X114220000Y-92000380D01*
X114124761Y-92143238D01*
X114029523Y-92238476D01*
X113934285Y-92286095D01*
%TO.C,C4*%
X109920000Y-81024285D02*
X109891428Y-81052857D01*
X109805714Y-81081428D01*
X109748571Y-81081428D01*
X109662857Y-81052857D01*
X109605714Y-80995714D01*
X109577142Y-80938571D01*
X109548571Y-80824285D01*
X109548571Y-80738571D01*
X109577142Y-80624285D01*
X109605714Y-80567142D01*
X109662857Y-80510000D01*
X109748571Y-80481428D01*
X109805714Y-80481428D01*
X109891428Y-80510000D01*
X109920000Y-80538571D01*
X110434285Y-80681428D02*
X110434285Y-81081428D01*
X110291428Y-80452857D02*
X110148571Y-80881428D01*
X110520000Y-80881428D01*
%TO.C,J1*%
X100843666Y-93496380D02*
X100843666Y-94210666D01*
X100796047Y-94353523D01*
X100700809Y-94448761D01*
X100557952Y-94496380D01*
X100462714Y-94496380D01*
X101843666Y-94496380D02*
X101272238Y-94496380D01*
X101557952Y-94496380D02*
X101557952Y-93496380D01*
X101462714Y-93639238D01*
X101367476Y-93734476D01*
X101272238Y-93782095D01*
%TO.C,C3*%
X88720000Y-81024285D02*
X88691428Y-81052857D01*
X88605714Y-81081428D01*
X88548571Y-81081428D01*
X88462857Y-81052857D01*
X88405714Y-80995714D01*
X88377142Y-80938571D01*
X88348571Y-80824285D01*
X88348571Y-80738571D01*
X88377142Y-80624285D01*
X88405714Y-80567142D01*
X88462857Y-80510000D01*
X88548571Y-80481428D01*
X88605714Y-80481428D01*
X88691428Y-80510000D01*
X88720000Y-80538571D01*
X88920000Y-80481428D02*
X89291428Y-80481428D01*
X89091428Y-80710000D01*
X89177142Y-80710000D01*
X89234285Y-80738571D01*
X89262857Y-80767142D01*
X89291428Y-80824285D01*
X89291428Y-80967142D01*
X89262857Y-81024285D01*
X89234285Y-81052857D01*
X89177142Y-81081428D01*
X89005714Y-81081428D01*
X88948571Y-81052857D01*
X88920000Y-81024285D01*
%TO.C,C2*%
X85253333Y-92905142D02*
X85205714Y-92952761D01*
X85062857Y-93000380D01*
X84967619Y-93000380D01*
X84824761Y-92952761D01*
X84729523Y-92857523D01*
X84681904Y-92762285D01*
X84634285Y-92571809D01*
X84634285Y-92428952D01*
X84681904Y-92238476D01*
X84729523Y-92143238D01*
X84824761Y-92048000D01*
X84967619Y-92000380D01*
X85062857Y-92000380D01*
X85205714Y-92048000D01*
X85253333Y-92095619D01*
X85634285Y-92095619D02*
X85681904Y-92048000D01*
X85777142Y-92000380D01*
X86015238Y-92000380D01*
X86110476Y-92048000D01*
X86158095Y-92095619D01*
X86205714Y-92190857D01*
X86205714Y-92286095D01*
X86158095Y-92428952D01*
X85586666Y-93000380D01*
X86205714Y-93000380D01*
%TO.C,L1*%
X91503333Y-81012380D02*
X91027142Y-81012380D01*
X91027142Y-80012380D01*
X92360476Y-81012380D02*
X91789047Y-81012380D01*
X92074761Y-81012380D02*
X92074761Y-80012380D01*
X91979523Y-80155238D01*
X91884285Y-80250476D01*
X91789047Y-80298095D01*
%TO.C,U1*%
X88862857Y-88631428D02*
X88862857Y-89117142D01*
X88891428Y-89174285D01*
X88920000Y-89202857D01*
X88977142Y-89231428D01*
X89091428Y-89231428D01*
X89148571Y-89202857D01*
X89177142Y-89174285D01*
X89205714Y-89117142D01*
X89205714Y-88631428D01*
X89805714Y-89231428D02*
X89462857Y-89231428D01*
X89634285Y-89231428D02*
X89634285Y-88631428D01*
X89577142Y-88717142D01*
X89520000Y-88774285D01*
X89462857Y-88802857D01*
%TO.C,C1*%
X97853333Y-92905142D02*
X97805714Y-92952761D01*
X97662857Y-93000380D01*
X97567619Y-93000380D01*
X97424761Y-92952761D01*
X97329523Y-92857523D01*
X97281904Y-92762285D01*
X97234285Y-92571809D01*
X97234285Y-92428952D01*
X97281904Y-92238476D01*
X97329523Y-92143238D01*
X97424761Y-92048000D01*
X97567619Y-92000380D01*
X97662857Y-92000380D01*
X97805714Y-92048000D01*
X97853333Y-92095619D01*
X98805714Y-93000380D02*
X98234285Y-93000380D01*
X98520000Y-93000380D02*
X98520000Y-92000380D01*
X98424761Y-92143238D01*
X98329523Y-92238476D01*
X98234285Y-92286095D01*
%TO.C,C4*%
X94220000Y-81024285D02*
X94191428Y-81052857D01*
X94105714Y-81081428D01*
X94048571Y-81081428D01*
X93962857Y-81052857D01*
X93905714Y-80995714D01*
X93877142Y-80938571D01*
X93848571Y-80824285D01*
X93848571Y-80738571D01*
X93877142Y-80624285D01*
X93905714Y-80567142D01*
X93962857Y-80510000D01*
X94048571Y-80481428D01*
X94105714Y-80481428D01*
X94191428Y-80510000D01*
X94220000Y-80538571D01*
X94734285Y-80681428D02*
X94734285Y-81081428D01*
X94591428Y-80452857D02*
X94448571Y-80881428D01*
X94820000Y-80881428D01*
%TO.C,J1*%
X85143666Y-93496380D02*
X85143666Y-94210666D01*
X85096047Y-94353523D01*
X85000809Y-94448761D01*
X84857952Y-94496380D01*
X84762714Y-94496380D01*
X86143666Y-94496380D02*
X85572238Y-94496380D01*
X85857952Y-94496380D02*
X85857952Y-93496380D01*
X85762714Y-93639238D01*
X85667476Y-93734476D01*
X85572238Y-93782095D01*
%TO.C,C3*%
X167220000Y-65324285D02*
X167191428Y-65352857D01*
X167105714Y-65381428D01*
X167048571Y-65381428D01*
X166962857Y-65352857D01*
X166905714Y-65295714D01*
X166877142Y-65238571D01*
X166848571Y-65124285D01*
X166848571Y-65038571D01*
X166877142Y-64924285D01*
X166905714Y-64867142D01*
X166962857Y-64810000D01*
X167048571Y-64781428D01*
X167105714Y-64781428D01*
X167191428Y-64810000D01*
X167220000Y-64838571D01*
X167420000Y-64781428D02*
X167791428Y-64781428D01*
X167591428Y-65010000D01*
X167677142Y-65010000D01*
X167734285Y-65038571D01*
X167762857Y-65067142D01*
X167791428Y-65124285D01*
X167791428Y-65267142D01*
X167762857Y-65324285D01*
X167734285Y-65352857D01*
X167677142Y-65381428D01*
X167505714Y-65381428D01*
X167448571Y-65352857D01*
X167420000Y-65324285D01*
%TO.C,C2*%
X163753333Y-77205142D02*
X163705714Y-77252761D01*
X163562857Y-77300380D01*
X163467619Y-77300380D01*
X163324761Y-77252761D01*
X163229523Y-77157523D01*
X163181904Y-77062285D01*
X163134285Y-76871809D01*
X163134285Y-76728952D01*
X163181904Y-76538476D01*
X163229523Y-76443238D01*
X163324761Y-76348000D01*
X163467619Y-76300380D01*
X163562857Y-76300380D01*
X163705714Y-76348000D01*
X163753333Y-76395619D01*
X164134285Y-76395619D02*
X164181904Y-76348000D01*
X164277142Y-76300380D01*
X164515238Y-76300380D01*
X164610476Y-76348000D01*
X164658095Y-76395619D01*
X164705714Y-76490857D01*
X164705714Y-76586095D01*
X164658095Y-76728952D01*
X164086666Y-77300380D01*
X164705714Y-77300380D01*
%TO.C,L1*%
X170003333Y-65312380D02*
X169527142Y-65312380D01*
X169527142Y-64312380D01*
X170860476Y-65312380D02*
X170289047Y-65312380D01*
X170574761Y-65312380D02*
X170574761Y-64312380D01*
X170479523Y-64455238D01*
X170384285Y-64550476D01*
X170289047Y-64598095D01*
%TO.C,U1*%
X167362857Y-72931428D02*
X167362857Y-73417142D01*
X167391428Y-73474285D01*
X167420000Y-73502857D01*
X167477142Y-73531428D01*
X167591428Y-73531428D01*
X167648571Y-73502857D01*
X167677142Y-73474285D01*
X167705714Y-73417142D01*
X167705714Y-72931428D01*
X168305714Y-73531428D02*
X167962857Y-73531428D01*
X168134285Y-73531428D02*
X168134285Y-72931428D01*
X168077142Y-73017142D01*
X168020000Y-73074285D01*
X167962857Y-73102857D01*
%TO.C,C1*%
X176353333Y-77205142D02*
X176305714Y-77252761D01*
X176162857Y-77300380D01*
X176067619Y-77300380D01*
X175924761Y-77252761D01*
X175829523Y-77157523D01*
X175781904Y-77062285D01*
X175734285Y-76871809D01*
X175734285Y-76728952D01*
X175781904Y-76538476D01*
X175829523Y-76443238D01*
X175924761Y-76348000D01*
X176067619Y-76300380D01*
X176162857Y-76300380D01*
X176305714Y-76348000D01*
X176353333Y-76395619D01*
X177305714Y-77300380D02*
X176734285Y-77300380D01*
X177020000Y-77300380D02*
X177020000Y-76300380D01*
X176924761Y-76443238D01*
X176829523Y-76538476D01*
X176734285Y-76586095D01*
%TO.C,C4*%
X172720000Y-65324285D02*
X172691428Y-65352857D01*
X172605714Y-65381428D01*
X172548571Y-65381428D01*
X172462857Y-65352857D01*
X172405714Y-65295714D01*
X172377142Y-65238571D01*
X172348571Y-65124285D01*
X172348571Y-65038571D01*
X172377142Y-64924285D01*
X172405714Y-64867142D01*
X172462857Y-64810000D01*
X172548571Y-64781428D01*
X172605714Y-64781428D01*
X172691428Y-64810000D01*
X172720000Y-64838571D01*
X173234285Y-64981428D02*
X173234285Y-65381428D01*
X173091428Y-64752857D02*
X172948571Y-65181428D01*
X173320000Y-65181428D01*
%TO.C,J1*%
X163643666Y-77796380D02*
X163643666Y-78510666D01*
X163596047Y-78653523D01*
X163500809Y-78748761D01*
X163357952Y-78796380D01*
X163262714Y-78796380D01*
X164643666Y-78796380D02*
X164072238Y-78796380D01*
X164357952Y-78796380D02*
X164357952Y-77796380D01*
X164262714Y-77939238D01*
X164167476Y-78034476D01*
X164072238Y-78082095D01*
%TO.C,C3*%
X151520000Y-65324285D02*
X151491428Y-65352857D01*
X151405714Y-65381428D01*
X151348571Y-65381428D01*
X151262857Y-65352857D01*
X151205714Y-65295714D01*
X151177142Y-65238571D01*
X151148571Y-65124285D01*
X151148571Y-65038571D01*
X151177142Y-64924285D01*
X151205714Y-64867142D01*
X151262857Y-64810000D01*
X151348571Y-64781428D01*
X151405714Y-64781428D01*
X151491428Y-64810000D01*
X151520000Y-64838571D01*
X151720000Y-64781428D02*
X152091428Y-64781428D01*
X151891428Y-65010000D01*
X151977142Y-65010000D01*
X152034285Y-65038571D01*
X152062857Y-65067142D01*
X152091428Y-65124285D01*
X152091428Y-65267142D01*
X152062857Y-65324285D01*
X152034285Y-65352857D01*
X151977142Y-65381428D01*
X151805714Y-65381428D01*
X151748571Y-65352857D01*
X151720000Y-65324285D01*
%TO.C,C2*%
X148053333Y-77205142D02*
X148005714Y-77252761D01*
X147862857Y-77300380D01*
X147767619Y-77300380D01*
X147624761Y-77252761D01*
X147529523Y-77157523D01*
X147481904Y-77062285D01*
X147434285Y-76871809D01*
X147434285Y-76728952D01*
X147481904Y-76538476D01*
X147529523Y-76443238D01*
X147624761Y-76348000D01*
X147767619Y-76300380D01*
X147862857Y-76300380D01*
X148005714Y-76348000D01*
X148053333Y-76395619D01*
X148434285Y-76395619D02*
X148481904Y-76348000D01*
X148577142Y-76300380D01*
X148815238Y-76300380D01*
X148910476Y-76348000D01*
X148958095Y-76395619D01*
X149005714Y-76490857D01*
X149005714Y-76586095D01*
X148958095Y-76728952D01*
X148386666Y-77300380D01*
X149005714Y-77300380D01*
%TO.C,L1*%
X154303333Y-65312380D02*
X153827142Y-65312380D01*
X153827142Y-64312380D01*
X155160476Y-65312380D02*
X154589047Y-65312380D01*
X154874761Y-65312380D02*
X154874761Y-64312380D01*
X154779523Y-64455238D01*
X154684285Y-64550476D01*
X154589047Y-64598095D01*
%TO.C,U1*%
X151662857Y-72931428D02*
X151662857Y-73417142D01*
X151691428Y-73474285D01*
X151720000Y-73502857D01*
X151777142Y-73531428D01*
X151891428Y-73531428D01*
X151948571Y-73502857D01*
X151977142Y-73474285D01*
X152005714Y-73417142D01*
X152005714Y-72931428D01*
X152605714Y-73531428D02*
X152262857Y-73531428D01*
X152434285Y-73531428D02*
X152434285Y-72931428D01*
X152377142Y-73017142D01*
X152320000Y-73074285D01*
X152262857Y-73102857D01*
%TO.C,C1*%
X160653333Y-77205142D02*
X160605714Y-77252761D01*
X160462857Y-77300380D01*
X160367619Y-77300380D01*
X160224761Y-77252761D01*
X160129523Y-77157523D01*
X160081904Y-77062285D01*
X160034285Y-76871809D01*
X160034285Y-76728952D01*
X160081904Y-76538476D01*
X160129523Y-76443238D01*
X160224761Y-76348000D01*
X160367619Y-76300380D01*
X160462857Y-76300380D01*
X160605714Y-76348000D01*
X160653333Y-76395619D01*
X161605714Y-77300380D02*
X161034285Y-77300380D01*
X161320000Y-77300380D02*
X161320000Y-76300380D01*
X161224761Y-76443238D01*
X161129523Y-76538476D01*
X161034285Y-76586095D01*
%TO.C,C4*%
X157020000Y-65324285D02*
X156991428Y-65352857D01*
X156905714Y-65381428D01*
X156848571Y-65381428D01*
X156762857Y-65352857D01*
X156705714Y-65295714D01*
X156677142Y-65238571D01*
X156648571Y-65124285D01*
X156648571Y-65038571D01*
X156677142Y-64924285D01*
X156705714Y-64867142D01*
X156762857Y-64810000D01*
X156848571Y-64781428D01*
X156905714Y-64781428D01*
X156991428Y-64810000D01*
X157020000Y-64838571D01*
X157534285Y-64981428D02*
X157534285Y-65381428D01*
X157391428Y-64752857D02*
X157248571Y-65181428D01*
X157620000Y-65181428D01*
%TO.C,J1*%
X147943666Y-77796380D02*
X147943666Y-78510666D01*
X147896047Y-78653523D01*
X147800809Y-78748761D01*
X147657952Y-78796380D01*
X147562714Y-78796380D01*
X148943666Y-78796380D02*
X148372238Y-78796380D01*
X148657952Y-78796380D02*
X148657952Y-77796380D01*
X148562714Y-77939238D01*
X148467476Y-78034476D01*
X148372238Y-78082095D01*
%TO.C,C3*%
X135820000Y-65324285D02*
X135791428Y-65352857D01*
X135705714Y-65381428D01*
X135648571Y-65381428D01*
X135562857Y-65352857D01*
X135505714Y-65295714D01*
X135477142Y-65238571D01*
X135448571Y-65124285D01*
X135448571Y-65038571D01*
X135477142Y-64924285D01*
X135505714Y-64867142D01*
X135562857Y-64810000D01*
X135648571Y-64781428D01*
X135705714Y-64781428D01*
X135791428Y-64810000D01*
X135820000Y-64838571D01*
X136020000Y-64781428D02*
X136391428Y-64781428D01*
X136191428Y-65010000D01*
X136277142Y-65010000D01*
X136334285Y-65038571D01*
X136362857Y-65067142D01*
X136391428Y-65124285D01*
X136391428Y-65267142D01*
X136362857Y-65324285D01*
X136334285Y-65352857D01*
X136277142Y-65381428D01*
X136105714Y-65381428D01*
X136048571Y-65352857D01*
X136020000Y-65324285D01*
%TO.C,C2*%
X132353333Y-77205142D02*
X132305714Y-77252761D01*
X132162857Y-77300380D01*
X132067619Y-77300380D01*
X131924761Y-77252761D01*
X131829523Y-77157523D01*
X131781904Y-77062285D01*
X131734285Y-76871809D01*
X131734285Y-76728952D01*
X131781904Y-76538476D01*
X131829523Y-76443238D01*
X131924761Y-76348000D01*
X132067619Y-76300380D01*
X132162857Y-76300380D01*
X132305714Y-76348000D01*
X132353333Y-76395619D01*
X132734285Y-76395619D02*
X132781904Y-76348000D01*
X132877142Y-76300380D01*
X133115238Y-76300380D01*
X133210476Y-76348000D01*
X133258095Y-76395619D01*
X133305714Y-76490857D01*
X133305714Y-76586095D01*
X133258095Y-76728952D01*
X132686666Y-77300380D01*
X133305714Y-77300380D01*
%TO.C,L1*%
X138603333Y-65312380D02*
X138127142Y-65312380D01*
X138127142Y-64312380D01*
X139460476Y-65312380D02*
X138889047Y-65312380D01*
X139174761Y-65312380D02*
X139174761Y-64312380D01*
X139079523Y-64455238D01*
X138984285Y-64550476D01*
X138889047Y-64598095D01*
%TO.C,U1*%
X135962857Y-72931428D02*
X135962857Y-73417142D01*
X135991428Y-73474285D01*
X136020000Y-73502857D01*
X136077142Y-73531428D01*
X136191428Y-73531428D01*
X136248571Y-73502857D01*
X136277142Y-73474285D01*
X136305714Y-73417142D01*
X136305714Y-72931428D01*
X136905714Y-73531428D02*
X136562857Y-73531428D01*
X136734285Y-73531428D02*
X136734285Y-72931428D01*
X136677142Y-73017142D01*
X136620000Y-73074285D01*
X136562857Y-73102857D01*
%TO.C,C1*%
X144953333Y-77205142D02*
X144905714Y-77252761D01*
X144762857Y-77300380D01*
X144667619Y-77300380D01*
X144524761Y-77252761D01*
X144429523Y-77157523D01*
X144381904Y-77062285D01*
X144334285Y-76871809D01*
X144334285Y-76728952D01*
X144381904Y-76538476D01*
X144429523Y-76443238D01*
X144524761Y-76348000D01*
X144667619Y-76300380D01*
X144762857Y-76300380D01*
X144905714Y-76348000D01*
X144953333Y-76395619D01*
X145905714Y-77300380D02*
X145334285Y-77300380D01*
X145620000Y-77300380D02*
X145620000Y-76300380D01*
X145524761Y-76443238D01*
X145429523Y-76538476D01*
X145334285Y-76586095D01*
%TO.C,C4*%
X141320000Y-65324285D02*
X141291428Y-65352857D01*
X141205714Y-65381428D01*
X141148571Y-65381428D01*
X141062857Y-65352857D01*
X141005714Y-65295714D01*
X140977142Y-65238571D01*
X140948571Y-65124285D01*
X140948571Y-65038571D01*
X140977142Y-64924285D01*
X141005714Y-64867142D01*
X141062857Y-64810000D01*
X141148571Y-64781428D01*
X141205714Y-64781428D01*
X141291428Y-64810000D01*
X141320000Y-64838571D01*
X141834285Y-64981428D02*
X141834285Y-65381428D01*
X141691428Y-64752857D02*
X141548571Y-65181428D01*
X141920000Y-65181428D01*
%TO.C,J1*%
X132243666Y-77796380D02*
X132243666Y-78510666D01*
X132196047Y-78653523D01*
X132100809Y-78748761D01*
X131957952Y-78796380D01*
X131862714Y-78796380D01*
X133243666Y-78796380D02*
X132672238Y-78796380D01*
X132957952Y-78796380D02*
X132957952Y-77796380D01*
X132862714Y-77939238D01*
X132767476Y-78034476D01*
X132672238Y-78082095D01*
%TO.C,C3*%
X120120000Y-65324285D02*
X120091428Y-65352857D01*
X120005714Y-65381428D01*
X119948571Y-65381428D01*
X119862857Y-65352857D01*
X119805714Y-65295714D01*
X119777142Y-65238571D01*
X119748571Y-65124285D01*
X119748571Y-65038571D01*
X119777142Y-64924285D01*
X119805714Y-64867142D01*
X119862857Y-64810000D01*
X119948571Y-64781428D01*
X120005714Y-64781428D01*
X120091428Y-64810000D01*
X120120000Y-64838571D01*
X120320000Y-64781428D02*
X120691428Y-64781428D01*
X120491428Y-65010000D01*
X120577142Y-65010000D01*
X120634285Y-65038571D01*
X120662857Y-65067142D01*
X120691428Y-65124285D01*
X120691428Y-65267142D01*
X120662857Y-65324285D01*
X120634285Y-65352857D01*
X120577142Y-65381428D01*
X120405714Y-65381428D01*
X120348571Y-65352857D01*
X120320000Y-65324285D01*
%TO.C,C2*%
X116653333Y-77205142D02*
X116605714Y-77252761D01*
X116462857Y-77300380D01*
X116367619Y-77300380D01*
X116224761Y-77252761D01*
X116129523Y-77157523D01*
X116081904Y-77062285D01*
X116034285Y-76871809D01*
X116034285Y-76728952D01*
X116081904Y-76538476D01*
X116129523Y-76443238D01*
X116224761Y-76348000D01*
X116367619Y-76300380D01*
X116462857Y-76300380D01*
X116605714Y-76348000D01*
X116653333Y-76395619D01*
X117034285Y-76395619D02*
X117081904Y-76348000D01*
X117177142Y-76300380D01*
X117415238Y-76300380D01*
X117510476Y-76348000D01*
X117558095Y-76395619D01*
X117605714Y-76490857D01*
X117605714Y-76586095D01*
X117558095Y-76728952D01*
X116986666Y-77300380D01*
X117605714Y-77300380D01*
%TO.C,L1*%
X122903333Y-65312380D02*
X122427142Y-65312380D01*
X122427142Y-64312380D01*
X123760476Y-65312380D02*
X123189047Y-65312380D01*
X123474761Y-65312380D02*
X123474761Y-64312380D01*
X123379523Y-64455238D01*
X123284285Y-64550476D01*
X123189047Y-64598095D01*
%TO.C,U1*%
X120262857Y-72931428D02*
X120262857Y-73417142D01*
X120291428Y-73474285D01*
X120320000Y-73502857D01*
X120377142Y-73531428D01*
X120491428Y-73531428D01*
X120548571Y-73502857D01*
X120577142Y-73474285D01*
X120605714Y-73417142D01*
X120605714Y-72931428D01*
X121205714Y-73531428D02*
X120862857Y-73531428D01*
X121034285Y-73531428D02*
X121034285Y-72931428D01*
X120977142Y-73017142D01*
X120920000Y-73074285D01*
X120862857Y-73102857D01*
%TO.C,C1*%
X129253333Y-77205142D02*
X129205714Y-77252761D01*
X129062857Y-77300380D01*
X128967619Y-77300380D01*
X128824761Y-77252761D01*
X128729523Y-77157523D01*
X128681904Y-77062285D01*
X128634285Y-76871809D01*
X128634285Y-76728952D01*
X128681904Y-76538476D01*
X128729523Y-76443238D01*
X128824761Y-76348000D01*
X128967619Y-76300380D01*
X129062857Y-76300380D01*
X129205714Y-76348000D01*
X129253333Y-76395619D01*
X130205714Y-77300380D02*
X129634285Y-77300380D01*
X129920000Y-77300380D02*
X129920000Y-76300380D01*
X129824761Y-76443238D01*
X129729523Y-76538476D01*
X129634285Y-76586095D01*
%TO.C,C4*%
X125620000Y-65324285D02*
X125591428Y-65352857D01*
X125505714Y-65381428D01*
X125448571Y-65381428D01*
X125362857Y-65352857D01*
X125305714Y-65295714D01*
X125277142Y-65238571D01*
X125248571Y-65124285D01*
X125248571Y-65038571D01*
X125277142Y-64924285D01*
X125305714Y-64867142D01*
X125362857Y-64810000D01*
X125448571Y-64781428D01*
X125505714Y-64781428D01*
X125591428Y-64810000D01*
X125620000Y-64838571D01*
X126134285Y-64981428D02*
X126134285Y-65381428D01*
X125991428Y-64752857D02*
X125848571Y-65181428D01*
X126220000Y-65181428D01*
%TO.C,J1*%
X116543666Y-77796380D02*
X116543666Y-78510666D01*
X116496047Y-78653523D01*
X116400809Y-78748761D01*
X116257952Y-78796380D01*
X116162714Y-78796380D01*
X117543666Y-78796380D02*
X116972238Y-78796380D01*
X117257952Y-78796380D02*
X117257952Y-77796380D01*
X117162714Y-77939238D01*
X117067476Y-78034476D01*
X116972238Y-78082095D01*
%TO.C,C3*%
X104420000Y-65324285D02*
X104391428Y-65352857D01*
X104305714Y-65381428D01*
X104248571Y-65381428D01*
X104162857Y-65352857D01*
X104105714Y-65295714D01*
X104077142Y-65238571D01*
X104048571Y-65124285D01*
X104048571Y-65038571D01*
X104077142Y-64924285D01*
X104105714Y-64867142D01*
X104162857Y-64810000D01*
X104248571Y-64781428D01*
X104305714Y-64781428D01*
X104391428Y-64810000D01*
X104420000Y-64838571D01*
X104620000Y-64781428D02*
X104991428Y-64781428D01*
X104791428Y-65010000D01*
X104877142Y-65010000D01*
X104934285Y-65038571D01*
X104962857Y-65067142D01*
X104991428Y-65124285D01*
X104991428Y-65267142D01*
X104962857Y-65324285D01*
X104934285Y-65352857D01*
X104877142Y-65381428D01*
X104705714Y-65381428D01*
X104648571Y-65352857D01*
X104620000Y-65324285D01*
%TO.C,C2*%
X100953333Y-77205142D02*
X100905714Y-77252761D01*
X100762857Y-77300380D01*
X100667619Y-77300380D01*
X100524761Y-77252761D01*
X100429523Y-77157523D01*
X100381904Y-77062285D01*
X100334285Y-76871809D01*
X100334285Y-76728952D01*
X100381904Y-76538476D01*
X100429523Y-76443238D01*
X100524761Y-76348000D01*
X100667619Y-76300380D01*
X100762857Y-76300380D01*
X100905714Y-76348000D01*
X100953333Y-76395619D01*
X101334285Y-76395619D02*
X101381904Y-76348000D01*
X101477142Y-76300380D01*
X101715238Y-76300380D01*
X101810476Y-76348000D01*
X101858095Y-76395619D01*
X101905714Y-76490857D01*
X101905714Y-76586095D01*
X101858095Y-76728952D01*
X101286666Y-77300380D01*
X101905714Y-77300380D01*
%TO.C,L1*%
X107203333Y-65312380D02*
X106727142Y-65312380D01*
X106727142Y-64312380D01*
X108060476Y-65312380D02*
X107489047Y-65312380D01*
X107774761Y-65312380D02*
X107774761Y-64312380D01*
X107679523Y-64455238D01*
X107584285Y-64550476D01*
X107489047Y-64598095D01*
%TO.C,U1*%
X104562857Y-72931428D02*
X104562857Y-73417142D01*
X104591428Y-73474285D01*
X104620000Y-73502857D01*
X104677142Y-73531428D01*
X104791428Y-73531428D01*
X104848571Y-73502857D01*
X104877142Y-73474285D01*
X104905714Y-73417142D01*
X104905714Y-72931428D01*
X105505714Y-73531428D02*
X105162857Y-73531428D01*
X105334285Y-73531428D02*
X105334285Y-72931428D01*
X105277142Y-73017142D01*
X105220000Y-73074285D01*
X105162857Y-73102857D01*
%TO.C,C1*%
X113553333Y-77205142D02*
X113505714Y-77252761D01*
X113362857Y-77300380D01*
X113267619Y-77300380D01*
X113124761Y-77252761D01*
X113029523Y-77157523D01*
X112981904Y-77062285D01*
X112934285Y-76871809D01*
X112934285Y-76728952D01*
X112981904Y-76538476D01*
X113029523Y-76443238D01*
X113124761Y-76348000D01*
X113267619Y-76300380D01*
X113362857Y-76300380D01*
X113505714Y-76348000D01*
X113553333Y-76395619D01*
X114505714Y-77300380D02*
X113934285Y-77300380D01*
X114220000Y-77300380D02*
X114220000Y-76300380D01*
X114124761Y-76443238D01*
X114029523Y-76538476D01*
X113934285Y-76586095D01*
%TO.C,C4*%
X109920000Y-65324285D02*
X109891428Y-65352857D01*
X109805714Y-65381428D01*
X109748571Y-65381428D01*
X109662857Y-65352857D01*
X109605714Y-65295714D01*
X109577142Y-65238571D01*
X109548571Y-65124285D01*
X109548571Y-65038571D01*
X109577142Y-64924285D01*
X109605714Y-64867142D01*
X109662857Y-64810000D01*
X109748571Y-64781428D01*
X109805714Y-64781428D01*
X109891428Y-64810000D01*
X109920000Y-64838571D01*
X110434285Y-64981428D02*
X110434285Y-65381428D01*
X110291428Y-64752857D02*
X110148571Y-65181428D01*
X110520000Y-65181428D01*
%TO.C,J1*%
X100843666Y-77796380D02*
X100843666Y-78510666D01*
X100796047Y-78653523D01*
X100700809Y-78748761D01*
X100557952Y-78796380D01*
X100462714Y-78796380D01*
X101843666Y-78796380D02*
X101272238Y-78796380D01*
X101557952Y-78796380D02*
X101557952Y-77796380D01*
X101462714Y-77939238D01*
X101367476Y-78034476D01*
X101272238Y-78082095D01*
%TO.C,C3*%
X88720000Y-65324285D02*
X88691428Y-65352857D01*
X88605714Y-65381428D01*
X88548571Y-65381428D01*
X88462857Y-65352857D01*
X88405714Y-65295714D01*
X88377142Y-65238571D01*
X88348571Y-65124285D01*
X88348571Y-65038571D01*
X88377142Y-64924285D01*
X88405714Y-64867142D01*
X88462857Y-64810000D01*
X88548571Y-64781428D01*
X88605714Y-64781428D01*
X88691428Y-64810000D01*
X88720000Y-64838571D01*
X88920000Y-64781428D02*
X89291428Y-64781428D01*
X89091428Y-65010000D01*
X89177142Y-65010000D01*
X89234285Y-65038571D01*
X89262857Y-65067142D01*
X89291428Y-65124285D01*
X89291428Y-65267142D01*
X89262857Y-65324285D01*
X89234285Y-65352857D01*
X89177142Y-65381428D01*
X89005714Y-65381428D01*
X88948571Y-65352857D01*
X88920000Y-65324285D01*
%TO.C,C2*%
X85253333Y-77205142D02*
X85205714Y-77252761D01*
X85062857Y-77300380D01*
X84967619Y-77300380D01*
X84824761Y-77252761D01*
X84729523Y-77157523D01*
X84681904Y-77062285D01*
X84634285Y-76871809D01*
X84634285Y-76728952D01*
X84681904Y-76538476D01*
X84729523Y-76443238D01*
X84824761Y-76348000D01*
X84967619Y-76300380D01*
X85062857Y-76300380D01*
X85205714Y-76348000D01*
X85253333Y-76395619D01*
X85634285Y-76395619D02*
X85681904Y-76348000D01*
X85777142Y-76300380D01*
X86015238Y-76300380D01*
X86110476Y-76348000D01*
X86158095Y-76395619D01*
X86205714Y-76490857D01*
X86205714Y-76586095D01*
X86158095Y-76728952D01*
X85586666Y-77300380D01*
X86205714Y-77300380D01*
%TO.C,L1*%
X91503333Y-65312380D02*
X91027142Y-65312380D01*
X91027142Y-64312380D01*
X92360476Y-65312380D02*
X91789047Y-65312380D01*
X92074761Y-65312380D02*
X92074761Y-64312380D01*
X91979523Y-64455238D01*
X91884285Y-64550476D01*
X91789047Y-64598095D01*
%TO.C,U1*%
X88862857Y-72931428D02*
X88862857Y-73417142D01*
X88891428Y-73474285D01*
X88920000Y-73502857D01*
X88977142Y-73531428D01*
X89091428Y-73531428D01*
X89148571Y-73502857D01*
X89177142Y-73474285D01*
X89205714Y-73417142D01*
X89205714Y-72931428D01*
X89805714Y-73531428D02*
X89462857Y-73531428D01*
X89634285Y-73531428D02*
X89634285Y-72931428D01*
X89577142Y-73017142D01*
X89520000Y-73074285D01*
X89462857Y-73102857D01*
%TO.C,C1*%
X97853333Y-77205142D02*
X97805714Y-77252761D01*
X97662857Y-77300380D01*
X97567619Y-77300380D01*
X97424761Y-77252761D01*
X97329523Y-77157523D01*
X97281904Y-77062285D01*
X97234285Y-76871809D01*
X97234285Y-76728952D01*
X97281904Y-76538476D01*
X97329523Y-76443238D01*
X97424761Y-76348000D01*
X97567619Y-76300380D01*
X97662857Y-76300380D01*
X97805714Y-76348000D01*
X97853333Y-76395619D01*
X98805714Y-77300380D02*
X98234285Y-77300380D01*
X98520000Y-77300380D02*
X98520000Y-76300380D01*
X98424761Y-76443238D01*
X98329523Y-76538476D01*
X98234285Y-76586095D01*
%TO.C,C4*%
X94220000Y-65324285D02*
X94191428Y-65352857D01*
X94105714Y-65381428D01*
X94048571Y-65381428D01*
X93962857Y-65352857D01*
X93905714Y-65295714D01*
X93877142Y-65238571D01*
X93848571Y-65124285D01*
X93848571Y-65038571D01*
X93877142Y-64924285D01*
X93905714Y-64867142D01*
X93962857Y-64810000D01*
X94048571Y-64781428D01*
X94105714Y-64781428D01*
X94191428Y-64810000D01*
X94220000Y-64838571D01*
X94734285Y-64981428D02*
X94734285Y-65381428D01*
X94591428Y-64752857D02*
X94448571Y-65181428D01*
X94820000Y-65181428D01*
%TO.C,J1*%
X85143666Y-77796380D02*
X85143666Y-78510666D01*
X85096047Y-78653523D01*
X85000809Y-78748761D01*
X84857952Y-78796380D01*
X84762714Y-78796380D01*
X86143666Y-78796380D02*
X85572238Y-78796380D01*
X85857952Y-78796380D02*
X85857952Y-77796380D01*
X85762714Y-77939238D01*
X85667476Y-78034476D01*
X85572238Y-78082095D01*
%TO.C,C3*%
X167220000Y-49624285D02*
X167191428Y-49652857D01*
X167105714Y-49681428D01*
X167048571Y-49681428D01*
X166962857Y-49652857D01*
X166905714Y-49595714D01*
X166877142Y-49538571D01*
X166848571Y-49424285D01*
X166848571Y-49338571D01*
X166877142Y-49224285D01*
X166905714Y-49167142D01*
X166962857Y-49110000D01*
X167048571Y-49081428D01*
X167105714Y-49081428D01*
X167191428Y-49110000D01*
X167220000Y-49138571D01*
X167420000Y-49081428D02*
X167791428Y-49081428D01*
X167591428Y-49310000D01*
X167677142Y-49310000D01*
X167734285Y-49338571D01*
X167762857Y-49367142D01*
X167791428Y-49424285D01*
X167791428Y-49567142D01*
X167762857Y-49624285D01*
X167734285Y-49652857D01*
X167677142Y-49681428D01*
X167505714Y-49681428D01*
X167448571Y-49652857D01*
X167420000Y-49624285D01*
%TO.C,C2*%
X163753333Y-61505142D02*
X163705714Y-61552761D01*
X163562857Y-61600380D01*
X163467619Y-61600380D01*
X163324761Y-61552761D01*
X163229523Y-61457523D01*
X163181904Y-61362285D01*
X163134285Y-61171809D01*
X163134285Y-61028952D01*
X163181904Y-60838476D01*
X163229523Y-60743238D01*
X163324761Y-60648000D01*
X163467619Y-60600380D01*
X163562857Y-60600380D01*
X163705714Y-60648000D01*
X163753333Y-60695619D01*
X164134285Y-60695619D02*
X164181904Y-60648000D01*
X164277142Y-60600380D01*
X164515238Y-60600380D01*
X164610476Y-60648000D01*
X164658095Y-60695619D01*
X164705714Y-60790857D01*
X164705714Y-60886095D01*
X164658095Y-61028952D01*
X164086666Y-61600380D01*
X164705714Y-61600380D01*
%TO.C,L1*%
X170003333Y-49612380D02*
X169527142Y-49612380D01*
X169527142Y-48612380D01*
X170860476Y-49612380D02*
X170289047Y-49612380D01*
X170574761Y-49612380D02*
X170574761Y-48612380D01*
X170479523Y-48755238D01*
X170384285Y-48850476D01*
X170289047Y-48898095D01*
%TO.C,U1*%
X167362857Y-57231428D02*
X167362857Y-57717142D01*
X167391428Y-57774285D01*
X167420000Y-57802857D01*
X167477142Y-57831428D01*
X167591428Y-57831428D01*
X167648571Y-57802857D01*
X167677142Y-57774285D01*
X167705714Y-57717142D01*
X167705714Y-57231428D01*
X168305714Y-57831428D02*
X167962857Y-57831428D01*
X168134285Y-57831428D02*
X168134285Y-57231428D01*
X168077142Y-57317142D01*
X168020000Y-57374285D01*
X167962857Y-57402857D01*
%TO.C,C1*%
X176353333Y-61505142D02*
X176305714Y-61552761D01*
X176162857Y-61600380D01*
X176067619Y-61600380D01*
X175924761Y-61552761D01*
X175829523Y-61457523D01*
X175781904Y-61362285D01*
X175734285Y-61171809D01*
X175734285Y-61028952D01*
X175781904Y-60838476D01*
X175829523Y-60743238D01*
X175924761Y-60648000D01*
X176067619Y-60600380D01*
X176162857Y-60600380D01*
X176305714Y-60648000D01*
X176353333Y-60695619D01*
X177305714Y-61600380D02*
X176734285Y-61600380D01*
X177020000Y-61600380D02*
X177020000Y-60600380D01*
X176924761Y-60743238D01*
X176829523Y-60838476D01*
X176734285Y-60886095D01*
%TO.C,C4*%
X172720000Y-49624285D02*
X172691428Y-49652857D01*
X172605714Y-49681428D01*
X172548571Y-49681428D01*
X172462857Y-49652857D01*
X172405714Y-49595714D01*
X172377142Y-49538571D01*
X172348571Y-49424285D01*
X172348571Y-49338571D01*
X172377142Y-49224285D01*
X172405714Y-49167142D01*
X172462857Y-49110000D01*
X172548571Y-49081428D01*
X172605714Y-49081428D01*
X172691428Y-49110000D01*
X172720000Y-49138571D01*
X173234285Y-49281428D02*
X173234285Y-49681428D01*
X173091428Y-49052857D02*
X172948571Y-49481428D01*
X173320000Y-49481428D01*
%TO.C,J1*%
X163643666Y-62096380D02*
X163643666Y-62810666D01*
X163596047Y-62953523D01*
X163500809Y-63048761D01*
X163357952Y-63096380D01*
X163262714Y-63096380D01*
X164643666Y-63096380D02*
X164072238Y-63096380D01*
X164357952Y-63096380D02*
X164357952Y-62096380D01*
X164262714Y-62239238D01*
X164167476Y-62334476D01*
X164072238Y-62382095D01*
%TO.C,C3*%
X151520000Y-49624285D02*
X151491428Y-49652857D01*
X151405714Y-49681428D01*
X151348571Y-49681428D01*
X151262857Y-49652857D01*
X151205714Y-49595714D01*
X151177142Y-49538571D01*
X151148571Y-49424285D01*
X151148571Y-49338571D01*
X151177142Y-49224285D01*
X151205714Y-49167142D01*
X151262857Y-49110000D01*
X151348571Y-49081428D01*
X151405714Y-49081428D01*
X151491428Y-49110000D01*
X151520000Y-49138571D01*
X151720000Y-49081428D02*
X152091428Y-49081428D01*
X151891428Y-49310000D01*
X151977142Y-49310000D01*
X152034285Y-49338571D01*
X152062857Y-49367142D01*
X152091428Y-49424285D01*
X152091428Y-49567142D01*
X152062857Y-49624285D01*
X152034285Y-49652857D01*
X151977142Y-49681428D01*
X151805714Y-49681428D01*
X151748571Y-49652857D01*
X151720000Y-49624285D01*
%TO.C,C2*%
X148053333Y-61505142D02*
X148005714Y-61552761D01*
X147862857Y-61600380D01*
X147767619Y-61600380D01*
X147624761Y-61552761D01*
X147529523Y-61457523D01*
X147481904Y-61362285D01*
X147434285Y-61171809D01*
X147434285Y-61028952D01*
X147481904Y-60838476D01*
X147529523Y-60743238D01*
X147624761Y-60648000D01*
X147767619Y-60600380D01*
X147862857Y-60600380D01*
X148005714Y-60648000D01*
X148053333Y-60695619D01*
X148434285Y-60695619D02*
X148481904Y-60648000D01*
X148577142Y-60600380D01*
X148815238Y-60600380D01*
X148910476Y-60648000D01*
X148958095Y-60695619D01*
X149005714Y-60790857D01*
X149005714Y-60886095D01*
X148958095Y-61028952D01*
X148386666Y-61600380D01*
X149005714Y-61600380D01*
%TO.C,L1*%
X154303333Y-49612380D02*
X153827142Y-49612380D01*
X153827142Y-48612380D01*
X155160476Y-49612380D02*
X154589047Y-49612380D01*
X154874761Y-49612380D02*
X154874761Y-48612380D01*
X154779523Y-48755238D01*
X154684285Y-48850476D01*
X154589047Y-48898095D01*
%TO.C,U1*%
X151662857Y-57231428D02*
X151662857Y-57717142D01*
X151691428Y-57774285D01*
X151720000Y-57802857D01*
X151777142Y-57831428D01*
X151891428Y-57831428D01*
X151948571Y-57802857D01*
X151977142Y-57774285D01*
X152005714Y-57717142D01*
X152005714Y-57231428D01*
X152605714Y-57831428D02*
X152262857Y-57831428D01*
X152434285Y-57831428D02*
X152434285Y-57231428D01*
X152377142Y-57317142D01*
X152320000Y-57374285D01*
X152262857Y-57402857D01*
%TO.C,C1*%
X160653333Y-61505142D02*
X160605714Y-61552761D01*
X160462857Y-61600380D01*
X160367619Y-61600380D01*
X160224761Y-61552761D01*
X160129523Y-61457523D01*
X160081904Y-61362285D01*
X160034285Y-61171809D01*
X160034285Y-61028952D01*
X160081904Y-60838476D01*
X160129523Y-60743238D01*
X160224761Y-60648000D01*
X160367619Y-60600380D01*
X160462857Y-60600380D01*
X160605714Y-60648000D01*
X160653333Y-60695619D01*
X161605714Y-61600380D02*
X161034285Y-61600380D01*
X161320000Y-61600380D02*
X161320000Y-60600380D01*
X161224761Y-60743238D01*
X161129523Y-60838476D01*
X161034285Y-60886095D01*
%TO.C,C4*%
X157020000Y-49624285D02*
X156991428Y-49652857D01*
X156905714Y-49681428D01*
X156848571Y-49681428D01*
X156762857Y-49652857D01*
X156705714Y-49595714D01*
X156677142Y-49538571D01*
X156648571Y-49424285D01*
X156648571Y-49338571D01*
X156677142Y-49224285D01*
X156705714Y-49167142D01*
X156762857Y-49110000D01*
X156848571Y-49081428D01*
X156905714Y-49081428D01*
X156991428Y-49110000D01*
X157020000Y-49138571D01*
X157534285Y-49281428D02*
X157534285Y-49681428D01*
X157391428Y-49052857D02*
X157248571Y-49481428D01*
X157620000Y-49481428D01*
%TO.C,J1*%
X147943666Y-62096380D02*
X147943666Y-62810666D01*
X147896047Y-62953523D01*
X147800809Y-63048761D01*
X147657952Y-63096380D01*
X147562714Y-63096380D01*
X148943666Y-63096380D02*
X148372238Y-63096380D01*
X148657952Y-63096380D02*
X148657952Y-62096380D01*
X148562714Y-62239238D01*
X148467476Y-62334476D01*
X148372238Y-62382095D01*
%TO.C,C3*%
X135820000Y-49624285D02*
X135791428Y-49652857D01*
X135705714Y-49681428D01*
X135648571Y-49681428D01*
X135562857Y-49652857D01*
X135505714Y-49595714D01*
X135477142Y-49538571D01*
X135448571Y-49424285D01*
X135448571Y-49338571D01*
X135477142Y-49224285D01*
X135505714Y-49167142D01*
X135562857Y-49110000D01*
X135648571Y-49081428D01*
X135705714Y-49081428D01*
X135791428Y-49110000D01*
X135820000Y-49138571D01*
X136020000Y-49081428D02*
X136391428Y-49081428D01*
X136191428Y-49310000D01*
X136277142Y-49310000D01*
X136334285Y-49338571D01*
X136362857Y-49367142D01*
X136391428Y-49424285D01*
X136391428Y-49567142D01*
X136362857Y-49624285D01*
X136334285Y-49652857D01*
X136277142Y-49681428D01*
X136105714Y-49681428D01*
X136048571Y-49652857D01*
X136020000Y-49624285D01*
%TO.C,C2*%
X132353333Y-61505142D02*
X132305714Y-61552761D01*
X132162857Y-61600380D01*
X132067619Y-61600380D01*
X131924761Y-61552761D01*
X131829523Y-61457523D01*
X131781904Y-61362285D01*
X131734285Y-61171809D01*
X131734285Y-61028952D01*
X131781904Y-60838476D01*
X131829523Y-60743238D01*
X131924761Y-60648000D01*
X132067619Y-60600380D01*
X132162857Y-60600380D01*
X132305714Y-60648000D01*
X132353333Y-60695619D01*
X132734285Y-60695619D02*
X132781904Y-60648000D01*
X132877142Y-60600380D01*
X133115238Y-60600380D01*
X133210476Y-60648000D01*
X133258095Y-60695619D01*
X133305714Y-60790857D01*
X133305714Y-60886095D01*
X133258095Y-61028952D01*
X132686666Y-61600380D01*
X133305714Y-61600380D01*
%TO.C,L1*%
X138603333Y-49612380D02*
X138127142Y-49612380D01*
X138127142Y-48612380D01*
X139460476Y-49612380D02*
X138889047Y-49612380D01*
X139174761Y-49612380D02*
X139174761Y-48612380D01*
X139079523Y-48755238D01*
X138984285Y-48850476D01*
X138889047Y-48898095D01*
%TO.C,U1*%
X135962857Y-57231428D02*
X135962857Y-57717142D01*
X135991428Y-57774285D01*
X136020000Y-57802857D01*
X136077142Y-57831428D01*
X136191428Y-57831428D01*
X136248571Y-57802857D01*
X136277142Y-57774285D01*
X136305714Y-57717142D01*
X136305714Y-57231428D01*
X136905714Y-57831428D02*
X136562857Y-57831428D01*
X136734285Y-57831428D02*
X136734285Y-57231428D01*
X136677142Y-57317142D01*
X136620000Y-57374285D01*
X136562857Y-57402857D01*
%TO.C,C1*%
X144953333Y-61505142D02*
X144905714Y-61552761D01*
X144762857Y-61600380D01*
X144667619Y-61600380D01*
X144524761Y-61552761D01*
X144429523Y-61457523D01*
X144381904Y-61362285D01*
X144334285Y-61171809D01*
X144334285Y-61028952D01*
X144381904Y-60838476D01*
X144429523Y-60743238D01*
X144524761Y-60648000D01*
X144667619Y-60600380D01*
X144762857Y-60600380D01*
X144905714Y-60648000D01*
X144953333Y-60695619D01*
X145905714Y-61600380D02*
X145334285Y-61600380D01*
X145620000Y-61600380D02*
X145620000Y-60600380D01*
X145524761Y-60743238D01*
X145429523Y-60838476D01*
X145334285Y-60886095D01*
%TO.C,C4*%
X141320000Y-49624285D02*
X141291428Y-49652857D01*
X141205714Y-49681428D01*
X141148571Y-49681428D01*
X141062857Y-49652857D01*
X141005714Y-49595714D01*
X140977142Y-49538571D01*
X140948571Y-49424285D01*
X140948571Y-49338571D01*
X140977142Y-49224285D01*
X141005714Y-49167142D01*
X141062857Y-49110000D01*
X141148571Y-49081428D01*
X141205714Y-49081428D01*
X141291428Y-49110000D01*
X141320000Y-49138571D01*
X141834285Y-49281428D02*
X141834285Y-49681428D01*
X141691428Y-49052857D02*
X141548571Y-49481428D01*
X141920000Y-49481428D01*
%TO.C,J1*%
X132243666Y-62096380D02*
X132243666Y-62810666D01*
X132196047Y-62953523D01*
X132100809Y-63048761D01*
X131957952Y-63096380D01*
X131862714Y-63096380D01*
X133243666Y-63096380D02*
X132672238Y-63096380D01*
X132957952Y-63096380D02*
X132957952Y-62096380D01*
X132862714Y-62239238D01*
X132767476Y-62334476D01*
X132672238Y-62382095D01*
%TO.C,C3*%
X120120000Y-49624285D02*
X120091428Y-49652857D01*
X120005714Y-49681428D01*
X119948571Y-49681428D01*
X119862857Y-49652857D01*
X119805714Y-49595714D01*
X119777142Y-49538571D01*
X119748571Y-49424285D01*
X119748571Y-49338571D01*
X119777142Y-49224285D01*
X119805714Y-49167142D01*
X119862857Y-49110000D01*
X119948571Y-49081428D01*
X120005714Y-49081428D01*
X120091428Y-49110000D01*
X120120000Y-49138571D01*
X120320000Y-49081428D02*
X120691428Y-49081428D01*
X120491428Y-49310000D01*
X120577142Y-49310000D01*
X120634285Y-49338571D01*
X120662857Y-49367142D01*
X120691428Y-49424285D01*
X120691428Y-49567142D01*
X120662857Y-49624285D01*
X120634285Y-49652857D01*
X120577142Y-49681428D01*
X120405714Y-49681428D01*
X120348571Y-49652857D01*
X120320000Y-49624285D01*
%TO.C,C2*%
X116653333Y-61505142D02*
X116605714Y-61552761D01*
X116462857Y-61600380D01*
X116367619Y-61600380D01*
X116224761Y-61552761D01*
X116129523Y-61457523D01*
X116081904Y-61362285D01*
X116034285Y-61171809D01*
X116034285Y-61028952D01*
X116081904Y-60838476D01*
X116129523Y-60743238D01*
X116224761Y-60648000D01*
X116367619Y-60600380D01*
X116462857Y-60600380D01*
X116605714Y-60648000D01*
X116653333Y-60695619D01*
X117034285Y-60695619D02*
X117081904Y-60648000D01*
X117177142Y-60600380D01*
X117415238Y-60600380D01*
X117510476Y-60648000D01*
X117558095Y-60695619D01*
X117605714Y-60790857D01*
X117605714Y-60886095D01*
X117558095Y-61028952D01*
X116986666Y-61600380D01*
X117605714Y-61600380D01*
%TO.C,L1*%
X122903333Y-49612380D02*
X122427142Y-49612380D01*
X122427142Y-48612380D01*
X123760476Y-49612380D02*
X123189047Y-49612380D01*
X123474761Y-49612380D02*
X123474761Y-48612380D01*
X123379523Y-48755238D01*
X123284285Y-48850476D01*
X123189047Y-48898095D01*
%TO.C,U1*%
X120262857Y-57231428D02*
X120262857Y-57717142D01*
X120291428Y-57774285D01*
X120320000Y-57802857D01*
X120377142Y-57831428D01*
X120491428Y-57831428D01*
X120548571Y-57802857D01*
X120577142Y-57774285D01*
X120605714Y-57717142D01*
X120605714Y-57231428D01*
X121205714Y-57831428D02*
X120862857Y-57831428D01*
X121034285Y-57831428D02*
X121034285Y-57231428D01*
X120977142Y-57317142D01*
X120920000Y-57374285D01*
X120862857Y-57402857D01*
%TO.C,C1*%
X129253333Y-61505142D02*
X129205714Y-61552761D01*
X129062857Y-61600380D01*
X128967619Y-61600380D01*
X128824761Y-61552761D01*
X128729523Y-61457523D01*
X128681904Y-61362285D01*
X128634285Y-61171809D01*
X128634285Y-61028952D01*
X128681904Y-60838476D01*
X128729523Y-60743238D01*
X128824761Y-60648000D01*
X128967619Y-60600380D01*
X129062857Y-60600380D01*
X129205714Y-60648000D01*
X129253333Y-60695619D01*
X130205714Y-61600380D02*
X129634285Y-61600380D01*
X129920000Y-61600380D02*
X129920000Y-60600380D01*
X129824761Y-60743238D01*
X129729523Y-60838476D01*
X129634285Y-60886095D01*
%TO.C,C4*%
X125620000Y-49624285D02*
X125591428Y-49652857D01*
X125505714Y-49681428D01*
X125448571Y-49681428D01*
X125362857Y-49652857D01*
X125305714Y-49595714D01*
X125277142Y-49538571D01*
X125248571Y-49424285D01*
X125248571Y-49338571D01*
X125277142Y-49224285D01*
X125305714Y-49167142D01*
X125362857Y-49110000D01*
X125448571Y-49081428D01*
X125505714Y-49081428D01*
X125591428Y-49110000D01*
X125620000Y-49138571D01*
X126134285Y-49281428D02*
X126134285Y-49681428D01*
X125991428Y-49052857D02*
X125848571Y-49481428D01*
X126220000Y-49481428D01*
%TO.C,J1*%
X116543666Y-62096380D02*
X116543666Y-62810666D01*
X116496047Y-62953523D01*
X116400809Y-63048761D01*
X116257952Y-63096380D01*
X116162714Y-63096380D01*
X117543666Y-63096380D02*
X116972238Y-63096380D01*
X117257952Y-63096380D02*
X117257952Y-62096380D01*
X117162714Y-62239238D01*
X117067476Y-62334476D01*
X116972238Y-62382095D01*
%TO.C,C3*%
X104420000Y-49624285D02*
X104391428Y-49652857D01*
X104305714Y-49681428D01*
X104248571Y-49681428D01*
X104162857Y-49652857D01*
X104105714Y-49595714D01*
X104077142Y-49538571D01*
X104048571Y-49424285D01*
X104048571Y-49338571D01*
X104077142Y-49224285D01*
X104105714Y-49167142D01*
X104162857Y-49110000D01*
X104248571Y-49081428D01*
X104305714Y-49081428D01*
X104391428Y-49110000D01*
X104420000Y-49138571D01*
X104620000Y-49081428D02*
X104991428Y-49081428D01*
X104791428Y-49310000D01*
X104877142Y-49310000D01*
X104934285Y-49338571D01*
X104962857Y-49367142D01*
X104991428Y-49424285D01*
X104991428Y-49567142D01*
X104962857Y-49624285D01*
X104934285Y-49652857D01*
X104877142Y-49681428D01*
X104705714Y-49681428D01*
X104648571Y-49652857D01*
X104620000Y-49624285D01*
%TO.C,C2*%
X100953333Y-61505142D02*
X100905714Y-61552761D01*
X100762857Y-61600380D01*
X100667619Y-61600380D01*
X100524761Y-61552761D01*
X100429523Y-61457523D01*
X100381904Y-61362285D01*
X100334285Y-61171809D01*
X100334285Y-61028952D01*
X100381904Y-60838476D01*
X100429523Y-60743238D01*
X100524761Y-60648000D01*
X100667619Y-60600380D01*
X100762857Y-60600380D01*
X100905714Y-60648000D01*
X100953333Y-60695619D01*
X101334285Y-60695619D02*
X101381904Y-60648000D01*
X101477142Y-60600380D01*
X101715238Y-60600380D01*
X101810476Y-60648000D01*
X101858095Y-60695619D01*
X101905714Y-60790857D01*
X101905714Y-60886095D01*
X101858095Y-61028952D01*
X101286666Y-61600380D01*
X101905714Y-61600380D01*
%TO.C,L1*%
X107203333Y-49612380D02*
X106727142Y-49612380D01*
X106727142Y-48612380D01*
X108060476Y-49612380D02*
X107489047Y-49612380D01*
X107774761Y-49612380D02*
X107774761Y-48612380D01*
X107679523Y-48755238D01*
X107584285Y-48850476D01*
X107489047Y-48898095D01*
%TO.C,U1*%
X104562857Y-57231428D02*
X104562857Y-57717142D01*
X104591428Y-57774285D01*
X104620000Y-57802857D01*
X104677142Y-57831428D01*
X104791428Y-57831428D01*
X104848571Y-57802857D01*
X104877142Y-57774285D01*
X104905714Y-57717142D01*
X104905714Y-57231428D01*
X105505714Y-57831428D02*
X105162857Y-57831428D01*
X105334285Y-57831428D02*
X105334285Y-57231428D01*
X105277142Y-57317142D01*
X105220000Y-57374285D01*
X105162857Y-57402857D01*
%TO.C,C1*%
X113553333Y-61505142D02*
X113505714Y-61552761D01*
X113362857Y-61600380D01*
X113267619Y-61600380D01*
X113124761Y-61552761D01*
X113029523Y-61457523D01*
X112981904Y-61362285D01*
X112934285Y-61171809D01*
X112934285Y-61028952D01*
X112981904Y-60838476D01*
X113029523Y-60743238D01*
X113124761Y-60648000D01*
X113267619Y-60600380D01*
X113362857Y-60600380D01*
X113505714Y-60648000D01*
X113553333Y-60695619D01*
X114505714Y-61600380D02*
X113934285Y-61600380D01*
X114220000Y-61600380D02*
X114220000Y-60600380D01*
X114124761Y-60743238D01*
X114029523Y-60838476D01*
X113934285Y-60886095D01*
%TO.C,C4*%
X109920000Y-49624285D02*
X109891428Y-49652857D01*
X109805714Y-49681428D01*
X109748571Y-49681428D01*
X109662857Y-49652857D01*
X109605714Y-49595714D01*
X109577142Y-49538571D01*
X109548571Y-49424285D01*
X109548571Y-49338571D01*
X109577142Y-49224285D01*
X109605714Y-49167142D01*
X109662857Y-49110000D01*
X109748571Y-49081428D01*
X109805714Y-49081428D01*
X109891428Y-49110000D01*
X109920000Y-49138571D01*
X110434285Y-49281428D02*
X110434285Y-49681428D01*
X110291428Y-49052857D02*
X110148571Y-49481428D01*
X110520000Y-49481428D01*
%TO.C,J1*%
X100843666Y-62096380D02*
X100843666Y-62810666D01*
X100796047Y-62953523D01*
X100700809Y-63048761D01*
X100557952Y-63096380D01*
X100462714Y-63096380D01*
X101843666Y-63096380D02*
X101272238Y-63096380D01*
X101557952Y-63096380D02*
X101557952Y-62096380D01*
X101462714Y-62239238D01*
X101367476Y-62334476D01*
X101272238Y-62382095D01*
X85143666Y-62096380D02*
X85143666Y-62810666D01*
X85096047Y-62953523D01*
X85000809Y-63048761D01*
X84857952Y-63096380D01*
X84762714Y-63096380D01*
X86143666Y-63096380D02*
X85572238Y-63096380D01*
X85857952Y-63096380D02*
X85857952Y-62096380D01*
X85762714Y-62239238D01*
X85667476Y-62334476D01*
X85572238Y-62382095D01*
%TO.C,C4*%
X94220000Y-49624285D02*
X94191428Y-49652857D01*
X94105714Y-49681428D01*
X94048571Y-49681428D01*
X93962857Y-49652857D01*
X93905714Y-49595714D01*
X93877142Y-49538571D01*
X93848571Y-49424285D01*
X93848571Y-49338571D01*
X93877142Y-49224285D01*
X93905714Y-49167142D01*
X93962857Y-49110000D01*
X94048571Y-49081428D01*
X94105714Y-49081428D01*
X94191428Y-49110000D01*
X94220000Y-49138571D01*
X94734285Y-49281428D02*
X94734285Y-49681428D01*
X94591428Y-49052857D02*
X94448571Y-49481428D01*
X94820000Y-49481428D01*
%TO.C,C1*%
X97853333Y-61505142D02*
X97805714Y-61552761D01*
X97662857Y-61600380D01*
X97567619Y-61600380D01*
X97424761Y-61552761D01*
X97329523Y-61457523D01*
X97281904Y-61362285D01*
X97234285Y-61171809D01*
X97234285Y-61028952D01*
X97281904Y-60838476D01*
X97329523Y-60743238D01*
X97424761Y-60648000D01*
X97567619Y-60600380D01*
X97662857Y-60600380D01*
X97805714Y-60648000D01*
X97853333Y-60695619D01*
X98805714Y-61600380D02*
X98234285Y-61600380D01*
X98520000Y-61600380D02*
X98520000Y-60600380D01*
X98424761Y-60743238D01*
X98329523Y-60838476D01*
X98234285Y-60886095D01*
%TO.C,U1*%
X88862857Y-57231428D02*
X88862857Y-57717142D01*
X88891428Y-57774285D01*
X88920000Y-57802857D01*
X88977142Y-57831428D01*
X89091428Y-57831428D01*
X89148571Y-57802857D01*
X89177142Y-57774285D01*
X89205714Y-57717142D01*
X89205714Y-57231428D01*
X89805714Y-57831428D02*
X89462857Y-57831428D01*
X89634285Y-57831428D02*
X89634285Y-57231428D01*
X89577142Y-57317142D01*
X89520000Y-57374285D01*
X89462857Y-57402857D01*
%TO.C,C2*%
X85253333Y-61505142D02*
X85205714Y-61552761D01*
X85062857Y-61600380D01*
X84967619Y-61600380D01*
X84824761Y-61552761D01*
X84729523Y-61457523D01*
X84681904Y-61362285D01*
X84634285Y-61171809D01*
X84634285Y-61028952D01*
X84681904Y-60838476D01*
X84729523Y-60743238D01*
X84824761Y-60648000D01*
X84967619Y-60600380D01*
X85062857Y-60600380D01*
X85205714Y-60648000D01*
X85253333Y-60695619D01*
X85634285Y-60695619D02*
X85681904Y-60648000D01*
X85777142Y-60600380D01*
X86015238Y-60600380D01*
X86110476Y-60648000D01*
X86158095Y-60695619D01*
X86205714Y-60790857D01*
X86205714Y-60886095D01*
X86158095Y-61028952D01*
X85586666Y-61600380D01*
X86205714Y-61600380D01*
%TO.C,L1*%
X91503333Y-49612380D02*
X91027142Y-49612380D01*
X91027142Y-48612380D01*
X92360476Y-49612380D02*
X91789047Y-49612380D01*
X92074761Y-49612380D02*
X92074761Y-48612380D01*
X91979523Y-48755238D01*
X91884285Y-48850476D01*
X91789047Y-48898095D01*
%TO.C,C3*%
X88720000Y-49624285D02*
X88691428Y-49652857D01*
X88605714Y-49681428D01*
X88548571Y-49681428D01*
X88462857Y-49652857D01*
X88405714Y-49595714D01*
X88377142Y-49538571D01*
X88348571Y-49424285D01*
X88348571Y-49338571D01*
X88377142Y-49224285D01*
X88405714Y-49167142D01*
X88462857Y-49110000D01*
X88548571Y-49081428D01*
X88605714Y-49081428D01*
X88691428Y-49110000D01*
X88720000Y-49138571D01*
X88920000Y-49081428D02*
X89291428Y-49081428D01*
X89091428Y-49310000D01*
X89177142Y-49310000D01*
X89234285Y-49338571D01*
X89262857Y-49367142D01*
X89291428Y-49424285D01*
X89291428Y-49567142D01*
X89262857Y-49624285D01*
X89234285Y-49652857D01*
X89177142Y-49681428D01*
X89005714Y-49681428D01*
X88948571Y-49652857D01*
X88920000Y-49624285D01*
D12*
X164574748Y-127675000D02*
X165097252Y-127675000D01*
X164574748Y-129145000D02*
X165097252Y-129145000D01*
%TO.C,C2*%
X167096000Y-137710000D02*
X167096000Y-129475000D01*
X162576000Y-129475000D02*
X162576000Y-137710000D01*
X167096000Y-129475000D02*
X162576000Y-129475000D01*
%TO.C,L1*%
X170670000Y-128790000D02*
X169570000Y-128790000D01*
X170670000Y-133010000D02*
X169570000Y-133010000D01*
%TO.C,U1*%
X171730000Y-136960000D02*
X171730000Y-135160000D01*
X168510000Y-135160000D02*
X168510000Y-137610000D01*
%TO.C,C1*%
X177688000Y-137710000D02*
X177688000Y-129475000D01*
X173168000Y-129475000D02*
X173168000Y-137710000D01*
X177688000Y-129475000D02*
X173168000Y-129475000D01*
%TO.C,C4*%
X175689252Y-129145000D02*
X175166748Y-129145000D01*
X175689252Y-127675000D02*
X175166748Y-127675000D01*
%TO.C,J1*%
X167577000Y-141890000D02*
X167577000Y-139230000D01*
X164977000Y-141890000D02*
X164977000Y-140560000D01*
X167577000Y-139230000D02*
X175257000Y-139230000D01*
X175257000Y-141890000D02*
X175257000Y-139230000D01*
X167577000Y-141890000D02*
X175257000Y-141890000D01*
X166307000Y-141890000D02*
X164977000Y-141890000D01*
%TO.C,C3*%
X148874748Y-127675000D02*
X149397252Y-127675000D01*
X148874748Y-129145000D02*
X149397252Y-129145000D01*
%TO.C,C2*%
X151396000Y-137710000D02*
X151396000Y-129475000D01*
X146876000Y-129475000D02*
X146876000Y-137710000D01*
X151396000Y-129475000D02*
X146876000Y-129475000D01*
%TO.C,L1*%
X154970000Y-128790000D02*
X153870000Y-128790000D01*
X154970000Y-133010000D02*
X153870000Y-133010000D01*
%TO.C,U1*%
X156030000Y-136960000D02*
X156030000Y-135160000D01*
X152810000Y-135160000D02*
X152810000Y-137610000D01*
%TO.C,C1*%
X161988000Y-137710000D02*
X161988000Y-129475000D01*
X157468000Y-129475000D02*
X157468000Y-137710000D01*
X161988000Y-129475000D02*
X157468000Y-129475000D01*
%TO.C,C4*%
X159989252Y-129145000D02*
X159466748Y-129145000D01*
X159989252Y-127675000D02*
X159466748Y-127675000D01*
%TO.C,J1*%
X151877000Y-141890000D02*
X151877000Y-139230000D01*
X149277000Y-141890000D02*
X149277000Y-140560000D01*
X151877000Y-139230000D02*
X159557000Y-139230000D01*
X159557000Y-141890000D02*
X159557000Y-139230000D01*
X151877000Y-141890000D02*
X159557000Y-141890000D01*
X150607000Y-141890000D02*
X149277000Y-141890000D01*
%TO.C,C3*%
X133174748Y-127675000D02*
X133697252Y-127675000D01*
X133174748Y-129145000D02*
X133697252Y-129145000D01*
%TO.C,C2*%
X135696000Y-137710000D02*
X135696000Y-129475000D01*
X131176000Y-129475000D02*
X131176000Y-137710000D01*
X135696000Y-129475000D02*
X131176000Y-129475000D01*
%TO.C,L1*%
X139270000Y-128790000D02*
X138170000Y-128790000D01*
X139270000Y-133010000D02*
X138170000Y-133010000D01*
%TO.C,U1*%
X140330000Y-136960000D02*
X140330000Y-135160000D01*
X137110000Y-135160000D02*
X137110000Y-137610000D01*
%TO.C,C1*%
X146288000Y-137710000D02*
X146288000Y-129475000D01*
X141768000Y-129475000D02*
X141768000Y-137710000D01*
X146288000Y-129475000D02*
X141768000Y-129475000D01*
%TO.C,C4*%
X144289252Y-129145000D02*
X143766748Y-129145000D01*
X144289252Y-127675000D02*
X143766748Y-127675000D01*
%TO.C,J1*%
X136177000Y-141890000D02*
X136177000Y-139230000D01*
X133577000Y-141890000D02*
X133577000Y-140560000D01*
X136177000Y-139230000D02*
X143857000Y-139230000D01*
X143857000Y-141890000D02*
X143857000Y-139230000D01*
X136177000Y-141890000D02*
X143857000Y-141890000D01*
X134907000Y-141890000D02*
X133577000Y-141890000D01*
%TO.C,C3*%
X117474748Y-127675000D02*
X117997252Y-127675000D01*
X117474748Y-129145000D02*
X117997252Y-129145000D01*
%TO.C,C2*%
X119996000Y-137710000D02*
X119996000Y-129475000D01*
X115476000Y-129475000D02*
X115476000Y-137710000D01*
X119996000Y-129475000D02*
X115476000Y-129475000D01*
%TO.C,L1*%
X123570000Y-128790000D02*
X122470000Y-128790000D01*
X123570000Y-133010000D02*
X122470000Y-133010000D01*
%TO.C,U1*%
X124630000Y-136960000D02*
X124630000Y-135160000D01*
X121410000Y-135160000D02*
X121410000Y-137610000D01*
%TO.C,C1*%
X130588000Y-137710000D02*
X130588000Y-129475000D01*
X126068000Y-129475000D02*
X126068000Y-137710000D01*
X130588000Y-129475000D02*
X126068000Y-129475000D01*
%TO.C,C4*%
X128589252Y-129145000D02*
X128066748Y-129145000D01*
X128589252Y-127675000D02*
X128066748Y-127675000D01*
%TO.C,J1*%
X120477000Y-141890000D02*
X120477000Y-139230000D01*
X117877000Y-141890000D02*
X117877000Y-140560000D01*
X120477000Y-139230000D02*
X128157000Y-139230000D01*
X128157000Y-141890000D02*
X128157000Y-139230000D01*
X120477000Y-141890000D02*
X128157000Y-141890000D01*
X119207000Y-141890000D02*
X117877000Y-141890000D01*
%TO.C,C3*%
X101774748Y-127675000D02*
X102297252Y-127675000D01*
X101774748Y-129145000D02*
X102297252Y-129145000D01*
%TO.C,C2*%
X104296000Y-137710000D02*
X104296000Y-129475000D01*
X99776000Y-129475000D02*
X99776000Y-137710000D01*
X104296000Y-129475000D02*
X99776000Y-129475000D01*
%TO.C,L1*%
X107870000Y-128790000D02*
X106770000Y-128790000D01*
X107870000Y-133010000D02*
X106770000Y-133010000D01*
%TO.C,U1*%
X108930000Y-136960000D02*
X108930000Y-135160000D01*
X105710000Y-135160000D02*
X105710000Y-137610000D01*
%TO.C,C1*%
X114888000Y-137710000D02*
X114888000Y-129475000D01*
X110368000Y-129475000D02*
X110368000Y-137710000D01*
X114888000Y-129475000D02*
X110368000Y-129475000D01*
%TO.C,C4*%
X112889252Y-129145000D02*
X112366748Y-129145000D01*
X112889252Y-127675000D02*
X112366748Y-127675000D01*
%TO.C,J1*%
X104777000Y-141890000D02*
X104777000Y-139230000D01*
X102177000Y-141890000D02*
X102177000Y-140560000D01*
X104777000Y-139230000D02*
X112457000Y-139230000D01*
X112457000Y-141890000D02*
X112457000Y-139230000D01*
X104777000Y-141890000D02*
X112457000Y-141890000D01*
X103507000Y-141890000D02*
X102177000Y-141890000D01*
%TO.C,C3*%
X86074748Y-127675000D02*
X86597252Y-127675000D01*
X86074748Y-129145000D02*
X86597252Y-129145000D01*
%TO.C,C2*%
X88596000Y-137710000D02*
X88596000Y-129475000D01*
X84076000Y-129475000D02*
X84076000Y-137710000D01*
X88596000Y-129475000D02*
X84076000Y-129475000D01*
%TO.C,L1*%
X92170000Y-128790000D02*
X91070000Y-128790000D01*
X92170000Y-133010000D02*
X91070000Y-133010000D01*
%TO.C,U1*%
X93230000Y-136960000D02*
X93230000Y-135160000D01*
X90010000Y-135160000D02*
X90010000Y-137610000D01*
%TO.C,C1*%
X99188000Y-137710000D02*
X99188000Y-129475000D01*
X94668000Y-129475000D02*
X94668000Y-137710000D01*
X99188000Y-129475000D02*
X94668000Y-129475000D01*
%TO.C,C4*%
X97189252Y-129145000D02*
X96666748Y-129145000D01*
X97189252Y-127675000D02*
X96666748Y-127675000D01*
%TO.C,J1*%
X89077000Y-141890000D02*
X89077000Y-139230000D01*
X86477000Y-141890000D02*
X86477000Y-140560000D01*
X89077000Y-139230000D02*
X96757000Y-139230000D01*
X96757000Y-141890000D02*
X96757000Y-139230000D01*
X89077000Y-141890000D02*
X96757000Y-141890000D01*
X87807000Y-141890000D02*
X86477000Y-141890000D01*
%TO.C,C3*%
X164574748Y-111975000D02*
X165097252Y-111975000D01*
X164574748Y-113445000D02*
X165097252Y-113445000D01*
%TO.C,C2*%
X167096000Y-122010000D02*
X167096000Y-113775000D01*
X162576000Y-113775000D02*
X162576000Y-122010000D01*
X167096000Y-113775000D02*
X162576000Y-113775000D01*
%TO.C,L1*%
X170670000Y-113090000D02*
X169570000Y-113090000D01*
X170670000Y-117310000D02*
X169570000Y-117310000D01*
%TO.C,U1*%
X171730000Y-121260000D02*
X171730000Y-119460000D01*
X168510000Y-119460000D02*
X168510000Y-121910000D01*
%TO.C,C1*%
X177688000Y-122010000D02*
X177688000Y-113775000D01*
X173168000Y-113775000D02*
X173168000Y-122010000D01*
X177688000Y-113775000D02*
X173168000Y-113775000D01*
%TO.C,C4*%
X175689252Y-113445000D02*
X175166748Y-113445000D01*
X175689252Y-111975000D02*
X175166748Y-111975000D01*
%TO.C,J1*%
X167577000Y-126190000D02*
X167577000Y-123530000D01*
X164977000Y-126190000D02*
X164977000Y-124860000D01*
X167577000Y-123530000D02*
X175257000Y-123530000D01*
X175257000Y-126190000D02*
X175257000Y-123530000D01*
X167577000Y-126190000D02*
X175257000Y-126190000D01*
X166307000Y-126190000D02*
X164977000Y-126190000D01*
%TO.C,C3*%
X148874748Y-111975000D02*
X149397252Y-111975000D01*
X148874748Y-113445000D02*
X149397252Y-113445000D01*
%TO.C,C2*%
X151396000Y-122010000D02*
X151396000Y-113775000D01*
X146876000Y-113775000D02*
X146876000Y-122010000D01*
X151396000Y-113775000D02*
X146876000Y-113775000D01*
%TO.C,L1*%
X154970000Y-113090000D02*
X153870000Y-113090000D01*
X154970000Y-117310000D02*
X153870000Y-117310000D01*
%TO.C,U1*%
X156030000Y-121260000D02*
X156030000Y-119460000D01*
X152810000Y-119460000D02*
X152810000Y-121910000D01*
%TO.C,C1*%
X161988000Y-122010000D02*
X161988000Y-113775000D01*
X157468000Y-113775000D02*
X157468000Y-122010000D01*
X161988000Y-113775000D02*
X157468000Y-113775000D01*
%TO.C,C4*%
X159989252Y-113445000D02*
X159466748Y-113445000D01*
X159989252Y-111975000D02*
X159466748Y-111975000D01*
%TO.C,J1*%
X151877000Y-126190000D02*
X151877000Y-123530000D01*
X149277000Y-126190000D02*
X149277000Y-124860000D01*
X151877000Y-123530000D02*
X159557000Y-123530000D01*
X159557000Y-126190000D02*
X159557000Y-123530000D01*
X151877000Y-126190000D02*
X159557000Y-126190000D01*
X150607000Y-126190000D02*
X149277000Y-126190000D01*
%TO.C,C3*%
X133174748Y-111975000D02*
X133697252Y-111975000D01*
X133174748Y-113445000D02*
X133697252Y-113445000D01*
%TO.C,C2*%
X135696000Y-122010000D02*
X135696000Y-113775000D01*
X131176000Y-113775000D02*
X131176000Y-122010000D01*
X135696000Y-113775000D02*
X131176000Y-113775000D01*
%TO.C,L1*%
X139270000Y-113090000D02*
X138170000Y-113090000D01*
X139270000Y-117310000D02*
X138170000Y-117310000D01*
%TO.C,U1*%
X140330000Y-121260000D02*
X140330000Y-119460000D01*
X137110000Y-119460000D02*
X137110000Y-121910000D01*
%TO.C,C1*%
X146288000Y-122010000D02*
X146288000Y-113775000D01*
X141768000Y-113775000D02*
X141768000Y-122010000D01*
X146288000Y-113775000D02*
X141768000Y-113775000D01*
%TO.C,C4*%
X144289252Y-113445000D02*
X143766748Y-113445000D01*
X144289252Y-111975000D02*
X143766748Y-111975000D01*
%TO.C,J1*%
X136177000Y-126190000D02*
X136177000Y-123530000D01*
X133577000Y-126190000D02*
X133577000Y-124860000D01*
X136177000Y-123530000D02*
X143857000Y-123530000D01*
X143857000Y-126190000D02*
X143857000Y-123530000D01*
X136177000Y-126190000D02*
X143857000Y-126190000D01*
X134907000Y-126190000D02*
X133577000Y-126190000D01*
%TO.C,C3*%
X117474748Y-111975000D02*
X117997252Y-111975000D01*
X117474748Y-113445000D02*
X117997252Y-113445000D01*
%TO.C,C2*%
X119996000Y-122010000D02*
X119996000Y-113775000D01*
X115476000Y-113775000D02*
X115476000Y-122010000D01*
X119996000Y-113775000D02*
X115476000Y-113775000D01*
%TO.C,L1*%
X123570000Y-113090000D02*
X122470000Y-113090000D01*
X123570000Y-117310000D02*
X122470000Y-117310000D01*
%TO.C,U1*%
X124630000Y-121260000D02*
X124630000Y-119460000D01*
X121410000Y-119460000D02*
X121410000Y-121910000D01*
%TO.C,C1*%
X130588000Y-122010000D02*
X130588000Y-113775000D01*
X126068000Y-113775000D02*
X126068000Y-122010000D01*
X130588000Y-113775000D02*
X126068000Y-113775000D01*
%TO.C,C4*%
X128589252Y-113445000D02*
X128066748Y-113445000D01*
X128589252Y-111975000D02*
X128066748Y-111975000D01*
%TO.C,J1*%
X120477000Y-126190000D02*
X120477000Y-123530000D01*
X117877000Y-126190000D02*
X117877000Y-124860000D01*
X120477000Y-123530000D02*
X128157000Y-123530000D01*
X128157000Y-126190000D02*
X128157000Y-123530000D01*
X120477000Y-126190000D02*
X128157000Y-126190000D01*
X119207000Y-126190000D02*
X117877000Y-126190000D01*
%TO.C,C3*%
X101774748Y-111975000D02*
X102297252Y-111975000D01*
X101774748Y-113445000D02*
X102297252Y-113445000D01*
%TO.C,C2*%
X104296000Y-122010000D02*
X104296000Y-113775000D01*
X99776000Y-113775000D02*
X99776000Y-122010000D01*
X104296000Y-113775000D02*
X99776000Y-113775000D01*
%TO.C,L1*%
X107870000Y-113090000D02*
X106770000Y-113090000D01*
X107870000Y-117310000D02*
X106770000Y-117310000D01*
%TO.C,U1*%
X108930000Y-121260000D02*
X108930000Y-119460000D01*
X105710000Y-119460000D02*
X105710000Y-121910000D01*
%TO.C,C1*%
X114888000Y-122010000D02*
X114888000Y-113775000D01*
X110368000Y-113775000D02*
X110368000Y-122010000D01*
X114888000Y-113775000D02*
X110368000Y-113775000D01*
%TO.C,C4*%
X112889252Y-113445000D02*
X112366748Y-113445000D01*
X112889252Y-111975000D02*
X112366748Y-111975000D01*
%TO.C,J1*%
X104777000Y-126190000D02*
X104777000Y-123530000D01*
X102177000Y-126190000D02*
X102177000Y-124860000D01*
X104777000Y-123530000D02*
X112457000Y-123530000D01*
X112457000Y-126190000D02*
X112457000Y-123530000D01*
X104777000Y-126190000D02*
X112457000Y-126190000D01*
X103507000Y-126190000D02*
X102177000Y-126190000D01*
%TO.C,C3*%
X86074748Y-111975000D02*
X86597252Y-111975000D01*
X86074748Y-113445000D02*
X86597252Y-113445000D01*
%TO.C,C2*%
X88596000Y-122010000D02*
X88596000Y-113775000D01*
X84076000Y-113775000D02*
X84076000Y-122010000D01*
X88596000Y-113775000D02*
X84076000Y-113775000D01*
%TO.C,L1*%
X92170000Y-113090000D02*
X91070000Y-113090000D01*
X92170000Y-117310000D02*
X91070000Y-117310000D01*
%TO.C,U1*%
X93230000Y-121260000D02*
X93230000Y-119460000D01*
X90010000Y-119460000D02*
X90010000Y-121910000D01*
%TO.C,C1*%
X99188000Y-122010000D02*
X99188000Y-113775000D01*
X94668000Y-113775000D02*
X94668000Y-122010000D01*
X99188000Y-113775000D02*
X94668000Y-113775000D01*
%TO.C,C4*%
X97189252Y-113445000D02*
X96666748Y-113445000D01*
X97189252Y-111975000D02*
X96666748Y-111975000D01*
%TO.C,J1*%
X89077000Y-126190000D02*
X89077000Y-123530000D01*
X86477000Y-126190000D02*
X86477000Y-124860000D01*
X89077000Y-123530000D02*
X96757000Y-123530000D01*
X96757000Y-126190000D02*
X96757000Y-123530000D01*
X89077000Y-126190000D02*
X96757000Y-126190000D01*
X87807000Y-126190000D02*
X86477000Y-126190000D01*
%TO.C,C3*%
X164574748Y-96275000D02*
X165097252Y-96275000D01*
X164574748Y-97745000D02*
X165097252Y-97745000D01*
%TO.C,C2*%
X167096000Y-106310000D02*
X167096000Y-98075000D01*
X162576000Y-98075000D02*
X162576000Y-106310000D01*
X167096000Y-98075000D02*
X162576000Y-98075000D01*
%TO.C,L1*%
X170670000Y-97390000D02*
X169570000Y-97390000D01*
X170670000Y-101610000D02*
X169570000Y-101610000D01*
%TO.C,U1*%
X171730000Y-105560000D02*
X171730000Y-103760000D01*
X168510000Y-103760000D02*
X168510000Y-106210000D01*
%TO.C,C1*%
X177688000Y-106310000D02*
X177688000Y-98075000D01*
X173168000Y-98075000D02*
X173168000Y-106310000D01*
X177688000Y-98075000D02*
X173168000Y-98075000D01*
%TO.C,C4*%
X175689252Y-97745000D02*
X175166748Y-97745000D01*
X175689252Y-96275000D02*
X175166748Y-96275000D01*
%TO.C,J1*%
X167577000Y-110490000D02*
X167577000Y-107830000D01*
X164977000Y-110490000D02*
X164977000Y-109160000D01*
X167577000Y-107830000D02*
X175257000Y-107830000D01*
X175257000Y-110490000D02*
X175257000Y-107830000D01*
X167577000Y-110490000D02*
X175257000Y-110490000D01*
X166307000Y-110490000D02*
X164977000Y-110490000D01*
%TO.C,C3*%
X148874748Y-96275000D02*
X149397252Y-96275000D01*
X148874748Y-97745000D02*
X149397252Y-97745000D01*
%TO.C,C2*%
X151396000Y-106310000D02*
X151396000Y-98075000D01*
X146876000Y-98075000D02*
X146876000Y-106310000D01*
X151396000Y-98075000D02*
X146876000Y-98075000D01*
%TO.C,L1*%
X154970000Y-97390000D02*
X153870000Y-97390000D01*
X154970000Y-101610000D02*
X153870000Y-101610000D01*
%TO.C,U1*%
X156030000Y-105560000D02*
X156030000Y-103760000D01*
X152810000Y-103760000D02*
X152810000Y-106210000D01*
%TO.C,C1*%
X161988000Y-106310000D02*
X161988000Y-98075000D01*
X157468000Y-98075000D02*
X157468000Y-106310000D01*
X161988000Y-98075000D02*
X157468000Y-98075000D01*
%TO.C,C4*%
X159989252Y-97745000D02*
X159466748Y-97745000D01*
X159989252Y-96275000D02*
X159466748Y-96275000D01*
%TO.C,J1*%
X151877000Y-110490000D02*
X151877000Y-107830000D01*
X149277000Y-110490000D02*
X149277000Y-109160000D01*
X151877000Y-107830000D02*
X159557000Y-107830000D01*
X159557000Y-110490000D02*
X159557000Y-107830000D01*
X151877000Y-110490000D02*
X159557000Y-110490000D01*
X150607000Y-110490000D02*
X149277000Y-110490000D01*
%TO.C,C3*%
X133174748Y-96275000D02*
X133697252Y-96275000D01*
X133174748Y-97745000D02*
X133697252Y-97745000D01*
%TO.C,C2*%
X135696000Y-106310000D02*
X135696000Y-98075000D01*
X131176000Y-98075000D02*
X131176000Y-106310000D01*
X135696000Y-98075000D02*
X131176000Y-98075000D01*
%TO.C,L1*%
X139270000Y-97390000D02*
X138170000Y-97390000D01*
X139270000Y-101610000D02*
X138170000Y-101610000D01*
%TO.C,U1*%
X140330000Y-105560000D02*
X140330000Y-103760000D01*
X137110000Y-103760000D02*
X137110000Y-106210000D01*
%TO.C,C1*%
X146288000Y-106310000D02*
X146288000Y-98075000D01*
X141768000Y-98075000D02*
X141768000Y-106310000D01*
X146288000Y-98075000D02*
X141768000Y-98075000D01*
%TO.C,C4*%
X144289252Y-97745000D02*
X143766748Y-97745000D01*
X144289252Y-96275000D02*
X143766748Y-96275000D01*
%TO.C,J1*%
X136177000Y-110490000D02*
X136177000Y-107830000D01*
X133577000Y-110490000D02*
X133577000Y-109160000D01*
X136177000Y-107830000D02*
X143857000Y-107830000D01*
X143857000Y-110490000D02*
X143857000Y-107830000D01*
X136177000Y-110490000D02*
X143857000Y-110490000D01*
X134907000Y-110490000D02*
X133577000Y-110490000D01*
%TO.C,C3*%
X117474748Y-96275000D02*
X117997252Y-96275000D01*
X117474748Y-97745000D02*
X117997252Y-97745000D01*
%TO.C,C2*%
X119996000Y-106310000D02*
X119996000Y-98075000D01*
X115476000Y-98075000D02*
X115476000Y-106310000D01*
X119996000Y-98075000D02*
X115476000Y-98075000D01*
%TO.C,L1*%
X123570000Y-97390000D02*
X122470000Y-97390000D01*
X123570000Y-101610000D02*
X122470000Y-101610000D01*
%TO.C,U1*%
X124630000Y-105560000D02*
X124630000Y-103760000D01*
X121410000Y-103760000D02*
X121410000Y-106210000D01*
%TO.C,C1*%
X130588000Y-106310000D02*
X130588000Y-98075000D01*
X126068000Y-98075000D02*
X126068000Y-106310000D01*
X130588000Y-98075000D02*
X126068000Y-98075000D01*
%TO.C,C4*%
X128589252Y-97745000D02*
X128066748Y-97745000D01*
X128589252Y-96275000D02*
X128066748Y-96275000D01*
%TO.C,J1*%
X120477000Y-110490000D02*
X120477000Y-107830000D01*
X117877000Y-110490000D02*
X117877000Y-109160000D01*
X120477000Y-107830000D02*
X128157000Y-107830000D01*
X128157000Y-110490000D02*
X128157000Y-107830000D01*
X120477000Y-110490000D02*
X128157000Y-110490000D01*
X119207000Y-110490000D02*
X117877000Y-110490000D01*
%TO.C,C3*%
X101774748Y-96275000D02*
X102297252Y-96275000D01*
X101774748Y-97745000D02*
X102297252Y-97745000D01*
%TO.C,C2*%
X104296000Y-106310000D02*
X104296000Y-98075000D01*
X99776000Y-98075000D02*
X99776000Y-106310000D01*
X104296000Y-98075000D02*
X99776000Y-98075000D01*
%TO.C,L1*%
X107870000Y-97390000D02*
X106770000Y-97390000D01*
X107870000Y-101610000D02*
X106770000Y-101610000D01*
%TO.C,U1*%
X108930000Y-105560000D02*
X108930000Y-103760000D01*
X105710000Y-103760000D02*
X105710000Y-106210000D01*
%TO.C,C1*%
X114888000Y-106310000D02*
X114888000Y-98075000D01*
X110368000Y-98075000D02*
X110368000Y-106310000D01*
X114888000Y-98075000D02*
X110368000Y-98075000D01*
%TO.C,C4*%
X112889252Y-97745000D02*
X112366748Y-97745000D01*
X112889252Y-96275000D02*
X112366748Y-96275000D01*
%TO.C,J1*%
X104777000Y-110490000D02*
X104777000Y-107830000D01*
X102177000Y-110490000D02*
X102177000Y-109160000D01*
X104777000Y-107830000D02*
X112457000Y-107830000D01*
X112457000Y-110490000D02*
X112457000Y-107830000D01*
X104777000Y-110490000D02*
X112457000Y-110490000D01*
X103507000Y-110490000D02*
X102177000Y-110490000D01*
%TO.C,C3*%
X86074748Y-96275000D02*
X86597252Y-96275000D01*
X86074748Y-97745000D02*
X86597252Y-97745000D01*
%TO.C,C2*%
X88596000Y-106310000D02*
X88596000Y-98075000D01*
X84076000Y-98075000D02*
X84076000Y-106310000D01*
X88596000Y-98075000D02*
X84076000Y-98075000D01*
%TO.C,L1*%
X92170000Y-97390000D02*
X91070000Y-97390000D01*
X92170000Y-101610000D02*
X91070000Y-101610000D01*
%TO.C,U1*%
X93230000Y-105560000D02*
X93230000Y-103760000D01*
X90010000Y-103760000D02*
X90010000Y-106210000D01*
%TO.C,C1*%
X99188000Y-106310000D02*
X99188000Y-98075000D01*
X94668000Y-98075000D02*
X94668000Y-106310000D01*
X99188000Y-98075000D02*
X94668000Y-98075000D01*
%TO.C,C4*%
X97189252Y-97745000D02*
X96666748Y-97745000D01*
X97189252Y-96275000D02*
X96666748Y-96275000D01*
%TO.C,J1*%
X89077000Y-110490000D02*
X89077000Y-107830000D01*
X86477000Y-110490000D02*
X86477000Y-109160000D01*
X89077000Y-107830000D02*
X96757000Y-107830000D01*
X96757000Y-110490000D02*
X96757000Y-107830000D01*
X89077000Y-110490000D02*
X96757000Y-110490000D01*
X87807000Y-110490000D02*
X86477000Y-110490000D01*
%TO.C,C3*%
X164574748Y-80575000D02*
X165097252Y-80575000D01*
X164574748Y-82045000D02*
X165097252Y-82045000D01*
%TO.C,C2*%
X167096000Y-90610000D02*
X167096000Y-82375000D01*
X162576000Y-82375000D02*
X162576000Y-90610000D01*
X167096000Y-82375000D02*
X162576000Y-82375000D01*
%TO.C,L1*%
X170670000Y-81690000D02*
X169570000Y-81690000D01*
X170670000Y-85910000D02*
X169570000Y-85910000D01*
%TO.C,U1*%
X171730000Y-89860000D02*
X171730000Y-88060000D01*
X168510000Y-88060000D02*
X168510000Y-90510000D01*
%TO.C,C1*%
X177688000Y-90610000D02*
X177688000Y-82375000D01*
X173168000Y-82375000D02*
X173168000Y-90610000D01*
X177688000Y-82375000D02*
X173168000Y-82375000D01*
%TO.C,C4*%
X175689252Y-82045000D02*
X175166748Y-82045000D01*
X175689252Y-80575000D02*
X175166748Y-80575000D01*
%TO.C,J1*%
X167577000Y-94790000D02*
X167577000Y-92130000D01*
X164977000Y-94790000D02*
X164977000Y-93460000D01*
X167577000Y-92130000D02*
X175257000Y-92130000D01*
X175257000Y-94790000D02*
X175257000Y-92130000D01*
X167577000Y-94790000D02*
X175257000Y-94790000D01*
X166307000Y-94790000D02*
X164977000Y-94790000D01*
%TO.C,C3*%
X148874748Y-80575000D02*
X149397252Y-80575000D01*
X148874748Y-82045000D02*
X149397252Y-82045000D01*
%TO.C,C2*%
X151396000Y-90610000D02*
X151396000Y-82375000D01*
X146876000Y-82375000D02*
X146876000Y-90610000D01*
X151396000Y-82375000D02*
X146876000Y-82375000D01*
%TO.C,L1*%
X154970000Y-81690000D02*
X153870000Y-81690000D01*
X154970000Y-85910000D02*
X153870000Y-85910000D01*
%TO.C,U1*%
X156030000Y-89860000D02*
X156030000Y-88060000D01*
X152810000Y-88060000D02*
X152810000Y-90510000D01*
%TO.C,C1*%
X161988000Y-90610000D02*
X161988000Y-82375000D01*
X157468000Y-82375000D02*
X157468000Y-90610000D01*
X161988000Y-82375000D02*
X157468000Y-82375000D01*
%TO.C,C4*%
X159989252Y-82045000D02*
X159466748Y-82045000D01*
X159989252Y-80575000D02*
X159466748Y-80575000D01*
%TO.C,J1*%
X151877000Y-94790000D02*
X151877000Y-92130000D01*
X149277000Y-94790000D02*
X149277000Y-93460000D01*
X151877000Y-92130000D02*
X159557000Y-92130000D01*
X159557000Y-94790000D02*
X159557000Y-92130000D01*
X151877000Y-94790000D02*
X159557000Y-94790000D01*
X150607000Y-94790000D02*
X149277000Y-94790000D01*
%TO.C,C3*%
X133174748Y-80575000D02*
X133697252Y-80575000D01*
X133174748Y-82045000D02*
X133697252Y-82045000D01*
%TO.C,C2*%
X135696000Y-90610000D02*
X135696000Y-82375000D01*
X131176000Y-82375000D02*
X131176000Y-90610000D01*
X135696000Y-82375000D02*
X131176000Y-82375000D01*
%TO.C,L1*%
X139270000Y-81690000D02*
X138170000Y-81690000D01*
X139270000Y-85910000D02*
X138170000Y-85910000D01*
%TO.C,U1*%
X140330000Y-89860000D02*
X140330000Y-88060000D01*
X137110000Y-88060000D02*
X137110000Y-90510000D01*
%TO.C,C1*%
X146288000Y-90610000D02*
X146288000Y-82375000D01*
X141768000Y-82375000D02*
X141768000Y-90610000D01*
X146288000Y-82375000D02*
X141768000Y-82375000D01*
%TO.C,C4*%
X144289252Y-82045000D02*
X143766748Y-82045000D01*
X144289252Y-80575000D02*
X143766748Y-80575000D01*
%TO.C,J1*%
X136177000Y-94790000D02*
X136177000Y-92130000D01*
X133577000Y-94790000D02*
X133577000Y-93460000D01*
X136177000Y-92130000D02*
X143857000Y-92130000D01*
X143857000Y-94790000D02*
X143857000Y-92130000D01*
X136177000Y-94790000D02*
X143857000Y-94790000D01*
X134907000Y-94790000D02*
X133577000Y-94790000D01*
%TO.C,C3*%
X117474748Y-80575000D02*
X117997252Y-80575000D01*
X117474748Y-82045000D02*
X117997252Y-82045000D01*
%TO.C,C2*%
X119996000Y-90610000D02*
X119996000Y-82375000D01*
X115476000Y-82375000D02*
X115476000Y-90610000D01*
X119996000Y-82375000D02*
X115476000Y-82375000D01*
%TO.C,L1*%
X123570000Y-81690000D02*
X122470000Y-81690000D01*
X123570000Y-85910000D02*
X122470000Y-85910000D01*
%TO.C,U1*%
X124630000Y-89860000D02*
X124630000Y-88060000D01*
X121410000Y-88060000D02*
X121410000Y-90510000D01*
%TO.C,C1*%
X130588000Y-90610000D02*
X130588000Y-82375000D01*
X126068000Y-82375000D02*
X126068000Y-90610000D01*
X130588000Y-82375000D02*
X126068000Y-82375000D01*
%TO.C,C4*%
X128589252Y-82045000D02*
X128066748Y-82045000D01*
X128589252Y-80575000D02*
X128066748Y-80575000D01*
%TO.C,J1*%
X120477000Y-94790000D02*
X120477000Y-92130000D01*
X117877000Y-94790000D02*
X117877000Y-93460000D01*
X120477000Y-92130000D02*
X128157000Y-92130000D01*
X128157000Y-94790000D02*
X128157000Y-92130000D01*
X120477000Y-94790000D02*
X128157000Y-94790000D01*
X119207000Y-94790000D02*
X117877000Y-94790000D01*
%TO.C,C3*%
X101774748Y-80575000D02*
X102297252Y-80575000D01*
X101774748Y-82045000D02*
X102297252Y-82045000D01*
%TO.C,C2*%
X104296000Y-90610000D02*
X104296000Y-82375000D01*
X99776000Y-82375000D02*
X99776000Y-90610000D01*
X104296000Y-82375000D02*
X99776000Y-82375000D01*
%TO.C,L1*%
X107870000Y-81690000D02*
X106770000Y-81690000D01*
X107870000Y-85910000D02*
X106770000Y-85910000D01*
%TO.C,U1*%
X108930000Y-89860000D02*
X108930000Y-88060000D01*
X105710000Y-88060000D02*
X105710000Y-90510000D01*
%TO.C,C1*%
X114888000Y-90610000D02*
X114888000Y-82375000D01*
X110368000Y-82375000D02*
X110368000Y-90610000D01*
X114888000Y-82375000D02*
X110368000Y-82375000D01*
%TO.C,C4*%
X112889252Y-82045000D02*
X112366748Y-82045000D01*
X112889252Y-80575000D02*
X112366748Y-80575000D01*
%TO.C,J1*%
X104777000Y-94790000D02*
X104777000Y-92130000D01*
X102177000Y-94790000D02*
X102177000Y-93460000D01*
X104777000Y-92130000D02*
X112457000Y-92130000D01*
X112457000Y-94790000D02*
X112457000Y-92130000D01*
X104777000Y-94790000D02*
X112457000Y-94790000D01*
X103507000Y-94790000D02*
X102177000Y-94790000D01*
%TO.C,C3*%
X86074748Y-80575000D02*
X86597252Y-80575000D01*
X86074748Y-82045000D02*
X86597252Y-82045000D01*
%TO.C,C2*%
X88596000Y-90610000D02*
X88596000Y-82375000D01*
X84076000Y-82375000D02*
X84076000Y-90610000D01*
X88596000Y-82375000D02*
X84076000Y-82375000D01*
%TO.C,L1*%
X92170000Y-81690000D02*
X91070000Y-81690000D01*
X92170000Y-85910000D02*
X91070000Y-85910000D01*
%TO.C,U1*%
X93230000Y-89860000D02*
X93230000Y-88060000D01*
X90010000Y-88060000D02*
X90010000Y-90510000D01*
%TO.C,C1*%
X99188000Y-90610000D02*
X99188000Y-82375000D01*
X94668000Y-82375000D02*
X94668000Y-90610000D01*
X99188000Y-82375000D02*
X94668000Y-82375000D01*
%TO.C,C4*%
X97189252Y-82045000D02*
X96666748Y-82045000D01*
X97189252Y-80575000D02*
X96666748Y-80575000D01*
%TO.C,J1*%
X89077000Y-94790000D02*
X89077000Y-92130000D01*
X86477000Y-94790000D02*
X86477000Y-93460000D01*
X89077000Y-92130000D02*
X96757000Y-92130000D01*
X96757000Y-94790000D02*
X96757000Y-92130000D01*
X89077000Y-94790000D02*
X96757000Y-94790000D01*
X87807000Y-94790000D02*
X86477000Y-94790000D01*
%TO.C,C3*%
X164574748Y-64875000D02*
X165097252Y-64875000D01*
X164574748Y-66345000D02*
X165097252Y-66345000D01*
%TO.C,C2*%
X167096000Y-74910000D02*
X167096000Y-66675000D01*
X162576000Y-66675000D02*
X162576000Y-74910000D01*
X167096000Y-66675000D02*
X162576000Y-66675000D01*
%TO.C,L1*%
X170670000Y-65990000D02*
X169570000Y-65990000D01*
X170670000Y-70210000D02*
X169570000Y-70210000D01*
%TO.C,U1*%
X171730000Y-74160000D02*
X171730000Y-72360000D01*
X168510000Y-72360000D02*
X168510000Y-74810000D01*
%TO.C,C1*%
X177688000Y-74910000D02*
X177688000Y-66675000D01*
X173168000Y-66675000D02*
X173168000Y-74910000D01*
X177688000Y-66675000D02*
X173168000Y-66675000D01*
%TO.C,C4*%
X175689252Y-66345000D02*
X175166748Y-66345000D01*
X175689252Y-64875000D02*
X175166748Y-64875000D01*
%TO.C,J1*%
X167577000Y-79090000D02*
X167577000Y-76430000D01*
X164977000Y-79090000D02*
X164977000Y-77760000D01*
X167577000Y-76430000D02*
X175257000Y-76430000D01*
X175257000Y-79090000D02*
X175257000Y-76430000D01*
X167577000Y-79090000D02*
X175257000Y-79090000D01*
X166307000Y-79090000D02*
X164977000Y-79090000D01*
%TO.C,C3*%
X148874748Y-64875000D02*
X149397252Y-64875000D01*
X148874748Y-66345000D02*
X149397252Y-66345000D01*
%TO.C,C2*%
X151396000Y-74910000D02*
X151396000Y-66675000D01*
X146876000Y-66675000D02*
X146876000Y-74910000D01*
X151396000Y-66675000D02*
X146876000Y-66675000D01*
%TO.C,L1*%
X154970000Y-65990000D02*
X153870000Y-65990000D01*
X154970000Y-70210000D02*
X153870000Y-70210000D01*
%TO.C,U1*%
X156030000Y-74160000D02*
X156030000Y-72360000D01*
X152810000Y-72360000D02*
X152810000Y-74810000D01*
%TO.C,C1*%
X161988000Y-74910000D02*
X161988000Y-66675000D01*
X157468000Y-66675000D02*
X157468000Y-74910000D01*
X161988000Y-66675000D02*
X157468000Y-66675000D01*
%TO.C,C4*%
X159989252Y-66345000D02*
X159466748Y-66345000D01*
X159989252Y-64875000D02*
X159466748Y-64875000D01*
%TO.C,J1*%
X151877000Y-79090000D02*
X151877000Y-76430000D01*
X149277000Y-79090000D02*
X149277000Y-77760000D01*
X151877000Y-76430000D02*
X159557000Y-76430000D01*
X159557000Y-79090000D02*
X159557000Y-76430000D01*
X151877000Y-79090000D02*
X159557000Y-79090000D01*
X150607000Y-79090000D02*
X149277000Y-79090000D01*
%TO.C,C3*%
X133174748Y-64875000D02*
X133697252Y-64875000D01*
X133174748Y-66345000D02*
X133697252Y-66345000D01*
%TO.C,C2*%
X135696000Y-74910000D02*
X135696000Y-66675000D01*
X131176000Y-66675000D02*
X131176000Y-74910000D01*
X135696000Y-66675000D02*
X131176000Y-66675000D01*
%TO.C,L1*%
X139270000Y-65990000D02*
X138170000Y-65990000D01*
X139270000Y-70210000D02*
X138170000Y-70210000D01*
%TO.C,U1*%
X140330000Y-74160000D02*
X140330000Y-72360000D01*
X137110000Y-72360000D02*
X137110000Y-74810000D01*
%TO.C,C1*%
X146288000Y-74910000D02*
X146288000Y-66675000D01*
X141768000Y-66675000D02*
X141768000Y-74910000D01*
X146288000Y-66675000D02*
X141768000Y-66675000D01*
%TO.C,C4*%
X144289252Y-66345000D02*
X143766748Y-66345000D01*
X144289252Y-64875000D02*
X143766748Y-64875000D01*
%TO.C,J1*%
X136177000Y-79090000D02*
X136177000Y-76430000D01*
X133577000Y-79090000D02*
X133577000Y-77760000D01*
X136177000Y-76430000D02*
X143857000Y-76430000D01*
X143857000Y-79090000D02*
X143857000Y-76430000D01*
X136177000Y-79090000D02*
X143857000Y-79090000D01*
X134907000Y-79090000D02*
X133577000Y-79090000D01*
%TO.C,C3*%
X117474748Y-64875000D02*
X117997252Y-64875000D01*
X117474748Y-66345000D02*
X117997252Y-66345000D01*
%TO.C,C2*%
X119996000Y-74910000D02*
X119996000Y-66675000D01*
X115476000Y-66675000D02*
X115476000Y-74910000D01*
X119996000Y-66675000D02*
X115476000Y-66675000D01*
%TO.C,L1*%
X123570000Y-65990000D02*
X122470000Y-65990000D01*
X123570000Y-70210000D02*
X122470000Y-70210000D01*
%TO.C,U1*%
X124630000Y-74160000D02*
X124630000Y-72360000D01*
X121410000Y-72360000D02*
X121410000Y-74810000D01*
%TO.C,C1*%
X130588000Y-74910000D02*
X130588000Y-66675000D01*
X126068000Y-66675000D02*
X126068000Y-74910000D01*
X130588000Y-66675000D02*
X126068000Y-66675000D01*
%TO.C,C4*%
X128589252Y-66345000D02*
X128066748Y-66345000D01*
X128589252Y-64875000D02*
X128066748Y-64875000D01*
%TO.C,J1*%
X120477000Y-79090000D02*
X120477000Y-76430000D01*
X117877000Y-79090000D02*
X117877000Y-77760000D01*
X120477000Y-76430000D02*
X128157000Y-76430000D01*
X128157000Y-79090000D02*
X128157000Y-76430000D01*
X120477000Y-79090000D02*
X128157000Y-79090000D01*
X119207000Y-79090000D02*
X117877000Y-79090000D01*
%TO.C,C3*%
X101774748Y-64875000D02*
X102297252Y-64875000D01*
X101774748Y-66345000D02*
X102297252Y-66345000D01*
%TO.C,C2*%
X104296000Y-74910000D02*
X104296000Y-66675000D01*
X99776000Y-66675000D02*
X99776000Y-74910000D01*
X104296000Y-66675000D02*
X99776000Y-66675000D01*
%TO.C,L1*%
X107870000Y-65990000D02*
X106770000Y-65990000D01*
X107870000Y-70210000D02*
X106770000Y-70210000D01*
%TO.C,U1*%
X108930000Y-74160000D02*
X108930000Y-72360000D01*
X105710000Y-72360000D02*
X105710000Y-74810000D01*
%TO.C,C1*%
X114888000Y-74910000D02*
X114888000Y-66675000D01*
X110368000Y-66675000D02*
X110368000Y-74910000D01*
X114888000Y-66675000D02*
X110368000Y-66675000D01*
%TO.C,C4*%
X112889252Y-66345000D02*
X112366748Y-66345000D01*
X112889252Y-64875000D02*
X112366748Y-64875000D01*
%TO.C,J1*%
X104777000Y-79090000D02*
X104777000Y-76430000D01*
X102177000Y-79090000D02*
X102177000Y-77760000D01*
X104777000Y-76430000D02*
X112457000Y-76430000D01*
X112457000Y-79090000D02*
X112457000Y-76430000D01*
X104777000Y-79090000D02*
X112457000Y-79090000D01*
X103507000Y-79090000D02*
X102177000Y-79090000D01*
%TO.C,C3*%
X86074748Y-64875000D02*
X86597252Y-64875000D01*
X86074748Y-66345000D02*
X86597252Y-66345000D01*
%TO.C,C2*%
X88596000Y-74910000D02*
X88596000Y-66675000D01*
X84076000Y-66675000D02*
X84076000Y-74910000D01*
X88596000Y-66675000D02*
X84076000Y-66675000D01*
%TO.C,L1*%
X92170000Y-65990000D02*
X91070000Y-65990000D01*
X92170000Y-70210000D02*
X91070000Y-70210000D01*
%TO.C,U1*%
X93230000Y-74160000D02*
X93230000Y-72360000D01*
X90010000Y-72360000D02*
X90010000Y-74810000D01*
%TO.C,C1*%
X99188000Y-74910000D02*
X99188000Y-66675000D01*
X94668000Y-66675000D02*
X94668000Y-74910000D01*
X99188000Y-66675000D02*
X94668000Y-66675000D01*
%TO.C,C4*%
X97189252Y-66345000D02*
X96666748Y-66345000D01*
X97189252Y-64875000D02*
X96666748Y-64875000D01*
%TO.C,J1*%
X89077000Y-79090000D02*
X89077000Y-76430000D01*
X86477000Y-79090000D02*
X86477000Y-77760000D01*
X89077000Y-76430000D02*
X96757000Y-76430000D01*
X96757000Y-79090000D02*
X96757000Y-76430000D01*
X89077000Y-79090000D02*
X96757000Y-79090000D01*
X87807000Y-79090000D02*
X86477000Y-79090000D01*
%TO.C,C3*%
X164574748Y-49175000D02*
X165097252Y-49175000D01*
X164574748Y-50645000D02*
X165097252Y-50645000D01*
%TO.C,C2*%
X167096000Y-59210000D02*
X167096000Y-50975000D01*
X162576000Y-50975000D02*
X162576000Y-59210000D01*
X167096000Y-50975000D02*
X162576000Y-50975000D01*
%TO.C,L1*%
X170670000Y-50290000D02*
X169570000Y-50290000D01*
X170670000Y-54510000D02*
X169570000Y-54510000D01*
%TO.C,U1*%
X171730000Y-58460000D02*
X171730000Y-56660000D01*
X168510000Y-56660000D02*
X168510000Y-59110000D01*
%TO.C,C1*%
X177688000Y-59210000D02*
X177688000Y-50975000D01*
X173168000Y-50975000D02*
X173168000Y-59210000D01*
X177688000Y-50975000D02*
X173168000Y-50975000D01*
%TO.C,C4*%
X175689252Y-50645000D02*
X175166748Y-50645000D01*
X175689252Y-49175000D02*
X175166748Y-49175000D01*
%TO.C,J1*%
X167577000Y-63390000D02*
X167577000Y-60730000D01*
X164977000Y-63390000D02*
X164977000Y-62060000D01*
X167577000Y-60730000D02*
X175257000Y-60730000D01*
X175257000Y-63390000D02*
X175257000Y-60730000D01*
X167577000Y-63390000D02*
X175257000Y-63390000D01*
X166307000Y-63390000D02*
X164977000Y-63390000D01*
%TO.C,C3*%
X148874748Y-49175000D02*
X149397252Y-49175000D01*
X148874748Y-50645000D02*
X149397252Y-50645000D01*
%TO.C,C2*%
X151396000Y-59210000D02*
X151396000Y-50975000D01*
X146876000Y-50975000D02*
X146876000Y-59210000D01*
X151396000Y-50975000D02*
X146876000Y-50975000D01*
%TO.C,L1*%
X154970000Y-50290000D02*
X153870000Y-50290000D01*
X154970000Y-54510000D02*
X153870000Y-54510000D01*
%TO.C,U1*%
X156030000Y-58460000D02*
X156030000Y-56660000D01*
X152810000Y-56660000D02*
X152810000Y-59110000D01*
%TO.C,C1*%
X161988000Y-59210000D02*
X161988000Y-50975000D01*
X157468000Y-50975000D02*
X157468000Y-59210000D01*
X161988000Y-50975000D02*
X157468000Y-50975000D01*
%TO.C,C4*%
X159989252Y-50645000D02*
X159466748Y-50645000D01*
X159989252Y-49175000D02*
X159466748Y-49175000D01*
%TO.C,J1*%
X151877000Y-63390000D02*
X151877000Y-60730000D01*
X149277000Y-63390000D02*
X149277000Y-62060000D01*
X151877000Y-60730000D02*
X159557000Y-60730000D01*
X159557000Y-63390000D02*
X159557000Y-60730000D01*
X151877000Y-63390000D02*
X159557000Y-63390000D01*
X150607000Y-63390000D02*
X149277000Y-63390000D01*
%TO.C,C3*%
X133174748Y-49175000D02*
X133697252Y-49175000D01*
X133174748Y-50645000D02*
X133697252Y-50645000D01*
%TO.C,C2*%
X135696000Y-59210000D02*
X135696000Y-50975000D01*
X131176000Y-50975000D02*
X131176000Y-59210000D01*
X135696000Y-50975000D02*
X131176000Y-50975000D01*
%TO.C,L1*%
X139270000Y-50290000D02*
X138170000Y-50290000D01*
X139270000Y-54510000D02*
X138170000Y-54510000D01*
%TO.C,U1*%
X140330000Y-58460000D02*
X140330000Y-56660000D01*
X137110000Y-56660000D02*
X137110000Y-59110000D01*
%TO.C,C1*%
X146288000Y-59210000D02*
X146288000Y-50975000D01*
X141768000Y-50975000D02*
X141768000Y-59210000D01*
X146288000Y-50975000D02*
X141768000Y-50975000D01*
%TO.C,C4*%
X144289252Y-50645000D02*
X143766748Y-50645000D01*
X144289252Y-49175000D02*
X143766748Y-49175000D01*
%TO.C,J1*%
X136177000Y-63390000D02*
X136177000Y-60730000D01*
X133577000Y-63390000D02*
X133577000Y-62060000D01*
X136177000Y-60730000D02*
X143857000Y-60730000D01*
X143857000Y-63390000D02*
X143857000Y-60730000D01*
X136177000Y-63390000D02*
X143857000Y-63390000D01*
X134907000Y-63390000D02*
X133577000Y-63390000D01*
%TO.C,C3*%
X117474748Y-49175000D02*
X117997252Y-49175000D01*
X117474748Y-50645000D02*
X117997252Y-50645000D01*
%TO.C,C2*%
X119996000Y-59210000D02*
X119996000Y-50975000D01*
X115476000Y-50975000D02*
X115476000Y-59210000D01*
X119996000Y-50975000D02*
X115476000Y-50975000D01*
%TO.C,L1*%
X123570000Y-50290000D02*
X122470000Y-50290000D01*
X123570000Y-54510000D02*
X122470000Y-54510000D01*
%TO.C,U1*%
X124630000Y-58460000D02*
X124630000Y-56660000D01*
X121410000Y-56660000D02*
X121410000Y-59110000D01*
%TO.C,C1*%
X130588000Y-59210000D02*
X130588000Y-50975000D01*
X126068000Y-50975000D02*
X126068000Y-59210000D01*
X130588000Y-50975000D02*
X126068000Y-50975000D01*
%TO.C,C4*%
X128589252Y-50645000D02*
X128066748Y-50645000D01*
X128589252Y-49175000D02*
X128066748Y-49175000D01*
%TO.C,J1*%
X120477000Y-63390000D02*
X120477000Y-60730000D01*
X117877000Y-63390000D02*
X117877000Y-62060000D01*
X120477000Y-60730000D02*
X128157000Y-60730000D01*
X128157000Y-63390000D02*
X128157000Y-60730000D01*
X120477000Y-63390000D02*
X128157000Y-63390000D01*
X119207000Y-63390000D02*
X117877000Y-63390000D01*
%TO.C,C3*%
X101774748Y-49175000D02*
X102297252Y-49175000D01*
X101774748Y-50645000D02*
X102297252Y-50645000D01*
%TO.C,C2*%
X104296000Y-59210000D02*
X104296000Y-50975000D01*
X99776000Y-50975000D02*
X99776000Y-59210000D01*
X104296000Y-50975000D02*
X99776000Y-50975000D01*
%TO.C,L1*%
X107870000Y-50290000D02*
X106770000Y-50290000D01*
X107870000Y-54510000D02*
X106770000Y-54510000D01*
%TO.C,U1*%
X108930000Y-58460000D02*
X108930000Y-56660000D01*
X105710000Y-56660000D02*
X105710000Y-59110000D01*
%TO.C,C1*%
X114888000Y-59210000D02*
X114888000Y-50975000D01*
X110368000Y-50975000D02*
X110368000Y-59210000D01*
X114888000Y-50975000D02*
X110368000Y-50975000D01*
%TO.C,C4*%
X112889252Y-50645000D02*
X112366748Y-50645000D01*
X112889252Y-49175000D02*
X112366748Y-49175000D01*
%TO.C,J1*%
X104777000Y-63390000D02*
X104777000Y-60730000D01*
X102177000Y-63390000D02*
X102177000Y-62060000D01*
X104777000Y-60730000D02*
X112457000Y-60730000D01*
X112457000Y-63390000D02*
X112457000Y-60730000D01*
X104777000Y-63390000D02*
X112457000Y-63390000D01*
X103507000Y-63390000D02*
X102177000Y-63390000D01*
X89077000Y-63390000D02*
X89077000Y-60730000D01*
X86477000Y-63390000D02*
X86477000Y-62060000D01*
X89077000Y-60730000D02*
X96757000Y-60730000D01*
X96757000Y-63390000D02*
X96757000Y-60730000D01*
X89077000Y-63390000D02*
X96757000Y-63390000D01*
X87807000Y-63390000D02*
X86477000Y-63390000D01*
%TO.C,C4*%
X97189252Y-50645000D02*
X96666748Y-50645000D01*
X97189252Y-49175000D02*
X96666748Y-49175000D01*
%TO.C,C1*%
X99188000Y-59210000D02*
X99188000Y-50975000D01*
X94668000Y-50975000D02*
X94668000Y-59210000D01*
X99188000Y-50975000D02*
X94668000Y-50975000D01*
%TO.C,U1*%
X93230000Y-58460000D02*
X93230000Y-56660000D01*
X90010000Y-56660000D02*
X90010000Y-59110000D01*
%TO.C,C2*%
X88596000Y-59210000D02*
X88596000Y-50975000D01*
X84076000Y-50975000D02*
X84076000Y-59210000D01*
X88596000Y-50975000D02*
X84076000Y-50975000D01*
%TO.C,L1*%
X92170000Y-50290000D02*
X91070000Y-50290000D01*
X92170000Y-54510000D02*
X91070000Y-54510000D01*
%TO.C,C3*%
X86074748Y-49175000D02*
X86597252Y-49175000D01*
X86074748Y-50645000D02*
X86597252Y-50645000D01*
%TD*%
M02*
