M48
; DRILL file {KiCad 6.0.11-2627ca5db0~126~ubuntu20.04.1} date mar 18 abr 2023 12:28:45
; FORMAT={-:-/ absolute / metric / decimal}
; #@! TF.CreationDate,2023-04-18T12:28:45-05:00
; #@! TF.GenerationSoftware,Kicad,Pcbnew,6.0.11-2627ca5db0~126~ubuntu20.04.1
; #@! TF.FileFunction,Plated,1,2,PTH
FMAT,2
METRIC
; #@! TA.AperFunction,Plated,PTH,ComponentDrill
T1C1.000
%
G90
G05
T1
X87.807Y-62.06
X87.807Y-77.76
X87.807Y-93.46
X87.807Y-109.16
X87.807Y-124.86
X87.807Y-140.56
X90.347Y-62.06
X90.347Y-77.76
X90.347Y-93.46
X90.347Y-109.16
X90.347Y-124.86
X90.347Y-140.56
X92.887Y-62.06
X92.887Y-77.76
X92.887Y-93.46
X92.887Y-109.16
X92.887Y-124.86
X92.887Y-140.56
X95.427Y-62.06
X95.427Y-77.76
X95.427Y-93.46
X95.427Y-109.16
X95.427Y-124.86
X95.427Y-140.56
X103.507Y-62.06
X103.507Y-77.76
X103.507Y-93.46
X103.507Y-109.16
X103.507Y-124.86
X103.507Y-140.56
X106.047Y-62.06
X106.047Y-77.76
X106.047Y-93.46
X106.047Y-109.16
X106.047Y-124.86
X106.047Y-140.56
X108.587Y-62.06
X108.587Y-77.76
X108.587Y-93.46
X108.587Y-109.16
X108.587Y-124.86
X108.587Y-140.56
X111.127Y-62.06
X111.127Y-77.76
X111.127Y-93.46
X111.127Y-109.16
X111.127Y-124.86
X111.127Y-140.56
X119.207Y-62.06
X119.207Y-77.76
X119.207Y-93.46
X119.207Y-109.16
X119.207Y-124.86
X119.207Y-140.56
X121.747Y-62.06
X121.747Y-77.76
X121.747Y-93.46
X121.747Y-109.16
X121.747Y-124.86
X121.747Y-140.56
X124.287Y-62.06
X124.287Y-77.76
X124.287Y-93.46
X124.287Y-109.16
X124.287Y-124.86
X124.287Y-140.56
X126.827Y-62.06
X126.827Y-77.76
X126.827Y-93.46
X126.827Y-109.16
X126.827Y-124.86
X126.827Y-140.56
X134.907Y-62.06
X134.907Y-77.76
X134.907Y-93.46
X134.907Y-109.16
X134.907Y-124.86
X134.907Y-140.56
X137.447Y-62.06
X137.447Y-77.76
X137.447Y-93.46
X137.447Y-109.16
X137.447Y-124.86
X137.447Y-140.56
X139.987Y-62.06
X139.987Y-77.76
X139.987Y-93.46
X139.987Y-109.16
X139.987Y-124.86
X139.987Y-140.56
X142.527Y-62.06
X142.527Y-77.76
X142.527Y-93.46
X142.527Y-109.16
X142.527Y-124.86
X142.527Y-140.56
X150.607Y-62.06
X150.607Y-77.76
X150.607Y-93.46
X150.607Y-109.16
X150.607Y-124.86
X150.607Y-140.56
X153.147Y-62.06
X153.147Y-77.76
X153.147Y-93.46
X153.147Y-109.16
X153.147Y-124.86
X153.147Y-140.56
X155.687Y-62.06
X155.687Y-77.76
X155.687Y-93.46
X155.687Y-109.16
X155.687Y-124.86
X155.687Y-140.56
X158.227Y-62.06
X158.227Y-77.76
X158.227Y-93.46
X158.227Y-109.16
X158.227Y-124.86
X158.227Y-140.56
X166.307Y-62.06
X166.307Y-77.76
X166.307Y-93.46
X166.307Y-109.16
X166.307Y-124.86
X166.307Y-140.56
X168.847Y-62.06
X168.847Y-77.76
X168.847Y-93.46
X168.847Y-109.16
X168.847Y-124.86
X168.847Y-140.56
X171.387Y-62.06
X171.387Y-77.76
X171.387Y-93.46
X171.387Y-109.16
X171.387Y-124.86
X171.387Y-140.56
X173.927Y-62.06
X173.927Y-77.76
X173.927Y-93.46
X173.927Y-109.16
X173.927Y-124.86
X173.927Y-140.56
T0
M30
